<svg id="Ebene_1" data-name="Ebene 1" xmlns="http://www.w3.org/2000/svg" viewBox="0 0 199.94 43.39"><defs><style>.cls-1{fill:#686868;}</style></defs><title>dh-electronics</title><g id="dh-electronics"><g id="grey"><path class="cls-1" d="M3.15,58.1a1.19,1.19,0,1,1,0-1.68,1.2,1.2,0,0,1,0,1.68M26.36,28.52H8V57.15l4.8,5.06V33.33H26.68a3.11,3.11,0,0,1,2.76,3.14V61.8a3.08,3.08,0,0,1-2.74,3.06l-13.88,0h0L4,55.67A2.27,2.27,0,1,0,.69,58.81a2.17,2.17,0,0,0,.7.49l6.78,3.32a5.72,5.72,0,0,1,.95.73c.59.63,6.08,6.34,6.08,6.34H26.36a7.88,7.88,0,0,0,7.88-7.82V36.41a7.89,7.89,0,0,0-7.88-7.89" transform="translate(-0.06 -28.52)"/><path class="cls-1" d="M73.86,39.15a1.18,1.18,0,1,1,0-1.68,1.19,1.19,0,0,1,0,1.68m.72-2.46a2.29,2.29,0,0,0-3.22.07l-9.8,10.48h-18V28.52H38.78V69.65h4.81V52H59.22l.05-.11,7.89-8.22,6.78-3.31a2.14,2.14,0,0,0,.7-.5,2.27,2.27,0,0,0-.06-3.21" transform="translate(-0.06 -28.52)"/><path class="cls-1" d="M58.44,28.52h0v7.26h0V45.5h.83l4-4.19V35.78a7.88,7.88,0,0,0-4.8-7.26" transform="translate(-0.06 -28.52)"/><path class="cls-1" d="M58.44,54.71v15h0l.05,0h4.75v-20Z" transform="translate(-0.06 -28.52)"/><path class="cls-1" d="M79.59,48.13A3.52,3.52,0,0,1,80,46.77a3.87,3.87,0,0,1,.81-1.1,3.66,3.66,0,0,1,1.16-.74,3.78,3.78,0,0,1,1.42-.27,3.57,3.57,0,0,1,1.45.27,3,3,0,0,1,1,.74,3.4,3.4,0,0,1,.63,1.1,5,5,0,0,1,.24,1.36Zm9.12-1.67a5.66,5.66,0,0,0-1.15-2,4.82,4.82,0,0,0-1.82-1.27,6.57,6.57,0,0,0-4.83,0,5.86,5.86,0,0,0-2,1.33,6,6,0,0,0-1.3,2.06,7.27,7.27,0,0,0-.47,2.63,7,7,0,0,0,.48,2.64,6,6,0,0,0,1.31,2,5.8,5.8,0,0,0,2,1.31,7.14,7.14,0,0,0,5.41-.15,6,6,0,0,0,2.25-1.93L87,51.78a4.3,4.3,0,0,1-1.39,1.32,4,4,0,0,1-4.79-.52,4,4,0,0,1-.84-1.18,3.81,3.81,0,0,1-.34-1.46h9.5a2.83,2.83,0,0,0,0-.41v-.42a8.1,8.1,0,0,0-.41-2.65m6.1-10.69H92.44V55.36h2.37Zm5.77,12.36a3.72,3.72,0,0,1,.37-1.36,4,4,0,0,1,.8-1.1,3.74,3.74,0,0,1,2.59-1,3.64,3.64,0,0,1,1.45.27,3,3,0,0,1,1,.74,3.07,3.07,0,0,1,.63,1.1,5,5,0,0,1,.24,1.36Zm9.12-1.67a5.8,5.8,0,0,0-1.14-2,5,5,0,0,0-1.82-1.27,6.36,6.36,0,0,0-2.39-.44,6.22,6.22,0,0,0-2.45.48,5.85,5.85,0,0,0-3.27,3.39,7.27,7.27,0,0,0-.47,2.63,7,7,0,0,0,.48,2.64,6.12,6.12,0,0,0,1.31,2,5.89,5.89,0,0,0,2,1.31,6.76,6.76,0,0,0,2.52.46,6.68,6.68,0,0,0,2.89-.61,6,6,0,0,0,2.25-1.93l-1.66-1.37a4.3,4.3,0,0,1-1.39,1.32,3.9,3.9,0,0,1-6-3.16h9.5a2.83,2.83,0,0,0,0-.41v-.42a8.1,8.1,0,0,0-.41-2.65m13.76-1.7a4.46,4.46,0,0,0-2-1.5,6.45,6.45,0,0,0-2.51-.52,6.78,6.78,0,0,0-2.53.47,5.85,5.85,0,0,0-2,1.32,6.08,6.08,0,0,0-1.34,2,7.51,7.51,0,0,0,0,5.31,5.93,5.93,0,0,0,3.38,3.35,6.86,6.86,0,0,0,2.56.46,6.37,6.37,0,0,0,2.57-.5,5.16,5.16,0,0,0,1.89-1.41L121.9,52.3a3.37,3.37,0,0,1-1.22,1,3.63,3.63,0,0,1-1.65.37,3.56,3.56,0,0,1-1.66-.37,3.69,3.69,0,0,1-1.24-1,4.18,4.18,0,0,1-.77-1.41,5.52,5.52,0,0,1-.26-1.68,5.58,5.58,0,0,1,.26-1.69,4.38,4.38,0,0,1,.77-1.41,3.85,3.85,0,0,1,1.22-1,3.64,3.64,0,0,1,1.65-.36,3.41,3.41,0,0,1,1.62.4,2.93,2.93,0,0,1,1.13,1Zm8.22-1.68H128.5V39.55h-2.34v3.53h-2.29v2h2.29v6.66a4.08,4.08,0,0,0,.9,2.88,3.37,3.37,0,0,0,2.58,1,6.18,6.18,0,0,0,1.07-.09,5.86,5.86,0,0,0,.94-.24l-.07-2a2.71,2.71,0,0,1-.68.22,4.6,4.6,0,0,1-.71.07,1.57,1.57,0,0,1-1.28-.48,2.47,2.47,0,0,1-.41-1.59V45.07h3.18Zm2.44,2.64v9.64h2.37V48.91a5.21,5.21,0,0,1,.21-1.49,3.52,3.52,0,0,1,.61-1.26,3.18,3.18,0,0,1,1.05-.87,3.28,3.28,0,0,1,1.49-.32,4.21,4.21,0,0,1,1.08.13l.1-2.26a3.53,3.53,0,0,0-.93-.1,3.76,3.76,0,0,0-2.18.66,4.21,4.21,0,0,0-1.48,1.75h-.07c0-.26,0-.59,0-1s0-.76-.07-1.07H134c0,.39.06.85.08,1.37s0,.94,0,1.27m20.28.87a6.13,6.13,0,0,0-1.36-2A6.25,6.25,0,0,0,151,43.22a7,7,0,0,0-5.09,0,6.06,6.06,0,0,0-2,1.33,6.26,6.26,0,0,0-1.35,2,6.8,6.8,0,0,0-.49,2.6,7,7,0,0,0,.49,2.62,6.46,6.46,0,0,0,1.35,2.06,5.94,5.94,0,0,0,2,1.34,7,7,0,0,0,5.09,0A6.12,6.12,0,0,0,153,53.87a6.32,6.32,0,0,0,1.36-2.06,6.79,6.79,0,0,0,.49-2.62,6.62,6.62,0,0,0-.49-2.6m-2.24,4.29a4.35,4.35,0,0,1-.78,1.42,3.59,3.59,0,0,1-1.25,1,3.83,3.83,0,0,1-1.7.36,3.9,3.9,0,0,1-1.71-.36,3.69,3.69,0,0,1-1.25-1,4.15,4.15,0,0,1-.77-1.42,5.19,5.19,0,0,1-.27-1.68,5.28,5.28,0,0,1,.27-1.68,4.06,4.06,0,0,1,.77-1.4,3.63,3.63,0,0,1,1.25-1,3.9,3.9,0,0,1,1.71-.36,3.83,3.83,0,0,1,1.7.36,3.54,3.54,0,0,1,1.25,1,4.25,4.25,0,0,1,.78,1.4,5.57,5.57,0,0,1,.26,1.68,5.47,5.47,0,0,1-.26,1.68m5.91-7.8c0,.39.05.85.07,1.37s0,.94,0,1.27v9.64h2.37V48.83a4.49,4.49,0,0,1,.89-2.94,2.82,2.82,0,0,1,2.31-1.1,2.66,2.66,0,0,1,1.36.31,2.2,2.2,0,0,1,.83.83,3.35,3.35,0,0,1,.41,1.19,8.08,8.08,0,0,1,.12,1.42v6.82h2.37V47.74a6.74,6.74,0,0,0-.27-1.94,4.25,4.25,0,0,0-.82-1.58,4.1,4.1,0,0,0-1.38-1.08,4.53,4.53,0,0,0-2-.4,4.36,4.36,0,0,0-1.26.18,4,4,0,0,0-1.11.51,4.08,4.08,0,0,0-.9.75,3.43,3.43,0,0,0-.61.92h-.08c0-.26,0-.59,0-1s0-.74-.07-1.05Zm17.16,0h-2.37V55.36h2.37Zm-.09-5.56a1.54,1.54,0,0,0-1.11-.45,1.5,1.5,0,0,0-1.1.45,1.54,1.54,0,0,0-.45,1.13A1.54,1.54,0,0,0,174,40.2a1.57,1.57,0,0,0,1.11-.44,1.46,1.46,0,0,0,.47-1.11,1.52,1.52,0,0,0-.47-1.13m14.3,7.24a4.55,4.55,0,0,0-2-1.5,6.37,6.37,0,0,0-2.5-.52,6.83,6.83,0,0,0-2.54.47,5.94,5.94,0,0,0-2,1.32,6.06,6.06,0,0,0-1.33,2,7.06,7.06,0,0,0-.48,2.65,6.85,6.85,0,0,0,.49,2.66,5.93,5.93,0,0,0,3.38,3.35,6.86,6.86,0,0,0,2.56.46,6.4,6.4,0,0,0,2.57-.5,5.33,5.33,0,0,0,1.89-1.41l-1.59-1.48a3.46,3.46,0,0,1-1.22,1,3.91,3.91,0,0,1-3.32,0,3.56,3.56,0,0,1-1.23-1,4.18,4.18,0,0,1-.77-1.41,5.23,5.23,0,0,1-.27-1.68,5.29,5.29,0,0,1,.27-1.69,4.38,4.38,0,0,1,.77-1.41,3.75,3.75,0,0,1,1.22-1,3.64,3.64,0,0,1,1.65-.36,3.34,3.34,0,0,1,1.61.4,2.89,2.89,0,0,1,1.14,1Zm10.46,0a4.12,4.12,0,0,0-1.85-1.5,6.28,6.28,0,0,0-4.15-.3,4.39,4.39,0,0,0-1.43.67,3.42,3.42,0,0,0-1,1.17,3.47,3.47,0,0,0-.39,1.7,2.94,2.94,0,0,0,.32,1.43,3,3,0,0,0,.82,1,4,4,0,0,0,1.12.6,12.16,12.16,0,0,0,1.22.38,10.07,10.07,0,0,1,2.33.78,1.35,1.35,0,0,1,.8,1.27,1.57,1.57,0,0,1-.21.85,1.5,1.5,0,0,1-.54.55,2.6,2.6,0,0,1-.75.29,4.14,4.14,0,0,1-.87.09,3.64,3.64,0,0,1-1.86-.49A3.89,3.89,0,0,1,192.11,52l-1.69,1.48a5.2,5.2,0,0,0,2.16,1.66,6.84,6.84,0,0,0,2.66.54,7.91,7.91,0,0,0,1.76-.2,4.44,4.44,0,0,0,1.53-.69,3.64,3.64,0,0,0,1.07-1.23,3.85,3.85,0,0,0,.4-1.84,3.07,3.07,0,0,0-.3-1.4,3,3,0,0,0-.85-1,5,5,0,0,0-1.27-.72A12.94,12.94,0,0,0,196,48.1a8.14,8.14,0,0,1-2-.68,1.25,1.25,0,0,1-.68-1.16,1.34,1.34,0,0,1,.19-.74A1.67,1.67,0,0,1,194,45a2.3,2.3,0,0,1,.72-.28,3.72,3.72,0,0,1,.81-.09,3.15,3.15,0,0,1,2.77,1.53Z" transform="translate(-0.06 -28.52)"/><path class="cls-1" d="M80,66.78v2.89h-.75V66.78l-2.09-4.13H78L79.64,66l1.64-3.37h.8Z" transform="translate(-0.06 -28.52)"/><path class="cls-1" d="M85.41,67.25a5.55,5.55,0,0,0-.06-.82,1.15,1.15,0,0,0-.33-.68,1.28,1.28,0,0,0-1.76,0,1.15,1.15,0,0,0-.33.68,4.47,4.47,0,0,0-.07.82c0,.14,0,.28,0,.41s0,.28,0,.41a2.29,2.29,0,0,0,.12.37,1.1,1.1,0,0,0,.22.31,1.22,1.22,0,0,0,2.09-.68,5.55,5.55,0,0,0,.06-.82m.71,0A4.53,4.53,0,0,1,86,68.31a1.77,1.77,0,0,1-.47.87,1.86,1.86,0,0,1-1.39.55,2.14,2.14,0,0,1-.79-.14,2.11,2.11,0,0,1-.61-.41,1.73,1.73,0,0,1-.3-.41,2.54,2.54,0,0,1-.17-.46,2.09,2.09,0,0,1-.09-.51,4.93,4.93,0,0,1,0-.55,5.07,5.07,0,0,1,.11-1.06,1.71,1.71,0,0,1,.48-.87,2.11,2.11,0,0,1,.61-.41,2.13,2.13,0,0,1,1.57,0,2.11,2.11,0,0,1,.61.41,1.71,1.71,0,0,1,.48.87,5.07,5.07,0,0,1,.11,1.06" transform="translate(-0.06 -28.52)"/><path class="cls-1" d="M90.7,69.67v-.54a1.64,1.64,0,0,1-.6.45,2,2,0,0,1-.77.15,1.69,1.69,0,0,1-1.25-.45,1.58,1.58,0,0,1-.38-.6,2.53,2.53,0,0,1-.11-.76v-3.1h.71v3a1.32,1.32,0,0,0,.31,1,1.14,1.14,0,0,0,.87.32,1.22,1.22,0,0,0,.88-.32,1.31,1.31,0,0,0,.33-1v-3h.71v4.85Z" transform="translate(-0.06 -28.52)"/><path class="cls-1" d="M95.89,65.75a1.47,1.47,0,0,0-.38-.28,1.17,1.17,0,0,0-.46-.07,1.21,1.21,0,0,0-.48.09,1,1,0,0,0-.37.28,1.5,1.5,0,0,0-.23.41,1.46,1.46,0,0,0-.08.52v3h-.71V64.82h.71v.59a1.3,1.3,0,0,1,.56-.47,1.84,1.84,0,0,1,.8-.18,2,2,0,0,1,.62.1,1.5,1.5,0,0,1,.54.36Z" transform="translate(-0.06 -28.52)"/><path class="cls-1" d="M104,66.16c0-.24,0-.47,0-.7a4.26,4.26,0,0,0,0-.64,2.76,2.76,0,0,0-.14-.55,1.24,1.24,0,0,0-.26-.43,1.47,1.47,0,0,0-.62-.41,2.68,2.68,0,0,0-.76-.11h-1.53V69h1.53a2.68,2.68,0,0,0,.76-.1,1.47,1.47,0,0,0,.62-.41,1.24,1.24,0,0,0,.26-.43,3,3,0,0,0,.14-.55,4.26,4.26,0,0,0,0-.64c0-.23,0-.46,0-.71m.75,0c0,.27,0,.54,0,.8a4.32,4.32,0,0,1-.07.74,3.46,3.46,0,0,1-.18.67,1.72,1.72,0,0,1-.36.57,2.28,2.28,0,0,1-.8.56,2.8,2.8,0,0,1-1,.17H99.91v-7h2.41a2.8,2.8,0,0,1,1,.18,2.28,2.28,0,0,1,.8.56,1.72,1.72,0,0,1,.36.57,3.46,3.46,0,0,1,.18.67,4.32,4.32,0,0,1,.07.74c0,.26,0,.52,0,.79" transform="translate(-0.06 -28.52)"/><path class="cls-1" d="M106.42,64.82h.71v4.85h-.71Zm0-2.18h.8v.8h-.8Z" transform="translate(-0.06 -28.52)"/><path class="cls-1" d="M111.77,67.21a5,5,0,0,0,0-.67,1.71,1.71,0,0,0-.16-.58,1.12,1.12,0,0,0-.37-.41,1.18,1.18,0,0,0-.63-.15,1.21,1.21,0,0,0-.64.15,1.12,1.12,0,0,0-.37.41,1.71,1.71,0,0,0-.16.58,5,5,0,0,0,0,.67,4.92,4.92,0,0,0,0,.67,1.71,1.71,0,0,0,.16.58,1,1,0,0,0,1,.56,1.18,1.18,0,0,0,.63-.15,1.21,1.21,0,0,0,.37-.41,1.71,1.71,0,0,0,.16-.58,4.92,4.92,0,0,0,0-.67m.71,2.61a2.32,2.32,0,0,1-.14.84,1.85,1.85,0,0,1-.39.65,1.74,1.74,0,0,1-.64.44,2.26,2.26,0,0,1-.85.15,3.58,3.58,0,0,1-.49,0,1.76,1.76,0,0,1-.41-.11,2.4,2.4,0,0,1-.38-.21,3,3,0,0,1-.37-.3l.47-.45a2.32,2.32,0,0,0,.25.21,2.2,2.2,0,0,0,.26.15,1.1,1.1,0,0,0,.29.09,1.86,1.86,0,0,0,.36,0,1.41,1.41,0,0,0,.61-.12,1.17,1.17,0,0,0,.41-.31,1.23,1.23,0,0,0,.24-.47,2.22,2.22,0,0,0,.07-.59V69a1.55,1.55,0,0,1-.63.51,2.15,2.15,0,0,1-.73.12,1.78,1.78,0,0,1-.67-.11,1.48,1.48,0,0,1-.5-.32,1.79,1.79,0,0,1-.48-.9,5.07,5.07,0,0,1-.11-1.12,5,5,0,0,1,.11-1.12,1.79,1.79,0,0,1,.48-.9,1.33,1.33,0,0,1,.5-.31,1.87,1.87,0,0,1,.68-.12,2.17,2.17,0,0,1,.74.13,1.38,1.38,0,0,1,.62.51v-.58h.7Z" transform="translate(-0.06 -28.52)"/><path class="cls-1" d="M114.26,64.82H115v4.85h-.71Zm0-2.18h.8v.8h-.8Z" transform="translate(-0.06 -28.52)"/><path class="cls-1" d="M118.1,69.67a1.27,1.27,0,0,1-.54-.1,1,1,0,0,1-.39-.28,1.27,1.27,0,0,1-.23-.41,1.7,1.7,0,0,1-.08-.51v-3h-.61v-.55h.61V63.33h.71v1.49h1v.55h-1v3a.78.78,0,0,0,.16.53.62.62,0,0,0,.5.18h.38v.61Z" transform="translate(-0.06 -28.52)"/><path class="cls-1" d="M122.72,67.44h-1.35c-.73,0-1.1.28-1.1.85a.72.72,0,0,0,.27.63,1.4,1.4,0,0,0,.86.2,3.45,3.45,0,0,0,.57-.05,1.12,1.12,0,0,0,.5-.27,1.17,1.17,0,0,0,.25-.84Zm0,2.23v-.46a1.74,1.74,0,0,1-.6.41,2.57,2.57,0,0,1-.8.11,2.92,2.92,0,0,1-.81-.09,1.51,1.51,0,0,1-.56-.35,1,1,0,0,1-.28-.44,1.67,1.67,0,0,1-.09-.55,1.28,1.28,0,0,1,.44-1,1.83,1.83,0,0,1,1.25-.38h1.45v-.46a1.09,1.09,0,0,0-.28-.8,1.38,1.38,0,0,0-1-.26,1.79,1.79,0,0,0-.73.12,1.36,1.36,0,0,0-.5.44l-.48-.45a1.64,1.64,0,0,1,.71-.57,2.87,2.87,0,0,1,1-.16,2.19,2.19,0,0,1,1.47.42,1.5,1.5,0,0,1,.48,1.2v3.29Z" transform="translate(-0.06 -28.52)"/><path class="cls-1" d="M126.37,69.67a1.13,1.13,0,0,1-.94-.37,1.39,1.39,0,0,1-.3-.92V62.65h.71v5.7a.89.89,0,0,0,.14.54.64.64,0,0,0,.51.17h.39v.61Z" transform="translate(-0.06 -28.52)"/><path class="cls-1" d="M134.72,69.67v-3.2h-3.34v3.2h-.75v-7h.75V65.8h3.34V62.65h.75v7Z" transform="translate(-0.06 -28.52)"/><path class="cls-1" d="M140.39,66.9a2.5,2.5,0,0,1,0-.25l0-.2a.85.85,0,0,0,0-.17l-.07-.18a1.34,1.34,0,0,0-.45-.54,1.33,1.33,0,0,0-1.37,0,1.34,1.34,0,0,0-.45.54.67.67,0,0,0-.07.18.85.85,0,0,0,0,.17,1.23,1.23,0,0,0,0,.2c0,.07,0,.16,0,.25Zm-2.58.54a1.88,1.88,0,0,0,.36,1.23,1.29,1.29,0,0,0,1.07.44A1.64,1.64,0,0,0,140,69a2.21,2.21,0,0,0,.56-.42L141,69a3.53,3.53,0,0,1-.37.33,2,2,0,0,1-.4.23,2.06,2.06,0,0,1-.46.14,2.29,2.29,0,0,1-.55,0,2.65,2.65,0,0,1-.87-.14,1.68,1.68,0,0,1-.68-.46,2.1,2.1,0,0,1-.42-.77,3.63,3.63,0,0,1-.15-1.11,2.79,2.79,0,0,1,.54-1.84,1.78,1.78,0,0,1,1.45-.65,1.82,1.82,0,0,1,1.48.63,2.66,2.66,0,0,1,.52,1.73v.32Z" transform="translate(-0.06 -28.52)"/><path class="cls-1" d="M145.31,65.75a1.66,1.66,0,0,0-.38-.28,1.42,1.42,0,0,0-.94,0,1,1,0,0,0-.37.28,1.27,1.27,0,0,0-.23.41,1.46,1.46,0,0,0-.09.52v3h-.71V64.82h.71v.59a1.39,1.39,0,0,1,.57-.47,1.8,1.8,0,0,1,.8-.18,2,2,0,0,1,.62.1,1.5,1.5,0,0,1,.54.36Z" transform="translate(-0.06 -28.52)"/><path class="cls-1" d="M149.45,67.25a5.55,5.55,0,0,0-.06-.82,1.15,1.15,0,0,0-.33-.68,1.28,1.28,0,0,0-1.76,0,1.15,1.15,0,0,0-.33.68,4.47,4.47,0,0,0-.07.82c0,.14,0,.28,0,.41s0,.28.05.41a2.29,2.29,0,0,0,.12.37,1.1,1.1,0,0,0,.22.31,1.22,1.22,0,0,0,2.09-.68,5.55,5.55,0,0,0,.06-.82m.71,0a4.53,4.53,0,0,1-.12,1.06,1.77,1.77,0,0,1-.47.87,2,2,0,0,1-.61.41,2.27,2.27,0,0,1-1.57,0,1.94,1.94,0,0,1-.6-.41,1.53,1.53,0,0,1-.31-.41,2.54,2.54,0,0,1-.17-.46,2.09,2.09,0,0,1-.09-.51,4.93,4.93,0,0,1,0-.55,5.07,5.07,0,0,1,.11-1.06,1.73,1.73,0,0,1,.49-.87,2,2,0,0,1,2.17-.41,2,2,0,0,1,.61.41,1.71,1.71,0,0,1,.48.87,5.07,5.07,0,0,1,.11,1.06" transform="translate(-0.06 -28.52)"/><path class="cls-1" d="M154.69,66.9a1.81,1.81,0,0,0,0-.25,1.23,1.23,0,0,0,0-.2.84.84,0,0,0-.05-.17l-.06-.18a1.34,1.34,0,0,0-.45-.54,1.23,1.23,0,0,0-.69-.19,1.18,1.18,0,0,0-.68.19,1.2,1.2,0,0,0-.45.54.71.71,0,0,0-.08.18s0,.11,0,.17,0,.13,0,.2a2.26,2.26,0,0,1,0,.25Zm-2.57.54a1.88,1.88,0,0,0,.36,1.23,1.29,1.29,0,0,0,1.07.44,1.59,1.59,0,0,0,.7-.13,2.08,2.08,0,0,0,.57-.42l.48.42a2.25,2.25,0,0,1-.37.33,1.9,1.9,0,0,1-.39.23,2.06,2.06,0,0,1-.46.14,2.34,2.34,0,0,1-.55,0,2.75,2.75,0,0,1-.88-.14,1.71,1.71,0,0,1-.67-.46,2.1,2.1,0,0,1-.42-.77,3.63,3.63,0,0,1-.15-1.11,2.84,2.84,0,0,1,.53-1.84,2,2,0,0,1,2.94,0,2.66,2.66,0,0,1,.51,1.73v.32Z" transform="translate(-0.06 -28.52)"/><path class="cls-1" d="M160.4,68.25a1.26,1.26,0,0,1-.54,1.09,2.4,2.4,0,0,1-1.43.39,3.82,3.82,0,0,1-1.11-.15,2.29,2.29,0,0,1-.88-.55l.47-.47a1.71,1.71,0,0,0,.67.43,2.55,2.55,0,0,0,.84.13,1.78,1.78,0,0,0,1-.21.71.71,0,0,0,.34-.65.61.61,0,0,0-.19-.49,1,1,0,0,0-.62-.22l-.8-.06a1.84,1.84,0,0,1-1.07-.38,1.14,1.14,0,0,1-.37-.93,1.25,1.25,0,0,1,.13-.59,1.33,1.33,0,0,1,.37-.45,1.84,1.84,0,0,1,.56-.28,2.72,2.72,0,0,1,.72-.1,3.67,3.67,0,0,1,1,.13,2.4,2.4,0,0,1,.78.4l-.47.46a1.67,1.67,0,0,0-.58-.29,2.71,2.71,0,0,0-.71-.09,1.35,1.35,0,0,0-.81.21.69.69,0,0,0-.27.58.6.6,0,0,0,.2.5,1.28,1.28,0,0,0,.66.21l.76.07a3.15,3.15,0,0,1,.58.11,1.33,1.33,0,0,1,.46.23,1.24,1.24,0,0,1,.29.39,1.44,1.44,0,0,1,.1.58" transform="translate(-0.06 -28.52)"/><rect class="cls-1" x="161.71" y="40.23" width="0.93" height="0.93"/></g></g></svg>