<?xml version="1.0" encoding="UTF-8" standalone="no"?>
<!DOCTYPE svg PUBLIC "-//W3C//DTD SVG 1.1//EN" "http://www.w3.org/Graphics/SVG/1.1/DTD/svg11.dtd">
<svg width="100%" height="100%" viewBox="0 0 722 157" version="1.1" xmlns="http://www.w3.org/2000/svg" xmlns:xlink="http://www.w3.org/1999/xlink" xml:space="preserve" xmlns:serif="http://www.serif.com/" style="fill-rule:evenodd;clip-rule:evenodd;stroke-linejoin:round;stroke-miterlimit:1.41421;">
    <g id="Ebene-2" serif:id="Ebene 2" transform="matrix(1,0,0,1,-20.3866,-26.3462)">
        <g transform="matrix(1,0,0,1,31.5386,68.1886)">
            <path d="M0,64.955C-1.707,66.58 -4.422,66.526 -6.054,64.814C-7.688,63.106 -7.636,60.386 -5.931,58.748C-4.211,57.118 -1.492,57.165 0.141,58.881C1.766,60.598 1.713,63.308 0,64.955M83.779,-41.842L17.493,-41.815L17.493,61.524L34.835,79.78L34.835,-24.467L84.928,-24.443C90.523,-23.866 94.896,-19.101 94.903,-13.106L94.903,78.306C94.903,84.029 90.567,88.759 85.022,89.374L34.918,89.44L34.862,89.483L2.959,56.191C-0.179,52.909 -5.353,52.798 -8.631,55.926C-11.893,59.063 -12.006,64.249 -8.873,67.511C-8.145,68.297 -7.279,68.873 -6.362,69.295L18.132,81.281C18.132,81.281 20.346,82.655 21.546,83.918C23.69,86.168 43.476,106.797 43.476,106.797L83.786,106.796C99.47,106.796 112.237,94.006 112.237,78.549L112.237,-13.356C112.237,-29.064 99.47,-41.842 83.779,-41.842" style="fill:rgb(223,0,106);fill-rule:nonzero;"/>
        </g>
        <g transform="matrix(1,0,0,1,286.803,136.456)">
            <path d="M0,-71.71C-1.629,-69.998 -4.348,-69.943 -6.067,-71.575C-7.773,-73.215 -7.842,-75.928 -6.196,-77.643C-4.567,-79.356 -1.845,-79.409 -0.137,-77.777C1.569,-76.146 1.637,-73.417 0,-71.71M2.572,-80.598C-0.708,-83.728 -5.889,-83.612 -9.025,-80.335L-44.428,-42.523L-44.428,-42.539L-109.294,-42.539L-109.294,-110.109L-126.642,-110.109L-126.642,38.399L-109.294,38.399L-109.294,-25.204L-52.863,-25.204L-52.679,-25.588L-24.186,-55.243L0.288,-67.218C1.219,-67.641 2.078,-68.228 2.822,-69.006C5.952,-72.278 5.834,-77.464 2.572,-80.598" style="fill:rgb(0,102,138);fill-rule:nonzero;"/>
        </g>
        <g transform="matrix(1,0,0,1,231.144,87.6662)">
            <path d="M0,-61.32L0,-61.284L-0.018,-61.32L-0.018,-52.586L-0.07,-35.109L-0.018,-35.066L-0.018,0L2.965,0L17.322,-15.124L17.322,-21.541L17.322,-35.109C17.322,-46.86 10.183,-56.974 0,-61.32" style="fill:rgb(0,102,138);fill-rule:nonzero;"/>
        </g>
        <g transform="matrix(1,0,0,1,231.126,156.867)">
            <path d="M0,-35.974L0,18.052L-0.053,18.119C-0.039,18.104 -0.023,18.102 0,18.095L0,18.119L0.018,18.077C0.075,18.052 0.128,18.016 0.198,17.988L17.339,17.988L17.339,-7.88L17.339,-35.974L17.339,-54.093L0,-35.974Z" style="fill:rgb(0,102,138);fill-rule:nonzero;"/>
        </g>
        <g transform="matrix(1,0,0,1,307.473,79.8464)">
            <path d="M0,17.302C0.12,15.557 0.56,13.921 1.319,12.392C2.077,10.865 3.048,9.54 4.231,8.417C5.414,7.296 6.807,6.406 8.416,5.753C10.022,5.097 11.735,4.769 13.556,4.769C15.556,4.769 17.299,5.097 18.786,5.753C20.273,6.406 21.516,7.296 22.517,8.417C23.518,9.54 24.276,10.865 24.792,12.392C25.305,13.921 25.595,15.557 25.655,17.302L0,17.302ZM32.931,11.271C31.958,8.433 30.575,6.019 28.782,4.022C26.99,2.028 24.801,0.501 22.219,-0.56C19.633,-1.62 16.763,-2.151 13.602,-2.151C10.44,-2.151 7.495,-1.573 4.758,-0.421C2.024,0.735 -0.348,2.339 -2.352,4.396C-4.358,6.454 -5.923,8.932 -7.048,11.83C-8.172,14.73 -8.733,17.896 -8.733,21.323C-8.733,24.817 -8.158,27.996 -7.004,30.862C-5.854,33.732 -4.276,36.178 -2.274,38.204C-0.273,40.231 2.123,41.805 4.913,42.927C7.702,44.05 10.736,44.61 14.012,44.61C17.833,44.61 21.302,43.867 24.428,42.385C27.551,40.9 30.263,38.586 32.569,35.445L26.566,30.488C25.351,32.359 23.684,33.949 21.562,35.258C19.437,36.568 16.921,37.223 14.012,37.223C12.129,37.223 10.356,36.881 8.688,36.199C7.019,35.52 5.55,34.574 4.277,33.367C3.002,32.16 1.987,30.738 1.229,29.095C0.47,27.456 0.06,25.707 0,23.849L34.298,23.849C34.358,23.349 34.39,22.852 34.39,22.352L34.39,20.855C34.39,17.302 33.902,14.109 32.931,11.271M54.95,-27.308L46.399,-27.308L46.399,43.394L54.95,43.394L54.95,-27.308ZM75.783,17.302C75.904,15.557 76.342,13.921 77.102,12.392C77.859,10.865 78.831,9.54 80.013,8.417C81.197,7.296 82.591,6.406 84.198,5.753C85.805,5.097 87.52,4.769 89.338,4.769C91.34,4.769 93.083,5.097 94.571,5.753C96.055,6.406 97.298,7.296 98.299,8.417C99.3,9.54 100.058,10.865 100.574,12.392C101.089,13.921 101.377,15.557 101.439,17.302L75.783,17.302ZM108.713,11.271C107.743,8.433 106.357,6.019 104.567,4.022C102.772,2.028 100.583,0.501 98.001,-0.56C95.417,-1.62 92.545,-2.151 89.386,-2.151C86.225,-2.151 83.277,-1.573 80.543,-0.421C77.807,0.735 75.437,2.339 73.43,4.396C71.424,6.454 69.859,8.932 68.736,11.83C67.611,14.73 67.049,17.896 67.049,21.323C67.049,24.817 67.625,27.996 68.778,30.862C69.929,33.732 71.508,36.178 73.508,38.204C75.511,40.231 77.905,41.805 80.695,42.927C83.485,44.05 86.518,44.61 89.794,44.61C93.615,44.61 97.086,43.867 100.21,42.385C103.333,40.9 106.047,38.586 108.352,35.445L102.348,30.488C101.133,32.359 99.466,33.949 97.344,35.258C95.22,36.568 92.704,37.223 89.794,37.223C87.914,37.223 86.139,36.881 84.472,36.199C82.803,35.52 81.333,34.574 80.059,33.367C78.785,32.16 77.769,30.738 77.012,29.095C76.252,27.456 75.843,25.707 75.783,23.849L110.081,23.849C110.14,23.349 110.172,22.852 110.172,22.352L110.172,20.855C110.172,17.302 109.687,14.109 108.713,11.271M158.39,5.145C156.629,2.775 154.251,0.969 151.248,-0.281C148.246,-1.526 145.228,-2.151 142.196,-2.151C138.92,-2.151 135.873,-1.59 133.053,-0.467C130.233,0.655 127.792,2.245 125.729,4.302C123.667,6.36 122.059,8.824 120.907,11.69C119.755,14.56 119.179,17.739 119.179,21.229C119.179,24.784 119.769,27.996 120.953,30.862C122.135,33.732 123.758,36.178 125.821,38.204C127.881,40.231 130.323,41.805 133.143,42.927C135.965,44.05 139.041,44.61 142.378,44.61C145.835,44.61 148.929,44.002 151.657,42.786C154.387,41.572 156.662,39.873 158.48,37.691L152.749,32.359C151.597,33.856 150.125,35.04 148.337,35.911C146.546,36.787 144.56,37.223 142.378,37.223C140.133,37.223 138.131,36.787 136.373,35.911C134.614,35.04 133.127,33.871 131.916,32.406C130.701,30.942 129.778,29.243 129.14,27.309C128.504,25.378 128.185,23.349 128.185,21.229C128.185,19.111 128.504,17.084 129.14,15.152C129.778,13.219 130.701,11.52 131.916,10.053C133.127,8.591 134.6,7.422 136.329,6.546C138.057,5.675 140.042,5.237 142.286,5.237C144.348,5.237 146.289,5.721 148.11,6.688C149.928,7.656 151.293,8.854 152.203,10.287L158.39,5.145ZM188.047,-0.934L176.584,-0.934L176.584,-13.653L168.123,-13.653L168.123,-0.934L159.845,-0.934L159.845,6.266L168.123,6.266L168.123,30.302C168.123,34.916 169.2,38.376 171.352,40.682C173.504,42.99 176.614,44.142 180.677,44.142C182.012,44.142 183.301,44.033 184.544,43.816C185.787,43.596 186.924,43.3 187.956,42.927L187.684,35.726C186.957,36.07 186.137,36.325 185.227,36.497C184.316,36.669 183.467,36.755 182.679,36.755C180.555,36.755 179.008,36.18 178.039,35.031C177.07,33.879 176.584,31.969 176.584,29.297L176.584,6.266L188.047,6.266L188.047,-0.934ZM196.871,8.605L196.871,43.394L205.422,43.394L205.422,20.108C205.422,18.237 205.664,16.447 206.152,14.73C206.635,13.015 207.378,11.505 208.38,10.196C209.381,8.885 210.638,7.841 212.155,7.062C213.669,6.282 215.46,5.893 217.523,5.893C218.917,5.893 220.221,6.049 221.434,6.36L221.799,-1.776C220.888,-2.025 219.765,-2.151 218.432,-2.151C215.52,-2.151 212.896,-1.356 210.562,0.235C208.228,1.824 206.454,3.928 205.241,6.546L204.968,6.546C204.968,5.611 204.937,4.412 204.876,2.947C204.817,1.482 204.725,0.187 204.605,-0.934L196.507,-0.934C196.628,0.501 196.719,2.152 196.781,4.022C196.84,5.893 196.871,7.422 196.871,8.605M270.063,11.738C268.88,8.9 267.244,6.454 265.151,4.396C263.058,2.339 260.586,0.735 257.737,-0.421C254.884,-1.573 251.823,-2.151 248.547,-2.151C245.272,-2.151 242.208,-1.573 239.358,-0.421C236.506,0.735 234.05,2.339 231.99,4.396C229.925,6.454 228.305,8.9 227.122,11.738C225.939,14.576 225.347,17.708 225.347,21.137C225.347,24.567 225.939,27.714 227.122,30.582C228.305,33.449 229.925,35.928 231.99,38.016C234.05,40.107 236.506,41.728 239.358,42.88C242.208,44.033 245.272,44.61 248.547,44.61C251.823,44.61 254.884,44.033 257.737,42.88C260.586,41.728 263.058,40.107 265.151,38.016C267.244,35.928 268.88,33.449 270.063,30.582C271.247,27.714 271.837,24.567 271.837,21.137C271.837,17.708 271.247,14.576 270.063,11.738M261.963,27.244C261.324,29.171 260.396,30.882 259.179,32.372C257.962,33.865 256.456,35.046 254.663,35.918C252.866,36.787 250.814,37.223 248.501,37.223C246.189,37.223 244.135,36.787 242.34,35.918C240.545,35.046 239.041,33.865 237.824,32.372C236.607,30.882 235.677,29.171 235.04,27.244C234.4,25.318 234.083,23.298 234.083,21.183C234.083,19.071 234.4,17.05 235.04,15.122C235.677,13.195 236.607,11.502 237.824,10.042C239.041,8.581 240.545,7.415 242.34,6.544C244.135,5.673 246.189,5.237 248.501,5.237C250.814,5.237 252.866,5.673 254.663,6.544C256.456,7.415 257.962,8.581 259.179,10.042C260.396,11.502 261.324,13.195 261.963,15.122C262.601,17.05 262.92,19.071 262.92,21.183C262.92,23.298 262.601,25.318 261.963,27.244M283.299,-0.934C283.418,0.501 283.511,2.152 283.571,4.022C283.63,5.893 283.663,7.422 283.663,8.605L283.663,43.394L292.214,43.394L292.214,19.826C292.214,15.402 293.292,11.864 295.444,9.212C297.596,6.564 300.37,5.237 303.767,5.237C305.77,5.237 307.407,5.611 308.682,6.36C309.955,7.108 310.956,8.107 311.683,9.352C312.411,10.601 312.913,12.034 313.184,13.655C313.458,15.278 313.594,16.99 313.594,18.799L313.594,43.394L322.146,43.394L322.146,15.899C322.146,13.407 321.828,11.069 321.19,8.885C320.552,6.704 319.568,4.802 318.235,3.181C316.9,1.56 315.231,0.267 313.23,-0.7C311.228,-1.668 308.832,-2.151 306.043,-2.151C304.465,-2.151 302.95,-1.931 301.494,-1.496C300.039,-1.058 298.704,-0.45 297.491,0.329C296.277,1.108 295.2,2.011 294.26,3.041C293.32,4.068 292.578,5.177 292.033,6.36L291.758,6.36C291.758,5.425 291.729,4.256 291.668,2.853C291.607,1.45 291.517,0.187 291.395,-0.934L283.299,-0.934ZM345.252,-0.934L336.7,-0.934L336.7,43.394L345.252,43.394L345.252,-0.934ZM344.946,-20.995C343.833,-22.084 342.494,-22.632 340.931,-22.632C339.367,-22.632 338.043,-22.084 336.96,-20.995C335.877,-19.904 335.335,-18.547 335.335,-16.926C335.335,-15.367 335.877,-14.042 336.96,-12.953C338.043,-11.86 339.367,-11.316 340.931,-11.316C342.494,-11.316 343.833,-11.844 344.946,-12.905C346.059,-13.964 346.617,-15.305 346.617,-16.926C346.617,-18.547 346.059,-19.904 344.946,-20.995M396.563,5.145C394.802,2.775 392.422,0.969 389.42,-0.281C386.418,-1.526 383.401,-2.151 380.37,-2.151C377.094,-2.151 374.046,-1.59 371.224,-0.467C368.405,0.655 365.962,2.245 363.902,4.302C361.839,6.36 360.231,8.824 359.08,11.69C357.926,14.56 357.351,17.739 357.351,21.229C357.351,24.784 357.942,27.996 359.125,30.862C360.308,33.732 361.929,36.178 363.992,38.204C366.054,40.231 368.497,41.805 371.316,42.927C374.136,44.05 377.213,44.61 380.551,44.61C384.006,44.61 387.1,44.002 389.831,42.786C392.56,41.572 394.834,39.873 396.653,37.691L390.921,32.359C389.768,33.856 388.297,35.04 386.508,35.911C384.72,36.787 382.734,37.223 380.551,37.223C378.305,37.223 376.304,36.787 374.545,35.911C372.785,35.04 371.3,33.871 370.087,32.406C368.875,30.942 367.951,29.243 367.313,27.309C366.675,25.378 366.358,23.349 366.358,21.229C366.358,19.111 366.675,17.084 367.313,15.152C367.951,13.219 368.875,11.52 370.087,10.053C371.3,8.591 372.771,7.422 374.5,6.546C376.228,5.675 378.215,5.237 380.459,5.237C382.52,5.237 384.462,5.721 386.281,6.688C388.101,7.656 389.466,8.854 390.375,10.287L396.563,5.145ZM434.316,5.145C432.738,2.775 430.509,0.969 427.629,-0.281C424.748,-1.526 421.762,-2.151 418.668,-2.151C416.606,-2.151 414.605,-1.884 412.665,-1.356C410.722,-0.824 408.994,-0.015 407.479,1.076C405.961,2.168 404.733,3.571 403.793,5.285C402.852,7 402.382,9.042 402.382,11.41C402.382,13.467 402.762,15.198 403.522,16.6C404.279,18.004 405.264,19.173 406.477,20.108C407.691,21.043 409.04,21.777 410.527,22.306C412.011,22.836 413.482,23.287 414.939,23.661C418.636,24.534 421.444,25.47 423.355,26.467C425.265,27.464 426.218,28.993 426.218,31.049C426.218,32.296 425.977,33.325 425.491,34.135C425.005,34.947 424.354,35.602 423.537,36.1C422.717,36.599 421.808,36.957 420.806,37.175C419.805,37.395 418.76,37.502 417.667,37.502C415.241,37.502 413.012,36.911 410.98,35.726C408.948,34.543 407.357,33.076 406.204,31.329L400.108,36.661C402.17,39.343 404.763,41.338 407.888,42.647C411.01,43.955 414.209,44.61 417.485,44.61C419.669,44.61 421.792,44.36 423.854,43.862C425.915,43.364 427.751,42.539 429.358,41.384C430.965,40.231 432.254,38.749 433.225,36.941C434.195,35.134 434.68,32.92 434.68,30.302C434.68,28.369 434.316,26.687 433.589,25.252C432.862,23.817 431.844,22.586 430.542,21.557C429.236,20.528 427.706,19.672 425.947,18.985C424.186,18.299 422.276,17.708 420.215,17.208C416.94,16.461 414.484,15.635 412.846,14.73C411.208,13.826 410.39,12.44 410.39,10.569C410.39,9.51 410.617,8.62 411.072,7.903C411.528,7.188 412.133,6.594 412.891,6.127C413.65,5.659 414.513,5.317 415.485,5.097C416.454,4.88 417.425,4.769 418.396,4.769C420.579,4.769 422.549,5.285 424.31,6.312C426.067,7.342 427.431,8.667 428.403,10.287L434.316,5.145Z" style="fill:rgb(0,103,138);fill-rule:nonzero;"/>
        </g>
        <g transform="matrix(1,0,0,1,309.006,160.05)">
            <path d="M0,4.414L0,14.879L-2.705,14.879L-2.705,4.414L-10.251,-10.465L-7.333,-10.465L-1.353,1.672L4.556,-10.465L7.475,-10.465L0,4.414Z" style="fill:rgb(111,111,110);fill-rule:nonzero;"/>
        </g>
        <g transform="matrix(1,0,0,1,328.477,166.173)">
            <path d="M0,-0.001C0,-0.997 -0.072,-1.988 -0.214,-2.974C-0.356,-3.957 -0.748,-4.771 -1.389,-5.411C-2.243,-6.265 -3.311,-6.692 -4.592,-6.692C-5.85,-6.692 -6.905,-6.265 -7.76,-5.411C-8.401,-4.771 -8.799,-3.957 -8.952,-2.974C-9.107,-1.988 -9.184,-0.997 -9.184,-0.001C-9.184,0.497 -9.172,0.996 -9.148,1.494C-9.125,1.992 -9.065,2.478 -8.97,2.953C-8.875,3.429 -8.733,3.873 -8.543,4.289C-8.354,4.703 -8.093,5.077 -7.76,5.409C-6.905,6.264 -5.85,6.691 -4.592,6.691C-3.311,6.691 -2.243,6.264 -1.389,5.409C-0.748,4.746 -0.356,3.927 -0.214,2.953C-0.072,1.981 0,0.996 0,-0.001M2.563,-0.001C2.563,1.352 2.426,2.628 2.153,3.826C1.88,5.024 1.305,6.073 0.427,6.977C-0.191,7.594 -0.914,8.079 -1.744,8.435C-2.575,8.792 -3.524,8.97 -4.592,8.97C-5.66,8.97 -6.609,8.792 -7.439,8.435C-8.271,8.079 -8.995,7.594 -9.611,6.977C-10.062,6.525 -10.424,6.032 -10.696,5.499C-10.97,4.965 -11.183,4.408 -11.337,3.826C-11.492,3.245 -11.599,2.634 -11.658,1.992C-11.717,1.352 -11.747,0.688 -11.747,-0.001C-11.747,-1.354 -11.616,-2.629 -11.355,-3.828C-11.094,-5.025 -10.513,-6.075 -9.611,-6.978C-8.995,-7.594 -8.271,-8.081 -7.439,-8.437C-6.609,-8.793 -5.66,-8.971 -4.592,-8.971C-3.524,-8.971 -2.575,-8.793 -1.744,-8.437C-0.914,-8.081 -0.191,-7.594 0.427,-6.978C1.328,-6.075 1.91,-5.025 2.171,-3.828C2.432,-2.629 2.563,-1.354 2.563,-0.001" style="fill:rgb(111,111,110);fill-rule:nonzero;"/>
        </g>
        <g transform="matrix(1,0,0,1,347.591,157.63)">
            <path d="M0,17.299L0,15.341C-0.617,16.053 -1.347,16.593 -2.188,16.96C-3.031,17.328 -3.951,17.513 -4.947,17.513C-6.869,17.513 -8.376,16.967 -9.468,15.875C-10.085,15.259 -10.536,14.54 -10.82,13.721C-11.105,12.903 -11.248,11.983 -11.248,10.963L-11.248,-0.214L-8.685,-0.214L-8.685,10.571C-8.685,12.138 -8.306,13.307 -7.545,14.078C-6.786,14.85 -5.743,15.235 -4.413,15.235C-3.085,15.235 -2.022,14.843 -1.228,14.06C-0.433,13.276 -0.035,12.114 -0.035,10.571L-0.035,-0.214L2.528,-0.214L2.528,17.299L0,17.299Z" style="fill:rgb(111,111,110);fill-rule:nonzero;"/>
        </g>
        <g transform="matrix(1,0,0,1,366.315,171.369)">
            <path d="M0,-10.607C-0.476,-11.082 -0.925,-11.414 -1.353,-11.604C-1.78,-11.794 -2.338,-11.888 -3.025,-11.888C-3.667,-11.888 -4.249,-11.77 -4.771,-11.533C-5.292,-11.295 -5.731,-10.963 -6.087,-10.536C-6.443,-10.109 -6.722,-9.611 -6.924,-9.041C-7.126,-8.471 -7.226,-7.854 -7.226,-7.189L-7.226,3.56L-9.789,3.56L-9.789,-13.953L-7.226,-13.953L-7.226,-11.818C-6.751,-12.553 -6.07,-13.128 -5.179,-13.544C-4.289,-13.959 -3.334,-14.167 -2.314,-14.167C-1.484,-14.167 -0.73,-14.047 -0.054,-13.811C0.623,-13.573 1.269,-13.145 1.886,-12.529L0,-10.607Z" style="fill:rgb(111,111,110);fill-rule:nonzero;"/>
        </g>
        <g transform="matrix(1,0,0,1,395.714,162.257)">
            <path d="M0,0C0,-0.878 -0.012,-1.726 -0.036,-2.546C-0.059,-3.363 -0.124,-4.135 -0.23,-4.858C-0.338,-5.583 -0.504,-6.247 -0.729,-6.852C-0.956,-7.457 -1.27,-7.974 -1.672,-8.4C-2.313,-9.112 -3.062,-9.598 -3.916,-9.86C-4.77,-10.121 -5.683,-10.252 -6.656,-10.252L-12.172,-10.252L-12.172,10.252L-6.656,10.252C-5.683,10.252 -4.77,10.121 -3.916,9.86C-3.062,9.6 -2.313,9.112 -1.672,8.4C-1.27,7.974 -0.956,7.457 -0.729,6.852C-0.504,6.246 -0.338,5.583 -0.23,4.858C-0.124,4.135 -0.059,3.363 -0.036,2.544C-0.012,1.726 0,0.878 0,0M2.706,0C2.706,0.974 2.693,1.928 2.67,2.865C2.646,3.803 2.563,4.698 2.422,5.553C2.278,6.406 2.06,7.214 1.763,7.974C1.466,8.733 1.032,9.409 0.463,10.002C-0.392,10.927 -1.358,11.604 -2.438,12.031C-3.519,12.458 -4.77,12.672 -6.192,12.672L-14.878,12.672L-14.878,-12.672L-6.192,-12.672C-4.77,-12.672 -3.519,-12.459 -2.438,-12.031C-1.358,-11.604 -0.392,-10.928 0.463,-10.002C1.032,-9.386 1.466,-8.703 1.763,-7.956C2.06,-7.209 2.278,-6.406 2.422,-5.553C2.563,-4.699 2.646,-3.802 2.67,-2.865C2.693,-1.928 2.706,-0.974 2.706,0" style="fill:rgb(111,111,110);fill-rule:nonzero;"/>
        </g>
        <g transform="matrix(1,0,0,1,0,118.478)">
            <path d="M404.328,38.938L406.891,38.938L406.891,56.451L404.328,56.451L404.328,38.938ZM404.187,31.071L407.07,31.071L407.07,33.955L404.187,33.955L404.187,31.071Z" style="fill:rgb(111,111,110);fill-rule:nonzero;"/>
        </g>
        <g transform="matrix(1,0,0,1,423.655,174.145)">
            <path d="M0,-8.116C0,-8.922 -0.048,-9.722 -0.143,-10.518C-0.237,-11.313 -0.439,-12.012 -0.747,-12.618C-1.056,-13.224 -1.494,-13.716 -2.063,-14.095C-2.634,-14.475 -3.395,-14.665 -4.342,-14.665C-5.291,-14.665 -6.057,-14.475 -6.639,-14.095C-7.22,-13.716 -7.665,-13.224 -7.973,-12.618C-8.281,-12.012 -8.483,-11.313 -8.578,-10.518C-8.673,-9.722 -8.72,-8.922 -8.72,-8.116C-8.72,-7.284 -8.673,-6.478 -8.578,-5.696C-8.483,-4.912 -8.281,-4.219 -7.973,-3.613C-7.665,-3.008 -7.22,-2.515 -6.639,-2.136C-6.057,-1.756 -5.291,-1.566 -4.342,-1.566C-3.395,-1.566 -2.634,-1.756 -2.063,-2.136C-1.494,-2.515 -1.056,-3.008 -0.747,-3.613C-0.439,-4.219 -0.237,-4.912 -0.143,-5.696C-0.048,-6.478 0,-7.284 0,-8.116M2.563,1.317C2.563,2.408 2.396,3.411 2.064,4.324C1.731,5.238 1.257,6.027 0.641,6.693C0.023,7.356 -0.741,7.878 -1.654,8.258C-2.569,8.638 -3.595,8.827 -4.733,8.827C-5.398,8.827 -5.991,8.786 -6.513,8.703C-7.035,8.619 -7.527,8.484 -7.99,8.294C-8.452,8.103 -8.904,7.861 -9.343,7.564C-9.782,7.267 -10.227,6.905 -10.677,6.479L-9.005,4.841C-8.697,5.125 -8.394,5.374 -8.097,5.588C-7.8,5.802 -7.492,5.986 -7.172,6.14C-6.851,6.294 -6.502,6.407 -6.122,6.479C-5.742,6.549 -5.304,6.585 -4.805,6.585C-3.951,6.585 -3.222,6.443 -2.616,6.157C-2.012,5.873 -1.513,5.493 -1.121,5.019C-0.729,4.544 -0.445,3.981 -0.267,3.328C-0.089,2.675 0,1.969 0,1.209L0,-1.531C-0.712,-0.629 -1.472,-0.023 -2.277,0.284C-3.085,0.593 -3.964,0.747 -4.911,0.747C-5.813,0.747 -6.626,0.606 -7.35,0.321C-8.074,0.035 -8.673,-0.344 -9.147,-0.818C-10.024,-1.697 -10.601,-2.776 -10.874,-4.058C-11.146,-5.339 -11.283,-6.692 -11.283,-8.116C-11.283,-9.54 -11.146,-10.892 -10.874,-12.174C-10.601,-13.455 -10.024,-14.534 -9.147,-15.413C-8.673,-15.887 -8.067,-16.261 -7.332,-16.534C-6.597,-16.805 -5.777,-16.943 -4.877,-16.943C-3.903,-16.943 -3.02,-16.795 -2.225,-16.498C-1.43,-16.201 -0.676,-15.591 0.035,-14.665L0.035,-16.729L2.563,-16.729L2.563,1.317Z" style="fill:rgb(111,111,110);fill-rule:nonzero;"/>
        </g>
        <g transform="matrix(1,0,0,1,0,118.478)">
            <path d="M432.625,38.938L435.188,38.938L435.188,56.451L432.625,56.451L432.625,38.938ZM432.483,31.071L435.366,31.071L435.366,33.955L432.483,33.955L432.483,31.071Z" style="fill:rgb(111,111,110);fill-rule:nonzero;"/>
        </g>
        <g transform="matrix(1,0,0,1,446.507,152.041)">
            <path d="M0,22.888C-0.76,22.888 -1.419,22.763 -1.975,22.513C-2.533,22.265 -2.996,21.926 -3.364,21.5C-3.731,21.073 -4.011,20.574 -4.199,20.004C-4.391,19.434 -4.484,18.83 -4.484,18.19L-4.484,7.332L-6.691,7.332L-6.691,5.375L-4.484,5.375L-4.484,0L-1.921,0L-1.921,5.375L1.815,5.375L1.815,7.332L-1.921,7.332L-1.921,18.117C-1.921,18.925 -1.732,19.553 -1.352,20.004C-0.974,20.455 -0.368,20.68 0.463,20.68L1.815,20.68L1.815,22.888L0,22.888Z" style="fill:rgb(111,111,110);fill-rule:nonzero;"/>
        </g>
        <g transform="matrix(1,0,0,1,463.165,165.497)">
            <path d="M0,1.351L-4.876,1.351C-7.51,1.351 -8.826,2.383 -8.826,4.449C-8.826,5.469 -8.507,6.223 -7.866,6.708C-7.225,7.195 -6.192,7.438 -4.769,7.438C-4.033,7.438 -3.345,7.372 -2.705,7.244C-2.064,7.112 -1.459,6.786 -0.889,6.263C-0.297,5.694 0,4.686 0,3.238L0,1.351ZM0,9.432L0,7.759C-0.688,8.448 -1.412,8.933 -2.171,9.218C-2.931,9.502 -3.892,9.646 -5.054,9.646C-6.265,9.646 -7.238,9.527 -7.974,9.29C-8.709,9.052 -9.386,8.637 -10.002,8.044C-10.452,7.617 -10.785,7.088 -10.999,6.459C-11.212,5.831 -11.318,5.172 -11.318,4.484C-11.318,2.918 -10.797,1.684 -9.753,0.782C-8.709,-0.12 -7.202,-0.57 -5.231,-0.57L0,-0.57L0,-2.244C0,-3.525 -0.338,-4.486 -1.015,-5.127C-1.69,-5.766 -2.848,-6.087 -4.484,-6.087C-5.601,-6.087 -6.478,-5.932 -7.119,-5.625C-7.76,-5.316 -8.354,-4.794 -8.898,-4.058L-10.643,-5.661C-9.883,-6.681 -9.023,-7.375 -8.062,-7.743C-7.101,-8.11 -5.897,-8.295 -4.449,-8.295C-2.076,-8.295 -0.314,-7.796 0.837,-6.8C1.988,-5.802 2.563,-4.355 2.563,-2.457L2.563,9.432L0,9.432Z" style="fill:rgb(111,111,110);fill-rule:nonzero;"/>
        </g>
        <g transform="matrix(1,0,0,1,476.335,149.585)">
            <path d="M0,25.344C-1.543,25.344 -2.67,24.899 -3.381,24.009C-4.094,23.119 -4.449,22.009 -4.449,20.681L-4.449,0L-1.886,0L-1.886,20.573C-1.886,21.428 -1.721,22.07 -1.388,22.496C-1.056,22.924 -0.439,23.136 0.463,23.136L1.851,23.136L1.851,25.344L0,25.344Z" style="fill:rgb(111,111,110);fill-rule:nonzero;"/>
        </g>
        <g transform="matrix(1,0,0,1,506.483,149.585)">
            <path d="M0,25.344L0,13.775L-12.031,13.775L-12.031,25.344L-14.737,25.344L-14.737,0L-12.031,0L-12.031,11.356L0,11.356L0,0L2.704,0L2.704,25.344L0,25.344Z" style="fill:rgb(111,111,110);fill-rule:nonzero;"/>
        </g>
        <g transform="matrix(1,0,0,1,526.949,167.418)">
            <path d="M0,-2.491C-0.024,-2.848 -0.048,-3.155 -0.071,-3.418C-0.095,-3.678 -0.124,-3.915 -0.16,-4.129C-0.195,-4.343 -0.249,-4.55 -0.321,-4.752C-0.392,-4.954 -0.475,-5.173 -0.569,-5.411C-0.949,-6.218 -1.489,-6.857 -2.188,-7.332C-2.889,-7.806 -3.714,-8.045 -4.663,-8.045C-5.612,-8.045 -6.437,-7.806 -7.137,-7.332C-7.837,-6.857 -8.377,-6.218 -8.756,-5.411C-8.875,-5.173 -8.964,-4.954 -9.023,-4.752C-9.083,-4.55 -9.13,-4.343 -9.166,-4.129C-9.201,-3.915 -9.225,-3.678 -9.237,-3.418C-9.249,-3.155 -9.267,-2.848 -9.29,-2.491L0,-2.491ZM-9.29,-0.57C-9.29,1.353 -8.857,2.842 -7.991,3.899C-7.125,4.954 -5.837,5.481 -4.129,5.481C-3.108,5.481 -2.261,5.322 -1.584,5.001C-0.908,4.68 -0.226,4.176 0.463,3.488L2.207,5.019C1.756,5.471 1.312,5.863 0.872,6.194C0.434,6.527 -0.041,6.805 -0.552,7.03C-1.062,7.255 -1.613,7.428 -2.207,7.547C-2.8,7.664 -3.466,7.725 -4.201,7.725C-5.362,7.725 -6.419,7.547 -7.368,7.19C-8.317,6.834 -9.125,6.288 -9.788,5.553C-10.453,4.818 -10.963,3.886 -11.318,2.759C-11.676,1.632 -11.854,0.296 -11.854,-1.246C-11.854,-4.117 -11.212,-6.33 -9.931,-7.885C-8.65,-9.438 -6.894,-10.216 -4.663,-10.216C-2.361,-10.216 -0.587,-9.462 0.659,-7.955C1.903,-6.448 2.526,-4.365 2.526,-1.709L2.526,-0.57L-9.29,-0.57Z" style="fill:rgb(111,111,110);fill-rule:nonzero;"/>
        </g>
        <g transform="matrix(1,0,0,1,544.712,171.369)">
            <path d="M0,-10.607C-0.476,-11.082 -0.925,-11.414 -1.354,-11.604C-1.779,-11.794 -2.339,-11.888 -3.025,-11.888C-3.667,-11.888 -4.249,-11.77 -4.771,-11.533C-5.292,-11.295 -5.731,-10.963 -6.087,-10.536C-6.442,-10.109 -6.723,-9.611 -6.924,-9.041C-7.126,-8.471 -7.227,-7.854 -7.227,-7.189L-7.227,3.56L-9.789,3.56L-9.789,-13.953L-7.227,-13.953L-7.227,-11.818C-6.752,-12.553 -6.069,-13.128 -5.18,-13.544C-4.289,-13.959 -3.334,-14.167 -2.314,-14.167C-1.484,-14.167 -0.73,-14.047 -0.054,-13.811C0.623,-13.573 1.269,-13.145 1.887,-12.529L0,-10.607Z" style="fill:rgb(111,111,110);fill-rule:nonzero;"/>
        </g>
        <g transform="matrix(1,0,0,1,559.66,166.173)">
            <path d="M0,-0.001C0,-0.997 -0.071,-1.988 -0.214,-2.974C-0.355,-3.957 -0.747,-4.771 -1.388,-5.411C-2.242,-6.265 -3.311,-6.692 -4.593,-6.692C-5.851,-6.692 -6.905,-6.265 -7.76,-5.411C-8.4,-4.771 -8.799,-3.957 -8.952,-2.974C-9.107,-1.988 -9.184,-0.997 -9.184,-0.001C-9.184,0.497 -9.172,0.996 -9.148,1.494C-9.125,1.992 -9.065,2.478 -8.97,2.953C-8.876,3.429 -8.732,3.873 -8.543,4.289C-8.354,4.703 -8.093,5.077 -7.76,5.409C-6.905,6.264 -5.851,6.691 -4.593,6.691C-3.311,6.691 -2.242,6.264 -1.388,5.409C-0.747,4.746 -0.355,3.927 -0.214,2.953C-0.071,1.981 0,0.996 0,-0.001M2.563,-0.001C2.563,1.352 2.425,2.628 2.154,3.826C1.88,5.024 1.305,6.073 0.427,6.977C-0.189,7.594 -0.914,8.079 -1.745,8.435C-2.575,8.792 -3.524,8.97 -4.593,8.97C-5.659,8.97 -6.608,8.792 -7.44,8.435C-8.271,8.079 -8.993,7.594 -9.611,6.977C-10.062,6.525 -10.424,6.032 -10.697,5.499C-10.97,4.965 -11.184,4.408 -11.337,3.826C-11.492,3.245 -11.598,2.634 -11.658,1.992C-11.717,1.352 -11.746,0.688 -11.746,-0.001C-11.746,-1.354 -11.616,-2.629 -11.354,-3.828C-11.094,-5.025 -10.513,-6.075 -9.611,-6.978C-8.993,-7.594 -8.271,-8.081 -7.44,-8.437C-6.608,-8.793 -5.659,-8.971 -4.593,-8.971C-3.524,-8.971 -2.575,-8.793 -1.745,-8.437C-0.914,-8.081 -0.189,-7.594 0.427,-6.978C1.329,-6.075 1.909,-5.025 2.171,-3.828C2.432,-2.629 2.563,-1.354 2.563,-0.001" style="fill:rgb(111,111,110);fill-rule:nonzero;"/>
        </g>
        <g transform="matrix(1,0,0,1,578.597,167.418)">
            <path d="M0,-2.491C-0.024,-2.848 -0.048,-3.155 -0.071,-3.418C-0.095,-3.678 -0.124,-3.915 -0.16,-4.129C-0.195,-4.343 -0.249,-4.55 -0.321,-4.752C-0.392,-4.954 -0.475,-5.173 -0.569,-5.411C-0.949,-6.218 -1.489,-6.857 -2.188,-7.332C-2.89,-7.806 -3.714,-8.045 -4.663,-8.045C-5.612,-8.045 -6.437,-7.806 -7.137,-7.332C-7.837,-6.857 -8.377,-6.218 -8.756,-5.411C-8.875,-5.173 -8.964,-4.954 -9.023,-4.752C-9.083,-4.55 -9.13,-4.343 -9.166,-4.129C-9.201,-3.915 -9.225,-3.678 -9.237,-3.418C-9.249,-3.155 -9.267,-2.848 -9.29,-2.491L0,-2.491ZM-9.29,-0.57C-9.29,1.353 -8.857,2.842 -7.991,3.899C-7.125,4.954 -5.837,5.481 -4.129,5.481C-3.108,5.481 -2.261,5.322 -1.584,5.001C-0.908,4.68 -0.226,4.176 0.463,3.488L2.207,5.019C1.755,5.471 1.312,5.863 0.872,6.194C0.434,6.527 -0.041,6.805 -0.552,7.03C-1.062,7.255 -1.613,7.428 -2.207,7.547C-2.8,7.664 -3.466,7.725 -4.201,7.725C-5.362,7.725 -6.419,7.547 -7.368,7.19C-8.317,6.834 -9.125,6.288 -9.788,5.553C-10.453,4.818 -10.963,3.886 -11.318,2.759C-11.676,1.632 -11.854,0.296 -11.854,-1.246C-11.854,-4.117 -11.212,-6.33 -9.931,-7.885C-8.65,-9.438 -6.894,-10.216 -4.663,-10.216C-2.361,-10.216 -0.587,-9.462 0.659,-7.955C1.903,-6.448 2.526,-4.365 2.526,-1.709L2.526,-0.57L-9.29,-0.57Z" style="fill:rgb(111,111,110);fill-rule:nonzero;"/>
        </g>
        <g transform="matrix(1,0,0,1,599.207,162.542)">
            <path d="M0,7.261C0,8.947 -0.654,10.257 -1.959,11.195C-3.264,12.131 -4.984,12.601 -7.119,12.601C-8.614,12.601 -9.949,12.409 -11.123,12.032C-12.299,11.652 -13.36,10.999 -14.31,10.073L-12.601,8.364C-11.914,9.076 -11.106,9.592 -10.181,9.913C-9.256,10.233 -8.246,10.393 -7.155,10.393C-5.684,10.393 -4.539,10.139 -3.721,9.628C-2.901,9.117 -2.492,8.341 -2.492,7.297C-2.492,6.514 -2.718,5.914 -3.169,5.498C-3.619,5.084 -4.366,4.829 -5.411,4.734L-8.295,4.484C-10.003,4.342 -11.301,3.892 -12.191,3.132C-13.082,2.373 -13.526,1.258 -13.526,-0.214C-13.526,-1.02 -13.367,-1.738 -13.046,-2.368C-12.726,-2.996 -12.281,-3.53 -11.712,-3.969C-11.143,-4.408 -10.466,-4.746 -9.683,-4.984C-8.898,-5.22 -8.034,-5.34 -7.083,-5.34C-5.803,-5.34 -4.634,-5.184 -3.578,-4.878C-2.521,-4.568 -1.591,-4.093 -0.783,-3.454L-2.456,-1.78C-3.073,-2.255 -3.779,-2.604 -4.575,-2.831C-5.369,-3.055 -6.218,-3.169 -7.119,-3.169C-8.401,-3.169 -9.375,-2.913 -10.038,-2.403C-10.702,-1.892 -11.035,-1.186 -11.035,-0.285C-11.035,0.498 -10.785,1.091 -10.288,1.494C-9.789,1.899 -8.994,2.159 -7.902,2.278L-5.162,2.527C-4.402,2.598 -3.702,2.729 -3.062,2.918C-2.421,3.109 -1.876,3.388 -1.424,3.755C-0.974,4.123 -0.623,4.591 -0.374,5.16C-0.126,5.73 0,6.431 0,7.261" style="fill:rgb(111,111,110);fill-rule:nonzero;"/>
        </g>
        <g transform="matrix(1,0,0,1,0,140.511)">
            <rect x="604.153" y="31.071" width="3.347" height="3.347" style="fill:rgb(111,111,110);"/>
        </g>
    </g>
</svg>
