<svg id="Ebene_1" data-name="Ebene 1" xmlns="http://www.w3.org/2000/svg" viewBox="0 0 196.1 52.58"><defs><style>.cls-1{fill:#686868;}</style></defs><title>marantec-group</title><g id="marantec-group"><g id="grey"><path class="cls-1" d="M1.4,25.18a21.1,21.1,0,0,1,4-.73A31.83,31.83,0,0,1,11.07,24a10.23,10.23,0,0,1,3.95.58,6.82,6.82,0,0,1,2.64,1.91,3,3,0,0,1,1-.59A10.6,10.6,0,0,1,20.44,25c.73-.29,1.46-.44,2.34-.73A15.92,15.92,0,0,1,25.56,24a9.94,9.94,0,0,1,4.54.88,7.17,7.17,0,0,1,2.79,2.34,7.42,7.42,0,0,1,1.32,3.52,22.32,22.32,0,0,1,.29,4.54V48.91H30.1V36.16A28.42,28.42,0,0,0,30,32.5a11.68,11.68,0,0,0-.73-2.63,3.1,3.1,0,0,0-1.61-1.47A7.22,7.22,0,0,0,25,28a9.1,9.1,0,0,0-3.66.59,3.77,3.77,0,0,0-1.91.88A16.57,16.57,0,0,1,20,32.06a21.18,21.18,0,0,1,.15,3.08V48.76h-4.4V36a24.12,24.12,0,0,0-.29-3.66,7,7,0,0,0-.88-2.64A3.12,3.12,0,0,0,13,28.26a6.16,6.16,0,0,0-2.49-.44H9A5.24,5.24,0,0,0,7.55,28a2.78,2.78,0,0,0-1,.15,3,3,0,0,0-.74.15v20.5H1.4Z" transform="translate(-1.4 -23.86)"/><path class="cls-1" d="M49.58,23.86a12.55,12.55,0,0,1,4.4.73,6.87,6.87,0,0,1,2.93,1.91,7.31,7.31,0,0,1,1.61,2.93,15.2,15.2,0,0,1,.44,3.8V48.47a9.34,9.34,0,0,0-1.62.29c-.73.15-1.46.15-2.34.29s-1.76.15-2.78.29a19.18,19.18,0,0,1-2.93.15,16.11,16.11,0,0,1-3.81-.44,7.7,7.7,0,0,1-2.93-1.32,5.81,5.81,0,0,1-1.9-2.34,9,9,0,0,1-.73-3.66,6.94,6.94,0,0,1,.88-3.52A6.77,6.77,0,0,1,43,35.87a11,11,0,0,1,3.22-1.32,17.41,17.41,0,0,1,4-.44h1.32c.44,0,.88.15,1.31.15a3.2,3.2,0,0,0,1.18.15,1.54,1.54,0,0,1,.58.14V33.38a11.16,11.16,0,0,0-.29-2.2A4.68,4.68,0,0,0,51.78,28,7.42,7.42,0,0,0,49,27.52a28.07,28.07,0,0,0-3.81.3,13.24,13.24,0,0,0-2.34.58l-.59-3.66A14.39,14.39,0,0,1,45,24C46.65,24,48.12,23.86,49.58,23.86ZM50,45.68H52.8a8.53,8.53,0,0,0,2.06-.29V38.07a8.33,8.33,0,0,0-1.47-.44,13.07,13.07,0,0,0-2.49-.15,10.15,10.15,0,0,0-2,.15,8.32,8.32,0,0,0-2.05.58,4,4,0,0,0-1.46,1.18,3.08,3.08,0,0,0-.59,2c0,1.61.44,2.63,1.46,3.22C47,45.39,48.26,45.68,50,45.68Z" transform="translate(-1.4 -23.86)"/><path class="cls-1" d="M75.21,23.86h1.32c.44,0,1,.15,1.46.15s.88.14,1.32.29a2.55,2.55,0,0,0,.88.15l-.73,3.81a6.81,6.81,0,0,0-1.76-.44,15.17,15.17,0,0,0-3.07-.3,11.25,11.25,0,0,0-2.35.3,14.28,14.28,0,0,1-1.61.29v20.5H66.28V25.47a19.78,19.78,0,0,1,3.81-1A25.39,25.39,0,0,1,75.21,23.86Z" transform="translate(-1.4 -23.86)"/><path class="cls-1" d="M92.2,23.86a12.45,12.45,0,0,1,4.39.73,6.75,6.75,0,0,1,2.93,1.91,7.08,7.08,0,0,1,1.61,2.93,14.75,14.75,0,0,1,.44,3.8V48.47a9.1,9.1,0,0,0-1.61.29c-.73.15-1.46.15-2.34.29s-1.76.15-2.78.29a19.25,19.25,0,0,1-2.93.15,16.11,16.11,0,0,1-3.81-.44,7.63,7.63,0,0,1-2.93-1.32,5.81,5.81,0,0,1-1.9-2.34,9,9,0,0,1-.74-3.66,7,7,0,0,1,.88-3.52,6.89,6.89,0,0,1,2.2-2.34,11,11,0,0,1,3.22-1.32,17.41,17.41,0,0,1,4-.44H94.1c.44,0,.88.15,1.32.15a3.14,3.14,0,0,0,1.17.15,1.56,1.56,0,0,1,.59.14V33.38a12,12,0,0,0-.29-2.2,4.6,4.6,0,0,0-.88-1.9A4.67,4.67,0,0,0,94.4,28a7.44,7.44,0,0,0-2.79-.44,28,28,0,0,0-3.8.3,13.41,13.41,0,0,0-2.35.58l-.58-3.66A14.18,14.18,0,0,1,87.66,24C89.27,24,90.59,23.86,92.2,23.86Zm.29,21.82h2.79a8.51,8.51,0,0,0,2-.29V38.07a8.33,8.33,0,0,0-1.47-.44,13.07,13.07,0,0,0-2.49-.15,10.15,10.15,0,0,0-2.05.15,8.32,8.32,0,0,0-2,.58,4.08,4.08,0,0,0-1.46,1.18,3.08,3.08,0,0,0-.59,2c0,1.61.44,2.63,1.47,3.22A5.62,5.62,0,0,0,92.49,45.68Z" transform="translate(-1.4 -23.86)"/><path class="cls-1" d="M108.75,25.18a20.94,20.94,0,0,1,4-.73,31.75,31.75,0,0,1,5.72-.44,11.81,11.81,0,0,1,4.83.88,7.14,7.14,0,0,1,3.07,2.34,9.7,9.7,0,0,1,1.62,3.52,21.82,21.82,0,0,1,.43,4.54V48.91H124V36.16a27.81,27.81,0,0,0-.29-3.8,7.12,7.12,0,0,0-1-2.64,3.87,3.87,0,0,0-1.9-1.46,8.07,8.07,0,0,0-2.93-.44h-1.46a5.24,5.24,0,0,0-1.47.14c-.44,0-.88.15-1.17.15a6,6,0,0,0-.73.15v20.5h-4.4V25.18Z" transform="translate(-1.4 -23.86)"/><path class="cls-1" d="M139.8,24.45H149v3.66H139.8V39.39a17.9,17.9,0,0,0,.29,3.07,3.89,3.89,0,0,0,.88,1.91,5.46,5.46,0,0,0,1.46,1,7.36,7.36,0,0,0,1.91.29,9.85,9.85,0,0,0,3.22-.44c.73-.29,1.32-.44,1.61-.58l.88,3.66c-.44.15-1.17.44-2.34.88a14.51,14.51,0,0,1-3.81.44,11,11,0,0,1-4.1-.59,6.72,6.72,0,0,1-2.64-1.9,7.44,7.44,0,0,1-1.32-3.08,18.11,18.11,0,0,1-.44-4.24V24.45Z" transform="translate(-1.4 -23.86)"/><path class="cls-1" d="M152.69,36.6a16.89,16.89,0,0,1,.87-5.71,10.82,10.82,0,0,1,2.49-3.95,9.28,9.28,0,0,1,3.52-2.35,13.42,13.42,0,0,1,4.1-.73,9.6,9.6,0,0,1,7.61,3.08c1.76,2,2.64,5.12,2.64,9.37v1.61H157.23a8.43,8.43,0,0,0,2.19,5.71c1.32,1.32,3.22,1.91,6,1.91a14.38,14.38,0,0,0,3.8-.44c1-.3,1.91-.59,2.35-.73l.58,3.66a12.86,12.86,0,0,1-2.78.88,21,21,0,0,1-4.54.43,13,13,0,0,1-5.56-1,8.9,8.9,0,0,1-3.81-2.64,10.5,10.5,0,0,1-2.2-4A26.29,26.29,0,0,1,152.69,36.6Zm16.69-2.34a7.62,7.62,0,0,0-1.46-4.83,4.92,4.92,0,0,0-4.25-1.91,5,5,0,0,0-2.64.59,6.69,6.69,0,0,0-1.9,1.46,5.23,5.23,0,0,0-1.17,2.2,15,15,0,0,0-.59,2.49Z" transform="translate(-1.4 -23.86)"/><path class="cls-1" d="M190.76,49.34a14,14,0,0,1-5.12-.87,9.91,9.91,0,0,1-3.81-2.64,13.23,13.23,0,0,1-2.34-3.95,18.9,18.9,0,0,1-.74-5.13,14.11,14.11,0,0,1,.88-5.13,12.5,12.5,0,0,1,2.35-4.1,9.27,9.27,0,0,1,3.66-2.63,12.82,12.82,0,0,1,4.83-1,24.85,24.85,0,0,1,3.22.29,10.74,10.74,0,0,1,3.08.88l-1,3.66A9,9,0,0,0,193.4,28a17,17,0,0,0-2.78-.29A6.63,6.63,0,0,0,185.05,30c-1.32,1.47-1.9,3.81-1.9,6.74a14.4,14.4,0,0,0,.44,3.66A6.62,6.62,0,0,0,187.54,45a9.16,9.16,0,0,0,3.66.59,18,18,0,0,0,3.08-.3,7.49,7.49,0,0,0,2.19-.73l.59,3.66a6.33,6.33,0,0,1-1,.44c-.44.15-1,.3-1.62.44s-1.17.15-1.9.29Z" transform="translate(-1.4 -23.86)"/><path class="cls-1" d="M75.21,73.51a7.66,7.66,0,0,1-1.9-.29A5.26,5.26,0,0,1,72,72.34a12.67,12.67,0,0,1-.88-1.47A9.44,9.44,0,0,1,71,68.82a7.2,7.2,0,0,1,.3-1.9,3,3,0,0,1,.88-1.47,3.14,3.14,0,0,1,1.31-1,3.78,3.78,0,0,1,1.76-.29,3.36,3.36,0,0,1,1.17.14,3.42,3.42,0,0,1,1.18.3L77,66a5,5,0,0,0-.88-.29c-.29,0-.58-.15-1-.15a2.43,2.43,0,0,0-2,.88,3.73,3.73,0,0,0-.74,2.34,4,4,0,0,0,.15,1.32,7.56,7.56,0,0,0,.44,1,3.3,3.3,0,0,0,2.2.87,3.38,3.38,0,0,0,1.17-.14c.29-.15.58-.15.73-.29l.29,1.31c-.14,0-.29.15-.44.15s-.29.15-.58.15a1.69,1.69,0,0,0-.74.14C75.65,73.36,75.36,73.51,75.21,73.51Z" transform="translate(-1.4 -23.86)"/><path class="cls-1" d="M87.51,68.82a7.36,7.36,0,0,1-.29,1.91,3.08,3.08,0,0,1-.88,1.46,2.13,2.13,0,0,1-1.32.88,2.9,2.9,0,0,1-1.61.29,5.19,5.19,0,0,1-1.61-.29,7.21,7.21,0,0,1-1.32-.88,13.41,13.41,0,0,1-.87-1.46,7.35,7.35,0,0,1-.3-1.91,7.2,7.2,0,0,1,.3-1.9,3,3,0,0,1,.87-1.47,2.6,2.6,0,0,1,1.32-.87,5.18,5.18,0,0,1,1.61-.3,5.07,5.07,0,0,1,1.61.3,6.67,6.67,0,0,1,1.32.87,11.41,11.41,0,0,1,.88,1.47A4.35,4.35,0,0,1,87.51,68.82Zm-1.61,0a3.73,3.73,0,0,0-.73-2.34,2.19,2.19,0,0,0-3.51,0,4.09,4.09,0,0,0,0,4.69,2.21,2.21,0,0,0,3.51,0A3,3,0,0,0,85.9,68.82Z" transform="translate(-1.4 -23.86)"/><path class="cls-1" d="M90.59,64.72c.29-.14.88-.14,1.46-.29a8.82,8.82,0,0,1,2-.15,4.26,4.26,0,0,1,1.47.3,2.45,2.45,0,0,1,1,.73c.15,0,.15-.15.44-.3s.44-.14.59-.29.59-.14.88-.29.58-.15,1-.15a4.39,4.39,0,0,1,1.61.3,1.92,1.92,0,0,1,1,.87,1.83,1.83,0,0,1,.44,1.32,5.38,5.38,0,0,1,.15,1.61v5h-1.62V68.82A3.44,3.44,0,0,0,101,67.5a1.2,1.2,0,0,0-.3-.87,1.12,1.12,0,0,0-.58-.59,1.82,1.82,0,0,0-.88-.15,3.2,3.2,0,0,0-1.32.15,3.33,3.33,0,0,0-.73.44,2.12,2.12,0,0,1,.15,1v6H95.72V69a3.17,3.17,0,0,0-.15-1.32,1.28,1.28,0,0,0-.29-.88,1.15,1.15,0,0,0-.59-.58,1.82,1.82,0,0,0-.88-.15H92.05v7.32H90.44V64.72Z" transform="translate(-1.4 -23.86)"/><path class="cls-1" d="M113.73,68.82a7.82,7.82,0,0,1-.29,1.91,4.57,4.57,0,0,1-.74,1.46,2.28,2.28,0,0,1-1.17.88,2.91,2.91,0,0,1-1.61.29,3.82,3.82,0,0,1-1.32-.14,2.59,2.59,0,0,1-.88-.44v3.51h-1.61V64.72c.44-.14.88-.14,1.32-.29a7.59,7.59,0,0,1,1.91-.15,5.31,5.31,0,0,1,1.75.3,2.91,2.91,0,0,1,1.32.87,3.06,3.06,0,0,1,.88,1.47A4.54,4.54,0,0,1,113.73,68.82Zm-1.76,0a3.73,3.73,0,0,0-.73-2.34,2.45,2.45,0,0,0-2-.88H108c-.3,0-.44,0-.59.15v5.56a2.27,2.27,0,0,0,.88.44,2.78,2.78,0,0,0,1.17.15,2.84,2.84,0,0,0,1.17-.29,1.76,1.76,0,0,0,.74-.74,8.12,8.12,0,0,0,.44-1A2,2,0,0,0,112,68.82Z" transform="translate(-1.4 -23.86)"/><path class="cls-1" d="M119.59,64.28a5.18,5.18,0,0,1,1.61.3,2.45,2.45,0,0,1,1,.73,2.29,2.29,0,0,1,.59,1,4,4,0,0,1,.15,1.32v5.42a1.09,1.09,0,0,0-.59.15c-.29,0-.59.14-.88.14a2.78,2.78,0,0,0-1,.15h-1a4,4,0,0,1-1.32-.15,6,6,0,0,1-1-.44,1.43,1.43,0,0,1-.73-.88,2.84,2.84,0,0,1-.3-1.31,4.2,4.2,0,0,1,.3-1.32,3.55,3.55,0,0,1,.73-.88,2.72,2.72,0,0,1,1.17-.44,4.4,4.4,0,0,1,1.46-.15h.88a.52.52,0,0,1,.44.15h.29v-.44a1.14,1.14,0,0,0-.14-.73c0-.29-.15-.44-.29-.73a2,2,0,0,0-.59-.44,2.14,2.14,0,0,0-1-.15,3.14,3.14,0,0,0-1.31.15,1.21,1.21,0,0,0-.88.29L117,64.58c.15-.15.59-.15,1-.3Zm.14,7.76h1a1.14,1.14,0,0,0,.73-.14V69.26c-.15,0-.29-.14-.58-.14h-1.62c-.29,0-.44.14-.73.14s-.44.29-.58.44a1.08,1.08,0,0,0-.15.73,1.21,1.21,0,0,0,.59,1.18C118.56,72,119,72,119.73,72Z" transform="translate(-1.4 -23.86)"/><path class="cls-1" d="M126.32,64.72c.3-.14.88-.14,1.47-.29a8.78,8.78,0,0,1,2-.15,5.38,5.38,0,0,1,1.76.3,2.21,2.21,0,0,1,1.17.87,3.61,3.61,0,0,1,.58,1.32,5.38,5.38,0,0,1,.15,1.61v5h-1.61V68.82a3.22,3.22,0,0,0-.15-1.32c-.14-.43-.14-.73-.29-.87a1.47,1.47,0,0,0-.73-.59,2.16,2.16,0,0,0-1-.15h-1.9v7.33h-1.61v-8.5Z" transform="translate(-1.4 -23.86)"/><path class="cls-1" d="M135.55,74.83c.15,0,.29.14.44.14s.44.15.59.15a2.19,2.19,0,0,0,1.46-.44,3,3,0,0,0,.88-1.32c-.73-1.32-1.32-2.78-2-4.24a27.87,27.87,0,0,1-1.47-4.54H137c.14.43.29,1,.43,1.61s.44,1.17.59,1.75a17.19,17.19,0,0,0,.73,1.91c.3.58.44,1.17.73,1.76.44-1.18.74-2.35,1.18-3.52l.88-3.51h1.61c-.44,1.61-.88,3.22-1.32,4.68a37.43,37.43,0,0,1-1.61,4.25c-.3.44-.44.88-.74,1.32s-.43.73-.73.88a2.28,2.28,0,0,1-1,.58,2.8,2.8,0,0,1-1.17.15h-.88c-.15,0-.3,0-.3-.15s-.14,0-.29-.14Z" transform="translate(-1.4 -23.86)"/><path class="cls-1" d="M156.05,72.34c-.14.14-.44.14-.73.29a4,4,0,0,1-1.32.15,4.25,4.25,0,0,1-1.46-.3,3.1,3.1,0,0,1-1.17-.73,4.77,4.77,0,0,1-.88-1.32,5.91,5.91,0,0,1,0-3.66,2.19,2.19,0,0,1,.88-1.32,2.56,2.56,0,0,1,1.32-.87,3.61,3.61,0,0,1,1.75-.3,7.59,7.59,0,0,1,1.91.15,11.06,11.06,0,0,1,1.31.29v7.76a3.58,3.58,0,0,1-1,2.93,5,5,0,0,1-3.22.88,6.23,6.23,0,0,1-1.61-.14c-.44-.15-.88-.15-1.32-.3l.29-1.32a2.69,2.69,0,0,0,1.17.3,4.74,4.74,0,0,0,1.47.14,2.86,2.86,0,0,0,2.05-.58,2.34,2.34,0,0,0,.58-1.76Zm-.14-6.45c-.15,0-.44-.14-.59-.14h-1a2.18,2.18,0,0,0-1.91.88,3.56,3.56,0,0,0-.73,2.19,4,4,0,0,0,.15,1.32,3,3,0,0,0,.58.88,1.53,1.53,0,0,0,.73.59,2,2,0,0,0,.88.14,3.41,3.41,0,0,0,1.18-.14l.87-.44V65.89Z" transform="translate(-1.4 -23.86)"/><path class="cls-1" d="M164.26,64.28h1a.53.53,0,0,1,.44.15c.15,0,.29,0,.29.15l-.29,1.31c-.15,0-.29-.14-.59-.14A11.73,11.73,0,0,0,164,65.6a1.84,1.84,0,0,0-.88.15c-.29,0-.44.14-.58.14v7.33h-1.61V64.87l1.31-.44A11,11,0,0,1,164.26,64.28Z" transform="translate(-1.4 -23.86)"/><path class="cls-1" d="M176.12,68.82a7.82,7.82,0,0,1-.29,1.91,3.08,3.08,0,0,1-.88,1.46,2.19,2.19,0,0,1-1.32.88,2.93,2.93,0,0,1-1.61.29,5.14,5.14,0,0,1-1.61-.29,7.21,7.21,0,0,1-1.32-.88,13.38,13.38,0,0,1-.88-1.46,7.36,7.36,0,0,1-.29-1.91,7.22,7.22,0,0,1,.29-1.9,3.06,3.06,0,0,1,.88-1.47,2.56,2.56,0,0,1,1.32-.87,5.13,5.13,0,0,1,1.61-.3,5.18,5.18,0,0,1,1.61.3,6.67,6.67,0,0,1,1.32.87,14.25,14.25,0,0,1,.88,1.47A4.35,4.35,0,0,1,176.12,68.82Zm-1.61,0a3.73,3.73,0,0,0-.74-2.34,2.19,2.19,0,0,0-3.51,0,4.13,4.13,0,0,0,0,4.69,2.21,2.21,0,0,0,3.51,0A3,3,0,0,0,174.51,68.82Z" transform="translate(-1.4 -23.86)"/><path class="cls-1" d="M186.22,72.92a12.44,12.44,0,0,1-1.46.3,9.44,9.44,0,0,1-2,.14,6.23,6.23,0,0,1-1.76-.29,2.28,2.28,0,0,1-1.17-.88,2.8,2.8,0,0,1-.59-1.32,5.72,5.72,0,0,1-.14-1.61v-5h1.61v4.54a5.07,5.07,0,0,0,.44,2.35,2,2,0,0,0,1.75.73h1.76V64.58h1.61Z" transform="translate(-1.4 -23.86)"/><path class="cls-1" d="M197.5,68.82a7.82,7.82,0,0,1-.29,1.91,4.57,4.57,0,0,1-.74,1.46,2.28,2.28,0,0,1-1.17.88,2.91,2.91,0,0,1-1.61.29,3.82,3.82,0,0,1-1.32-.14,2.42,2.42,0,0,1-.87-.44v3.51h-1.62V64.72c.44-.14.88-.14,1.32-.29a7.59,7.59,0,0,1,1.91-.15,5.31,5.31,0,0,1,1.75.3,2.91,2.91,0,0,1,1.32.87,3.06,3.06,0,0,1,.88,1.47A4.54,4.54,0,0,1,197.5,68.82Zm-1.76,0a3.73,3.73,0,0,0-.73-2.34,2.45,2.45,0,0,0-2-.88h-1.17c-.29,0-.44,0-.59.15v5.56a2.27,2.27,0,0,0,.88.44,2.78,2.78,0,0,0,1.17.15,2.84,2.84,0,0,0,1.17-.29,1.76,1.76,0,0,0,.74-.74,8.12,8.12,0,0,0,.44-1A2,2,0,0,0,195.74,68.82Z" transform="translate(-1.4 -23.86)"/></g></g></svg>