<svg id="Ebene_1" data-name="Ebene 1" xmlns="http://www.w3.org/2000/svg" viewBox="0 0 192.42 66.47"><defs><style>.cls-1{fill:#6a6a6a;}</style></defs><title>qt-company</title><g id="qt-company"><g id="grey"><g id="g4261"><path class="cls-1" d="M16.25,16.77h-.1C12,20.9,7.84,25,3.7,29.12V83.23h78L94.28,70.69V16.77ZM52,74.16l-6,2.74c-1.69-2.78-3.37-5.59-5.08-8.37a25.35,25.35,0,0,1-7,.09,14.1,14.1,0,0,1-7.72-3,12.53,12.53,0,0,1-3.38-5.43,34.78,34.78,0,0,1-1.51-10.63A37.4,37.4,0,0,1,22.82,38c.9-2.8,2.39-5.58,4.92-7.21l0,0a18.32,18.32,0,0,1,10.19-2.42c3.32.05,6.81.63,9.57,2.61a12.29,12.29,0,0,1,4.16,5.83A33.7,33.7,0,0,1,53.5,48.35,35.45,35.45,0,0,1,52,60.08a13.29,13.29,0,0,1-4.74,6.41C48.86,69.06,50.47,71.59,52,74.16ZM67.55,57.73a9.32,9.32,0,0,0,.56,3.67,2.49,2.49,0,0,0,2.34,1.13c1.63,0,3.27-.1,4.9-.13.1,1.64.19,3.27.29,4.92-3.26.55-6.67,1.2-9.9.18a4.81,4.81,0,0,1-3.18-2.65,19,19,0,0,1-1.11-7.29c0-4.45,0-8.88,0-13.33H57.09V38.87h4.35c0-2.75,0-5.49,0-8.24h6.23c0,2.74,0,5.49,0,8.23h8c0,1.78-.09,3.56-.14,5.35h-8C67.54,48.73,67.52,53.24,67.55,57.73Z" transform="translate(-3.7 -16.77)"/><path id="path4196" class="cls-1" d="M35.36,34a12.14,12.14,0,0,1,6,.57A6.49,6.49,0,0,1,45,37.87a21.52,21.52,0,0,1,1.68,7.35,49.38,49.38,0,0,1-.27,10,11,11,0,0,1-2.12,5.6,7.91,7.91,0,0,1-5.45,2.4,11.56,11.56,0,0,1-6.25-1,6,6,0,0,1-2.61-2.66,16.16,16.16,0,0,1-1.3-4.35,37.5,37.5,0,0,1,.1-14.36,10.69,10.69,0,0,1,2.37-4.94,7.44,7.44,0,0,1,4.28-2Z" transform="translate(-3.7 -16.77)"/><path id="path4219" class="cls-1" d="M106.55,30.82H111V44.11h2.54V30.82h4.38V28.58H106.55Z" transform="translate(-3.7 -16.77)"/><path id="path4221" class="cls-1" d="M122.14,44.11V35.22a8.14,8.14,0,0,1,2.54-.5c1.75,0,2,1.11,2,3.38v6h2.47V38c0-3.72-.77-5.51-3.92-5.51a8.4,8.4,0,0,0-3.11.84V28.05h-2.47V44.11Z" transform="translate(-3.7 -16.77)"/><path id="path4223" class="cls-1" d="M136.61,42.21c-1.88,0-2.56-.91-2.59-2.72h7l.16-1.77c0-3.54-1.58-5.2-4.76-5.2s-4.92,1.88-4.92,6c0,4,1.31,5.8,4.72,5.8a28.33,28.33,0,0,0,4.58-.52L140.78,42S138.4,42.21,136.61,42.21ZM134,37.58c0-2.18.77-3,2.45-3s2.34.75,2.34,3Z" transform="translate(-3.7 -16.77)"/><path id="path4225" class="cls-1" d="M157.94,47.54l2.34-1.09-1.91-3.06c1.82-1.21,2.47-3.45,2.47-7,0-5.21-1.45-8.09-6.3-8.09s-6.33,2.9-6.33,8.09,1.45,7.94,6.33,7.94a5.81,5.81,0,0,0,1.38-.13l2,3.31Zm-3.4-5.38c-3,0-3.72-1.84-3.72-5.74s.72-5.89,3.72-5.89,3.7,2,3.7,5.89S157.55,42.16,154.54,42.16Z" transform="translate(-3.7 -16.77)"/><path id="path4227" class="cls-1" d="M169.58,34.88V32.77h-3.13V29.48H164v3.29h-1.45v2.11H164v5.26c0,3.27.8,4.22,3.36,4.22a17.21,17.21,0,0,0,2.31-.29l-.11-2s-1.23.07-1.86.07c-1.18,0-1.25-.59-1.25-2.29v-5Z" transform="translate(-3.7 -16.77)"/><path id="path4229" class="cls-1" d="M117.62,64.46a30,30,0,0,1-4,.34c-3.06,0-3.63-1.5-3.63-5.76s.71-5.79,3.56-5.79a27.42,27.42,0,0,1,4,.37l.09-2a22.41,22.41,0,0,0-4.45-.56c-4.65,0-5.83,2.42-5.83,8,0,5.3,1.09,8,5.83,8a24.29,24.29,0,0,0,4.43-.5l-.07-2.08Z" transform="translate(-3.7 -16.77)"/><path id="path4231" class="cls-1" d="M124.4,55.2c-3.78,0-5.05,2.18-5.05,5.85s1.18,6,5.05,6,5.06-2.22,5.06-6S128.19,55.2,124.4,55.2Zm0,9.76c-2.11,0-2.56-1.27-2.56-3.91s.57-3.76,2.56-3.76S127,58.42,127,61.05,126.51,65,124.4,65Z" transform="translate(-3.7 -16.77)"/><path id="path4233" class="cls-1" d="M134.37,66.79V58a6.23,6.23,0,0,1,2.45-.59c1.7,0,2,1.05,2,3.56v5.83h2.45V60.92A18.44,18.44,0,0,0,141,58a7.16,7.16,0,0,1,2.58-.62c1.66,0,1.93,1.11,1.93,3.38v6H148V60.71c0-3.85-.84-5.51-3.93-5.51a9.9,9.9,0,0,0-3.9,1.11,3.36,3.36,0,0,0-2.88-1.11,7.1,7.1,0,0,0-2.95,1v-.71H131.9V66.79Z" transform="translate(-3.7 -16.77)"/><path id="path4235" class="cls-1" d="M150.9,71.67h2.47V66.84a15.69,15.69,0,0,0,2.16.2c3.49,0,5.08-1.36,5.08-6,0-4.13-1.39-5.81-4.34-5.81a6.77,6.77,0,0,0-2.92,1v-.71H150.9V71.67Zm4.94-14.27c1.41,0,2.25,1,2.25,3.61s-.61,3.9-2.72,3.9a15.38,15.38,0,0,1-2-.18V58a6.44,6.44,0,0,1,2.47-.64Z" transform="translate(-3.7 -16.77)"/><path id="path4237" class="cls-1" d="M171.47,59c0-2.59-1.13-3.75-3.9-3.75a23.48,23.48,0,0,0-4.56.59l.09,1.75s2.75-.23,4.27-.23c1.11,0,1.65.39,1.65,1.64v.81L166.1,60c-2.43.21-3.74,1-3.74,3.43s1.13,3.6,3.37,3.6a10.05,10.05,0,0,0,3.66-.84,4.29,4.29,0,0,0,3,.84l.07-1.88a1,1,0,0,1-1-1V59ZM169,61.51v3a10.92,10.92,0,0,1-2.81.49c-1,0-1.38-.63-1.38-1.65s.52-1.52,1.56-1.61l2.63-.25Z" transform="translate(-3.7 -16.77)"/><path id="path4239" class="cls-1" d="M177.07,66.79V58a6.85,6.85,0,0,1,2.56-.59c1.73,0,2,1.11,2,3.38v6h2.45V60.71c0-3.72-.77-5.51-3.92-5.51a7.47,7.47,0,0,0-3.13,1v-.71H174.6V66.79Z" transform="translate(-3.7 -16.77)"/><path id="path4241" class="cls-1" d="M185.83,55.45l3,11.34h1.95l-1.36,4.88h2.42l4.31-16.22h-2.45l-2.4,9.23h-.61l-2.41-9.23Z" transform="translate(-3.7 -16.77)"/></g></g></g></svg>