<svg id="Ebene_1" data-name="Ebene 1" xmlns="http://www.w3.org/2000/svg" viewBox="0 0 179.11 66.5"><defs><style>.cls-1{fill:#777;}</style></defs><title>stream-unlimited</title><g id="stream-unlimited"><g id="grey"><path class="cls-1" d="M58.94,61.61c-11.83,0-20.12-9.52-24-15.22a6.77,6.77,0,0,1,11.16-7.65c1.91,2.79,7,9.33,12.86,9.33,6.54,0,11.88-8.17,14.75-12.51l0-.08c4-6.1,12.27-18.73,26.21-18.73,12.12,0,20.32,9.56,24.11,15.3a6.75,6.75,0,0,1-11.24,7.49c-1.87-2.79-6.81-9.28-12.87-9.28-6.65,0-12,8.21-14.9,12.59l0,.08C81,49,72.77,61.61,58.94,61.61" transform="translate(-9.88 -16.75)"/><path class="cls-1" d="M23.4,68a12.16,12.16,0,0,0-4.66-.68c-2.07,0-6.85.52-6.85,5.18,0,2.51,2,3.31,3.63,4,1.19.47,2.23.87,2.23,1.83,0,1.35-1.68,1.67-3.07,1.67a7.72,7.72,0,0,1-3.63-.83.07.07,0,0,0-.12,0,.09.09,0,0,0-.08.08L9.9,82.29c0,.08,0,.16.08.16a17.22,17.22,0,0,0,4.7.8c2.79,0,7.49-.72,7.49-5.38,0-2.79-2.11-3.67-3.83-4.34-1.11-.44-2-.8-2-1.6s.84-1.31,2.75-1.31a7.7,7.7,0,0,1,3.27.68h.12a.09.09,0,0,0,.08-.08l.95-3c0-.12,0-.16-.08-.2" transform="translate(-9.88 -16.75)"/><path class="cls-1" d="M30.38,80.14l-.08,0a3.84,3.84,0,0,1-1.12.28A1.05,1.05,0,0,1,28,79.34a7.65,7.65,0,0,1,.2-1.43l.11-.48.64-3h2.71a.11.11,0,0,0,.12-.12l.48-2.7a.14.14,0,0,0-.16-.16H29.62l.76-3.35a.14.14,0,0,0-.16-.16L26.11,69a.09.09,0,0,0-.08.07l-.51,2.32H23.4a.11.11,0,0,0-.12.12l-.47,2.7a.14.14,0,0,0,.16.16h1.91l-.64,3a10.11,10.11,0,0,0-.36,2.35c0,2.19,1.36,3.47,3.71,3.47A19.29,19.29,0,0,0,30,83s.08,0,.12-.12l.44-2.55a.15.15,0,0,0,0-.12c-.08-.08-.12-.08-.16-.08" transform="translate(-9.88 -16.75)"/><path class="cls-1" d="M40.9,75.16a.09.09,0,0,0,.08-.08l.87-3.43c0-.07,0-.11-.08-.15a4.43,4.43,0,0,0-1.67-.28,4,4,0,0,0-3.27,2l.32-1.63a.14.14,0,0,0-.16-.16H33.4c-.07,0-.11,0-.11.12a27.4,27.4,0,0,1-.48,2.9l-1.76,8.33a.14.14,0,0,0,.16.16h3.87a.11.11,0,0,0,.12-.12l1.11-5.18c.24-1.43,1.12-3,2.75-3a2.64,2.64,0,0,1,1.72.44.15.15,0,0,0,.12,0" transform="translate(-9.88 -16.75)"/><path class="cls-1" d="M47.59,71.18A6.6,6.6,0,0,0,40.74,78c0,3.63,3,5.26,5.93,5.26a14.77,14.77,0,0,0,4-.64s.08,0,.08-.12l.47-2.75a.18.18,0,0,0,0-.12.07.07,0,0,0-.12,0,8.35,8.35,0,0,1-3.47.76c-2.39,0-2.83-1-2.87-1.87h7.81a.11.11,0,0,0,.12-.12,11.75,11.75,0,0,0,.28-2.15c0-3.19-2-5-5.34-5M44.92,76a2.74,2.74,0,0,1,2.71-2c1.39,0,1.75,1,1.75,2Z" transform="translate(-9.88 -16.75)"/><path class="cls-1" d="M60.14,71.18a13.17,13.17,0,0,0-4.18.63s-.08,0-.08.12l-.4,2.83a.15.15,0,0,0,0,.12.08.08,0,0,0,.12,0A7,7,0,0,1,59.22,74c1.12,0,2,.55,2,1.31v.32c-.56,0-1.28-.08-2-.08-3.9,0-6.33,1.63-6.33,4.26,0,2.23,1.35,3.39,3.9,3.39a4.51,4.51,0,0,0,3.63-1.55l-.12,1.15a.15.15,0,0,0,0,.12.12.12,0,0,0,.08,0h3.19a.11.11,0,0,0,.12-.12,41.27,41.27,0,0,1,.83-4.3,16,16,0,0,0,.6-3.39c0-2.55-1.79-4-5-4m.64,6.73A2.79,2.79,0,0,1,58,80.34a1.13,1.13,0,0,1-1.2-1c0-.83,1.2-1.47,2.83-1.47h.24a7.72,7.72,0,0,1,.92,0" transform="translate(-9.88 -16.75)"/><path class="cls-1" d="M81.5,71.18a4.84,4.84,0,0,0-4,2.11,3.08,3.08,0,0,0-3-2.11,4.82,4.82,0,0,0-3.78,1.91l.32-1.51a.14.14,0,0,0-.16-.16H67.43a.11.11,0,0,0-.12.12,27.4,27.4,0,0,1-.48,2.9l-1.75,8.33a.14.14,0,0,0,.16.16h3.9a.11.11,0,0,0,.12-.12l1.12-5.18c.32-1.43.76-3,2.19-3,.76,0,1.12.32,1.12,1a9.76,9.76,0,0,1-.2,1.63l-1.12,5.46a.14.14,0,0,0,.16.16H76.4a.11.11,0,0,0,.12-.12l1.11-5.18c.32-1.43.76-3,2.19-3,.76,0,1.12.32,1.12,1a9.76,9.76,0,0,1-.2,1.63l-1.12,5.46a.14.14,0,0,0,.16.16h3.87a.11.11,0,0,0,.12-.12l1.15-5.62a13.36,13.36,0,0,0,.28-2.55,3.37,3.37,0,0,0-3.7-3.46" transform="translate(-9.88 -16.75)"/><path class="cls-1" d="M101.54,67.75a.14.14,0,0,0-.16-.16h-4a.11.11,0,0,0-.12.12L95.8,74.52l-.12.6c-.48,2.27-1,4.82-3.27,4.82a1.87,1.87,0,0,1-2-2,10.52,10.52,0,0,1,.24-1.47l1.83-8.69a.14.14,0,0,0-.16-.16H88.27a.11.11,0,0,0-.12.12l-1.71,7.73a12.09,12.09,0,0,0-.32,2.87c0,3.19,2.15,4.86,6.17,4.86,5.58,0,6.78-3.67,7.77-8.41Z" transform="translate(-9.88 -16.75)"/><path class="cls-1" d="M109.94,71.18a5.2,5.2,0,0,0-4.18,1.87l.24-1.43a.14.14,0,0,0-.16-.16h-3.59a.11.11,0,0,0-.12.12,25.13,25.13,0,0,1-.47,2.9L99.9,82.81a.14.14,0,0,0,.16.16H104a.11.11,0,0,0,.12-.12l1.11-5.18c.24-1.43,1.08-3,2.75-3,1,0,1.36.6,1.36,1.16a4.9,4.9,0,0,1-.2,1.31c0,.12,0,.24-.08.36L108,82.77a.14.14,0,0,0,.16.16h4a.11.11,0,0,0,.12-.12l1-5.26a10.54,10.54,0,0,0,.32-2.39c0-2.43-1.43-4-3.67-4" transform="translate(-9.88 -16.75)"/><path class="cls-1" d="M121.38,66.55a.18.18,0,0,0-.12,0h-3.94c-.08,0-.12,0-.12.11l-3.39,16.18A.14.14,0,0,0,114,83h3.94a.11.11,0,0,0,.12-.12l3.35-16.18c0-.08,0-.12,0-.12" transform="translate(-9.88 -16.75)"/><path class="cls-1" d="M122.85,69.86h4a.11.11,0,0,0,.12-.12l.6-2.87a.14.14,0,0,0-.16-.16h-4a.11.11,0,0,0-.12.12l-.6,2.87a.15.15,0,0,0,0,.12s.08,0,.12,0" transform="translate(-9.88 -16.75)"/><path class="cls-1" d="M126.52,71.5a.15.15,0,0,0-.12,0h-4c-.07,0-.11,0-.11.12L120,82.81a.14.14,0,0,0,.16.16h4a.11.11,0,0,0,.12-.12l2.35-11.23a.18.18,0,0,0,0-.12" transform="translate(-9.88 -16.75)"/><path class="cls-1" d="M142.34,71.18a4.84,4.84,0,0,0-4,2.11,3.08,3.08,0,0,0-3-2.11,4.84,4.84,0,0,0-3.78,1.91l.32-1.51a.14.14,0,0,0-.16-.16h-3.47a.11.11,0,0,0-.12.12,27.4,27.4,0,0,1-.48,2.9l-1.75,8.33a.14.14,0,0,0,.16.16H130c.08,0,.11,0,.11-.12l1.12-5.18c.32-1.43.76-3,2.19-3,.76,0,1.12.32,1.12,1a9.76,9.76,0,0,1-.2,1.63l-1.12,5.46a.14.14,0,0,0,.16.16h3.87a.11.11,0,0,0,.12-.12l1.11-5.18c.32-1.43.76-3,2.19-3,.76,0,1.12.32,1.12,1a9.76,9.76,0,0,1-.2,1.63l-1.12,5.46a.14.14,0,0,0,.16.16h3.91a.11.11,0,0,0,.12-.12l1.15-5.62a13.36,13.36,0,0,0,.28-2.55,3.4,3.4,0,0,0-3.74-3.46" transform="translate(-9.88 -16.75)"/><path class="cls-1" d="M152.5,71.42h-3.95a.11.11,0,0,0-.12.12l-2.35,11.23a.14.14,0,0,0,.16.16h3.95a.11.11,0,0,0,.12-.12l2.35-11.23a.15.15,0,0,0,0-.12s-.08,0-.12,0" transform="translate(-9.88 -16.75)"/><path class="cls-1" d="M149,69.86h4c.08,0,.11,0,.11-.12l.6-2.87a.14.14,0,0,0-.16-.16h-3.94a.11.11,0,0,0-.12.12l-.6,2.87a.15.15,0,0,0,0,.12s.08,0,.12,0" transform="translate(-9.88 -16.75)"/><path class="cls-1" d="M160.39,80.14l-.08,0a3.84,3.84,0,0,1-1.12.28A1.05,1.05,0,0,1,158,79.34a7.51,7.51,0,0,1,.19-1.43l.12-.48.64-3h2.71a.11.11,0,0,0,.12-.12l.48-2.7a.14.14,0,0,0-.16-.16h-2.43l.76-3.35a.14.14,0,0,0-.16-.16L156.2,69a.09.09,0,0,0-.08.07l-.52,2.32h-2.11a.11.11,0,0,0-.12.12l-.47,2.7a.15.15,0,0,0,0,.12.13.13,0,0,0,.11,0H155l-.64,3a10.11,10.11,0,0,0-.36,2.35c0,2.19,1.36,3.47,3.71,3.47a19.29,19.29,0,0,0,2.43-.2.13.13,0,0,0,.12-.12l.43-2.55a.15.15,0,0,0,0-.12.36.36,0,0,0-.23-.08" transform="translate(-9.88 -16.75)"/><path class="cls-1" d="M168.27,71.18A6.6,6.6,0,0,0,161.42,78c0,3.63,3,5.26,5.94,5.26a14.7,14.7,0,0,0,4-.64s.08,0,.08-.12l.48-2.75a.15.15,0,0,0,0-.12.08.08,0,0,0-.12,0,8.28,8.28,0,0,1-3.47.76c-2.39,0-2.82-1-2.86-1.87h7.81a.11.11,0,0,0,.12-.12,12.58,12.58,0,0,0,.27-2.15c0-3.19-2-5-5.34-5M165.65,76a2.72,2.72,0,0,1,2.7-2c1.4,0,1.76,1,1.76,2Z" transform="translate(-9.88 -16.75)"/><path class="cls-1" d="M189,66.55a.18.18,0,0,0-.12,0h-3.82c-.08,0-.12,0-.12.11l-1.32,6.46a4.31,4.31,0,0,0-3.86-1.87c-4,0-5.82,3.62-5.82,7.25a4.54,4.54,0,0,0,4.31,4.78,4.46,4.46,0,0,0,3.9-1.79l-.24,1.35a.14.14,0,0,0,.16.16h3.55a.11.11,0,0,0,.12-.12c0-.4.12-1,.24-1.67l3-14.51v-.12m-6.29,10c0,1.39-1.08,3.38-2.79,3.38-1.08,0-1.71-.79-1.71-2.19,0-1.67,1-3.35,2.78-3.35,1.2,0,1.72,1.08,1.72,2.16" transform="translate(-9.88 -16.75)"/><path class="cls-1" d="M157.08,16.75c-2.07,0-5.14.8-7.93,4.5l-.44.56-.44-.56c-2.79-3.7-5.85-4.5-7.93-4.5-5.41,0-9.48,5.5-9.48,10.4s4.07,10.4,9.48,10.4c2.08,0,5.14-.8,7.93-4.5l.44-.56.44.56c2.79,3.7,5.86,4.5,7.93,4.5,5.42,0,9.48-5.5,9.48-10.4s-4.06-10.4-9.48-10.4m-20.64,10.4c0-2.07,2.19-3.75,4-3.75s3.47,1.12,5,3.47l.2.28-.2.28c-1.55,2.35-3.18,3.47-5,3.47s-4-1.68-4-3.75Zm24.54,0c0,2.07-2.19,3.75-4,3.75s-3.43-1.16-5-3.47l-.2-.28.2-.28c1.55-2.31,3.19-3.47,5-3.47a4.13,4.13,0,0,1,4,3.75Z" transform="translate(-9.88 -16.75)"/></g></g></svg>