<svg width="446" height="50" viewBox="0 0 446 50" fill="none" xmlns="http://www.w3.org/2000/svg">
<rect y="25" width="9" height="25" fill="#777777"/>
<rect x="14" y="18" width="9" height="32" fill="#777777"/>
<rect x="28" y="9" width="9" height="41" fill="#777777"/>
<rect x="42" width="9" height="50" fill="#777777"/>
<path d="M95.022 14.1641V37.4438C95.022 41.1444 93.8337 44.0793 91.457 46.2485C89.0964 48.4019 85.9461 49.4785 82.0063 49.4785C78.0187 49.4785 74.8525 48.4178 72.5078 46.2964C70.1631 44.159 68.9907 41.2002 68.9907 37.4199V14.1641H75.02V37.4678C75.02 39.7965 75.6102 41.575 76.7905 42.8032C77.9709 44.0314 79.7095 44.6455 82.0063 44.6455C86.6639 44.6455 88.9927 42.1891 88.9927 37.2764V14.1641H95.022ZM115.455 41.9658C115.455 40.929 115.024 40.1395 114.163 39.5972C113.317 39.0549 111.906 38.5763 109.928 38.1616C107.95 37.7469 106.299 37.2205 104.975 36.5825C102.072 35.1789 100.621 33.1452 100.621 30.4814C100.621 28.2484 101.562 26.3822 103.444 24.8828C105.326 23.3835 107.719 22.6338 110.622 22.6338C113.716 22.6338 116.212 23.3994 118.11 24.9307C120.024 26.4619 120.981 28.4478 120.981 30.8882H115.167C115.167 29.7716 114.753 28.8465 113.923 28.1128C113.094 27.3631 111.993 26.9883 110.622 26.9883C109.346 26.9883 108.301 27.2834 107.487 27.8735C106.69 28.4637 106.291 29.2533 106.291 30.2422C106.291 31.1354 106.666 31.8293 107.416 32.3237C108.165 32.8182 109.681 33.3206 111.961 33.8311C114.242 34.3255 116.029 34.9237 117.321 35.6255C118.629 36.3114 119.594 37.1408 120.216 38.1138C120.854 39.0868 121.173 40.2671 121.173 41.6548C121.173 43.9836 120.208 45.8737 118.278 47.3252C116.348 48.7607 113.82 49.4785 110.693 49.4785C108.572 49.4785 106.682 49.0957 105.023 48.3301C103.364 47.5645 102.072 46.5117 101.147 45.1719C100.222 43.832 99.7593 42.3885 99.7593 40.8413H105.406C105.486 42.2131 106.004 43.2738 106.961 44.0234C107.918 44.7572 109.186 45.124 110.765 45.124C112.296 45.124 113.461 44.8369 114.258 44.2627C115.056 43.6725 115.455 42.9069 115.455 41.9658ZM137.658 49.4785C133.973 49.4785 130.982 48.3221 128.686 46.0093C126.405 43.6805 125.264 40.5861 125.264 36.7261V36.0083C125.264 33.4243 125.759 31.1195 126.748 29.0938C127.752 27.0521 129.156 25.465 130.958 24.3325C132.761 23.2 134.771 22.6338 136.988 22.6338C140.513 22.6338 143.232 23.7583 145.146 26.0073C147.076 28.2563 148.042 31.4385 148.042 35.5537V37.8984H131.126C131.301 40.0358 132.011 41.7266 133.255 42.9707C134.515 44.2148 136.095 44.8369 137.993 44.8369C140.656 44.8369 142.826 43.7603 144.5 41.6069L147.635 44.5977C146.598 46.1449 145.21 47.3491 143.472 48.2104C141.749 49.0558 139.811 49.4785 137.658 49.4785ZM136.964 27.2993C135.369 27.2993 134.077 27.8576 133.088 28.9741C132.115 30.0907 131.493 31.6458 131.222 33.6396H142.299V33.209C142.172 31.263 141.653 29.7956 140.744 28.8066C139.835 27.8018 138.575 27.2993 136.964 27.2993ZM165.34 49V14.1641H175.628C178.706 14.1641 181.434 14.8499 183.811 16.2217C186.203 17.5934 188.053 19.5394 189.361 22.0596C190.669 24.5798 191.323 27.4668 191.323 30.7207V32.4673C191.323 35.769 190.661 38.672 189.337 41.1763C188.029 43.6805 186.155 45.6105 183.715 46.9663C181.29 48.3221 178.507 49 175.365 49H165.34ZM171.393 19.0449V44.167H175.341C178.515 44.167 180.947 43.1781 182.638 41.2002C184.345 39.2064 185.214 36.3512 185.246 32.6348V30.6968C185.246 26.9165 184.425 24.0295 182.782 22.0356C181.139 20.0418 178.754 19.0449 175.628 19.0449H171.393ZM212.258 49C212.003 48.5055 211.78 47.7 211.588 46.5835C209.738 48.5135 207.473 49.4785 204.793 49.4785C202.194 49.4785 200.072 48.7368 198.429 47.2534C196.786 45.77 195.965 43.9357 195.965 41.7505C195.965 38.991 196.986 36.8776 199.027 35.4102C201.085 33.9268 204.02 33.1851 207.832 33.1851H211.397V31.4863C211.397 30.1465 211.022 29.0778 210.272 28.2803C209.523 27.4668 208.382 27.0601 206.851 27.0601C205.527 27.0601 204.443 27.395 203.597 28.0649C202.752 28.7189 202.329 29.5563 202.329 30.5771H196.515C196.515 29.1576 196.986 27.8337 197.927 26.6055C198.868 25.3613 200.144 24.3883 201.755 23.6865C203.382 22.9847 205.192 22.6338 207.186 22.6338C210.217 22.6338 212.633 23.3994 214.436 24.9307C216.238 26.446 217.163 28.5833 217.211 31.3428V43.0186C217.211 45.3473 217.538 47.2056 218.192 48.5933V49H212.258ZM205.87 44.813C207.019 44.813 208.095 44.5339 209.1 43.9756C210.121 43.4173 210.887 42.6676 211.397 41.7266V36.8457H208.263C206.109 36.8457 204.49 37.2205 203.406 37.9702C202.321 38.7199 201.779 39.7806 201.779 41.1523C201.779 42.2689 202.146 43.1621 202.879 43.832C203.629 44.486 204.626 44.813 205.87 44.813ZM230.585 16.8198V23.1123H235.155V27.4189H230.585V41.8701C230.585 42.859 230.777 43.5768 231.16 44.0234C231.558 44.4541 232.26 44.6694 233.265 44.6694C233.935 44.6694 234.613 44.5897 235.299 44.4302V48.9282C233.975 49.2951 232.699 49.4785 231.471 49.4785C227.005 49.4785 224.771 47.0142 224.771 42.0854V27.4189H220.513V23.1123H224.771V16.8198H230.585ZM255.085 49C254.83 48.5055 254.607 47.7 254.416 46.5835C252.565 48.5135 250.3 49.4785 247.621 49.4785C245.021 49.4785 242.899 48.7368 241.256 47.2534C239.613 45.77 238.792 43.9357 238.792 41.7505C238.792 38.991 239.813 36.8776 241.854 35.4102C243.912 33.9268 246.847 33.1851 250.659 33.1851H254.224V31.4863C254.224 30.1465 253.849 29.0778 253.1 28.2803C252.35 27.4668 251.209 27.0601 249.678 27.0601C248.354 27.0601 247.27 27.395 246.424 28.0649C245.579 28.7189 245.156 29.5563 245.156 30.5771H239.342C239.342 29.1576 239.813 27.8337 240.754 26.6055C241.695 25.3613 242.971 24.3883 244.582 23.6865C246.209 22.9847 248.019 22.6338 250.013 22.6338C253.044 22.6338 255.46 23.3994 257.263 24.9307C259.065 26.446 259.99 28.5833 260.038 31.3428V43.0186C260.038 45.3473 260.365 47.2056 261.019 48.5933V49H255.085ZM248.697 44.813C249.846 44.813 250.922 44.5339 251.927 43.9756C252.948 43.4173 253.714 42.6676 254.224 41.7266V36.8457H251.09C248.937 36.8457 247.318 37.2205 246.233 37.9702C245.148 38.7199 244.606 39.7806 244.606 41.1523C244.606 42.2689 244.973 43.1621 245.707 43.832C246.456 44.486 247.453 44.813 248.697 44.813ZM302.626 19.0449H291.764V49H285.758V19.0449H274.992V14.1641H302.626V19.0449ZM300.592 35.8169C300.592 33.2808 301.095 30.9998 302.1 28.9741C303.104 26.9325 304.516 25.3693 306.334 24.2847C308.153 23.1841 310.242 22.6338 312.603 22.6338C316.096 22.6338 318.927 23.7583 321.097 26.0073C323.282 28.2563 324.462 31.2391 324.638 34.9556L324.662 36.3193C324.662 38.8714 324.167 41.1523 323.178 43.1621C322.205 45.1719 320.802 46.7271 318.967 47.8276C317.149 48.9282 315.043 49.4785 312.651 49.4785C308.998 49.4785 306.071 48.2663 303.87 45.8418C301.685 43.4014 300.592 40.1554 300.592 36.104V35.8169ZM306.406 36.3193C306.406 38.9831 306.957 41.0726 308.057 42.5879C309.158 44.0872 310.689 44.8369 312.651 44.8369C314.613 44.8369 316.136 44.0713 317.221 42.54C318.321 41.0088 318.872 38.7677 318.872 35.8169C318.872 33.201 318.305 31.1274 317.173 29.5962C316.056 28.0649 314.533 27.2993 312.603 27.2993C310.705 27.2993 309.198 28.057 308.081 29.5723C306.965 31.0716 306.406 33.3206 306.406 36.3193ZM348.396 44.167H364.211V49H342.343V14.1641H348.396V44.167ZM379.691 49.4785C376.006 49.4785 373.016 48.3221 370.719 46.0093C368.438 43.6805 367.297 40.5861 367.297 36.7261V36.0083C367.297 33.4243 367.792 31.1195 368.781 29.0938C369.786 27.0521 371.189 25.465 372.992 24.3325C374.794 23.2 376.804 22.6338 379.021 22.6338C382.546 22.6338 385.266 23.7583 387.18 26.0073C389.11 28.2563 390.075 31.4385 390.075 35.5537V37.8984H373.159C373.335 40.0358 374.044 41.7266 375.289 42.9707C376.549 44.2148 378.128 44.8369 380.026 44.8369C382.69 44.8369 384.859 43.7603 386.534 41.6069L389.668 44.5977C388.631 46.1449 387.243 47.3491 385.505 48.2104C383.782 49.0558 381.844 49.4785 379.691 49.4785ZM378.997 27.2993C377.402 27.2993 376.11 27.8576 375.121 28.9741C374.148 30.0907 373.526 31.6458 373.255 33.6396H384.333V33.209C384.205 31.263 383.687 29.7956 382.777 28.8066C381.868 27.8018 380.608 27.2993 378.997 27.2993ZM410.077 49C409.821 48.5055 409.598 47.7 409.407 46.5835C407.556 48.5135 405.292 49.4785 402.612 49.4785C400.012 49.4785 397.89 48.7368 396.248 47.2534C394.605 45.77 393.783 43.9357 393.783 41.7505C393.783 38.991 394.804 36.8776 396.846 35.4102C398.903 33.9268 401.838 33.1851 405.65 33.1851H409.215V31.4863C409.215 30.1465 408.84 29.0778 408.091 28.2803C407.341 27.4668 406.201 27.0601 404.669 27.0601C403.346 27.0601 402.261 27.395 401.416 28.0649C400.57 28.7189 400.147 29.5563 400.147 30.5771H394.333C394.333 29.1576 394.804 27.8337 395.745 26.6055C396.686 25.3613 397.962 24.3883 399.573 23.6865C401.2 22.9847 403.011 22.6338 405.004 22.6338C408.035 22.6338 410.451 23.3994 412.254 24.9307C414.056 26.446 414.981 28.5833 415.029 31.3428V43.0186C415.029 45.3473 415.356 47.2056 416.01 48.5933V49H410.077ZM403.688 44.813C404.837 44.813 405.914 44.5339 406.918 43.9756C407.939 43.4173 408.705 42.6676 409.215 41.7266V36.8457H406.081C403.928 36.8457 402.309 37.2205 401.224 37.9702C400.139 38.7199 399.597 39.7806 399.597 41.1523C399.597 42.2689 399.964 43.1621 400.698 43.832C401.447 44.486 402.444 44.813 403.688 44.813ZM420.03 35.8647C420.03 31.8771 420.955 28.679 422.805 26.2705C424.655 23.846 427.136 22.6338 430.246 22.6338C432.99 22.6338 435.207 23.5908 436.897 25.5049V12.25H442.711V49H437.448L437.161 46.3203C435.422 48.4258 433.101 49.4785 430.198 49.4785C427.168 49.4785 424.711 48.2583 422.829 45.8179C420.963 43.3774 420.03 40.0597 420.03 35.8647ZM425.844 36.3672C425.844 38.999 426.346 41.0566 427.351 42.54C428.372 44.0075 429.815 44.7412 431.682 44.7412C434.058 44.7412 435.797 43.6805 436.897 41.5591V30.5054C435.829 28.4318 434.106 27.395 431.729 27.395C429.847 27.395 428.396 28.1447 427.375 29.644C426.354 31.1274 425.844 33.3685 425.844 36.3672Z" fill="#777777"/>
</svg>
