<?xml version="1.0" encoding="utf-8"?>
<!-- Generator: Adobe Illustrator 21.1.0, SVG Export Plug-In . SVG Version: 6.00 Build 0)  -->
<svg version="1.1" id="Ebene_1" xmlns="http://www.w3.org/2000/svg" xmlns:xlink="http://www.w3.org/1999/xlink" x="0px" y="0px"
	 viewBox="0 0 141.7 42.5" style="enable-background:new 0 0 141.7 42.5;" xml:space="preserve">
<style type="text/css">
	.st0{fill:#C5112D;}
	.st1{fill:#1D1D1B;}
</style>
<g>
	<g>
		<path class="st0" d="M3.5,5.1c0.7-0.2,1.6-0.4,2.7-0.5c1.1-0.2,2.4-0.3,3.9-0.3c1.1,0,2,0.1,2.7,0.4c0.7,0.3,1.3,0.7,1.8,1.3
			c0.1-0.1,0.4-0.3,0.7-0.4c0.3-0.2,0.7-0.4,1.2-0.6c0.5-0.2,1-0.3,1.6-0.5c0.6-0.1,1.2-0.2,1.9-0.2c1.3,0,2.3,0.2,3.1,0.6
			c0.8,0.4,1.4,0.9,1.9,1.6c0.5,0.7,0.8,1.5,0.9,2.4c0.2,0.9,0.2,2,0.2,3.1v9.3h-3v-8.7c0-1,0-1.8-0.1-2.5c-0.1-0.7-0.3-1.3-0.5-1.8
			c-0.3-0.5-0.6-0.8-1.1-1c-0.5-0.2-1.1-0.3-1.8-0.3c-1,0-1.8,0.1-2.5,0.4C16.5,7.5,16,7.8,15.8,8c0.2,0.6,0.3,1.2,0.4,1.8
			c0.1,0.7,0.1,1.4,0.1,2.1v9.3h-3v-8.7c0-1-0.1-1.8-0.2-2.5c-0.1-0.7-0.3-1.3-0.6-1.8c-0.3-0.5-0.6-0.8-1.1-1
			c-0.5-0.2-1-0.3-1.7-0.3c-0.3,0-0.6,0-1,0c-0.3,0-0.7,0-1,0.1C7.5,7,7.3,7,7,7.1c-0.3,0-0.4,0.1-0.5,0.1v14h-3V5.1z"/>
		<path class="st0" d="M36.4,4.2c1.2,0,2.2,0.2,3,0.5c0.8,0.3,1.5,0.7,2,1.3c0.5,0.6,0.9,1.2,1.1,2c0.2,0.8,0.3,1.6,0.3,2.6v10.4
			c-0.3,0-0.6,0.1-1.1,0.2c-0.5,0.1-1,0.1-1.6,0.2c-0.6,0.1-1.2,0.1-1.9,0.2c-0.7,0.1-1.3,0.1-2,0.1c-0.9,0-1.8-0.1-2.6-0.3
			c-0.8-0.2-1.5-0.5-2-0.9c-0.6-0.4-1-1-1.3-1.6c-0.3-0.7-0.5-1.5-0.5-2.5c0-0.9,0.2-1.7,0.6-2.4c0.4-0.7,0.9-1.2,1.5-1.6
			c0.6-0.4,1.4-0.7,2.2-0.9c0.9-0.2,1.7-0.3,2.7-0.3c0.3,0,0.6,0,0.9,0c0.3,0,0.6,0.1,0.9,0.1c0.3,0.1,0.5,0.1,0.8,0.1
			c0.2,0,0.4,0.1,0.4,0.1v-0.8c0-0.5-0.1-1-0.2-1.5c-0.1-0.5-0.3-0.9-0.6-1.3c-0.3-0.4-0.7-0.7-1.1-0.9c-0.5-0.2-1.1-0.3-1.9-0.3
			c-1,0-1.8,0.1-2.6,0.2c-0.7,0.1-1.3,0.3-1.6,0.4l-0.4-2.5c0.4-0.2,1-0.3,1.9-0.5C34.4,4.3,35.4,4.2,36.4,4.2z M36.7,19.1
			c0.7,0,1.3,0,1.9,0c0.5,0,1-0.1,1.4-0.2v-5c-0.2-0.1-0.6-0.2-1-0.3c-0.5-0.1-1.1-0.1-1.7-0.1c-0.4,0-0.9,0-1.4,0.1
			c-0.5,0.1-1,0.2-1.4,0.4c-0.4,0.2-0.8,0.5-1,0.8c-0.3,0.4-0.4,0.8-0.4,1.4c0,1.1,0.3,1.8,1,2.2C34.6,18.9,35.5,19.1,36.7,19.1z"/>
		<path class="st0" d="M53.9,4.2c0.3,0,0.5,0,0.9,0c0.3,0,0.7,0.1,1,0.1c0.3,0.1,0.6,0.1,0.9,0.2c0.3,0.1,0.5,0.1,0.6,0.1l-0.5,2.6
			c-0.2-0.1-0.6-0.2-1.2-0.3c-0.5-0.1-1.2-0.2-2.1-0.2c-0.6,0-1.1,0.1-1.6,0.2c-0.5,0.1-0.9,0.2-1.1,0.2v14h-3V5.3
			c0.7-0.3,1.6-0.5,2.6-0.7C51.4,4.4,52.6,4.2,53.9,4.2z"/>
		<path class="st0" d="M65.5,4.2c1.2,0,2.2,0.2,3,0.5C69.3,5,70,5.4,70.5,6c0.5,0.6,0.9,1.2,1.1,2c0.2,0.8,0.3,1.6,0.3,2.6v10.4
			c-0.3,0-0.6,0.1-1.1,0.2c-0.5,0.1-1,0.1-1.6,0.2c-0.6,0.1-1.2,0.1-1.9,0.2c-0.7,0.1-1.3,0.1-2,0.1c-0.9,0-1.8-0.1-2.6-0.3
			c-0.8-0.2-1.5-0.5-2-0.9c-0.6-0.4-1-1-1.3-1.6c-0.3-0.7-0.5-1.5-0.5-2.5c0-0.9,0.2-1.7,0.6-2.4c0.4-0.7,0.9-1.2,1.5-1.6
			c0.6-0.4,1.4-0.7,2.2-0.9c0.9-0.2,1.7-0.3,2.7-0.3c0.3,0,0.6,0,0.9,0c0.3,0,0.6,0.1,0.9,0.1c0.3,0.1,0.5,0.1,0.8,0.1
			c0.2,0,0.4,0.1,0.4,0.1v-0.8c0-0.5-0.1-1-0.2-1.5c-0.1-0.5-0.3-0.9-0.6-1.3c-0.3-0.4-0.7-0.7-1.1-0.9c-0.5-0.2-1.1-0.3-1.9-0.3
			c-1,0-1.8,0.1-2.6,0.2c-0.7,0.1-1.3,0.3-1.6,0.4l-0.4-2.5c0.4-0.2,1-0.3,1.9-0.5C63.5,4.3,64.4,4.2,65.5,4.2z M65.7,19.1
			c0.7,0,1.3,0,1.9,0c0.5,0,1-0.1,1.4-0.2v-5c-0.2-0.1-0.6-0.2-1-0.3c-0.5-0.1-1.1-0.1-1.7-0.1c-0.4,0-0.9,0-1.4,0.1
			c-0.5,0.1-1,0.2-1.4,0.4c-0.4,0.2-0.8,0.5-1,0.8c-0.3,0.4-0.4,0.8-0.4,1.4c0,1.1,0.3,1.8,1,2.2C63.6,18.9,64.6,19.1,65.7,19.1z"/>
		<path class="st0" d="M76.8,5.1c0.7-0.2,1.6-0.4,2.7-0.5c1.1-0.2,2.4-0.3,3.9-0.3c1.3,0,2.4,0.2,3.3,0.6c0.9,0.4,1.6,0.9,2.1,1.6
			c0.5,0.7,0.9,1.5,1.1,2.4c0.2,0.9,0.3,2,0.3,3.1v9.3h-3v-8.7c0-1-0.1-1.9-0.2-2.6c-0.1-0.7-0.4-1.3-0.7-1.8
			c-0.3-0.4-0.7-0.8-1.3-1c-0.5-0.2-1.2-0.3-2-0.3c-0.3,0-0.7,0-1,0c-0.3,0-0.7,0-1,0.1c-0.3,0-0.6,0.1-0.8,0.1
			c-0.2,0-0.4,0.1-0.5,0.1v14h-3V5.1z"/>
		<path class="st0" d="M98,4.6h6.3v2.5H98v7.7c0,0.8,0.1,1.5,0.2,2.1c0.1,0.5,0.3,1,0.6,1.3c0.3,0.3,0.6,0.5,1,0.7
			c0.4,0.1,0.8,0.2,1.3,0.2c0.9,0,1.6-0.1,2.2-0.3c0.5-0.2,0.9-0.3,1.1-0.4l0.6,2.5c-0.3,0.1-0.8,0.3-1.6,0.6
			c-0.7,0.2-1.6,0.3-2.6,0.3c-1.1,0-2.1-0.1-2.8-0.4c-0.7-0.3-1.3-0.7-1.8-1.3c-0.4-0.6-0.8-1.3-0.9-2.1c-0.2-0.8-0.3-1.8-0.3-2.9
			V4.6H98z"/>
		<path class="st0" d="M106.8,12.9c0-1.5,0.2-2.8,0.6-3.9c0.4-1.1,1-2,1.7-2.7c0.7-0.7,1.5-1.3,2.4-1.6s1.9-0.5,2.8-0.5
			c2.2,0,4,0.7,5.2,2.1c1.2,1.4,1.8,3.5,1.8,6.4c0,0.1,0,0.3,0,0.5c0,0.2,0,0.4,0,0.6h-11.4c0.1,1.7,0.6,3,1.5,3.9
			c0.9,0.9,2.2,1.3,4.1,1.3c1,0,1.9-0.1,2.6-0.3c0.7-0.2,1.3-0.4,1.6-0.5l0.4,2.5c-0.4,0.2-1,0.4-1.9,0.6c-0.9,0.2-1.9,0.3-3.1,0.3
			c-1.5,0-2.7-0.2-3.8-0.7c-1.1-0.4-1.9-1-2.6-1.8c-0.7-0.8-1.2-1.7-1.5-2.7C107,15.4,106.8,14.2,106.8,12.9z M118.2,11.3
			c0-1.3-0.3-2.4-1-3.3c-0.7-0.9-1.6-1.3-2.9-1.3c-0.7,0-1.3,0.1-1.8,0.4c-0.5,0.3-1,0.6-1.3,1c-0.4,0.4-0.6,0.9-0.8,1.5
			c-0.2,0.6-0.3,1.1-0.4,1.7H118.2z"/>
		<path class="st0" d="M132.8,21.6c-1.3,0-2.5-0.2-3.5-0.6c-1-0.4-1.9-1-2.6-1.8c-0.7-0.8-1.2-1.7-1.6-2.7c-0.3-1.1-0.5-2.2-0.5-3.5
			c0-1.3,0.2-2.5,0.6-3.5c0.4-1.1,0.9-2,1.6-2.8c0.7-0.8,1.5-1.4,2.5-1.8c1-0.4,2.1-0.7,3.3-0.7c0.7,0,1.5,0.1,2.2,0.2
			c0.7,0.1,1.5,0.3,2.1,0.6l-0.7,2.5c-0.4-0.2-1-0.4-1.6-0.5c-0.6-0.1-1.2-0.2-1.9-0.2c-1.7,0-2.9,0.5-3.8,1.6
			c-0.9,1-1.3,2.6-1.3,4.6c0,0.9,0.1,1.7,0.3,2.5c0.2,0.7,0.5,1.4,1,1.9c0.4,0.5,1,0.9,1.7,1.2c0.7,0.3,1.5,0.4,2.5,0.4
			c0.8,0,1.5-0.1,2.1-0.2c0.6-0.1,1.1-0.3,1.5-0.5l0.4,2.5c-0.2,0.1-0.4,0.2-0.7,0.3c-0.3,0.1-0.7,0.2-1.1,0.3
			c-0.4,0.1-0.8,0.1-1.3,0.2C133.7,21.6,133.3,21.6,132.8,21.6z"/>
	</g>
	<g>
		<path class="st1" d="M53.9,38.1c-0.5,0-0.9-0.1-1.3-0.2c-0.4-0.2-0.7-0.4-0.9-0.6c-0.2-0.3-0.4-0.6-0.6-1C51,35.8,51,35.4,51,34.9
			c0-0.5,0.1-0.9,0.2-1.3c0.1-0.4,0.3-0.7,0.6-1c0.2-0.3,0.5-0.5,0.9-0.7c0.4-0.2,0.8-0.2,1.2-0.2c0.3,0,0.5,0,0.8,0.1
			c0.3,0,0.5,0.1,0.8,0.2L55.1,33c-0.2-0.1-0.3-0.1-0.6-0.2c-0.2,0-0.4-0.1-0.7-0.1c-0.6,0-1.1,0.2-1.4,0.6
			c-0.3,0.4-0.5,0.9-0.5,1.6c0,0.3,0,0.6,0.1,0.9c0.1,0.3,0.2,0.5,0.3,0.7c0.2,0.2,0.4,0.3,0.6,0.4c0.2,0.1,0.5,0.2,0.9,0.2
			c0.3,0,0.5,0,0.8-0.1c0.2-0.1,0.4-0.1,0.5-0.2l0.2,0.9c-0.1,0-0.2,0.1-0.3,0.1c-0.1,0-0.2,0.1-0.4,0.1c-0.1,0-0.3,0-0.5,0.1
			C54.2,38,54,38.1,53.9,38.1z"/>
		<path class="st1" d="M62.3,34.9c0,0.5-0.1,0.9-0.2,1.3c-0.1,0.4-0.3,0.7-0.6,1c-0.2,0.3-0.5,0.5-0.9,0.6c-0.3,0.2-0.7,0.2-1.1,0.2
			c-0.4,0-0.8-0.1-1.1-0.2c-0.3-0.1-0.6-0.4-0.9-0.6c-0.2-0.3-0.4-0.6-0.6-1c-0.1-0.4-0.2-0.8-0.2-1.3c0-0.5,0.1-0.9,0.2-1.3
			c0.1-0.4,0.3-0.7,0.6-1c0.3-0.3,0.5-0.5,0.9-0.6c0.3-0.1,0.7-0.2,1.1-0.2c0.4,0,0.8,0.1,1.1,0.2c0.3,0.1,0.6,0.4,0.9,0.6
			c0.2,0.3,0.4,0.6,0.6,1C62.3,34,62.3,34.5,62.3,34.9z M61.2,34.9c0-0.7-0.2-1.2-0.5-1.6c-0.3-0.4-0.7-0.6-1.2-0.6
			s-0.9,0.2-1.2,0.6c-0.3,0.4-0.5,0.9-0.5,1.6c0,0.7,0.2,1.2,0.5,1.6c0.3,0.4,0.7,0.6,1.2,0.6s0.9-0.2,1.2-0.6
			C61.1,36.1,61.2,35.6,61.2,34.9z"/>
		<path class="st1" d="M64.4,32.1c0.2-0.1,0.6-0.1,1-0.2c0.4-0.1,0.9-0.1,1.4-0.1c0.4,0,0.7,0.1,1,0.2c0.3,0.1,0.5,0.3,0.7,0.5
			c0.1,0,0.1-0.1,0.3-0.2c0.1-0.1,0.3-0.1,0.4-0.2c0.2-0.1,0.4-0.1,0.6-0.2c0.2,0,0.4-0.1,0.7-0.1c0.5,0,0.8,0.1,1.1,0.2
			c0.3,0.1,0.5,0.3,0.7,0.6c0.2,0.2,0.3,0.5,0.3,0.9c0.1,0.3,0.1,0.7,0.1,1.1v3.4h-1.1v-3.1c0-0.4,0-0.7-0.1-0.9
			c0-0.3-0.1-0.5-0.2-0.6c-0.1-0.2-0.2-0.3-0.4-0.4c-0.2-0.1-0.4-0.1-0.6-0.1c-0.4,0-0.7,0-0.9,0.1c-0.2,0.1-0.4,0.2-0.5,0.3
			c0.1,0.2,0.1,0.4,0.1,0.7c0,0.2,0,0.5,0,0.7v3.4h-1.1v-3.1c0-0.4,0-0.7-0.1-0.9c0-0.3-0.1-0.5-0.2-0.6c-0.1-0.2-0.2-0.3-0.4-0.4
			c-0.2-0.1-0.4-0.1-0.6-0.1c-0.1,0-0.2,0-0.3,0c-0.1,0-0.2,0-0.4,0c-0.1,0-0.2,0-0.3,0c-0.1,0-0.2,0-0.2,0v5h-1.1V32.1z"/>
		<path class="st1" d="M80.2,34.9c0,0.5-0.1,0.9-0.2,1.3c-0.1,0.4-0.3,0.7-0.5,1c-0.2,0.3-0.5,0.5-0.8,0.6c-0.3,0.2-0.7,0.2-1.1,0.2
			c-0.3,0-0.7,0-0.9-0.1c-0.3-0.1-0.5-0.2-0.6-0.3V40h-1.1v-7.9c0.3-0.1,0.6-0.1,0.9-0.2c0.4-0.1,0.8-0.1,1.3-0.1
			c0.5,0,0.9,0.1,1.2,0.2c0.4,0.1,0.7,0.4,0.9,0.6c0.3,0.3,0.5,0.6,0.6,1C80.1,34,80.2,34.5,80.2,34.9z M79,34.9
			c0-0.7-0.2-1.2-0.5-1.6c-0.3-0.4-0.8-0.6-1.4-0.6c-0.3,0-0.6,0-0.8,0c-0.2,0-0.3,0-0.4,0.1v3.8c0.1,0.1,0.3,0.2,0.6,0.3
			c0.2,0.1,0.5,0.1,0.8,0.1c0.3,0,0.6-0.1,0.8-0.2c0.2-0.1,0.4-0.3,0.5-0.5c0.1-0.2,0.2-0.4,0.3-0.7C79,35.5,79,35.2,79,34.9z"/>
		<path class="st1" d="M84.2,31.8c0.4,0,0.8,0.1,1.1,0.2c0.3,0.1,0.5,0.3,0.7,0.5c0.2,0.2,0.3,0.4,0.4,0.7c0.1,0.3,0.1,0.6,0.1,0.9
			v3.7c-0.1,0-0.2,0-0.4,0.1c-0.2,0-0.4,0.1-0.6,0.1c-0.2,0-0.4,0-0.7,0.1c-0.2,0-0.5,0-0.7,0c-0.3,0-0.6,0-0.9-0.1
			c-0.3-0.1-0.5-0.2-0.7-0.3c-0.2-0.1-0.4-0.3-0.5-0.6c-0.1-0.2-0.2-0.5-0.2-0.9c0-0.3,0.1-0.6,0.2-0.9c0.1-0.2,0.3-0.4,0.5-0.6
			c0.2-0.1,0.5-0.3,0.8-0.3c0.3-0.1,0.6-0.1,1-0.1c0.1,0,0.2,0,0.3,0c0.1,0,0.2,0,0.3,0c0.1,0,0.2,0,0.3,0.1c0.1,0,0.1,0,0.2,0v-0.3
			c0-0.2,0-0.4-0.1-0.5c0-0.2-0.1-0.3-0.2-0.5c-0.1-0.1-0.2-0.2-0.4-0.3c-0.2-0.1-0.4-0.1-0.7-0.1c-0.4,0-0.7,0-0.9,0.1
			c-0.3,0-0.5,0.1-0.6,0.2L82.4,32c0.1-0.1,0.4-0.1,0.7-0.2C83.5,31.8,83.8,31.8,84.2,31.8z M84.3,37.1c0.3,0,0.5,0,0.7,0
			c0.2,0,0.4,0,0.5-0.1v-1.8c-0.1,0-0.2-0.1-0.4-0.1c-0.2,0-0.4,0-0.6,0c-0.2,0-0.3,0-0.5,0c-0.2,0-0.3,0.1-0.5,0.1
			c-0.1,0.1-0.3,0.2-0.4,0.3c-0.1,0.1-0.1,0.3-0.1,0.5c0,0.4,0.1,0.6,0.4,0.8C83.5,37.1,83.8,37.1,84.3,37.1z"/>
		<path class="st1" d="M88.8,32.1c0.2-0.1,0.6-0.1,1-0.2c0.4-0.1,0.9-0.1,1.4-0.1c0.5,0,0.9,0.1,1.2,0.2c0.3,0.1,0.6,0.3,0.8,0.6
			s0.3,0.5,0.4,0.9c0.1,0.3,0.1,0.7,0.1,1.1v3.4h-1.1v-3.1c0-0.4,0-0.7-0.1-0.9c-0.1-0.3-0.1-0.5-0.2-0.6c-0.1-0.2-0.3-0.3-0.5-0.4
			c-0.2-0.1-0.4-0.1-0.7-0.1c-0.1,0-0.2,0-0.4,0c-0.1,0-0.2,0-0.4,0c-0.1,0-0.2,0-0.3,0c-0.1,0-0.2,0-0.2,0v5h-1.1V32.1z"/>
		<path class="st1" d="M95.1,39c0.1,0,0.2,0.1,0.3,0.1c0.1,0,0.3,0.1,0.4,0.1c0.4,0,0.8-0.1,1-0.3c0.2-0.2,0.5-0.5,0.6-0.9
			c-0.5-0.9-0.9-1.9-1.4-2.9c-0.4-1-0.8-2.1-1-3.1h1.1c0.1,0.3,0.2,0.7,0.3,1.1c0.1,0.4,0.3,0.8,0.4,1.2c0.1,0.4,0.3,0.8,0.5,1.3
			c0.2,0.4,0.3,0.8,0.5,1.2c0.3-0.8,0.5-1.6,0.8-2.4c0.2-0.8,0.4-1.6,0.6-2.4h1.1c-0.3,1.1-0.6,2.2-0.9,3.2c-0.3,1-0.7,2-1.1,2.9
			c-0.2,0.3-0.3,0.6-0.5,0.9c-0.2,0.2-0.3,0.5-0.5,0.6c-0.2,0.2-0.4,0.3-0.7,0.4c-0.2,0.1-0.5,0.1-0.8,0.1c-0.1,0-0.2,0-0.3,0
			c-0.1,0-0.2,0-0.3,0c-0.1,0-0.2,0-0.2-0.1c-0.1,0-0.1,0-0.2-0.1L95.1,39z"/>
		<path class="st1" d="M109.1,37.3c-0.1,0.1-0.3,0.1-0.5,0.2c-0.3,0.1-0.6,0.1-0.9,0.1c-0.4,0-0.7-0.1-1-0.2
			c-0.3-0.1-0.6-0.3-0.8-0.5c-0.2-0.2-0.4-0.5-0.6-0.9c-0.1-0.4-0.2-0.8-0.2-1.3c0-0.4,0.1-0.8,0.2-1.2c0.1-0.4,0.3-0.7,0.6-0.9
			c0.2-0.3,0.6-0.5,0.9-0.6c0.4-0.2,0.8-0.2,1.2-0.2c0.5,0,0.9,0,1.3,0.1c0.4,0.1,0.7,0.1,0.9,0.2v5.3c0,0.9-0.2,1.6-0.7,2
			c-0.5,0.4-1.2,0.6-2.2,0.6c-0.4,0-0.7,0-1.1-0.1c-0.3-0.1-0.6-0.1-0.9-0.2l0.2-0.9c0.2,0.1,0.5,0.2,0.8,0.2c0.3,0.1,0.6,0.1,1,0.1
			c0.6,0,1.1-0.1,1.4-0.4c0.3-0.3,0.4-0.7,0.4-1.2V37.3z M109,32.9c-0.1,0-0.3-0.1-0.4-0.1c-0.2,0-0.4,0-0.7,0c-0.6,0-1,0.2-1.3,0.6
			c-0.3,0.4-0.5,0.9-0.5,1.5c0,0.3,0,0.6,0.1,0.9c0.1,0.2,0.2,0.4,0.4,0.6c0.1,0.2,0.3,0.3,0.5,0.4c0.2,0.1,0.4,0.1,0.6,0.1
			c0.3,0,0.5,0,0.8-0.1c0.2-0.1,0.4-0.2,0.6-0.3V32.9z"/>
		<path class="st1" d="M114.7,31.8c0.1,0,0.2,0,0.3,0c0.1,0,0.2,0,0.4,0c0.1,0,0.2,0,0.3,0.1c0.1,0,0.2,0,0.2,0.1l-0.2,0.9
			c-0.1,0-0.2-0.1-0.4-0.1c-0.2,0-0.4-0.1-0.8-0.1c-0.2,0-0.4,0-0.6,0.1c-0.2,0-0.3,0.1-0.4,0.1v5h-1.1v-5.7
			c0.3-0.1,0.6-0.2,0.9-0.3C113.9,31.8,114.3,31.8,114.7,31.8z"/>
		<path class="st1" d="M122.8,34.9c0,0.5-0.1,0.9-0.2,1.3c-0.1,0.4-0.3,0.7-0.6,1c-0.2,0.3-0.5,0.5-0.9,0.6
			c-0.3,0.2-0.7,0.2-1.1,0.2c-0.4,0-0.8-0.1-1.1-0.2c-0.3-0.1-0.6-0.4-0.9-0.6c-0.2-0.3-0.4-0.6-0.6-1c-0.1-0.4-0.2-0.8-0.2-1.3
			c0-0.5,0.1-0.9,0.2-1.3c0.1-0.4,0.3-0.7,0.6-1c0.3-0.3,0.5-0.5,0.9-0.6c0.3-0.1,0.7-0.2,1.1-0.2c0.4,0,0.8,0.1,1.1,0.2
			c0.3,0.1,0.6,0.4,0.9,0.6c0.2,0.3,0.4,0.6,0.6,1C122.8,34,122.8,34.5,122.8,34.9z M121.7,34.9c0-0.7-0.2-1.2-0.5-1.6
			c-0.3-0.4-0.7-0.6-1.2-0.6s-0.9,0.2-1.2,0.6c-0.3,0.4-0.5,0.9-0.5,1.6c0,0.7,0.2,1.2,0.5,1.6c0.3,0.4,0.7,0.6,1.2,0.6
			s0.9-0.2,1.2-0.6C121.6,36.1,121.7,35.6,121.7,34.9z"/>
		<path class="st1" d="M129.7,37.7c-0.2,0.1-0.6,0.1-1,0.2c-0.4,0.1-0.9,0.1-1.4,0.1c-0.5,0-0.8-0.1-1.2-0.2
			c-0.3-0.1-0.6-0.3-0.8-0.6c-0.2-0.2-0.3-0.5-0.4-0.9c-0.1-0.3-0.1-0.7-0.1-1.1v-3.4h1.1v3.1c0,0.7,0.1,1.2,0.3,1.6
			c0.2,0.3,0.6,0.5,1.2,0.5c0.1,0,0.2,0,0.4,0c0.1,0,0.2,0,0.3,0c0.1,0,0.2,0,0.3,0c0.1,0,0.2,0,0.2,0v-5h1.1V37.7z"/>
		<path class="st1" d="M137.4,34.9c0,0.5-0.1,0.9-0.2,1.3c-0.1,0.4-0.3,0.7-0.5,1c-0.2,0.3-0.5,0.5-0.8,0.6
			c-0.3,0.2-0.7,0.2-1.1,0.2c-0.3,0-0.7,0-0.9-0.1c-0.3-0.1-0.5-0.2-0.6-0.3V40h-1.1v-7.9c0.3-0.1,0.6-0.1,0.9-0.2
			c0.4-0.1,0.8-0.1,1.3-0.1c0.5,0,0.9,0.1,1.2,0.2c0.4,0.1,0.7,0.4,0.9,0.6c0.3,0.3,0.5,0.6,0.6,1C137.3,34,137.4,34.5,137.4,34.9z
			 M136.2,34.9c0-0.7-0.2-1.2-0.5-1.6c-0.3-0.4-0.8-0.6-1.4-0.6c-0.3,0-0.6,0-0.8,0c-0.2,0-0.3,0-0.4,0.1v3.8
			c0.1,0.1,0.3,0.2,0.6,0.3c0.2,0.1,0.5,0.1,0.8,0.1c0.3,0,0.6-0.1,0.8-0.2c0.2-0.1,0.4-0.3,0.5-0.5c0.1-0.2,0.2-0.4,0.3-0.7
			C136.2,35.5,136.2,35.2,136.2,34.9z"/>
	</g>
</g>
</svg>
