<?xml version="1.0" encoding="UTF-8" standalone="no"?>
<!-- Generator: Adobe Illustrator 14.0.0, SVG Export Plug-In . SVG Version: 6.00 Build 43363)  -->

<svg
   xmlns:dc="http://purl.org/dc/elements/1.1/"
   xmlns:cc="http://creativecommons.org/ns#"
   xmlns:rdf="http://www.w3.org/1999/02/22-rdf-syntax-ns#"
   xmlns:svg="http://www.w3.org/2000/svg"
   xmlns="http://www.w3.org/2000/svg"
   xmlns:sodipodi="http://sodipodi.sourceforge.net/DTD/sodipodi-0.dtd"
   xmlns:inkscape="http://www.inkscape.org/namespaces/inkscape"
   xml:space="preserve"
   height="150"
   viewBox="0 0 300 150.00001"
   width="300"
   version="1.1"
   y="0px"
   x="0px"
   enable-background="new 0 0 566.93 283.46"
   id="svg4136"
   inkscape:version="0.91 r13725"
   sodipodi:docname="qt-company.svg"><defs
     id="defs4206" /><sodipodi:namedview
     pagecolor="#ffffff"
     bordercolor="#666666"
     borderopacity="1"
     objecttolerance="10"
     gridtolerance="10"
     guidetolerance="10"
     inkscape:pageopacity="0"
     inkscape:pageshadow="2"
     inkscape:window-width="1920"
     inkscape:window-height="1007"
     id="namedview4204"
     showgrid="true"
     inkscape:snap-bbox="true"
     inkscape:bbox-nodes="true"
     inkscape:zoom="1.7371257"
     inkscape:cx="224.58913"
     inkscape:cy="60.510509"
     inkscape:window-x="0"
     inkscape:window-y="0"
     inkscape:window-maximized="1"
     inkscape:current-layer="g4186"><inkscape:grid
       type="xygrid"
       id="grid4243" /></sodipodi:namedview><metadata
     id="metadata4138"><rdf:RDF><cc:Work
         rdf:about=""><dc:format>image/svg+xml</dc:format><dc:type
           rdf:resource="http://purl.org/dc/dcmitype/StillImage" /><dc:title /></cc:Work></rdf:RDF></metadata><g
     transform="translate(0 -133)"
     display="none"
     id="g4140"><g
       display="inline"
       id="g4142"><path
         d="m376 133c-1.05 2.5 0.119 5.38 2.62 6.43-2.5-1.05-5.38 0.119-6.43 2.62 1.05-2.5-0.119-5.38-2.62-6.43 2.5 1.05 5.38-0.117 6.43-2.62z"
         id="path4144" /><path
         d="m325 115c-1.05 2.5 0.119 5.38 2.62 6.43-2.5-1.05-5.38 0.118-6.43 2.61 1.05-2.5-0.117-5.38-2.62-6.43 2.5 1.05 5.38-0.118 6.43-2.62z"
         id="path4146" /><path
         d="m286 118c-1.05 2.5 0.118 5.38 2.62 6.43-2.5-1.05-5.38 0.119-6.43 2.62 1.05-2.5-0.121-5.38-2.62-6.43 2.5 1.05 5.38-0.117 6.43-2.62z"
         id="path4148" /><path
         d="m239 125c-1.06 2.5 0.116 5.38 2.62 6.43-2.5-1.05-5.38 0.118-6.43 2.62 1.05-2.5-0.119-5.38-2.62-6.43 2.5 1.05 5.38-0.118 6.43-2.62z"
         id="path4150" /><path
         d="m221 156c-1.05 2.5 0.119 5.38 2.62 6.43-2.5-1.06-5.38 0.117-6.43 2.61 1.05-2.5-0.118-5.38-2.62-6.43 2.5 1.05 5.38-0.116 6.43-2.62z"
         id="path4152" /><path
         d="m174 147c-1.05 2.5 0.119 5.38 2.62 6.43-2.5-1.05-5.38 0.118-6.43 2.62 1.05-2.5-0.121-5.38-2.62-6.43 2.5 1.05 5.38-0.117 6.43-2.62z"
         id="path4154" /><path
         d="m172 107c-1.05 2.5 0.119 5.38 2.62 6.43-2.5-1.05-5.38 0.12-6.43 2.62 1.05-2.5-0.118-5.38-2.62-6.43 2.5 1.05 5.38-0.117 6.43-2.62z"
         id="path4156" /><path
         d="m245 147-1.25 7c0.92-0.658 2.37-0.921 3.12-0.921 4.37 0 6.67 3.25 6.67 7.16 0 9.99-9.66 12-17 8.97l3.91-22.2h4.5zm-3.45 19.3c0.789 0.296 1.58 0.362 2.3 0.362 3.16-0.033 5.19-2.73 5.19-5.95 0-2.5-1.44-3.68-3.58-3.68-0.625 0-1.54 0.164-2.33 0.658l-1.58 8.61z"
         id="path4158" /><path
         d="m261 171c-3.88 0.624-6.67-0.756-5.85-5.36l3.12-17.7h4.5l-3.12 17.7c-0.164 0.854 0.098 1.84 2 1.68l-0.656 3.68z"
         id="path4160" /><path
         d="m263 163 1.71-9.63h4.5l-1.68 9.43c-0.592 3.32 2.53 4.47 5.85 3.45l2.27-12.9h4.5l-2.79 15.9c-6.31 2.33-15.8 1.97-14.4-6.31z"
         id="path4162" /><path
         d="m295 168c-2.4 2.2-4.77 3.12-7.2 3.12-4.9 0-7.13-3.55-7.13-7.26 0-4.9 3.94-10.1 10.2-10.1 4.24-0.033 6.97 2.66 6.97 6.74 0 1.58-0.395 2.63-1.05 3.71h-11.7c-0.065 3.75 4.7 3.98 7.86 1.54l2.14 2.24zm-1.54-7.23c0.197-2.4-1.58-3.12-3.29-3.12-1.74 0-3.78 0.887-4.54 3.12h7.82z"
         id="path4164" /><g
         fill="#58595b"
         id="g4166"><path
           d="m310 165c0 3.65-3.88 5.39-6.54 5.39-1.97 0-3.71-0.821-4.67-2.4 0.395-0.328 0.888-0.756 1.22-1.05 1.51 2.76 7.23 2.66 8.25-1.38 0.296-1.87-1.81-2.83-3.25-3.12-2.46-0.428-4.57-1.78-4.11-4.5 0.854-4.9 7.76-6.11 10.4-3.16l-1.22 1.12c-1.84-2.17-7.53-1.31-7.53 2.37 0 1.68 1.77 2.4 3.06 2.66 2.27 0.492 4.4 1.68 4.4 4.08z"
           id="path4168" /><path
           d="m311 175c1.87 0.066 2.76-0.592 3.52-1.94l1.41-2.53-3.88-16.7h1.84l3.25 15 8.25-15h1.84l-11.2 19.8c-1.22 2.24-2.89 2.79-4.77 2.79h-0.525l0.262-1.42z"
           id="path4170" /><path
           d="m336 165c0 3.65-3.88 5.39-6.54 5.39-1.97 0-3.72-0.821-4.67-2.4 0.395-0.328 0.888-0.756 1.22-1.05 1.51 2.76 7.23 2.66 8.25-1.38 0.296-1.87-1.81-2.83-3.25-3.12-2.46-0.428-4.57-1.78-4.11-4.5 0.854-4.9 7.76-6.11 10.4-3.16l-1.22 1.12c-1.84-2.17-7.53-1.31-7.53 2.37 0 1.68 1.78 2.4 3.06 2.66 2.27 0.492 4.4 1.68 4.4 4.08z"
           id="path4172" /><path
           d="m343 171c-2.93 0.133-4.83-1.41-4.24-4.67l1.87-10.7h-2.47l0.264-1.41h2.46l0.689-4.08 1.74-0.362-0.756 4.44h3.39l-0.264 1.41h-3.38l-1.87 10.7c-0.362 1.97 0.723 3.15 2.86 3.12l-0.295 1.54z"
           id="path4174" /><path
           d="m358 167 1.12 0.888c-1.91 1.94-4.34 2.89-6.84 2.89-5.36 0-7.26-4.57-6.51-8.71 0.756-4.17 4.27-8.38 9.5-8.41 4.01-0.032 6.48 2.89 6.48 6.7 0 1.68-0.296 1.94-0.395 2.37h-14.1c-0.395 3.65 1.38 6.44 5.32 6.44 1.88 0 3.98-0.689 5.42-2.17zm2.14-5.72c0.461-3.58-1.68-5.98-5.13-6.05-3.88 0.033-6.48 2.7-7.53 6.05h12.7z"
           id="path4176" /><path
           d="m376 157c1.94-2.93 4.21-3.39 6.41-3.39 3.58 0 6.15 1.94 5.26 7l-1.74 9.93h-1.71l1.74-9.93c0.689-3.88-1.28-5.46-3.81-5.46-2.6 0-5.19 1.18-5.92 5.13l-1.81 10.3h-1.64l1.81-10.3c1.18-5-4.64-6.15-8.71-4.64l-2.63 14.9h-1.71l2.83-16.1c3.68-1.41 10.6-1.71 11.6 2.53z"
           id="path4178" /><path
           d="m400 165c0 3.65-3.88 5.39-6.54 5.39-1.97 0-3.71-0.822-4.67-2.4 0.393-0.328 0.887-0.756 1.22-1.05 1.51 2.76 7.23 2.66 8.25-1.38 0.297-1.87-1.81-2.83-3.25-3.12-2.46-0.427-4.57-1.77-4.11-4.5 0.854-4.9 7.76-6.11 10.4-3.16l-1.22 1.12c-1.84-2.17-7.53-1.31-7.53 2.37 0 1.68 1.78 2.4 3.06 2.66 2.27 0.493 4.4 1.68 4.4 4.08z"
           id="path4180" /></g></g><rect
       display="inline"
       height="28.3"
       width="28.3"
       y="10"
       x="539"
       id="rect4182" /><rect
       display="inline"
       height="28.3"
       width="28.3"
       y="40.3"
       x="539"
       fill="#58595b"
       id="rect4184" /></g><g
     transform="translate(114 -456)"
     id="g4186"><g
       id="g4261"
       transform="matrix(1.0208605,0,0,1.0208605,-2.5312489,-21.979043)"><path
         d="m -77.24984,496 107.258886,0 0,74.11104 -17.24766,17.24766 -107.258886,0 0,-74.38053 C -88.811162,507.37268 -83.097875,501.68634 -77.384588,496 Z"
         id="path4190"
         inkscape:connector-curvature="0"
         style="fill:#41cd52" /><path
         d="m -61.484401,515.21497 c 4.311915,-2.69495 9.16282,-3.36868 14.013724,-3.31478 4.55446,0.0566 9.351466,0.85699 13.151341,3.58428 2.748846,1.93227 4.527511,4.9048 5.713287,8.00399 1.926887,5.0665 2.492826,10.53724 2.557505,15.92713 0.0081,5.41685 -0.237155,10.96844 -2.03199,16.11579 -1.201946,3.50343 -3.503431,6.62957 -6.521771,8.81247 2.172127,3.53038 4.392763,7.00687 6.54872,10.53725 -2.721896,1.25854 -5.443792,2.52516 -8.192638,3.77292 -2.325739,-3.82682 -4.635309,-7.6806 -6.979913,-11.50742 -3.153087,0.51743 -6.387024,0.477 -9.567061,0.12666 -3.799875,-0.45545 -7.680599,-1.61427 -10.618091,-4.17717 -2.252975,-1.95114 -3.665128,-4.6892 -4.635309,-7.465 -1.584628,-4.68921 -2.01043,-9.70181 -2.083193,-14.60661 -0.03773,-5.336 0.301834,-10.72589 1.908022,-15.84629 1.24237,-3.85377 3.287835,-7.6806 6.764317,-9.9174 z"
         id="path4192"
         inkscape:connector-curvature="0"
         style="fill:#ffffff" /><path
         d="m -15.131314,515.05327 c 2.856644,-0.003 5.7132873,-0.003 8.569931,0 0.00808,3.77293 -0.00269,7.54586 0.00539,11.31878 3.6651278,0.005 7.30330609,0 10.9414844,0.003 -0.061984,2.4524 -0.1293574,4.9048 -0.1994261,7.3572 -3.63817828,0.008 -7.3033061,-0.003 -10.9414844,0.005 0.00808,6.19838 -0.018865,12.39676 0.013475,18.56819 0.070069,1.69512 0.032339,3.47648 0.7788396,5.03955 0.5443793,1.20733 2.0104304,1.51725 3.2069868,1.55768 2.25028069,-0.008 4.5005613,-0.14014 6.7373673,-0.18057 0.1374423,2.25298 0.2694947,4.50057 0.3988521,6.76432 -4.47361184,0.75189 -9.1628194,1.652 -13.6094818,0.24524 -1.8729889,-0.55516 -3.6112289,-1.79753 -4.3658139,-3.63818 -1.360949,-3.15309 -1.471441,-6.65652 -1.53073,-10.0252 -0.0054,-6.11753 0,-12.20811 -0.0027,-18.32564 -1.991566,-0.005 -3.988522,0.003 -5.982782,-0.005 -0.0054,-2.44971 -0.0054,-4.9048 0,-7.3572 1.991565,-0.008 3.988521,0.003 5.982782,-0.005 0.0081,-3.77293 -0.0027,-7.54585 0.0054,-11.31878 z"
         id="path4194"
         inkscape:connector-curvature="0"
         style="fill:#ffffff" /><path
         d="m -50.974108,519.63468 c 2.775795,-0.36112 5.686338,-0.2641 8.300437,0.78423 2.126313,0.84083 3.934622,2.48744 4.877853,4.58141 1.463357,3.15309 2.023906,6.65652 2.306875,10.10605 0.307224,4.58141 0.264105,9.21672 -0.369208,13.77118 -0.444666,2.7219 -1.077979,5.57854 -2.910542,7.70755 -1.864904,2.14787 -4.743107,3.07224 -7.491953,3.28784 -2.910542,0.2129 -5.982782,0 -8.59688,-1.37712 -1.533425,-0.81657 -2.829695,-2.09667 -3.58428,-3.66513 -0.921672,-1.87838 -1.428322,-3.93462 -1.784055,-5.98278 -1.072588,-6.52177 -1.331303,-13.25914 0.134748,-19.72701 0.603668,-2.44162 1.482221,-4.9587 3.260885,-6.79127 1.55229,-1.57654 3.719027,-2.39042 5.874985,-2.69495 z"
         id="path4196"
         inkscape:connector-curvature="0"
         style="fill:#41cd52" /><path
         d="m 46.86924,515.31862 6.07899,0 0,18.26813 3.49152,0 0,-18.26813 6.016638,0 0,-3.08626 -15.587148,0 0,3.08626 z"
         id="path4219"
         inkscape:connector-curvature="0"
         style="font-style:normal;font-variant:normal;font-weight:600;font-stretch:normal;font-size:medium;line-height:125%;font-family:Titillium;-inkscape-font-specification:'Titillium Semi-Bold';letter-spacing:0px;word-spacing:0px;fill:#000000;fill-opacity:1;stroke:none;stroke-width:1px;stroke-linecap:butt;stroke-linejoin:miter;stroke-opacity:1" /><path
         d="m 68.298154,533.58675 0,-12.22032 c 0,0 1.776935,-0.68583 3.491521,-0.68583 2.40042,0 2.774512,1.52754 2.774512,4.64496 l 0,8.26119 3.397998,0 0,-8.35471 c 0,-5.11258 -1.059926,-7.57535 -5.393153,-7.57535 -1.96398,0 -4.270878,1.15345 -4.270878,1.15345 l 0,-7.29479 -3.397997,0 0,22.0714 3.397997,0 z"
         id="path4221"
         inkscape:connector-curvature="0"
         style="font-style:normal;font-variant:normal;font-weight:600;font-stretch:normal;font-size:medium;line-height:125%;font-family:Titillium;-inkscape-font-specification:'Titillium Semi-Bold';letter-spacing:0px;word-spacing:0px;fill:#000000;fill-opacity:1;stroke:none;stroke-width:1px;stroke-linecap:butt;stroke-linejoin:miter;stroke-opacity:1" /><path
         d="m 88.183455,530.96811 c -2.587466,0 -3.522695,-1.24697 -3.553869,-3.74091 l 9.66403,0 0.21822,-2.4316 c 0,-4.86319 -2.1822,-7.13891 -6.546601,-7.13891 -4.302052,0 -6.764821,2.58747 -6.764821,8.29236 0,5.48668 1.808109,7.98062 6.484253,7.98062 2.743337,0 6.297207,-0.71701 6.297207,-0.71701 l -0.06235,-2.52512 c 0,0 -3.273301,0.28057 -5.73607,0.28057 z m -3.585043,-6.35955 c 0.03117,-2.99274 1.059926,-4.14618 3.366823,-4.14618 2.275724,0 3.210952,1.02875 3.210952,4.14618 l -6.577775,0 z"
         id="path4223"
         inkscape:connector-curvature="0"
         style="font-style:normal;font-variant:normal;font-weight:600;font-stretch:normal;font-size:medium;line-height:125%;font-family:Titillium;-inkscape-font-specification:'Titillium Semi-Bold';letter-spacing:0px;word-spacing:0px;fill:#000000;fill-opacity:1;stroke:none;stroke-width:1px;stroke-linecap:butt;stroke-linejoin:miter;stroke-opacity:1" /><path
         d="m 117.50337,538.29407 3.21095,-1.49637 -2.61864,-4.20853 c 2.49394,-1.65223 3.398,-4.73849 3.398,-9.5705 0,-7.17009 -1.99516,-11.12922 -8.66646,-11.12922 -6.67129,0 -8.69762,3.9903 -8.69762,11.12922 0,7.23243 1.99515,10.911 8.69762,10.911 0.68584,0 1.49637,-0.0624 1.90164,-0.18705 l 2.77451,4.55145 z m -4.67615,-7.38831 c -4.14618,0 -5.11258,-2.52511 -5.11258,-7.88709 0,-5.29963 0.99758,-8.10532 5.11258,-8.10532 4.11501,0 5.08141,2.80569 5.08141,8.10532 0,5.4555 -0.93523,7.88709 -5.08141,7.88709 z"
         id="path4225"
         inkscape:connector-curvature="0"
         style="font-style:normal;font-variant:normal;font-weight:600;font-stretch:normal;font-size:medium;line-height:125%;font-family:Titillium;-inkscape-font-specification:'Titillium Semi-Bold';letter-spacing:0px;word-spacing:0px;fill:#000000;fill-opacity:1;stroke:none;stroke-width:1px;stroke-linecap:butt;stroke-linejoin:miter;stroke-opacity:1" /><path
         d="m 133.50357,520.89882 0,-2.89921 -4.30205,0 0,-4.52028 -3.36682,0 0,4.52028 -1.99516,0 0,2.89921 1.99516,0 0,7.23243 c 0,4.4891 1.0911,5.79842 4.61379,5.79842 1.0911,0 3.17978,-0.40527 3.17978,-0.40527 l -0.15587,-2.71216 c 0,0 -1.68341,0.0935 -2.55629,0.0935 -1.62107,0 -1.71459,-0.81053 -1.71459,-3.1486 l 0,-6.85834 4.30205,0 z"
         id="path4227"
         inkscape:connector-curvature="0"
         style="font-style:normal;font-variant:normal;font-weight:600;font-stretch:normal;font-size:medium;line-height:125%;font-family:Titillium;-inkscape-font-specification:'Titillium Semi-Bold';letter-spacing:0px;word-spacing:0px;fill:#000000;fill-opacity:1;stroke:none;stroke-width:1px;stroke-linecap:butt;stroke-linejoin:miter;stroke-opacity:1" /><path
         d="m 62.082297,561.55009 c -1.340495,0.21822 -3.834438,0.46762 -5.424327,0.46762 -4.208529,0 -4.987886,-2.05751 -4.987886,-7.91827 0,-6.04782 0.966403,-7.94945 4.894363,-7.94945 1.527541,0 4.115007,0.2494 5.51785,0.49879 l 0.124697,-2.80569 c -1.340495,-0.31174 -3.896786,-0.77935 -6.110161,-0.77935 -6.390732,0 -8.011795,3.33565 -8.011795,11.0357 0,7.29478 1.496366,11.00452 8.011795,11.00452 1.995155,0 4.613795,-0.37409 6.078987,-0.68583 l -0.09352,-2.86804 z"
         id="path4229"
         inkscape:connector-curvature="0"
         style="font-style:normal;font-variant:normal;font-weight:600;font-stretch:normal;font-size:medium;line-height:125%;font-family:Titillium;-inkscape-font-specification:'Titillium Semi-Bold';letter-spacing:0px;word-spacing:0px;fill:#000000;fill-opacity:1;stroke:none;stroke-width:1px;stroke-linecap:butt;stroke-linejoin:miter;stroke-opacity:1" /><path
         d="m 71.408281,548.83098 c -5.206107,0 -6.951867,2.99273 -6.951867,8.04297 0,5.17493 1.621063,8.23001 6.951867,8.23001 5.361978,0 6.951867,-3.05508 6.951867,-8.23001 0,-5.05024 -1.74576,-8.04297 -6.951867,-8.04297 z m 0,13.40495 c -2.899209,0 -3.522695,-1.74576 -3.522695,-5.36198 0,-3.61622 0.779357,-5.17493 3.522695,-5.17493 2.743338,0 3.522695,1.55871 3.522695,5.17493 0,3.61622 -0.623486,5.36198 -3.522695,5.36198 z"
         id="path4231"
         inkscape:connector-curvature="0"
         style="font-style:normal;font-variant:normal;font-weight:600;font-stretch:normal;font-size:medium;line-height:125%;font-family:Titillium;-inkscape-font-specification:'Titillium Semi-Bold';letter-spacing:0px;word-spacing:0px;fill:#000000;fill-opacity:1;stroke:none;stroke-width:1px;stroke-linecap:butt;stroke-linejoin:miter;stroke-opacity:1" /><path
         d="m 85.103046,564.76104 0,-12.09562 c 0,0 1.621063,-0.81053 3.366823,-0.81053 2.338072,0 2.680989,1.43401 2.680989,4.89436 l 0,8.01179 3.366824,0 0,-8.07414 c 0,-1.52754 -0.124698,-3.67856 -0.249395,-3.99031 0,0 1.839283,-0.8417 3.55387,-0.8417 2.275723,0 2.649813,1.52754 2.649813,4.64497 l 0,8.26118 3.36682,0 0,-8.35471 c 0,-5.29963 -1.15344,-7.57535 -5.393148,-7.57535 -2.525117,0 -5.361978,1.52754 -5.361978,1.52754 -0.87288,-1.05993 -2.057503,-1.52754 -3.959135,-1.52754 -1.839283,0 -4.052658,1.30932 -4.052658,1.30932 l 0,-0.9664 -3.366823,0 0,15.58714 3.397998,0 z"
         id="path4233"
         inkscape:connector-curvature="0"
         style="font-style:normal;font-variant:normal;font-weight:600;font-stretch:normal;font-size:medium;line-height:125%;font-family:Titillium;-inkscape-font-specification:'Titillium Semi-Bold';letter-spacing:0px;word-spacing:0px;fill:#000000;fill-opacity:1;stroke:none;stroke-width:1px;stroke-linecap:butt;stroke-linejoin:miter;stroke-opacity:1" /><path
         d="m 107.8257,571.46352 3.398,0 0,-6.64013 c 0.18704,0.0312 1.68341,0.28057 2.96155,0.28057 4.80084,0 6.98304,-1.87046 6.98304,-8.29236 0,-5.67372 -1.90163,-7.98062 -5.95428,-7.98062 -1.87046,0 -4.02149,1.30932 -4.02149,1.30932 l 0,-0.9664 -3.36682,0 0,22.28962 z m 6.79599,-19.60863 c 1.93281,0 3.08626,1.30932 3.08626,4.95671 0,3.83444 -0.84171,5.36198 -3.74092,5.36198 -1.0911,0 -2.58746,-0.21822 -2.74333,-0.2494 l 0,-9.19641 c 0,0 1.74576,-0.87288 3.39799,-0.87288 z"
         id="path4235"
         inkscape:connector-curvature="0"
         style="font-style:normal;font-variant:normal;font-weight:600;font-stretch:normal;font-size:medium;line-height:125%;font-family:Titillium;-inkscape-font-specification:'Titillium Semi-Bold';letter-spacing:0px;word-spacing:0px;fill:#000000;fill-opacity:1;stroke:none;stroke-width:1px;stroke-linecap:butt;stroke-linejoin:miter;stroke-opacity:1" /><path
         d="m 136.10419,553.97474 c 0,-3.55387 -1.55872,-5.14376 -5.36198,-5.14376 -2.86804,0 -6.26603,0.81053 -6.26603,0.81053 l 0.12469,2.40042 c 0,0 3.77209,-0.31174 5.86077,-0.31174 1.52754,0 2.27572,0.52996 2.27572,2.24455 l 0,1.12227 -4.02148,0.34292 c -3.33565,0.28057 -5.14376,1.40284 -5.14376,4.70732 0,3.24212 1.55872,4.95671 4.64497,4.95671 2.52512,0 5.01906,-1.15345 5.01906,-1.15345 1.15345,0.90406 2.24455,1.15345 4.14618,1.15345 l 0.0935,-2.58747 c -0.90405,-0.12469 -1.30932,-0.49878 -1.37166,-1.43401 l 0,-7.10774 z m -3.36683,3.52269 0,4.14618 c 0,0 -2.08867,0.68584 -3.86561,0.68584 -1.30932,0 -1.90163,-0.87288 -1.90163,-2.27572 0,-1.40285 0.71701,-2.08868 2.15102,-2.21338 l 3.61622,-0.34292 z"
         id="path4237"
         inkscape:connector-curvature="0"
         style="font-style:normal;font-variant:normal;font-weight:600;font-stretch:normal;font-size:medium;line-height:125%;font-family:Titillium;-inkscape-font-specification:'Titillium Semi-Bold';letter-spacing:0px;word-spacing:0px;fill:#000000;fill-opacity:1;stroke:none;stroke-width:1px;stroke-linecap:butt;stroke-linejoin:miter;stroke-opacity:1" /><path
         d="m 143.79839,564.76104 0,-12.09562 c 0,0 1.71459,-0.81053 3.5227,-0.81053 2.36924,0 2.77451,1.52754 2.77451,4.64497 l 0,8.26118 3.36682,0 0,-8.35471 c 0,-5.11258 -1.05992,-7.57535 -5.39315,-7.57535 -2.02633,0 -4.30205,1.30932 -4.30205,1.30932 l 0,-0.9664 -3.36683,0 0,15.58714 3.398,0 z"
         id="path4239"
         inkscape:connector-curvature="0"
         style="font-style:normal;font-variant:normal;font-weight:600;font-stretch:normal;font-size:medium;line-height:125%;font-family:Titillium;-inkscape-font-specification:'Titillium Semi-Bold';letter-spacing:0px;word-spacing:0px;fill:#000000;fill-opacity:1;stroke:none;stroke-width:1px;stroke-linecap:butt;stroke-linejoin:miter;stroke-opacity:1" /><path
         d="m 155.83216,549.1739 4.08383,15.58714 2.68099,0 -1.87046,6.70248 3.33565,0 5.92312,-22.28962 -3.36683,0 -3.30447,12.68793 -0.84171,0 -3.30447,-12.68793 -3.33565,0 z"
         id="path4241"
         inkscape:connector-curvature="0"
         style="font-style:normal;font-variant:normal;font-weight:600;font-stretch:normal;font-size:medium;line-height:125%;font-family:Titillium;-inkscape-font-specification:'Titillium Semi-Bold';letter-spacing:0px;word-spacing:0px;fill:#000000;fill-opacity:1;stroke:none;stroke-width:1px;stroke-linecap:butt;stroke-linejoin:miter;stroke-opacity:1" /></g></g></svg>