<?xml version="1.0" encoding="utf-8"?>
<!-- Generator: Adobe Illustrator 22.1.0, SVG Export Plug-In . SVG Version: 6.00 Build 0)  -->
<svg version="1.1" id="layer" xmlns="http://www.w3.org/2000/svg" xmlns:xlink="http://www.w3.org/1999/xlink" x="0px" y="0px"
	 viewBox="0 0 652 652" style="enable-background:new 0 0 652 652;" xml:space="preserve">
<style type="text/css">
	.st0{display:none;}
	.st1{fill:#AFD72B;}
</style>
<rect x="26" y="180.5" class="st0" width="600" height="291.4"/>
<g>
	<path class="st1" d="M221.1,355.5c-29.7,0-50.5-23.9-60.3-38.2c-5.3-7.7-3.3-18.3,4.4-23.6c7.7-5.3,18.3-3.3,23.6,4.4
		c4.8,7,17.6,23.4,32.3,23.4c16.4,0,29.8-20.5,37-31.4l0.1-0.2c10-15.3,30.8-47,65.8-47c30.4,0,51,24,60.5,38.4
		c5.2,7.8,3.1,18.3-4.7,23.5c-7.8,5.2-18.3,3.1-23.5-4.7c-4.7-7-17.1-23.3-32.3-23.3c-16.7,0-30.2,20.6-37.4,31.6l-0.1,0.2
		C276.5,323.9,255.8,355.5,221.1,355.5"/>
	<path class="st1" d="M131.9,371.6c-2.4-1.1-6.5-1.7-11.7-1.7s-17.2,1.3-17.2,13c0,6.3,5,8.3,9.1,9.9c3,1.2,5.6,2.2,5.6,4.6
		c0,3.4-4.2,4.2-7.7,4.2c-3.4,0-7.3-0.9-9.1-2.1c-0.1-0.1-0.2-0.1-0.3,0c-0.1,0-0.2,0.1-0.2,0.2l-2.4,7.7c-0.1,0.2,0,0.4,0.2,0.4
		c3.9,1.2,8.4,2,11.8,2c7,0,18.8-1.8,18.8-13.5c0-7-5.3-9.2-9.6-10.9c-2.8-1.1-5.1-2-5.1-4c0-2.3,2.1-3.3,6.9-3.3
		c3.1,0,5.8,0.6,8.2,1.7c0.1,0,0.2,0,0.3,0s0.2-0.1,0.2-0.2l2.4-7.5C132.2,371.8,132.1,371.7,131.9,371.6"/>
	<path class="st1" d="M149.4,402l-0.2,0.1c-0.9,0.3-1.9,0.7-2.8,0.7c-1.8,0-2.9-1.1-2.9-2.8c0-1,0.2-2.1,0.5-3.6
		c0.1-0.4,0.2-0.8,0.3-1.2l1.6-7.6h6.8c0.2,0,0.3-0.1,0.3-0.3l1.2-6.8c0-0.1,0-0.2-0.1-0.3c-0.1-0.1-0.2-0.1-0.3-0.1h-6.3l1.9-8.4
		c0-0.1,0-0.2-0.1-0.3c-0.1-0.1-0.2-0.1-0.3-0.1l-10.3,2.8c-0.1,0-0.2,0.1-0.2,0.2l-1.3,5.8h-5.3c-0.2,0-0.3,0.1-0.3,0.3l-1.2,6.8
		c0,0.1,0,0.2,0.1,0.3c0.1,0.1,0.2,0.1,0.3,0.1h4.8l-1.6,7.5c-0.7,3-0.9,4.5-0.9,5.9c0,5.5,3.4,8.7,9.3,8.7c1.8,0,3.8-0.2,6.1-0.5
		c0.1,0,0.2-0.1,0.3-0.3l1.1-6.4c0-0.1,0-0.2-0.1-0.3C149.6,402,149.5,402,149.4,402"/>
	<path class="st1" d="M175.8,389.5c0.1,0,0.2-0.1,0.2-0.2l2.2-8.6c0-0.2,0-0.3-0.2-0.4c-1.4-0.6-3.1-0.7-4.2-0.7
		c-3.6,0-6.5,2.4-8.2,5.1l0.8-4.1c0-0.1,0-0.2-0.1-0.3c-0.1-0.1-0.2-0.1-0.3-0.1h-9c-0.2,0-0.3,0.1-0.3,0.3
		c-0.3,2.6-0.7,5.1-1.2,7.3l-4.4,20.9c0,0.1,0,0.2,0.1,0.3c0.1,0.1,0.2,0.1,0.3,0.1h9.7c0.2,0,0.3-0.1,0.3-0.3l2.8-13
		c0.6-3.6,2.8-7.5,6.9-7.5c1.8,0,3.1,0.2,4.3,1.1C175.6,389.5,175.7,389.5,175.8,389.5"/>
	<path class="st1" d="M192.6,379.5c-12.6,0-17.2,10.1-17.2,17c0,9.1,7.5,13.2,14.9,13.2c3,0,6.6-0.6,10-1.6c0.1,0,0.2-0.1,0.2-0.3
		l1.2-6.9c0-0.1,0-0.2-0.1-0.3c-0.1-0.1-0.2-0.1-0.3,0c-2.4,1.2-5.8,1.9-8.7,1.9c-6,0-7.1-2.5-7.2-4.7H205c0.2,0,0.3-0.1,0.3-0.3
		c0.4-1.7,0.7-4.2,0.7-5.4C205.9,384.1,201,379.5,192.6,379.5 M185.9,391.6c0.8-2.4,2.9-4.9,6.8-4.9c3.5,0,4.4,2.6,4.4,4.9H185.9z"
		/>
	<path class="st1" d="M224.1,379.5c-3.9,0-7.1,0.5-10.5,1.6c-0.1,0-0.2,0.1-0.2,0.3l-1,7.1c0,0.1,0,0.2,0.1,0.3
		c0.1,0.1,0.2,0.1,0.3,0c3.1-1.6,5.5-2.2,9-2.2c2.8,0,4.9,1.4,4.9,3.3c0,0.3,0,0.5,0,0.8c-1.4-0.1-3.2-0.2-5-0.2
		c-9.8,0-15.9,4.1-15.9,10.7c0,5.6,3.4,8.5,9.8,8.5c3.9,0,7.1-1.4,9.1-3.9l-0.3,2.9c0,0.1,0,0.2,0.1,0.3c0.1,0.1,0.2,0.1,0.2,0.1h8
		c0.2,0,0.3-0.1,0.3-0.3c0.5-4.1,1.4-7.7,2.1-10.8c0.8-3.3,1.5-6.2,1.5-8.5C236.7,383.1,232.1,379.5,224.1,379.5 M225.7,396.4
		c-0.8,3.8-3.4,6.1-7,6.1c-1.9,0-3-1.4-3-2.5c0-2.1,3-3.7,7.1-3.7c0.2,0,0.4,0,0.6,0C224,396.3,224.9,396.3,225.7,396.4"/>
	<path class="st1" d="M277.7,379.5c-3.9,0-7.4,1.9-9.9,5.3c-1.1-3.6-4.5-5.3-7.6-5.3c-3.6,0-7,1.7-9.5,4.8l0.8-3.8
		c0-0.1,0-0.2-0.1-0.3c-0.1-0.1-0.2-0.1-0.3-0.1h-8.7c-0.2,0-0.3,0.1-0.3,0.3c-0.3,2.6-0.7,5.1-1.2,7.3l-4.4,20.9
		c0,0.1,0,0.2,0.1,0.3c0.1,0.1,0.2,0.1,0.3,0.1h9.8c0.2,0,0.3-0.1,0.3-0.3l2.8-13c0.8-3.6,1.9-7.5,5.5-7.5c1.9,0,2.8,0.8,2.8,2.6
		c0,1-0.2,2.5-0.5,4.1l-2.8,13.7c0,0.1,0,0.2,0.1,0.3c0.1,0.1,0.2,0.1,0.3,0.1h9.7c0.2,0,0.3-0.1,0.3-0.3l2.8-13
		c0.8-3.6,1.9-7.5,5.5-7.5c1.9,0,2.8,0.8,2.8,2.6c0,1-0.2,2.5-0.5,4.1l-2.8,13.7c0,0.1,0,0.2,0.1,0.3c0.1,0.1,0.2,0.1,0.3,0.1h9.7
		c0.2,0,0.3-0.1,0.3-0.3l2.9-14.1c0.4-1.9,0.7-4.4,0.7-6.4C286.9,380.1,279.9,379.5,277.7,379.5"/>
	<path class="st1" d="M328,370.9c0-0.1,0-0.2-0.1-0.3c-0.1-0.1-0.2-0.1-0.3-0.1h-10c-0.2,0-0.3,0.1-0.3,0.3l-3.7,17.1
		c-0.1,0.5-0.2,1-0.3,1.5c-1.2,5.7-2.5,12.1-8.2,12.1c-3.1,0-5-2-5-5.1c0-0.8,0.3-2.1,0.6-3.7l4.6-21.8c0-0.1,0-0.2-0.1-0.3
		c-0.1-0.1-0.2-0.1-0.3-0.1h-10.2c-0.2,0-0.3,0.1-0.3,0.3l-4.3,19.4c-0.4,1.6-0.8,4.1-0.8,7.2c0,8,5.4,12.2,15.5,12.2
		c14,0,17-9.2,19.5-21.1L328,370.9z"/>
	<path class="st1" d="M349.1,379.5c-4.9,0-7.8,1.8-10.5,4.7l0.6-3.6c0-0.1,0-0.2-0.1-0.3c-0.1-0.1-0.2-0.1-0.3-0.1h-9
		c-0.2,0-0.3,0.1-0.3,0.3c-0.3,2.6-0.7,5.1-1.2,7.3l-4.4,20.9c0,0.1,0,0.2,0.1,0.3c0.1,0.1,0.2,0.1,0.3,0.1h9.8
		c0.2,0,0.3-0.1,0.3-0.3l2.8-13c0.6-3.6,2.7-7.5,6.9-7.5c2.6-0.1,3.4,1.5,3.4,2.9c0,1.1-0.2,2.2-0.5,3.3c-0.1,0.3-0.1,0.6-0.2,0.9
		l-2.7,13.2c0,0.1,0,0.2,0.1,0.3c0.1,0.1,0.2,0.1,0.3,0.1h10.1c0.2,0,0.3-0.1,0.3-0.3l2.6-13.2c0.6-3,0.8-4.1,0.8-6
		C358.2,383.4,354.7,379.5,349.1,379.5"/>
	<path class="st1" d="M377.8,367.9c-0.1-0.1-0.2-0.1-0.3-0.1h-9.9c-0.2,0-0.3,0.1-0.3,0.3l-8.5,40.6c0,0.1,0,0.2,0.1,0.3
		c0.1,0.1,0.2,0.1,0.3,0.1h9.9c0.2,0,0.3-0.1,0.3-0.3l8.4-40.6C377.9,368,377.8,367.9,377.8,367.9"/>
	<path class="st1" d="M381.5,376.2h9.9c0.2,0,0.3-0.1,0.3-0.3l1.5-7.2c0-0.1,0-0.2-0.1-0.3c-0.1-0.1-0.2-0.1-0.3-0.1h-9.9
		c-0.2,0-0.3,0.1-0.3,0.3l-1.5,7.2c0,0.1,0,0.2,0.1,0.3C381.3,376.1,381.4,376.2,381.5,376.2"/>
	<path class="st1" d="M390.7,380.3c-0.1-0.1-0.2-0.1-0.3-0.1h-9.9c-0.2,0-0.3,0.1-0.3,0.3l-5.9,28.2c0,0.1,0,0.2,0.1,0.3
		c0.1,0.1,0.2,0.1,0.3,0.1h9.9c0.2,0,0.3-0.1,0.3-0.3l5.9-28.2C390.8,380.4,390.7,380.3,390.7,380.3"/>
	<path class="st1" d="M430.4,379.5c-3.9,0-7.4,1.9-9.9,5.3c-1.1-3.6-4.5-5.3-7.6-5.3c-3.6,0-7,1.7-9.5,4.8l0.8-3.8
		c0-0.1,0-0.2-0.1-0.3c-0.1-0.1-0.2-0.1-0.3-0.1h-8.7c-0.2,0-0.3,0.1-0.3,0.3c-0.3,2.6-0.7,5.1-1.2,7.3l-4.4,20.9
		c0,0.1,0,0.2,0.1,0.3c0.1,0.1,0.2,0.1,0.3,0.1h9.8c0.2,0,0.3-0.1,0.3-0.3l2.8-13c0.8-3.6,1.9-7.5,5.5-7.5c1.9,0,2.8,0.8,2.8,2.6
		c0,1-0.2,2.5-0.5,4.1l-2.8,13.7c0,0.1,0,0.2,0.1,0.3c0.1,0.1,0.2,0.1,0.3,0.1h9.7c0.2,0,0.3-0.1,0.3-0.3l2.8-13
		c0.8-3.6,1.9-7.5,5.5-7.5c1.9,0,2.8,0.8,2.8,2.6c0,1-0.2,2.5-0.5,4.1l-2.8,13.7c0,0.1,0,0.2,0.1,0.3c0.1,0.1,0.2,0.1,0.3,0.1h9.8
		c0.2,0,0.3-0.1,0.3-0.3l2.9-14.1c0.4-1.9,0.7-4.4,0.7-6.4C439.5,382.7,436.1,379.5,430.4,379.5"/>
	<path class="st1" d="M455.9,380.1H446c-0.2,0-0.3,0.1-0.3,0.3l-5.9,28.2c0,0.1,0,0.2,0.1,0.3c0.1,0.1,0.2,0.1,0.3,0.1h9.9
		c0.2,0,0.3-0.1,0.3-0.3l5.9-28.2c0-0.1,0-0.2-0.1-0.3C456.1,380.2,456,380.1,455.9,380.1"/>
	<path class="st1" d="M447,376.2h9.9c0.2,0,0.3-0.1,0.3-0.3l1.5-7.2c0-0.1,0-0.2-0.1-0.3c-0.1-0.1-0.2-0.1-0.3-0.1h-9.9
		c-0.2,0-0.3,0.1-0.3,0.3l-1.5,7.2c0,0.1,0,0.2,0.1,0.3C446.8,376.1,446.9,376.2,447,376.2"/>
	<path class="st1" d="M475.7,402l-0.2,0.1c-0.9,0.3-1.9,0.7-2.8,0.7c-1.8,0-2.9-1.1-2.9-2.8c0-1,0.2-2.1,0.5-3.6
		c0.1-0.4,0.2-0.8,0.3-1.2l1.6-7.6h6.8c0.2,0,0.3-0.1,0.3-0.3l1.2-6.8c0-0.1,0-0.2-0.1-0.3c-0.1-0.1-0.2-0.1-0.3-0.1H474l1.9-8.4
		c0-0.1,0-0.2-0.1-0.3c-0.1-0.1-0.2-0.1-0.3-0.1l-10.3,2.8c-0.1,0-0.2,0.1-0.2,0.2l-1.3,5.8h-5.3c-0.2,0-0.3,0.1-0.3,0.3l-1.2,6.8
		c0,0.1,0,0.2,0.1,0.3c0.1,0.1,0.2,0.1,0.3,0.1h4.8l-1.6,7.5c-0.7,3-0.9,4.5-0.9,5.9c0,5.5,3.4,8.7,9.3,8.7c1.8,0,3.8-0.2,6.1-0.5
		c0.1,0,0.3-0.1,0.3-0.3l1.1-6.4c0-0.1,0-0.2-0.1-0.3C476,402,475.8,402,475.7,402"/>
	<path class="st1" d="M495.5,379.5c-12.6,0-17.2,10.1-17.2,17c0,9.1,7.5,13.2,14.9,13.2c3,0,6.6-0.6,10-1.6c0.1,0,0.2-0.1,0.2-0.3
		l1.2-6.9c0-0.1,0-0.2-0.1-0.3c-0.1-0.1-0.2-0.1-0.3,0c-2.4,1.2-5.8,1.9-8.7,1.9c-6,0-7.1-2.5-7.2-4.7h19.6c0.2,0,0.3-0.1,0.3-0.3
		c0.4-1.7,0.7-4.2,0.7-5.4C508.8,384.1,504,379.5,495.5,379.5 M488.9,391.6c0.8-2.4,2.9-4.9,6.8-4.9c3.5,0,4.4,2.6,4.4,4.9H488.9z"
		/>
	<path class="st1" d="M547.5,367.9c-0.1-0.1-0.2-0.1-0.3-0.1h-9.6c-0.2,0-0.3,0.1-0.3,0.3l-3.3,16.2c-1.8-3-5.4-4.7-9.7-4.7
		c-10.1,0-14.6,9.1-14.6,18.2c0,6.7,4.8,12,10.8,12c4.9,0,7.4-1.6,9.8-4.5l-0.6,3.4c0,0.1,0,0.2,0.1,0.3c0.1,0.1,0.2,0.1,0.3,0.1
		h8.9c0.2,0,0.3-0.1,0.3-0.3c0.1-1,0.3-2.5,0.6-4.2l7.6-36.4C547.5,368,547.5,367.9,547.5,367.9 M531.7,393c0,3.5-2.7,8.5-7,8.5
		c-2.7,0-4.3-2-4.3-5.5c0-4.2,2.6-8.4,7-8.4C530.4,387.6,531.7,390.3,531.7,393"/>
	<path class="st1" d="M467.4,242.9c-5.2,0-12.9,2-19.9,11.3l-1.1,1.4l-1.1-1.4c-7-9.3-14.7-11.3-19.9-11.3
		c-13.6,0-23.8,13.8-23.8,26.1c0,12.3,10.2,26.1,23.8,26.1c5.2,0,12.9-2,19.9-11.3l1.1-1.4l1.1,1.4c7,9.3,14.7,11.3,19.9,11.3
		c13.6,0,23.8-13.8,23.8-26.1C491.2,256.7,481,242.9,467.4,242.9 M415.6,269c0-5.2,5.5-9.4,10.1-9.4s8.7,2.8,12.5,8.7l0.5,0.7
		l-0.5,0.7c-3.9,5.9-8,8.7-12.5,8.7C421.1,278.4,415.6,274.2,415.6,269L415.6,269L415.6,269z M477.2,269c0,5.2-5.5,9.4-10.1,9.4
		c-4.5,0-8.6-2.9-12.5-8.7l-0.5-0.7l0.5-0.7c3.9-5.8,8-8.7,12.5-8.7C471.7,259.5,477.2,263.8,477.2,269L477.2,269L477.2,269z"/>
</g>
</svg>
