<svg version="1" xmlns="http://www.w3.org/2000/svg" width="933.333" height="933.333" viewBox="0 0 700.000000 700.000000"><path d="M164.9 61.7c-4.5 11.4-6.1 16.4-8.4 25.2-1.8 7.1-2.2 10.6-1.6 12.3 1.7 4.6 13.6 19.4 23.3 29 22.3 22.1 45.9 37.4 82.3 53.2 7.2 3.1 13.9 6.1 15 6.6 2.8 1.3 29.6 12.2 38.3 15.5 3.9 1.6 7.1 2.9 6.9 3.1-.1.2-7.2-1.8-15.7-4.2-8.5-2.5-16.8-4.9-18.5-5.4-18.9-5.1-46.7-15.8-58.7-22.6-3.3-1.9-6.1-3.4-6.3-3.4-.5 0-16.1-9.9-21.3-13.5-15.5-10.8-29.3-23.7-40.4-38-4-5.2-7.3-9.3-7.4-9.2-.4.4-1.6 11-2.9 24.7-.6 6.3-.6 38-.1 40.9.3 1.3 1.2 2.8 2 3.5.8.6 6.1 4.7 11.8 9.2 13.4 10.6 27.7 20.2 38.8 26.2 17.6 9.6 35.9 17.8 50.5 22.6 13.4 4.4 35.2 12.7 32 12.2-1.6-.3-5.2-.8-8-1.1-2.7-.3-5.7-.8-6.5-1-.8-.2-3.7-.6-6.5-1-2.7-.3-10-1.9-16.1-3.5-32.1-8.3-65-25.1-90.5-46.2-5.4-4.5-6.2-4.7-5.5-1.1.3 1.6.8 4.4 1.1 6.3 2.6 16.6 11.3 50.3 14.2 54.6 2.9 4.3 38 16.6 68.2 23.9 31.4 7.7 31.5 7.8 6.6 6-18.6-1.3-39.1-5.6-59.7-12.5-4.8-1.7-9-3-9.4-3-.7 0 5 10.4 10 18.3 6.1 9.4 18.8 24.7 27.3 32.7 25 23.4 55.9 41.4 104.8 60.8 20 7.9 29.9 13.6 41 23.3 22.9 20.2 35.7 43.9 40.9 76.3.3 1.6.7 3.1 1 3.3.9.9 7.9-7.2 12.9-14.7 6.2-9.5 14.1-26 20.2-42 2.6-6.9 4.8-13.2 5-14 .2-.8 1.3-4.9 2.4-9.1 13.9-50.1 5.7-102.2-24.7-156.9-12.3-22.2-28.6-39.5-55.7-59.1-16.4-11.9-37.3-23-62-33-20.3-8.1-43.8-21-63.5-34.7-3.6-2.5-8.7-6.1-11.5-8-16.6-11.6-27.2-21.9-42.8-41.5-6-7.5-11.1-13.7-11.3-13.7-.3 0-.9 1.2-1.5 2.7z"/><path d="M459 200.1c-11.8 1.3-18.7 3.2-27.3 7.5-4.4 2.2-15.4 9.8-20 13.7l-3.8 3.3 6.3 9.5c18.3 27.3 33.7 68.3 37.3 99.4.4 2.7.8 6.1 1.1 7.5.2 1.4.4 6 .5 10.2 0 4.3.3 7.8.6 7.8.2 0 1.9-1.1 3.6-2.4 5.2-3.9 14.7-8.2 22.2-10 3.9-1 8.8-2.2 11-2.8 9-2.2 24.1-12.1 34.2-22.4 9.9-9.9 16.3-20.8 22.7-38.4 2.8-7.8 3-9.5 3.1-21.5v-13l-4-7.5c-5-9.5-13.7-18.2-25.5-25.4-15.3-9.5-28-14-43.5-15.2-3.8-.3-8.1-.7-9.5-.8-1.4-.1-5.4.1-9 .5zm65 31.4c11.9 4.2 20.5 11.8 21.6 19.2 2.2 13.9.1 25-8.2 43.2-6.5 14.1-15.6 25.2-28.4 34.5-9.9 7.3-10.5 7.4-6.6 1.3 10.8-16.8 16.8-33.4 18-49.3.6-7.9-1.4-12.1-6.9-14.5-6.5-2.9-13.8-.6-15.1 4.7-2.2 8.6 5 16.8 13.9 15.9 1.5-.2 2.7 0 2.7.4 0 2.7-4.3 16.9-6.9 22.4-3.2 7.3-12.8 22.2-16 25.2-2 1.7-2.1 1.7-3-.9-1.7-4.3-5.8-20.7-7-27.6-3.1-19-3-30.3.5-45.5 5.8-24.9 21.7-36 41.4-29zM292.2 390.8l.3 7.4 7.6 2.8c9.7 3.5 27.2 11.9 34.3 16.5 3 1.9 5.8 3.5 6.1 3.5.3 0 1.1.4 1.8 1 .7.5 5.7 4.3 11.2 8.4 10.5 7.8 11.7 8.8 20.4 17l5.4 5.1-3.9-7.5c-4.8-9.3-13.4-20.8-20.5-27.8-12.6-12.1-24.2-18.9-49.2-28.5l-13.8-5.4.3 7.5zM292.5 420.7c.3 7.4.7 13.8.9 14.2.3.4.8 3.9 1.1 7.7.4 3.8.8 8 1 9.4.2 1.4.7 4.5 1 7 2.5 18.1 13 51.6 22.2 70.6 15.4 32.1 31.8 55.1 57.2 80.4 20.4 20.3 32.3 30.6 33.9 29.6 2.7-1.7 13-27.4 14.8-37.1.4-2.2.8-4.5 1-5 1.3-5.3 1.6-8.9 1.9-21 .3-12.7 0-16.6-2-29-1.2-7.4-7.5-24.6-12.6-34.7-24-46.6-67.7-85.8-115.6-103.6l-5.2-2 .4 13.5z"/></svg>