<?xml version="1.0" encoding="UTF-8" standalone="no"?>
<svg
   xmlns:dc="http://purl.org/dc/elements/1.1/"
   xmlns:cc="http://creativecommons.org/ns#"
   xmlns:rdf="http://www.w3.org/1999/02/22-rdf-syntax-ns#"
   xmlns:svg="http://www.w3.org/2000/svg"
   xmlns="http://www.w3.org/2000/svg"
   xmlns:sodipodi="http://sodipodi.sourceforge.net/DTD/sodipodi-0.dtd"
   xmlns:inkscape="http://www.inkscape.org/namespaces/inkscape"
   width="512"
   height="512"
   viewBox="0 0 512 512"
   version="1.1"
   id="svg10"
   sodipodi:docname="code-low.svg"
   inkscape:version="0.92.4 (5da689c313, 2019-01-14)">
  <metadata
     id="metadata16">
    <rdf:RDF>
      <cc:Work
         rdf:about="">
        <dc:format>image/svg+xml</dc:format>
        <dc:type
           rdf:resource="http://purl.org/dc/dcmitype/StillImage" />
        <dc:title>ionicons-v5-m</dc:title>
      </cc:Work>
    </rdf:RDF>
  </metadata>
  <defs
     id="defs14" />
  <sodipodi:namedview
     pagecolor="#ffffff"
     bordercolor="#666666"
     borderopacity="1"
     objecttolerance="10"
     gridtolerance="10"
     guidetolerance="10"
     inkscape:pageopacity="0"
     inkscape:pageshadow="2"
     inkscape:window-width="2792"
     inkscape:window-height="1698"
     id="namedview12"
     showgrid="true"
     inkscape:zoom="2.6074563"
     inkscape:cx="240.12481"
     inkscape:cy="282.02168"
     inkscape:window-x="88"
     inkscape:window-y="44"
     inkscape:window-maximized="1"
     inkscape:current-layer="svg10">
    <inkscape:grid
       type="xygrid"
       id="grid827" />
  </sodipodi:namedview>
  <title
     id="title2">ionicons-v5-m</title>
  <g
     id="g867"
     style="font-style:normal;font-variant:normal;font-weight:normal;font-stretch:normal;font-size:52.25255966px;line-height:0;font-family:KaapeliW01-Medium;-inkscape-font-specification:KaapeliW01-Medium;letter-spacing:0px;word-spacing:0px;fill:#000000;fill-opacity:1;stroke:none;stroke-width:1"
     aria-label="{"
     transform="matrix(-1,0,0,1,507.55307,0)">
    <path
       sodipodi:nodetypes="ccsscccsczcsccsscccsscccczcscssscczc"
       inkscape:connector-curvature="0"
       id="path865"
       style="font-style:normal;font-variant:normal;font-weight:500;font-stretch:normal;font-size:376.21844482px;font-family:Ubuntu;-inkscape-font-specification:'Ubuntu Medium';stroke-width:1"
       d="m 30.119503,236.71917 c 11.537366,0 19.939578,-3.51137 25.206636,-10.53412 5.517871,-7.27356 8.276806,-15.80118 8.276806,-25.58286 v -55.30411 c 0,-11.78817 1.128655,-22.19688 3.385966,-31.22613 2.257311,-9.28005 6.270307,-16.929828 12.03899,-22.949323 5.768683,-6.270307 13.794676,-10.910335 24.077979,-13.920082 10.28331,-3.26056 23.45095,-4.89084 39.50294,-4.89084 h 2.63353 c 0,0 19.75765,-0.311705 19.80824,18.058487 0.0506,18.370188 -19.80824,18.058488 -19.80824,18.058488 -7.27356,0 -13.41846,0.50162 -18.43471,1.50487 -5.01625,1.00325 -9.02924,2.88434 -12.03899,5.64328 -3.00975,2.50812 -5.26706,6.01949 -6.77193,10.53411 -1.25406,4.26381 -1.88109,9.78168 -1.88109,16.55361 v 53.79924 c 0,15.04874 -2.0065,27.08773 -6.0195,36.11697 -3.762182,8.77843 -10.2833,16.05199 -19.563355,21.82067 9.280055,5.76869 15.801173,13.16765 19.563355,22.19689 4.013,9.02924 6.0195,20.94282 6.0195,35.74075 v 54.17546 c 0,6.77193 0.62703,12.2898 1.88109,16.55361 1.50487,4.26381 3.76218,7.64977 6.77193,10.1579 3.00975,2.75893 7.02274,4.64002 12.03899,5.64327 5.01625,1.00325 11.16115,1.50488 18.43471,1.50488 0,0 19.85883,-0.50884 19.80824,18.05848 C 165,437 145.24235,436.49116 145.24235,436.49116 c -16.80443,0 -30.4737,-1.50487 -41.00781,-4.51462 C 93.700421,428.96679 85.423615,424.32677 79.40412,418.05646 73.384625,412.03696 69.246222,404.51259 66.988911,395.48335 64.7316,386.4541 63.602945,375.91999 63.602945,363.881 v -55.68033 c 0,-9.53087 -2.758935,-17.80767 -8.276806,-24.83042 -5.267058,-7.27355 -13.66927,-10.91033 -25.206636,-10.91033 0,0 -15.346435,-0.28083 -15.232969,-17.87038 C 15,237 30.119503,236.71917 30.119503,236.71917 Z" />
  </g>
  <g
     aria-label="{"
     style="font-style:normal;font-variant:normal;font-weight:normal;font-stretch:normal;font-size:52.25255966px;line-height:0;font-family:KaapeliW01-Medium;-inkscape-font-specification:KaapeliW01-Medium;letter-spacing:0px;word-spacing:0px;fill:#000000;fill-opacity:1;stroke:none;stroke-width:1"
     id="text857">
    <path
       d="m 30.119503,236.71917 c 11.537366,0 19.939578,-3.51137 25.206636,-10.53412 5.517871,-7.27356 8.276806,-15.80118 8.276806,-25.58286 v -55.30411 c 0,-11.78817 1.128655,-22.19688 3.385966,-31.22613 2.257311,-9.28005 6.270307,-16.929828 12.03899,-22.949323 5.768683,-6.270307 13.794676,-10.910335 24.077979,-13.920082 10.28331,-3.26056 23.45095,-4.89084 39.50294,-4.89084 h 2.63353 c 0,0 19.75765,-0.311705 19.80824,18.058487 0.0506,18.370188 -19.80824,18.058488 -19.80824,18.058488 -7.27356,0 -13.41846,0.50162 -18.43471,1.50487 -5.01625,1.00325 -9.02924,2.88434 -12.03899,5.64328 -3.00975,2.50812 -5.26706,6.01949 -6.77193,10.53411 -1.25406,4.26381 -1.88109,9.78168 -1.88109,16.55361 v 53.79924 c 0,15.04874 -2.0065,27.08773 -6.0195,36.11697 -3.762182,8.77843 -10.2833,16.05199 -19.563355,21.82067 9.280055,5.76869 15.801173,13.16765 19.563355,22.19689 4.013,9.02924 6.0195,20.94282 6.0195,35.74075 v 54.17546 c 0,6.77193 0.62703,12.2898 1.88109,16.55361 1.50487,4.26381 3.76218,7.64977 6.77193,10.1579 3.00975,2.75893 7.02274,4.64002 12.03899,5.64327 5.01625,1.00325 11.16115,1.50488 18.43471,1.50488 0,0 19.85883,-0.50884 19.80824,18.05848 C 165,437 145.24235,436.49116 145.24235,436.49116 c -16.80443,0 -30.4737,-1.50487 -41.00781,-4.51462 C 93.700421,428.96679 85.423615,424.32677 79.40412,418.05646 73.384625,412.03696 69.246222,404.51259 66.988911,395.48335 64.7316,386.4541 63.602945,375.91999 63.602945,363.881 v -55.68033 c 0,-9.53087 -2.758935,-17.80767 -8.276806,-24.83042 -5.267058,-7.27355 -13.66927,-10.91033 -25.206636,-10.91033 0,0 -15.346435,-0.28083 -15.232969,-17.87038 C 15,237 30.119503,236.71917 30.119503,236.71917 Z"
       style="font-style:normal;font-variant:normal;font-weight:500;font-stretch:normal;font-size:376.21844482px;font-family:Ubuntu;-inkscape-font-specification:'Ubuntu Medium';stroke-width:1"
       id="path862"
       inkscape:connector-curvature="0"
       sodipodi:nodetypes="ccsscccsczcsccsscccsscccczcscssscczc" />
  </g>
</svg>
