<?xml version="1.0" encoding="utf-8"?>
<!-- Generator: Adobe Illustrator 22.1.0, SVG Export Plug-In . SVG Version: 6.00 Build 0)  -->
<svg version="1.1" id="Ebene_1" xmlns="http://www.w3.org/2000/svg" xmlns:xlink="http://www.w3.org/1999/xlink" x="0px" y="0px"
	 viewBox="0 0 512 512" style="enable-background:new 0 0 512 512;" xml:space="preserve">
<style type="text/css">
	.st0{display:none;}
	.st1{display:inline;}
	.st2{display:inline;fill:#F47421;}
	.st3{display:inline;fill:none;stroke:#FFFFFF;stroke-width:8.55;}
	.st4{fill:#F47421;}
	.st5{stroke:#F47421;stroke-width:3.2378;}
	.st6{fill:#FFFFFF;}
	.st7{fill:#D70751;}
	.st8{display:inline;fill:#75A928;}
	.st9{display:inline;fill:#BC1142;}
</style>
<title>ionicons-v5-l</title>
<g class="st0">
	<g class="st1">
		<path d="M256,48.6c-114.7,0-208,93.3-208,208c0,85.6,53.6,163.5,133.4,193.9c3.3,1.3,7.1,1.1,10.3-0.4c3.2-1.6,5.7-4.4,6.7-7.8
			l39-124.5c1.8-5.9-0.7-12.3-6.1-15.3c-16.9-9.3-27.4-26.9-27.4-45.8c0-28.7,23.3-52,52-52s52,23.3,52,52c0,19-10.5,36.5-27.4,45.8
			c-5.4,3-8,9.4-6.1,15.3l39,124.5c1.1,3.4,3.5,6.2,6.7,7.8c1.8,0.9,3.7,1.3,5.7,1.3c1.6,0,3.1-0.3,4.6-0.9
			c80-30.4,133.6-108.3,133.6-193.9C464,141.9,370.7,48.6,256,48.6z"/>
	</g>
</g>
<g class="st0">
	<circle class="st2" cx="256" cy="256" r="207.5"/>
	<circle class="st3" cx="256" cy="256" r="100.6"/>
	<g id="friend" class="st1">
		
			<ellipse transform="matrix(7.088901e-02 -0.9975 0.9975 7.088901e-02 -122.8251 380.1362)" class="st4" cx="142.6" cy="256" rx="38.9" ry="38.9"/>
		<path class="st5" d="M362.2,256h46.1"/>
		<circle class="st6" cx="142.6" cy="256" r="27.7"/>
	</g>
	<g transform="rotate(120,50,50)" class="st1">
		<g id="friend_1_">
			<circle class="st4" cx="302.9" cy="160.4" r="38.9"/>
			<path class="st5" d="M193.2,350.5l-23.1,39.9"/>
			<circle class="st6" cx="302.9" cy="160.4" r="27.7"/>
		</g>
	</g>
	<g transform="rotate(240,50,50)" class="st1">
		<g id="friend_2_">
			<circle class="st4" cx="302.9" cy="351.6" r="38.9"/>
			<path class="st5" d="M193.2,161.5l-23.1-39.9"/>
			<circle class="st6" cx="302.9" cy="351.6" r="27.7"/>
		</g>
	</g>
</g>
<g>
	<path class="st7" d="M288.6,267.8c-6.9,0.1,1.3,3.5,10.3,4.9c2.5-1.9,4.7-3.9,6.7-5.8C300,268.3,294.3,268.3,288.6,267.8"/>
	<path class="st7" d="M325.5,258.6c4.1-5.7,7.1-11.8,8.1-18.2c-0.9,4.6-3.4,8.5-5.7,12.7c-12.9,8.1-1.2-4.8,0-9.7
		C314,260.7,326,253.7,325.5,258.6"/>
	<path class="st7" d="M339.1,223.1c0.8-12.4-2.4-8.5-3.5-3.7C336.8,220,337.9,228.1,339.1,223.1"/>
	<path class="st7" d="M262.5,53.8c3.7,0.7,7.9,1.2,7.3,2C273.8,55,274.7,54.2,262.5,53.8"/>
	<path class="st7" d="M269.8,55.9l-2.6,0.5l2.4-0.2L269.8,55.9"/>
	<path class="st7" d="M384.3,227.8c0.4,11.1-3.3,16.5-6.6,26.1l-5.9,3c-4.9,9.4,0.5,6-3,13.5c-7.6,6.8-23,21.1-28,22.4
		c-3.6-0.1,2.4-4.3,3.2-5.9c-10.2,7-8.2,10.5-23.7,14.7l-0.5-1c-38.3,18-91.6-17.7-90.9-66.5c-0.4,3.1-1.2,2.3-2,3.6
		c-2-25.1,11.6-50.3,34.5-60.6c22.4-11.1,48.6-6.5,64.7,8.4c-8.8-11.5-26.3-23.8-47.1-22.6c-20.4,0.3-39.4,13.3-45.7,27.3
		c-10.4,6.6-11.6,25.3-16.2,28.7c-6.1,44.9,11.5,64.3,41.3,87.2c4.7,3.2,1.3,3.6,2,6c-9.9-4.6-19-11.6-26.4-20.2
		c4,5.8,8.2,11.4,13.7,15.8c-9.3-3.2-21.8-22.6-25.4-23.4c16.1,28.8,65.3,50.5,91,39.7c-11.9,0.4-27.1,0.2-40.4-4.7
		c-5.6-2.9-13.3-8.9-11.9-10c35.1,13.1,71.4,9.9,101.8-14.4c7.7-6,16.2-16.3,18.6-16.4c-3.7,5.5,0.6,2.7-2.2,7.5
		c7.7-12.4-3.3-5.1,8-21.5l4.2,5.8c-1.6-10.3,12.8-22.8,11.4-39.2c3.3-5,3.7,5.4,0.2,16.9c4.9-12.7,1.3-14.8,2.5-25.3
		c1.4,3.5,3.1,7.3,4,11c-3.2-12.3,3.2-20.7,4.8-27.9c-1.6-0.7-4.9,5.4-5.6-9.1c0.1-6.3,1.8-3.3,2.4-4.9c-1.2-0.7-4.5-5.6-6.5-14.8
		c1.4-2.2,3.8,5.7,5.8,6c-1.3-7.4-3.4-13-3.5-18.7c-5.7-11.9-2,1.6-6.6-5.1c-6.1-18.9,5-4.4,5.8-13c9.2,13.3,14.4,34,16.9,42.5
		c-1.8-10.4-4.8-20.5-8.4-30.3c2.8,1.2-4.5-21.5,3.6-6.5c-8.7-32-37.2-61.8-63.4-75.8c3.2,2.9,7.3,6.6,5.8,7.2
		c-13-7.8-10.7-8.4-12.6-11.6c-10.6-4.3-11.3,0.3-18.4,0c-20-10.6-23.9-9.5-42.3-16.1l0.8,3.9c-13.3-4.4-15.4,1.7-29.8,0
		c-0.9-0.7,4.6-2.5,9.1-3.1c-12.8,1.7-12.2-2.5-24.8,0.5c3.1-2.2,6.4-3.6,9.7-5.5c-10.5,0.6-25,6.1-20.5,1.1
		c-17.1,7.6-47.4,18.3-64.3,34.2l-0.5-3.6c-7.8,9.3-34,27.9-36,40l-2.1,0.5c-4.1,6.9-6.7,14.6-9.9,21.7c-5.3,9-7.8,3.5-7,4.9
		c-10.4,21.1-15.6,38.9-20.1,53.5c3.2,4.8,0.1,28.7,1.3,47.8c-5.2,94.5,66.4,186.3,144.6,207.5c11.5,4.1,28.5,3.9,43,4.4
		c-17.1-4.9-19.3-2.6-36-8.4c-12-5.7-14.7-12.1-23.2-19.5l3.4,6c-16.7-5.9-9.7-7.3-23.3-11.6l3.6-4.7c-5.4-0.4-14.3-9.1-16.8-14
		l-5.9,0.2c-7.1-8.8-10.9-15.1-10.6-20l-1.9,3.4c-2.2-3.7-26.2-32.9-13.7-26.1c-2.3-2.1-5.4-3.4-8.7-9.5l2.5-2.9
		c-6-7.7-11-17.6-10.7-20.9c3.2,4.3,5.4,5.1,7.6,5.9c-15.1-37.6-16-2.1-27.5-38.2l2.4-0.2c-1.9-2.8-3-5.8-4.5-8.8l1.1-10.5
		c-10.9-12.6-3-53.6-1.5-76.1c1.1-9.1,9.1-18.9,15.2-34.1l-3.7-0.6c7.1-12.4,40.5-49.7,56-47.8c7.5-9.4-1.5,0-3-2.4
		c16.5-17,21.6-12,32.8-15.1c12-7.1-10.3,2.8-4.6-2.7c20.7-5.3,14.7-12,41.7-14.7c2.9,1.6-6.6,2.5-9,4.6c17.3-8.4,54.6-6.5,78.9,4.7
		c28.2,13.2,59.8,52.1,61.1,88.7l1.4,0.4c-0.7,14.6,2.2,31.4-2.9,46.8L384.3,227.8"/>
	<path class="st7" d="M213.5,277.2l-1,4.8c4.5,6.1,8.1,12.8,13.9,17.6C222.3,291.5,219.2,288.2,213.5,277.2"/>
	<path class="st7" d="M224.2,276.8c-2.4-2.6-3.8-5.8-5.4-9c1.5,5.6,4.6,10.4,7.5,15.2L224.2,276.8"/>
	<path class="st7" d="M413.3,235.7l-1,2.5c-1.9,13.2-5.9,26.2-12,38.2C407,263.7,411.4,249.8,413.3,235.7"/>
	<path class="st7" d="M263.8,50.5c4.6-1.7,11.4-0.9,16.4-2.1c-6.4,0.5-12.8,0.9-19.1,1.7L263.8,50.5"/>
	<path class="st7" d="M100.6,137.3c1.1,9.9-7.5,13.8,1.9,7.2C107.5,133.3,100.5,141.5,100.6,137.3"/>
	<path class="st7" d="M89.6,183.3c2.2-6.6,2.5-10.6,3.4-14.4C87,176.5,90.2,178.1,89.6,183.3"/>
</g>
<g class="st0">
	<path class="st1" d="M181.6,48.7c-2.1,0.1-4.4,0.8-6.9,2.9c-6.3-2.4-12.4-3.3-17.8,1.7c-8.4-1.1-11.1,1.2-13.2,3.8
		c-1.8,0-13.8-1.9-19.3,6.3c-13.8-1.6-18.1,8.1-13.2,17.2c-2.8,4.4-5.7,8.7,0.9,17c-2.3,4.6-0.9,9.6,4.6,15.7
		c-1.4,6.5,1.4,11.1,6.5,14.7c-1,8.9,8.2,14.1,10.9,15.9c1,5.2,3.2,10.1,13.6,12.8c1.7,7.7,8,9.1,14,10.7
		c-20,11.6-37.2,26.9-37.1,64.5l-2.9,5.2c-23,14-43.6,58.8-11.3,95.3c2.1,11.4,5.6,19.6,8.8,28.7c4.7,36.6,35.5,53.7,43.6,55.7
		c11.9,9.1,24.5,17.6,41.7,23.7c16.1,16.7,33.6,23,51.2,23c0.3,0,0.5,0,0.8,0c17.6,0,35.1-6.3,51.2-23c17.1-6,29.8-14.6,41.7-23.7
		c8.1-2,38.9-19.1,43.6-55.7c3.2-9.1,6.7-17.3,8.8-28.7c32.3-36.5,11.6-81.3-11.3-95.3l-2.9-5.2c0.1-37.6-17.1-52.9-37.1-64.5
		c6.1-1.6,12.3-3,14-10.7c10.4-2.7,12.6-7.6,13.6-12.8c2.7-1.8,11.8-7,10.9-15.9c5.1-3.6,7.9-8.2,6.5-14.7
		c5.5-6.1,6.9-11.1,4.6-15.7c6.6-8.3,3.7-12.6,0.9-17c4.9-9.1,0.6-18.8-13.2-17.2c-5.5-8.2-17.4-6.3-19.3-6.3
		c-2.1-2.6-4.8-4.9-13.2-3.8c-5.4-4.9-11.5-4.1-17.8-1.7c-7.4-5.9-12.4-1.2-18,0.6c-9-2.9-11.1,1.1-15.5,2.7
		c-9.8-2.1-12.8,2.4-17.5,7.2l-5.5-0.1C266,70.8,258.6,88.6,256,97.7c-2.6-9.2-10-27-24.8-35.7l-5.5,0.1c-4.7-4.8-7.7-9.3-17.5-7.2
		c-4.4-1.6-6.5-5.7-15.5-2.7C189,51,185.6,48.6,181.6,48.7z"/>
	<path class="st8" d="M152,87.2c39.4,20.3,62.2,36.7,74.8,50.7c-6.4,25.7-39.9,26.9-52.2,26.2c2.5-1.2,4.6-2.6,5.3-4.7
		c-3.1-2.2-14-0.2-21.6-4.5c2.9-0.6,4.3-1.2,5.7-3.4c-7.2-2.3-14.9-4.3-19.5-8.1c2.5,0,4.8,0.5,8-1.7c-6.4-3.5-13.3-6.2-18.6-11.5
		c3.3-0.1,6.9,0,8-1.3c-5.9-3.6-10.9-7.7-15-12.1c4.7,0.6,6.6,0.1,7.8-0.7c-4.5-4.6-10.1-8.4-12.8-14c3.5,1.2,6.6,1.6,8.9-0.1
		c-1.5-3.4-8-5.4-11.7-13.4c3.6,0.4,7.5,0.8,8.3,0c-1.7-6.9-4.6-10.8-7.4-14.8c7.8-0.1,19.6,0,19.1-0.6l-4.8-4.9
		c7.6-2,15.4,0.3,21.1,2.1c2.5-2,0-4.5-3.1-7.1c6.5,0.9,12.3,2.4,17.6,4.4c2.8-2.5-1.8-5.1-4.1-7.6c10,1.9,14.2,4.6,18.4,7.2
		c3.1-2.9,0.2-5.4-1.9-8c7.5,2.8,11.4,6.4,15.5,9.9c1.4-1.9,3.5-3.2,0.9-7.8c5.3,3.1,9.4,6.7,12.4,10.8c3.3-2.1,2-5,2-7.6
		c5.6,4.5,9.1,9.3,13.4,14c0.9-0.6,1.6-2.8,2.3-6.2c13.3,12.9,32,45.3,4.8,58.1C210.3,111.4,182.6,97.6,152,87.2z"/>
	<path class="st8" d="M360.9,87.2c-39.4,20.3-62.2,36.7-74.8,50.7c6.4,25.7,39.9,26.9,52.2,26.2c-2.5-1.2-4.6-2.6-5.3-4.7
		c3.1-2.2,14-0.2,21.6-4.5c-2.9-0.6-4.3-1.2-5.7-3.4c7.2-2.3,14.9-4.3,19.5-8.1c-2.5,0-4.8,0.5-8-1.7c6.4-3.5,13.3-6.2,18.6-11.5
		c-3.3-0.1-6.9,0-8-1.3c5.9-3.6,10.9-7.7,15-12.1c-4.7,0.6-6.6,0.1-7.8-0.7c4.5-4.6,10.1-8.4,12.8-14c-3.5,1.2-6.6,1.6-8.9-0.1
		c1.5-3.4,8-5.4,11.7-13.4c-3.6,0.4-7.5,0.8-8.3,0c1.7-6.9,4.6-10.8,7.4-14.8c-7.8-0.1-19.6,0-19.1-0.6l4.8-4.9
		c-7.6-2-15.4,0.3-21.1,2.1c-2.5-2,0-4.5,3.1-7.1c-6.5,0.9-12.3,2.4-17.6,4.4c-2.8-2.5,1.8-5.1,4.1-7.6c-10,1.9-14.2,4.6-18.4,7.2
		c-3.1-2.9-0.2-5.4,1.9-8c-7.5,2.8-11.4,6.4-15.5,9.9c-1.4-1.9-3.5-3.2-0.9-7.8c-5.3,3.1-9.4,6.7-12.4,10.8c-3.3-2.1-2-5-2-7.6
		c-5.6,4.5-9.1,9.3-13.4,14c-0.9-0.6-1.6-2.8-2.3-6.2c-13.3,12.9-32,45.3-4.8,58.1C302.6,111.4,330.2,97.6,360.9,87.2L360.9,87.2z"
		/>
	<path class="st9" d="M304.1,349.2c0,24-21.1,43.5-47.1,43.5c-26,0-47.1-19.5-47.1-43.5c0-24,21.1-43.5,47.1-43.5
		C283,305.7,304.1,325.2,304.1,349.2z"/>
	<path class="st9" d="M229.7,225c19.5,12.8,23.1,41.8,7.9,64.8c-15.2,23-43.3,31.2-62.9,18.5l0,0c-19.5-12.8-23.1-41.8-7.9-64.8
		S210.1,212.2,229.7,225L229.7,225z"/>
	<path class="st9" d="M282.4,222.7c-19.5,12.8-23.1,41.8-7.9,64.8s43.3,31.2,62.9,18.5l0,0c19.5-12.8,23.1-41.8,7.9-64.8
		C330.1,218.1,301.9,209.9,282.4,222.7L282.4,222.7z"/>
	<path class="st9" d="M132,245.9c21.1-5.7,7.1,87.3-10,79.6C103.1,310.4,97,265.9,132,245.9z"/>
	<path class="st9" d="M375.8,244.7c-21.1-5.7-7.1,87.3,10,79.6C404.7,309.2,410.8,264.7,375.8,244.7z"/>
	<path class="st9" d="M304.1,175.6c36.4-6.1,66.7,15.5,65.5,54.9C368.4,245.6,290.7,177.8,304.1,175.6L304.1,175.6z"/>
	<path class="st9" d="M203.6,174.4c-36.4-6.1-66.7,15.5-65.5,54.9C139.3,244.5,217,176.7,203.6,174.4z"/>
	<path class="st9" d="M255.8,165.2c-21.7-0.6-42.6,16.1-42.6,25.8c-0.1,11.8,17.2,23.8,42.8,24.1c26.1,0.2,42.8-9.6,42.9-21.8
		C299,179.6,275.1,165,255.8,165.2L255.8,165.2z"/>
	<path class="st9" d="M257.2,406.4c18.9-0.8,44.4,6.1,44.4,15.3c0.3,8.9-23,29.1-45.7,28.7c-23.4,1-46.4-19.2-46.1-26.2
		C209.5,413.9,238.3,405.9,257.2,406.4z"/>
	<path class="st9" d="M187.2,351.9c13.5,16.2,19.6,44.8,8.4,53.2c-10.6,6.4-36.5,3.8-54.9-22.6c-12.4-22.2-10.8-44.7-2.1-51.3
		C151.6,323.3,171.7,334,187.2,351.9z"/>
	<path class="st9" d="M324.4,346.8c-14.6,17.1-22.7,48.3-12.1,58.3c10.2,7.8,37.5,6.7,57.7-21.3c14.7-18.8,9.7-50.2,1.4-58.6
		C359,315.6,341.1,327.9,324.4,346.8z"/>
</g>
</svg>
