<?xml version="1.0" encoding="UTF-8"?>
<svg width="434px" height="883px" viewBox="0 0 434 883" version="1.1" xmlns="http://www.w3.org/2000/svg" xmlns:xlink="http://www.w3.org/1999/xlink">
    <!-- Generator: Sketch 43.2 (39069) - http://www.bohemiancoding.com/sketch -->
    <title>iPhone 6</title>
    <desc>Created with Sketch.</desc>
    <defs>
        <linearGradient x1="50%" y1="0%" x2="50%" y2="100%" id="linearGradient-1">
            <stop stop-color="#EEEEEE" offset="0%"></stop>
            <stop stop-color="#DDDDDD" offset="100%"></stop>
        </linearGradient>
        <rect id="path-2" x="6" y="111" width="9" height="37" rx="3"></rect>
        <filter x="-5.6%" y="-1.4%" width="111.1%" height="102.7%" filterUnits="objectBoundingBox" id="filter-3">
            <feGaussianBlur stdDeviation="0.5" in="SourceAlpha" result="shadowBlurInner1"></feGaussianBlur>
            <feOffset dx="0" dy="0" in="shadowBlurInner1" result="shadowOffsetInner1"></feOffset>
            <feComposite in="shadowOffsetInner1" in2="SourceAlpha" operator="arithmetic" k2="-1" k3="1" result="shadowInnerInner1"></feComposite>
            <feColorMatrix values="0 0 0 0 0   0 0 0 0 0   0 0 0 0 0  0 0 0 0.3 0" type="matrix" in="shadowInnerInner1"></feColorMatrix>
        </filter>
        <rect id="path-4" x="7" y="268" width="9" height="64" rx="3"></rect>
        <filter x="-5.6%" y="-0.8%" width="111.1%" height="101.6%" filterUnits="objectBoundingBox" id="filter-5">
            <feGaussianBlur stdDeviation="0.5" in="SourceAlpha" result="shadowBlurInner1"></feGaussianBlur>
            <feOffset dx="0" dy="0" in="shadowBlurInner1" result="shadowOffsetInner1"></feOffset>
            <feComposite in="shadowOffsetInner1" in2="SourceAlpha" operator="arithmetic" k2="-1" k3="1" result="shadowInnerInner1"></feComposite>
            <feColorMatrix values="0 0 0 0 0   0 0 0 0 0   0 0 0 0 0  0 0 0 0.3 0" type="matrix" in="shadowInnerInner1"></feColorMatrix>
        </filter>
        <rect id="path-6" x="7" y="189" width="9" height="64" rx="3"></rect>
        <filter x="-5.6%" y="-0.8%" width="111.1%" height="101.6%" filterUnits="objectBoundingBox" id="filter-7">
            <feGaussianBlur stdDeviation="0.5" in="SourceAlpha" result="shadowBlurInner1"></feGaussianBlur>
            <feOffset dx="0" dy="0" in="shadowBlurInner1" result="shadowOffsetInner1"></feOffset>
            <feComposite in="shadowOffsetInner1" in2="SourceAlpha" operator="arithmetic" k2="-1" k3="1" result="shadowInnerInner1"></feComposite>
            <feColorMatrix values="0 0 0 0 0   0 0 0 0 0   0 0 0 0 0  0 0 0 0.3 0" type="matrix" in="shadowInnerInner1"></feColorMatrix>
        </filter>
        <rect id="path-8" x="431" y="188" width="9" height="64" rx="3"></rect>
        <filter x="-5.6%" y="-0.8%" width="111.1%" height="101.6%" filterUnits="objectBoundingBox" id="filter-9">
            <feGaussianBlur stdDeviation="0.5" in="SourceAlpha" result="shadowBlurInner1"></feGaussianBlur>
            <feOffset dx="0" dy="0" in="shadowBlurInner1" result="shadowOffsetInner1"></feOffset>
            <feComposite in="shadowOffsetInner1" in2="SourceAlpha" operator="arithmetic" k2="-1" k3="1" result="shadowInnerInner1"></feComposite>
            <feColorMatrix values="0 0 0 0 0   0 0 0 0 0   0 0 0 0 0  0 0 0 0.3 0" type="matrix" in="shadowInnerInner1"></feColorMatrix>
        </filter>
        <linearGradient x1="50%" y1="0%" x2="50%" y2="100%" id="linearGradient-10">
            <stop stop-color="#FFFFFF" offset="0%"></stop>
            <stop stop-color="#EEEEEE" offset="65.9786376%"></stop>
            <stop stop-color="#DDDDDD" offset="100%"></stop>
        </linearGradient>
        <path d="M16,65.9961272 C16,32.8611811 42.8696935,6 75.9981997,6 L371.0018,6 C404.137891,6 431,32.872131 431,65.9961272 L431,817.003873 C431,850.138819 404.130307,877 371.0018,877 L75.9981997,877 C42.862109,877 16,850.127869 16,817.003873 L16,65.9961272 Z M35.9943924,105 C33.7883504,105 32,106.789504 32,109.006552 L32,775.993448 C32,778.206206 33.7928246,780 35.9943924,780 L411.005608,780 C413.21165,780 415,778.210496 415,775.993448 L415,109.006552 C415,106.793794 413.207175,105 411.005608,105 L35.9943924,105 Z" id="path-11"></path>
        <filter x="-1.2%" y="-0.6%" width="102.4%" height="101.1%" filterUnits="objectBoundingBox" id="filter-12">
            <feGaussianBlur stdDeviation="5" in="SourceAlpha" result="shadowBlurInner1"></feGaussianBlur>
            <feOffset dx="0" dy="0" in="shadowBlurInner1" result="shadowOffsetInner1"></feOffset>
            <feComposite in="shadowOffsetInner1" in2="SourceAlpha" operator="arithmetic" k2="-1" k3="1" result="shadowInnerInner1"></feComposite>
            <feColorMatrix values="0 0 0 0 0   0 0 0 0 0   0 0 0 0 0  0 0 0 0.05 0" type="matrix" in="shadowInnerInner1"></feColorMatrix>
        </filter>
        <linearGradient x1="50%" y1="0%" x2="50%" y2="100%" id="linearGradient-13">
            <stop stop-color="#D1D1D1" offset="0%"></stop>
            <stop stop-color="#FFFFFF" offset="100%"></stop>
        </linearGradient>
        <linearGradient x1="50%" y1="0%" x2="50%" y2="100%" id="linearGradient-14">
            <stop stop-color="#CECECE" offset="0%"></stop>
            <stop stop-color="#FFFFFF" offset="100%"></stop>
        </linearGradient>
        <linearGradient x1="50%" y1="0%" x2="50%" y2="100%" id="linearGradient-15">
            <stop stop-color="#E2E2E2" offset="0%"></stop>
            <stop stop-color="#F3F3F3" offset="49.798943%"></stop>
            <stop stop-color="#F9F9F9" offset="100%"></stop>
        </linearGradient>
        <linearGradient x1="50%" y1="0%" x2="50%" y2="100%" id="linearGradient-16">
            <stop stop-color="#DCDCDC" offset="0%"></stop>
            <stop stop-color="#FFFFFF" offset="100%"></stop>
        </linearGradient>
        <circle id="path-17" cx="225" cy="826" r="34"></circle>
    </defs>
    <g id="Page-1" stroke="none" stroke-width="1" fill="none" fill-rule="evenodd">
        <g id="iPhone-6" transform="translate(-6.000000, 0.000000)">
            <g id="Mute">
                <use fill="url(#linearGradient-1)" fill-rule="evenodd" xlink:href="#path-2"></use>
                <use fill="black" fill-opacity="1" filter="url(#filter-3)" xlink:href="#path-2"></use>
            </g>
            <g id="Volume-Down">
                <use fill="url(#linearGradient-1)" fill-rule="evenodd" xlink:href="#path-4"></use>
                <use fill="black" fill-opacity="1" filter="url(#filter-5)" xlink:href="#path-4"></use>
            </g>
            <g id="Volume-Up">
                <use fill="url(#linearGradient-1)" fill-rule="evenodd" xlink:href="#path-6"></use>
                <use fill="black" fill-opacity="1" filter="url(#filter-7)" xlink:href="#path-6"></use>
            </g>
            <g id="Power">
                <use fill="url(#linearGradient-1)" fill-rule="evenodd" xlink:href="#path-8"></use>
                <use fill="black" fill-opacity="1" filter="url(#filter-9)" xlink:href="#path-8"></use>
            </g>
            <path d="M10,334.054199 C10,332.705241 12,331.356283 12,330 L12,191.0271 C12,189.629069 10,188.231038 10,186.833008 L10,63.9940748 C10,28.6511232 38.6588889,0 73.9983703,0 L373.00163,0 C408.346954,0 437,28.6509623 437,64.00502 L437,187.157366 C437,188.458147 435,189.758929 435,191 C435,210.379178 435,229.758356 435,249.099888 C435,250.4001 437,251.700141 437,253 C437,441.695125 437,818.992635 437,818.992635 C437,854.342927 408.341111,883 373.00163,883 L73.9983703,883 C38.6530464,883 10,854.351839 10,819.00365 L10,334.054199 Z M35.9943924,105 C33.7883504,105 32,106.789504 32,109.006552 L32,775.993448 C32,778.206206 33.7928246,780 35.9943924,780 L411.005608,780 C413.21165,780 415,778.210496 415,775.993448 L415,109.006552 C415,106.793794 413.207175,105 411.005608,105 L35.9943924,105 Z" id="Combined-Shape" fill="url(#linearGradient-10)"></path>
            <rect id="Band-insulator-1" fill="#E8E8E8" x="10" y="69" width="23" height="16"></rect>
            <rect id="Band-insulator-2" fill="#E8E8E8" x="414" y="69" width="23" height="16"></rect>
            <rect id="Band-insulator-3" fill="#D2D2D2" x="10" y="796" width="23" height="16"></rect>
            <rect id="Band-insulator-4" fill="#D2D2D2" x="414" y="796" width="23" height="16"></rect>
            <g id="Combined-Shape">
                <use fill="#F5F5F5" fill-rule="evenodd" xlink:href="#path-11"></use>
                <use fill="black" fill-opacity="1" filter="url(#filter-12)" xlink:href="#path-11"></use>
            </g>
            <path d="M35.9943924,105 L411.005608,105 C413.207175,105 415,106.793794 415,109.006552 L415,775.993448 C415,778.210496 413.21165,780 411.005608,780 L35.9943924,780 C33.7928246,780 32,778.206206 32,775.993448 L32,109.006552 C32,106.789504 33.7883504,105 35.9943924,105 Z M36,109 L36,776 L411,776 L411,109 L36,109 Z" id="Combined-Shape" fill="#000000"></path>
            <circle id="Camera-surround" fill="url(#linearGradient-13)" cx="157" cy="55" r="9"></circle>
            <circle id="Camera" fill="#222222" cx="157" cy="55" r="5"></circle>
            <rect id="Speaker" fill="url(#linearGradient-14)" x="187" y="49" width="74" height="12" rx="6"></rect>
            <rect id="Speaker" fill="#222222" x="190" y="52" width="68" height="6" rx="3"></rect>
            <rect id="Sensor-surround" fill="url(#linearGradient-14)" x="218" y="20" width="12" height="12" rx="5"></rect>
            <circle id="Sensor" fill="#222222" cx="224" cy="26" r="4"></circle>
            <g id="Home-button">
                <use fill="url(#linearGradient-15)" fill-rule="evenodd" xlink:href="#path-17"></use>
                <circle stroke="url(#linearGradient-16)" stroke-width="2" cx="225" cy="826" r="33"></circle>
            </g>
        </g>
    </g>
</svg>