<?xml version="1.0" encoding="utf-8"?>
<!-- Generator: Adobe Illustrator 19.0.0, SVG Export Plug-In . SVG Version: 6.00 Build 0)  -->
<svg version="1.1" id="Layer_1" xmlns="http://www.w3.org/2000/svg" xmlns:xlink="http://www.w3.org/1999/xlink" x="0px" y="0px"
	 viewBox="-729 467.9 147.4 147.4" style="enable-background:new -729 467.9 147.4 147.4;" xml:space="preserve">
<style type="text/css">
	.st0{fill:#FFFFFF;}
	.st1{fill:url(#SVGID_1_);}
	.st2{fill:#418B83;}
	.st3{fill:url(#XMLID_2_);}
	.st4{fill:url(#XMLID_3_);}
</style>
<g id="XMLID_35_">
</g>
<g id="XMLID_37_">
</g>
<g id="XMLID_38_">
</g>
<g id="XMLID_39_">
</g>
<g id="XMLID_41_">
</g>
<g id="XMLID_42_">
</g>
<g id="XMLID_46_">
</g>
<g id="XMLID_48_">
</g>
<g id="XMLID_50_">
</g>
<g id="XMLID_63_">
</g>
<g id="XMLID_69_">
</g>
<g id="XMLID_82_">
</g>
<g id="XMLID_83_">
</g>
<g id="XMLID_84_">
</g>
<g id="XMLID_57_">
	<circle id="XMLID_19_" class="st0" cx="-655.3" cy="541.6" r="73.7"/>
	<g id="XMLID_15_">
		
			<linearGradient id="SVGID_1_" gradientUnits="userSpaceOnUse" x1="-706.9188" y1="-309.3412" x2="-603.6812" y2="-412.5788" gradientTransform="matrix(1 0 0 -1 0 180.64)">
			<stop  offset="0" style="stop-color:#E2EAE4"/>
			<stop  offset="1" style="stop-color:#CDE2D9"/>
		</linearGradient>
		<circle class="st1" cx="-655.3" cy="541.6" r="73"/>
	</g>
	<g>
		<path class="st2" d="M-654.9,609.7c-0.2-0.4-0.5-0.9-0.7-1.4c-0.2-0.5-0.5-1-0.7-1.5c-0.2-0.5-0.4-1-0.6-1.5s-0.3-1-0.4-1.5h0.8
			c0.1,0.4,0.2,0.7,0.3,1.1c0.1,0.4,0.3,0.8,0.4,1.3c0.2,0.4,0.3,0.9,0.5,1.3c0.2,0.5,0.4,0.9,0.6,1.3c0.2-0.5,0.3-0.9,0.4-1.3
			c0.1-0.4,0.2-0.8,0.3-1.2s0.2-0.8,0.3-1.2c0.1-0.4,0.2-0.9,0.3-1.4h0.7c-0.2,1.1-0.5,2.1-0.8,3.1s-0.6,1.9-0.9,2.8
			c-0.1,0.3-0.3,0.6-0.4,0.9c-0.1,0.2-0.3,0.4-0.5,0.6s-0.4,0.3-0.6,0.4c-0.2,0.1-0.5,0.1-0.8,0.1c-0.2,0-0.4,0-0.5-0.1
			c-0.2,0-0.2-0.1-0.3-0.1l0.1-0.6c0,0,0.1,0.1,0.2,0.1s0.3,0.1,0.4,0.1c0.2,0,0.4,0,0.6-0.1c0.2,0,0.3-0.1,0.4-0.2
			c0.1-0.1,0.2-0.2,0.4-0.4C-655.1,610.2-655,610-654.9,609.7z"/>
		<path class="st2" d="M-646.3,606.2c0,0.4,0,0.9-0.1,1.2c-0.1,0.4-0.2,0.7-0.4,1s-0.5,0.5-0.8,0.7s-0.6,0.3-1,0.3s-0.7,0-1.1-0.1
			c-0.3-0.1-0.6-0.3-0.9-0.5s-0.5-0.5-0.6-0.9c-0.2-0.4-0.3-0.8-0.3-1.2s0-0.9,0.1-1.2c0.1-0.4,0.2-0.7,0.4-1
			c0.2-0.3,0.5-0.5,0.8-0.7c0.3-0.2,0.6-0.3,1-0.3c0.4,0,0.7,0,1.1,0.1c0.3,0.1,0.6,0.3,0.9,0.5c0.3,0.2,0.5,0.5,0.6,0.9
			C-646.4,605.4-646.3,605.8-646.3,606.2z M-647,606.3c-0.1-0.7-0.3-1.3-0.7-1.6c-0.4-0.4-0.8-0.6-1.4-0.5c-0.6,0.1-1,0.3-1.3,0.8
			c-0.3,0.5-0.4,1-0.3,1.7c0.1,0.7,0.3,1.3,0.7,1.6c0.4,0.4,0.8,0.5,1.4,0.5c0.6-0.1,1-0.3,1.3-0.8C-647.1,607.6-647,607-647,606.3z
			"/>
		<path class="st2" d="M-639.8,607.7c-0.2,0.1-0.5,0.2-0.8,0.4c-0.3,0.1-0.8,0.3-1.3,0.4c-0.4,0.1-0.8,0.1-1.1,0
			c-0.3-0.1-0.6-0.2-0.8-0.4c-0.2-0.2-0.4-0.4-0.5-0.7c-0.1-0.3-0.2-0.6-0.3-1l-0.6-3.1l0.7-0.1l0.6,2.9c0.1,0.4,0.2,0.7,0.3,1
			c0.1,0.3,0.2,0.5,0.4,0.6c0.2,0.1,0.4,0.2,0.6,0.3c0.2,0,0.5,0,0.8,0c0.3-0.1,0.6-0.1,0.9-0.2c0.3-0.1,0.4-0.1,0.4-0.2l-1-4.9
			l0.7-0.1L-639.8,607.7z"/>
		<path class="st2" d="M-637.3,601.2c0.2-0.1,0.4-0.1,0.7-0.1c0.3,0,0.4,0,0.4,0v0.6c-0.1,0-0.2,0-0.4,0c-0.2,0-0.4,0.1-0.7,0.1
			c-0.3,0.1-0.5,0.2-0.7,0.3s-0.3,0.2-0.3,0.2l1.4,4.8l-0.7,0.2l-1.5-5.2c0.2-0.1,0.4-0.3,0.7-0.4
			C-638.1,601.6-637.7,601.3-637.3,601.2z"/>
		<path class="st2" d="M-629.3,606.7l-0.7,0.3l-3-6.9c0.2-0.2,0.4-0.3,0.7-0.5s0.6-0.4,1.1-0.6c0.4-0.2,0.8-0.3,1.1-0.3
			c0.3,0,0.7,0.1,1,0.2c0.3,0.1,0.6,0.4,0.9,0.6c0.3,0.3,0.5,0.6,0.7,1.1c0.2,0.4,0.3,0.8,0.3,1.2s0,0.7-0.1,1.1
			c-0.1,0.3-0.3,0.6-0.5,0.9s-0.5,0.5-0.9,0.6c-0.3,0.1-0.7,0.2-1,0.2c-0.3,0-0.5,0-0.7,0L-629.3,606.7z M-630.5,603.8
			c0.1,0,0.2,0,0.3,0.1c0.1,0,0.2,0,0.4,0c0.1,0,0.3,0,0.4-0.1c0.2,0,0.3-0.1,0.5-0.1c0.3-0.1,0.6-0.3,0.7-0.5
			c0.2-0.2,0.3-0.4,0.3-0.7c0-0.3,0.1-0.5,0-0.8s-0.1-0.6-0.3-0.9c-0.3-0.7-0.7-1.1-1.2-1.4s-1-0.2-1.6,0c-0.3,0.1-0.6,0.3-0.8,0.4
			c-0.2,0.1-0.3,0.2-0.4,0.3L-630.5,603.8z"/>
		<path class="st2" d="M-625.5,596.2c0.2-0.1,0.4-0.2,0.6-0.3c0.2-0.1,0.3-0.1,0.4-0.1l0.2,0.6c-0.1,0-0.2,0-0.4,0.1
			c-0.2,0.1-0.4,0.2-0.7,0.3c-0.3,0.1-0.5,0.3-0.6,0.4c-0.1,0.1-0.2,0.2-0.3,0.3l2.3,4.4l-0.6,0.3l-2.4-4.7c0.1-0.2,0.3-0.3,0.6-0.6
			C-626.2,596.7-625.9,596.4-625.5,596.2z"/>
		<path class="st2" d="M-618,595.1c0.2,0.4,0.4,0.8,0.5,1.1c0.1,0.4,0.1,0.7,0,1.1c-0.1,0.3-0.2,0.7-0.4,0.9
			c-0.2,0.2-0.4,0.5-0.8,0.7c-0.3,0.2-0.7,0.3-1,0.4c-0.3,0-0.7,0-1-0.1c-0.3-0.1-0.7-0.3-1-0.5c-0.3-0.2-0.6-0.5-0.8-0.9
			c-0.2-0.4-0.4-0.8-0.5-1.1c-0.1-0.3,0-0.7,0.1-1s0.2-0.7,0.4-1c0.2-0.3,0.4-0.5,0.8-0.7c0.3-0.2,0.7-0.3,1-0.4c0.3,0,0.7,0,1,0.1
			c0.3,0.1,0.7,0.3,1,0.5C-618.5,594.4-618.3,594.7-618,595.1z M-618.7,595.5c-0.4-0.6-0.8-1-1.3-1.2s-1-0.1-1.5,0.2
			s-0.7,0.7-0.8,1.3c0,0.5,0.1,1.1,0.5,1.7c0.4,0.6,0.8,1,1.3,1.2s1,0.1,1.5-0.2c0.5-0.3,0.7-0.7,0.8-1.3
			C-618.1,596.7-618.3,596.1-618.7,595.5z"/>
		<path class="st2" d="M-611.4,593.4c-0.1,0.2-0.3,0.4-0.5,0.7c-0.2,0.3-0.5,0.5-0.9,0.9c-0.3,0.3-0.7,0.4-1,0.5
			c-0.3,0.1-0.7,0.1-1.1,0.1c-0.4,0-0.7-0.2-1-0.4c-0.3-0.2-0.6-0.5-0.9-0.8s-0.5-0.7-0.6-1c-0.1-0.4-0.2-0.7-0.2-1s0.1-0.7,0.3-1
			c0.2-0.3,0.4-0.6,0.7-0.9c0.3-0.2,0.6-0.4,0.9-0.5c0.3-0.1,0.5-0.1,0.7-0.1l-1.9-2.4l0.5-0.5L-611.4,593.4z M-614.8,590.3
			c-0.1,0-0.2,0-0.3,0s-0.2,0-0.4,0.1c-0.1,0-0.3,0.1-0.4,0.2c-0.1,0.1-0.3,0.2-0.4,0.3c-0.3,0.2-0.5,0.5-0.6,0.7s-0.2,0.5-0.1,0.8
			c0.1,0.3,0.1,0.5,0.2,0.8c0.1,0.3,0.3,0.5,0.5,0.8c0.5,0.6,1,0.9,1.5,1c0.5,0.1,1.1-0.1,1.5-0.5c0.3-0.2,0.5-0.4,0.6-0.6
			s0.3-0.3,0.3-0.4L-614.8,590.3z"/>
		<path class="st2" d="M-606.5,588.8c-0.1,0.2-0.3,0.4-0.5,0.7c-0.2,0.3-0.5,0.6-0.9,1c-0.3,0.3-0.6,0.5-0.9,0.6
			c-0.3,0.1-0.6,0.1-0.9,0.1c-0.3,0-0.6-0.1-0.8-0.3c-0.3-0.2-0.6-0.4-0.8-0.7l-2.2-2.3l0.5-0.5l2.1,2.1c0.3,0.3,0.5,0.5,0.8,0.7
			c0.2,0.2,0.5,0.3,0.7,0.3s0.4,0,0.6-0.1c0.2-0.1,0.4-0.2,0.6-0.4s0.4-0.5,0.6-0.7c0.2-0.2,0.2-0.3,0.3-0.4l-3.5-3.6l0.5-0.5
			L-606.5,588.8z"/>
		<path class="st2" d="M-603.2,585.5c-0.3,0.3-0.6,0.6-0.9,0.7c-0.3,0.2-0.7,0.2-1,0.2c-0.3,0-0.7-0.1-1-0.2c-0.4-0.1-0.7-0.4-1-0.7
			c-0.3-0.3-0.6-0.6-0.8-0.9c-0.2-0.3-0.3-0.7-0.4-1s0-0.7,0.1-1c0.1-0.3,0.3-0.7,0.5-1c0.2-0.2,0.4-0.4,0.6-0.6s0.4-0.3,0.6-0.3
			l0.3,0.5c-0.2,0.1-0.3,0.1-0.5,0.3c-0.2,0.1-0.3,0.3-0.5,0.5c-0.4,0.5-0.6,1-0.5,1.5c0.1,0.5,0.4,1,1,1.5c0.3,0.2,0.5,0.4,0.8,0.5
			c0.3,0.1,0.5,0.2,0.8,0.2c0.3,0,0.5-0.1,0.8-0.2c0.3-0.1,0.5-0.3,0.8-0.6c0.2-0.2,0.3-0.5,0.4-0.7s0.1-0.4,0.2-0.5l0.6,0.3
			c0,0.1-0.1,0.4-0.2,0.6C-602.8,585.1-603,585.3-603.2,585.5z"/>
		<path class="st2" d="M-605.6,579.2l1.4-1.8l0.5,0.4l-1.4,1.8l2.4,1.8c0.3,0.2,0.5,0.3,0.7,0.4c0.2,0.1,0.4,0.1,0.5,0.1
			s0.3-0.1,0.4-0.2c0.1-0.1,0.2-0.2,0.3-0.4c0.2-0.2,0.3-0.5,0.3-0.6c0-0.1,0.1-0.3,0.1-0.5l0.6,0.2c0,0.1-0.1,0.3-0.1,0.6
			c0,0.3-0.2,0.5-0.4,0.7c-0.2,0.3-0.4,0.5-0.6,0.6c-0.2,0.1-0.4,0.2-0.7,0.2s-0.5-0.1-0.7-0.2c-0.2-0.1-0.5-0.3-0.8-0.5l-4.2-3.1
			l0.3-0.7L-605.6,579.2z"/>
	</g>
	<circle id="XMLID_12_" class="st0" cx="-655.3" cy="541.6" r="55.3"/>
	
		<linearGradient id="XMLID_2_" gradientUnits="userSpaceOnUse" x1="-694.403" y1="-321.857" x2="-616.197" y2="-400.063" gradientTransform="matrix(1 0 0 -1 0 180.64)">
		<stop  offset="0" style="stop-color:#7BC09A"/>
		<stop  offset="0.3392" style="stop-color:#77BF9C"/>
		<stop  offset="0.6916" style="stop-color:#6ABDA4"/>
		<stop  offset="1" style="stop-color:#59BAAE"/>
	</linearGradient>
	<circle id="XMLID_11_" class="st3" cx="-655.3" cy="541.6" r="55.3"/>
	<g>
		<path class="st0" d="M-656.5,585.7c0.2-0.1,0.5-0.1,0.9-0.2c0.4-0.1,0.8-0.1,1.3-0.1c0.4,0,0.8,0,1.1,0.2s0.5,0.3,0.7,0.5
			s0.3,0.5,0.4,0.8c0.1,0.3,0.1,0.7,0.1,1.1l0.1,3.2h-0.7l-0.1-2.9c0-0.4,0-0.7-0.1-1c-0.1-0.3-0.2-0.5-0.3-0.7
			c-0.1-0.2-0.3-0.3-0.5-0.4c-0.2-0.1-0.5-0.1-0.8-0.1c-0.3,0-0.6,0-0.9,0.1c-0.2,0-0.4,0.1-0.5,0.1l0.1,5h-0.7L-656.5,585.7z"/>
		<path class="st0" d="M-648.1,590.8c-0.3-0.4-0.6-0.8-0.9-1.3s-0.6-0.9-0.8-1.4c-0.3-0.5-0.5-0.9-0.7-1.4s-0.4-0.9-0.6-1.4l0.8-0.1
			c0.1,0.3,0.3,0.7,0.5,1.1c0.2,0.4,0.4,0.8,0.6,1.2s0.5,0.8,0.7,1.2s0.5,0.8,0.8,1.2c0.1-0.5,0.2-0.9,0.2-1.3
			c0.1-0.4,0.1-0.8,0.2-1.2c0.1-0.4,0.1-0.8,0.1-1.3c0-0.4,0.1-0.9,0.1-1.4l0.7-0.1c-0.1,1.1-0.2,2.2-0.3,3.2s-0.3,2-0.6,2.9
			c-0.1,0.3-0.2,0.6-0.3,0.9s-0.2,0.5-0.4,0.7s-0.3,0.3-0.6,0.4c-0.2,0.1-0.5,0.2-0.8,0.2c-0.2,0-0.4,0-0.5,0c-0.2,0-0.3,0-0.3-0.1
			l0.1-0.6c0,0,0.1,0,0.3,0.1c0.1,0,0.3,0,0.4,0c0.2,0,0.4-0.1,0.5-0.1c0.2-0.1,0.3-0.2,0.4-0.3s0.2-0.3,0.3-0.5
			C-648.2,591.3-648.1,591-648.1,590.8z"/>
		<path class="st0" d="M-645.4,584.7c0.2-0.1,0.4-0.3,0.7-0.4c0.3-0.2,0.7-0.3,1.2-0.5c0.7-0.2,1.2-0.2,1.7,0.1c0,0,0.1-0.1,0.2-0.2
			c0.1-0.1,0.2-0.2,0.3-0.3s0.3-0.2,0.5-0.4c0.2-0.1,0.4-0.2,0.7-0.3c0.4-0.1,0.8-0.2,1.1-0.1c0.3,0,0.5,0.1,0.8,0.3
			c0.3,0.2,0.4,0.4,0.5,0.7s0.3,0.6,0.4,1l1,3l-0.7,0.2l-0.9-2.8c-0.1-0.4-0.2-0.7-0.3-0.9c-0.1-0.3-0.2-0.4-0.4-0.6
			c-0.2-0.2-0.3-0.2-0.5-0.3c-0.2,0-0.4,0-0.7,0.1c-0.2,0.1-0.4,0.1-0.6,0.2c-0.2,0.1-0.3,0.2-0.4,0.3c-0.1,0.1-0.2,0.2-0.3,0.3
			s-0.1,0.1-0.1,0.2c0.1,0.2,0.2,0.4,0.3,0.6s0.2,0.5,0.3,0.7l1,3.1l-0.7,0.2l-0.9-2.8c-0.1-0.4-0.2-0.7-0.3-0.9
			c-0.1-0.3-0.2-0.4-0.4-0.6c-0.2-0.1-0.3-0.2-0.5-0.3c-0.2,0-0.5,0-0.7,0.1c-0.3,0.1-0.6,0.2-0.8,0.3c-0.2,0.1-0.3,0.2-0.4,0.2
			l1.5,4.8l-0.7,0.2L-645.4,584.7z"/>
		<path class="st0" d="M-635.7,584.1c-0.2-0.4-0.4-0.9-0.4-1.3c0-0.4,0-0.8,0.1-1.1c0.1-0.3,0.2-0.6,0.4-0.9
			c0.2-0.2,0.4-0.4,0.7-0.6c0.6-0.3,1.2-0.4,1.8-0.2c0.6,0.2,1.1,0.7,1.5,1.6c0,0.1,0.1,0.1,0.1,0.2c0,0.1,0,0.1,0.1,0.2l-3.5,1.9
			c0.3,0.6,0.7,1,1.2,1.2s1,0.1,1.6-0.2c0.3-0.2,0.6-0.4,0.8-0.5c0.2-0.1,0.3-0.3,0.4-0.4l0.4,0.5c-0.1,0.1-0.2,0.3-0.4,0.5
			c-0.2,0.2-0.5,0.4-0.8,0.6c-0.4,0.2-0.9,0.4-1.2,0.4c-0.3,0-0.7,0-1.1-0.1c-0.4-0.1-0.6-0.3-0.9-0.6
			C-635.2,584.8-635.5,584.5-635.7,584.1z M-632.3,581.8c-0.3-0.5-0.6-0.9-1-1c-0.4-0.1-0.8-0.1-1.2,0.1c-0.2,0.1-0.4,0.3-0.5,0.5
			s-0.2,0.4-0.3,0.6c-0.1,0.2-0.1,0.5,0,0.7s0.1,0.5,0.2,0.7L-632.3,581.8z"/>
		<path class="st0" d="M-630.2,577.5c0.3-0.2,0.6-0.4,0.9-0.4c0.3-0.1,0.5-0.1,0.8,0c0.2,0.1,0.5,0.2,0.7,0.3
			c0.2,0.2,0.4,0.4,0.6,0.6l2.1,2.9c0,0.1-0.1,0.1-0.2,0.2c-0.1,0.1-0.2,0.2-0.3,0.3s-0.3,0.3-0.5,0.4c-0.2,0.1-0.4,0.3-0.5,0.4
			c-0.2,0.2-0.5,0.3-0.7,0.4c-0.2,0.1-0.5,0.1-0.7,0.1c-0.2,0-0.5-0.1-0.7-0.2c-0.2-0.1-0.4-0.3-0.6-0.6c-0.2-0.3-0.3-0.5-0.3-0.7
			s0-0.5,0.1-0.7c0.1-0.2,0.2-0.5,0.4-0.7s0.4-0.4,0.7-0.6c0.1-0.1,0.2-0.1,0.3-0.2c0.1-0.1,0.2-0.1,0.3-0.2
			c0.1-0.1,0.2-0.1,0.3-0.1s0.1,0,0.2-0.1l-0.2-0.3c-0.1-0.2-0.2-0.3-0.4-0.4c-0.2-0.1-0.3-0.2-0.4-0.3c-0.5,0.1-0.7,0.1-0.9,0.1
			c-0.2,0-0.4,0.1-0.7,0.3c-0.3,0.2-0.6,0.4-0.7,0.6c-0.1,0.2-0.2,0.3-0.3,0.4l-0.4-0.5c0.1-0.1,0.2-0.3,0.4-0.5
			C-630.8,577.9-630.5,577.7-630.2,577.5z M-627.1,581.8c0.2-0.2,0.4-0.3,0.6-0.4c0.2-0.1,0.3-0.3,0.4-0.4l-1.2-1.6
			c-0.1,0-0.2,0.1-0.4,0.1c-0.2,0.1-0.4,0.2-0.6,0.4c-0.1,0.1-0.3,0.2-0.4,0.3c-0.1,0.1-0.3,0.3-0.3,0.4c-0.1,0.2-0.1,0.3-0.1,0.5
			s0.1,0.4,0.2,0.6c0.1,0.2,0.3,0.3,0.4,0.4c0.1,0.1,0.3,0.1,0.4,0.1c0.1,0,0.3,0,0.5-0.1C-627.5,582-627.3,581.9-627.1,581.8z"/>
	</g>
	
		<linearGradient id="XMLID_3_" gradientUnits="userSpaceOnUse" x1="-631.5806" y1="-334.0937" x2="-678.956" y2="-390.5535" gradientTransform="matrix(1 0 0 -1 0 180.64)">
		<stop  offset="0" style="stop-color:#7BC09A"/>
		<stop  offset="0.3392" style="stop-color:#77BF9C"/>
		<stop  offset="0.6916" style="stop-color:#6ABDA4"/>
		<stop  offset="1" style="stop-color:#59BAAE"/>
	</linearGradient>
	<circle id="XMLID_7_" class="st4" cx="-655.3" cy="543" r="36.9"/>
	<g>
		<path class="st0" d="M-651.7,572.4c-0.2,0.1-0.5,0.1-0.8,0.2c-0.4,0.1-0.8,0.1-1.3,0.2c-0.4,0-0.8,0-1.1-0.1
			c-0.3-0.1-0.5-0.3-0.7-0.5c-0.2-0.2-0.3-0.5-0.4-0.8s-0.1-0.7-0.2-1.1l-0.1-3.2h0.7l0.1,3c0,0.4,0.1,0.7,0.1,1
			c0.1,0.3,0.2,0.5,0.3,0.7s0.3,0.3,0.5,0.4c0.2,0.1,0.5,0.1,0.8,0.1c0.3,0,0.6,0,0.9-0.1c0.2,0,0.4-0.1,0.5-0.1l-0.2-5h0.7
			L-651.7,572.4z"/>
		<path class="st0" d="M-649.5,566.8c0.1-0.1,0.3-0.3,0.5-0.5s0.5-0.3,0.9-0.4c0.4-0.1,0.8-0.1,1.1-0.1c0.3,0.1,0.7,0.2,0.9,0.4
			c0.3,0.2,0.5,0.4,0.7,0.8c0.2,0.3,0.4,0.7,0.5,1.1c0.1,0.4,0.2,0.9,0.2,1.3c0,0.4-0.1,0.7-0.3,1.1c-0.2,0.4-0.4,0.6-0.7,0.8
			c-0.3,0.2-0.6,0.4-1,0.5c-0.5,0.1-0.9,0.2-1.2,0.3c-0.3,0-0.6,0-0.8,0l-2.3-7.9l0.6-0.3L-649.5,566.8z M-648.2,571.3
			c0.1,0,0.3,0,0.5,0s0.5-0.1,0.8-0.2c0.6-0.2,1-0.5,1.3-1s0.3-1.1,0.1-1.8c-0.1-0.3-0.2-0.6-0.3-0.8c-0.1-0.2-0.3-0.5-0.5-0.6
			c-0.2-0.2-0.4-0.3-0.7-0.3c-0.3-0.1-0.6,0-0.9,0.1c-0.2,0-0.3,0.1-0.5,0.2c-0.1,0.1-0.3,0.2-0.4,0.2c-0.1,0.1-0.2,0.2-0.3,0.3
			c-0.1,0.1-0.1,0.2-0.2,0.2L-648.2,571.3z"/>
		<path class="st0" d="M-637.9,567.3c-0.2,0.2-0.4,0.4-0.6,0.6s-0.6,0.5-1.1,0.8c-0.4,0.2-0.7,0.3-1,0.4c-0.3,0.1-0.6,0-0.9-0.1
			c-0.3-0.1-0.5-0.3-0.7-0.5s-0.4-0.5-0.6-0.9l-1.6-2.8l0.6-0.4l1.5,2.6c0.2,0.3,0.4,0.6,0.6,0.8s0.4,0.4,0.6,0.4
			c0.2,0.1,0.4,0.1,0.6,0.1s0.5-0.1,0.7-0.3c0.3-0.2,0.5-0.3,0.7-0.5s0.3-0.3,0.4-0.3l-2.5-4.3l0.6-0.4L-637.9,567.3z"/>
		<path class="st0" d="M-639.2,561.7c0.1-0.2,0.3-0.4,0.5-0.7c0.2-0.3,0.5-0.6,0.9-1c0.3-0.3,0.6-0.5,0.9-0.6
			c0.3-0.1,0.6-0.1,0.9-0.1c0.3,0,0.6,0.2,0.8,0.3c0.2,0.1,0.5,0.4,0.8,0.7l2.2,2.3l-0.5,0.5l-2-2.1c-0.3-0.3-0.5-0.5-0.8-0.7
			c-0.2-0.2-0.5-0.3-0.7-0.3c-0.2,0-0.4,0-0.6,0.1c-0.2,0.1-0.4,0.2-0.7,0.5c-0.2,0.2-0.4,0.4-0.6,0.6c-0.2,0.2-0.2,0.3-0.3,0.4
			l3.4,3.6l-0.5,0.5L-639.2,561.7z"/>
		<path class="st0" d="M-634.8,556.7l1.3-1.9l0.5,0.3l-1.3,1.9l2.5,1.7c0.3,0.2,0.5,0.3,0.7,0.4c0.2,0.1,0.4,0.1,0.5,0.1
			s0.3-0.1,0.4-0.2c0.1-0.1,0.2-0.2,0.3-0.4c0.2-0.2,0.3-0.5,0.3-0.7s0.1-0.3,0.1-0.5l0.6,0.2c0,0.1,0,0.3-0.1,0.6s-0.2,0.5-0.4,0.8
			c-0.2,0.3-0.4,0.5-0.6,0.6c-0.2,0.1-0.4,0.2-0.7,0.2c-0.2,0-0.5,0-0.7-0.2c-0.3-0.1-0.5-0.3-0.9-0.5l-4.3-3l0.3-0.7L-634.8,556.7z
			"/>
		<path class="st0" d="M-626.1,552.1c0,0.2-0.1,0.5-0.2,0.9c-0.1,0.4-0.2,0.8-0.4,1.3c-0.2,0.4-0.4,0.7-0.6,0.9
			c-0.2,0.2-0.5,0.4-0.8,0.4c-0.3,0.1-0.6,0.1-0.9,0c-0.3-0.1-0.7-0.2-1-0.3l-2.9-1.3l0.3-0.7l2.7,1.2c0.4,0.2,0.7,0.3,1,0.3
			c0.3,0.1,0.5,0.1,0.7,0c0.2-0.1,0.4-0.2,0.5-0.3c0.1-0.1,0.3-0.4,0.4-0.7c0.1-0.3,0.2-0.6,0.3-0.8c0.1-0.2,0.1-0.4,0.1-0.5l-4.6-2
			l0.3-0.7L-626.1,552.1z"/>
		<path class="st0" d="M-624.1,544.2c0,0.4-0.2,0.8-0.3,1.1c-0.1,0.3-0.4,0.6-0.7,0.8c-0.3,0.2-0.6,0.3-1,0.4
			c-0.4,0.1-0.8,0.1-1.2,0c-0.4,0-0.8-0.2-1.2-0.3c-0.4-0.2-0.6-0.4-0.9-0.6c-0.2-0.3-0.4-0.5-0.5-0.9c-0.1-0.3-0.1-0.7-0.1-1.1
			c0-0.3,0.1-0.6,0.2-0.8c0.1-0.3,0.2-0.5,0.3-0.6l0.6,0.3c-0.1,0.1-0.2,0.3-0.2,0.5c-0.1,0.2-0.1,0.4-0.1,0.7
			c-0.1,0.6,0.1,1.1,0.5,1.5c0.4,0.4,0.9,0.6,1.7,0.7c0.3,0,0.6,0,0.9,0s0.5-0.1,0.8-0.3c0.2-0.1,0.4-0.3,0.5-0.6
			c0.1-0.2,0.2-0.6,0.3-0.9c0-0.3,0-0.6,0-0.8c0-0.2-0.1-0.4-0.1-0.5l0.6-0.1c0.1,0.1,0.1,0.4,0.1,0.6
			C-624.1,543.6-624.1,543.9-624.1,544.2z"/>
		<path class="st0" d="M-627.4,536c0.4,0,0.9,0,1.2,0.1c0.3,0.1,0.7,0.2,1,0.4c0.3,0.2,0.5,0.5,0.7,0.8c0.2,0.3,0.3,0.6,0.3,1
			c0,0.4,0,0.7-0.1,1.1c-0.1,0.3-0.3,0.6-0.5,0.9s-0.5,0.5-0.9,0.6c-0.4,0.2-0.7,0.3-1.2,0.3c-0.4,0-0.9,0-1.2-0.1
			c-0.3-0.1-0.7-0.2-1-0.4c-0.3-0.2-0.5-0.5-0.7-0.8c-0.2-0.3-0.3-0.6-0.3-1c0-0.4,0-0.7,0.1-1.1c0.1-0.3,0.3-0.6,0.5-0.9
			s0.5-0.5,0.9-0.6C-628.2,536.1-627.8,536-627.4,536z M-627.3,536.7c-0.7,0.1-1.3,0.3-1.6,0.7c-0.4,0.4-0.5,0.8-0.5,1.4
			c0.1,0.6,0.3,1,0.8,1.3s1,0.4,1.7,0.3c0.7-0.1,1.3-0.3,1.6-0.7s0.5-0.8,0.5-1.4c-0.1-0.6-0.3-1-0.8-1.3S-626.6,536.7-627.3,536.7z
			"/>
		<path class="st0" d="M-631.3,533.2c-0.1-0.2-0.1-0.4-0.1-0.7c0-0.3,0-0.4,0-0.4h0.6c0,0.1,0,0.2,0,0.4c0,0.2,0.1,0.4,0.2,0.7
			s0.2,0.5,0.3,0.7c0.1,0.2,0.2,0.3,0.2,0.3l4.8-1.5l0.2,0.7l-5.2,1.6c-0.1-0.2-0.3-0.4-0.5-0.6S-631.2,533.6-631.3,533.2z"/>
		<path class="st0" d="M-629.2,530.2c-0.4,0.2-0.9,0.4-1.2,0.4c-0.3,0-0.8,0-1.1-0.1c-0.3-0.1-0.6-0.2-0.9-0.4
			c-0.3-0.2-0.4-0.4-0.6-0.7c-0.3-0.6-0.4-1.2-0.2-1.8c0.2-0.6,0.7-1.1,1.6-1.5c0.1,0,0.1-0.1,0.2-0.1s0.1,0,0.2-0.1l1.9,3.5
			c0.6-0.4,1-0.8,1.2-1.2c0.2-0.5,0.1-1-0.2-1.6c-0.2-0.3-0.4-0.6-0.5-0.8c-0.1-0.2-0.3-0.3-0.4-0.3l0.5-0.4
			c0.1,0.1,0.3,0.2,0.5,0.4c0.2,0.2,0.4,0.5,0.6,0.8c0.2,0.4,0.4,0.8,0.4,1.2s0,0.7-0.1,1.1c-0.1,0.3-0.3,0.6-0.6,0.9
			C-628.2,529.8-628.8,530-629.2,530.2z M-631.5,526.9c-0.5,0.3-0.9,0.6-1,1c-0.2,0.4-0.1,0.8,0.1,1.2c0.1,0.2,0.3,0.4,0.5,0.5
			c0.2,0.1,0.4,0.2,0.6,0.3c0.2,0,0.5,0.1,0.7,0c0.2,0,0.5-0.1,0.7-0.2L-631.5,526.9z"/>
	</g>
</g>
</svg>
