<svg version="1.1" id="owl" xmlns="http://www.w3.org/2000/svg" xmlns:xlink="http://www.w3.org/1999/xlink" x="0px" y="0px"
	 viewBox="0 0 100 145" style="enable-background:new 0 0 100 145;" xml:space="preserve">
  <style type="text/css">
    .st0{fill:url(#SVGID_1_);}
    .st1{fill:url(#SVGID_2_);}
    .st2{fill:url(#SVGID_3_);}
    .st3{fill:url(#SVGID_4_);}
    .st4{fill:url(#SVGID_5_);}
    .st5{fill:url(#SVGID_6_);}
    .st6{fill:url(#SVGID_7_);}
    .st7{fill:url(#SVGID_8_);}
    .st8{fill:url(#SVGID_9_);}
    .st9{fill:url(#SVGID_10_);}
    .st10{fill:url(#SVGID_11_);}
  </style>
  <linearGradient id="SVGID_1_" gradientUnits="userSpaceOnUse" x1="2.310027e-02" y1="222.3397" x2="72.6899" y2="131.6536" gradientTransform="matrix(1 0 0 -1 0 228.3597)">
    <stop  offset="0.13" style="stop-color:#9FC8A4"/>
    <stop  offset="0.4" style="stop-color:#92BC9E"/>
    <stop  offset="0.9" style="stop-color:#719B8F"/>
    <stop  offset="1" style="stop-color:#69938C"/>
  </linearGradient>
  <path class="st0" d="M64.7,46.7c-5.9-10.1-19-17.9-27.5-21s-18-10.1-18-10.1c-7.5-5-9.7-9-13.7-14c-1.4,3.1-2.4,6.3-3,9.6
    c1.8,3.1,8.7,13.4,28.1,21.5c1.7,0.7,6.9,2.9,7,2.9l6.5,2.6l-6.7-1.9c-0.2-0.1-5.5-1.6-7.3-2.2C12.6,27.7,5,19,2,14.2
    c-0.8,5.4-1.1,11-0.7,16.5c7.8,6.9,17,12.1,26.9,15.4c0.9,0.3,3.6,1.3,3.6,1.3l3.4,1.2L31.7,48c-0.1,0-3-0.4-4-0.6
    c-9.6-2.2-18.6-6.8-26.1-13.2c0.5,4.4,1.5,8.8,2.8,13c0.3,1,0.7,2.1,1.1,3c5,2.3,10.1,4,15.5,5.2c1.1,0.2,4.3,1.1,4.3,1.1l3.8,1
    l-4-0.2c-0.1,0-3.4-0.2-4.5-0.4c-4.7-0.7-9.4-1.9-13.9-3.6C13.4,66.9,25.6,74.6,42,80.7c10.8,3.8,18.4,13.6,19.4,25
    c0,0,5.1-3.8,9.6-18.4C76,71.2,70.6,56.8,64.7,46.7z"/>
  <linearGradient id="SVGID_2_" gradientUnits="userSpaceOnUse" x1="45.9009" y1="-30.962" x2="28.3209" y2="-30.962" gradientTransform="matrix(0.97 0.26 0.26 -0.97 60.9202 17.4877)">
    <stop  offset="0" style="stop-color:#E3EAE4"/>
    <stop  offset="1" style="stop-color:#CDE2D8"/>
  </linearGradient>
  <path class="st1" d="M89.6,67.9c4.9-3.6,6.9-7.8,8.5-12.5c1-2.6,1.1-5.4,0.3-8.1c-0.8-2.5-6.5-6.2-11.2-4.7
    c-5.1,1.6-6.1,8.1-6.5,10.9C80,57.8,81,64.5,83.4,71.1C83.4,71.1,85.6,70.9,89.6,67.9z"/>
  <linearGradient id="SVGID_3_" gradientUnits="userSpaceOnUse" x1="81.9868" y1="192.2847" x2="73.7187" y2="150.8641" gradientTransform="matrix(1 0 0 -1 0 228.3597)">
    <stop  offset="0" style="stop-color:#9FC8A4"/>
    <stop  offset="0.27" style="stop-color:#9BC4A2"/>
    <stop  offset="0.54" style="stop-color:#8FB89D"/>
    <stop  offset="0.82" style="stop-color:#7BA494"/>
    <stop  offset="1" style="stop-color:#69938C"/>
  </linearGradient>
  <path class="st2" d="M80.6,53.5c0.4-2.8,1.4-9.2,6.5-10.9c4.2-1.4,9.3,1.6,10.8,3.9c-1.5-3.9-5.6-6.6-9-8.3
    c-4.9-2.4-10.4-3-15.7-1.8c-4.6,1.1-7,3.6-10.9,6.9c0.8,1.1,1.6,2.2,2.2,3.3c4.6,7.9,9,18.6,8.2,30.6c3-5,9.7-6.1,10.6-6.2
    C81,64.5,80,57.9,80.6,53.5z"/>
  <linearGradient id="SVGID_4_" gradientUnits="userSpaceOnUse" x1="88.6092" y1="159.6797" x2="88.4592" y2="159.6797" gradientTransform="matrix(1 0 0 -1 0 228.3597)">
    <stop  offset="0" style="stop-color:#E3EAE4"/>
    <stop  offset="1" style="stop-color:#CDE2D8"/>
  </linearGradient>
  <path class="st3" d="M88.6,68.6l-0.1,0.1L88.6,68.6z"/>
  <linearGradient id="SVGID_5_" gradientUnits="userSpaceOnUse" x1="98.8777" y1="170.7297" x2="88.6092" y2="170.7297" gradientTransform="matrix(1 0 0 -1 0 228.3597)">
    <stop  offset="0" style="stop-color:#E3EAE4"/>
    <stop  offset="1" style="stop-color:#CDE2D8"/>
  </linearGradient>
  <path class="st4" d="M98.4,47.3c-0.1-0.3-0.2-0.5-0.4-0.8c0.8,1.9,0.8,4,0.1,6c-1.5,4.9-1.8,7.1-6.1,12.9c-0.9,1.2-2.1,2.3-3.4,3.2
    c0.3-0.2,0.6-0.4,1-0.7c4.9-3.6,6.9-7.8,8.5-12.5C99,52.9,99.1,50,98.4,47.3z"/>
  <linearGradient id="SVGID_6_" gradientUnits="userSpaceOnUse" x1="88.4592" y1="158.4297" x2="83.4292" y2="158.4297" gradientTransform="matrix(1 0 0 -1 0 228.3597)">
    <stop  offset="0" style="stop-color:#E3EAE4"/>
    <stop  offset="1" style="stop-color:#CDE2D8"/>
  </linearGradient>
  <path class="st5" d="M83.4,71.1c0,0,1.8-0.2,5-2.4C86.9,69.8,85.3,70.6,83.4,71.1L83.4,71.1z"/>
  <linearGradient id="SVGID_7_" gradientUnits="userSpaceOnUse" x1="83.1792" y1="166.9627" x2="91.4613" y2="166.9627" gradientTransform="matrix(1 0 0 -1 0 228.3597)">
    <stop  offset="0" style="stop-color:#89AE8E"/>
    <stop  offset="1" style="stop-color:#79A79F"/>
  </linearGradient>
  <path class="st6" d="M89.1,51.8c-1-0.3-2,0-2.8,0.6c-0.2,0.3-0.3,0.6-0.4,0.9c-0.4,1.6,0.5,3.3,2.2,3.7c0,0,0,0,0,0
    c0.7,0.2,1.4,0.1,2-0.1c-0.9,6.9-5.9,12.4-6.9,13.5c0.1,0.2,0.2,0.5,0.2,0.7c0.3,0,0.6-0.1,0.9-0.2c1.8-1.9,6.7-7.9,7-15.5
    c0.4-1.6-0.5-3.2-2.1-3.7C89.2,51.8,89.2,51.8,89.1,51.8z"/>
  <linearGradient id="SVGID_8_" gradientUnits="userSpaceOnUse" x1="55.7262" y1="106.8945" x2="37.7862" y2="91.8445" gradientTransform="matrix(0.9997 2.268733e-02 2.268733e-02 -0.9997 3.3827 211.3573)">
    <stop  offset="0" style="stop-color:#9FC8A4"/>
    <stop  offset="1" style="stop-color:#8CC1B6"/>
  </linearGradient>
  <path class="st7" d="M36.5,95.5c1.5,12.7,7.5,31.7,27.8,47.9c0,0,10.1-15.4,0.4-32.5c-6.3-11.4-16.5-20.1-28.8-24.5
    C35.8,89.4,36,92.5,36.5,95.5z"/>
  <linearGradient id="SVGID_9_" gradientUnits="userSpaceOnUse" x1="29.6836" y1="101.1335" x2="53.4939" y2="101.1335" gradientTransform="matrix(0.9997 2.268733e-02 2.268733e-02 -0.9997 3.3827 211.3573)">
    <stop  offset="0" style="stop-color:#9FC8A4"/>
    <stop  offset="0.25" style="stop-color:#99C2A1"/>
    <stop  offset="0.59" style="stop-color:#88B19A"/>
    <stop  offset="0.97" style="stop-color:#6B958D"/>
    <stop  offset="1" style="stop-color:#69938C"/>
  </linearGradient>
  <path class="st8" d="M54.7,106.9c-5.7-10-12.8-16.8-18.8-20.5c0,3,0.2,6.1,0.6,9c1.2,10.8,5.8,26.1,19.6,40.4
    C60.3,126.6,59.7,115.8,54.7,106.9z"/>
  <linearGradient id="SVGID_10_" gradientUnits="userSpaceOnUse" x1="46.2031" y1="133.3088" x2="53.0431" y2="141.4588" gradientTransform="matrix(1 0 0 -1 0 228.3597)">
    <stop  offset="0" style="stop-color:#79A79F"/>
    <stop  offset="0.49" style="stop-color:#74A099"/>
    <stop  offset="1" style="stop-color:#69938C"/>
  </linearGradient>
  <path class="st9" d="M42.9,80.8c-2-0.8-4.9-1.6-6.8-2.4c-0.2,2.7-0.3,5.4-0.2,8.1c10.3,3.6,19.2,10.4,25.5,19.3c0-0.1,0-0.2,0-0.3
    C60.8,94.2,53.5,84.5,42.9,80.8z"/>
  <linearGradient id="SVGID_11_" gradientUnits="userSpaceOnUse" x1="56.6061" y1="191.0642" x2="24.7484" y2="154.7954" gradientTransform="matrix(1 0 0 -1 0 228.3597)">
    <stop  offset="0" style="stop-color:#9FC8A4"/>
    <stop  offset="0.46" style="stop-color:#9AC6A8"/>
    <stop  offset="0.98" style="stop-color:#8DC1B5"/>
    <stop  offset="1" style="stop-color:#8CC1B6"/>
  </linearGradient>
  <path class="st10" d="M64.7,46.7c-5.9-10.1-19-17.9-27.5-21s-18-10.1-18-10.1c-1.8-1.2-3.6-2.5-5.2-4c-0.4,3.9-0.6,7.7-0.4,11.6
    c5.2,3.9,10.9,7.1,16.9,9.5c1.7,0.7,6.9,2.9,7,2.9l6.5,2.6l-6.7-1.9c-0.2-0.1-5.5-1.6-7.3-2.2c-5.7-2-11.2-4.8-16.2-8.2
    c0.4,5.2,1.4,10.3,2.9,15.2c3.7,1.9,7.6,3.5,11.6,4.9c0.9,0.3,3.6,1.3,3.6,1.3l3.4,1.2l-3.5-0.5c-0.1,0-3-0.4-4-0.6
    c-3.4-0.8-6.8-1.9-10-3.3c1.8,4.5,4.3,8.6,7.5,12.3h0.1l3.8,1l-3.2-0.2c6.9,7.7,16.3,13.3,26.3,21.3c13.5,10.8,9.2,27.2,9.2,27.2
    c0.5-0.5,1-0.9,1.5-1.5c1.8-2.1,5.1-7,8.1-16.9C76,71.2,70.6,56.8,64.7,46.7z"/>
</svg>
