<?xml version="1.0" encoding="utf-8"?>
<!-- Generator: Adobe Illustrator 22.1.0, SVG Export Plug-In . SVG Version: 6.00 Build 0)  -->
<svg version="1.1" id="Layer_1" xmlns="http://www.w3.org/2000/svg" xmlns:xlink="http://www.w3.org/1999/xlink" x="0px" y="0px"
	 viewBox="0 0 157.6 33.8" style="enable-background:new 0 0 157.6 33.8;" xml:space="preserve">
<style type="text/css">
	.st0{fill:#FCFCFC;}
</style>
<title>logo-text</title>
<path class="st0" d="M0,1.3C1,1,2.3,0.8,4,0.5C5.9,0.2,7.8,0,9.7,0.1C11.4,0,13,0.3,14.6,0.9c1.2,0.5,2.3,1.3,3.1,2.3
	c0.8,1,1.4,2.3,1.6,3.5c0.3,1.5,0.5,3,0.5,4.6V25h-4.4V12.3c0-1.3-0.1-2.6-0.3-3.9c-0.1-0.9-0.5-1.8-1-2.6c-0.5-0.7-1.1-1.2-1.9-1.4
	C11.3,4.1,10.3,3.9,9.3,4H7.8L6.4,4.1c-0.5,0-0.9,0.1-1.2,0.2L4.4,4.4V25H0L0,1.3z"/>
<path class="st0" d="M30.9,29.6c0.4,0.2,0.9,0.3,1.3,0.5c1.9,0.5,4,0.1,5.6-0.9C39,28,40,26.6,40.6,25c-2.1-3.8-4-7.7-5.7-11.6
	c-1.6-4.2-3-8.5-4.1-12.8h4.7c0.4,1.4,0.8,2.9,1.2,4.6s1,3.3,1.6,5s1.2,3.5,1.9,5.2s1.4,3.4,2.2,5c1.2-3.3,2.2-6.6,3.1-9.8
	c0.9-3.2,1.7-6.6,2.5-10h4.5c-1.2,4.6-2.4,9-3.8,13.3c-1.4,4.2-2.9,8.2-4.5,11.9c-0.5,1.3-1.2,2.5-2,3.6c-0.6,0.9-1.4,1.8-2.2,2.5
	c-0.8,0.7-1.7,1.2-2.8,1.5c-1.1,0.3-2.3,0.5-3.5,0.5c-0.4,0-0.7,0-1.1-0.1c-0.4,0-0.8-0.1-1.1-0.2s-0.7-0.2-1-0.3
	c-0.2-0.1-0.4-0.1-0.6-0.2L30.9,29.6z"/>
<path class="st0" d="M62.7,1.3c1-0.2,2.3-0.5,4-0.8c1.9-0.3,3.8-0.5,5.7-0.4c1.3,0,2.7,0.2,4,0.6c1,0.4,1.9,1,2.7,1.9l1-0.6
	c0.6-0.3,1.1-0.6,1.7-0.8c0.8-0.3,1.5-0.5,2.3-0.7C85,0.2,85.9,0,86.8,0.1C88.4,0,90,0.3,91.4,0.9c1.1,0.5,2.1,1.3,2.8,2.3
	c0.7,1.1,1.2,2.3,1.4,3.6c0.2,1.5,0.4,3,0.4,4.5V25h-4.4V12.3c0-1.2-0.1-2.5-0.2-3.7C91.3,7.7,91,6.8,90.5,6
	c-0.4-0.7-0.9-1.2-1.6-1.5C88.1,4.1,87.2,4,86.3,4c-1.2,0-2.4,0.3-3.5,0.9c-0.7,0.3-1.4,0.7-2,1.1c0.2,0.7,0.4,1.5,0.5,2.3
	c0.1,1,0.2,2,0.2,3.1v13.7h-4.4V12.3c0-1.2-0.1-2.5-0.2-3.7C76.7,7.7,76.5,6.8,76,6c-0.4-0.7-0.9-1.2-1.6-1.5
	c-0.8-0.4-1.7-0.5-2.6-0.5h-1.4L69,4.1c-0.5,0-0.9,0.1-1.2,0.2L67,4.4V25h-4.4L62.7,1.3z"/>
<path class="st0" d="M148.1,0c1.5,0,3,0.2,4.5,0.7c2.2,0.8,3.9,2.6,4.5,4.9c0.3,1.2,0.5,2.5,0.5,3.8v15.2c-0.4,0.1-1,0.2-1.6,0.4
	s-1.4,0.2-2.2,0.3s-1.8,0.2-2.8,0.3s-2,0.1-2.9,0.1c-1.3,0-2.6-0.1-3.8-0.4c-1.1-0.2-2.1-0.7-3-1.3c-0.9-0.6-1.6-1.5-2-2.4
	c-0.5-1.1-0.7-2.4-0.7-3.6c0-1.2,0.2-2.4,0.8-3.5c0.5-1,1.3-1.8,2.2-2.4c1-0.6,2.1-1.1,3.3-1.3c1.3-0.3,2.6-0.4,3.9-0.4
	c0.5,0,0.9,0,1.4,0.1c0.5,0,0.9,0.1,1.3,0.2l1.1,0.2l0.7,0.1V9.6c0-0.7-0.1-1.4-0.2-2.1c-0.1-0.7-0.4-1.3-0.8-1.9
	c-0.4-0.6-1-1-1.7-1.3c-0.9-0.4-1.8-0.5-2.8-0.5c-1.3,0-2.5,0.1-3.7,0.4c-0.8,0.2-1.6,0.4-2.4,0.8l-0.7-3.6c1-0.5,2-0.8,3-1
	C145.3,0.1,146.7,0,148.1,0z M148.5,21.9c1,0,2,0,2.8-0.1c0.7,0,1.3-0.1,2-0.3v-7.3c-0.5-0.2-1-0.3-1.5-0.4
	c-0.8-0.1-1.7-0.2-2.6-0.2c-0.7,0-1.4,0-2.1,0.1c-0.7,0.1-1.4,0.3-2,0.6c-0.6,0.3-1.1,0.7-1.5,1.2c-0.4,0.6-0.6,1.3-0.6,2
	c-0.1,1.3,0.4,2.5,1.5,3.3C145.7,21.7,147.1,22,148.5,21.9z"/>
<path class="st0" d="M107.3,12.9c0-1.9,0.3-3.9,0.9-5.7c0.6-1.5,1.4-2.9,2.5-4c1-1,2.2-1.9,3.6-2.4c1.3-0.5,2.7-0.8,4.1-0.8
	c3.3,0,5.8,1,7.6,3.1s2.6,5.2,2.6,9.4v0.8c0,0.3,0,0.6,0,0.8h-16.8c0,2.1,0.8,4.2,2.2,5.8c1.3,1.3,3.3,2,6,2c1.3,0,2.6-0.1,3.9-0.4
	c0.9-0.2,1.8-0.6,2.6-1l0.6,3.7c-1,0.5-2,0.9-3.1,1.1c-1.5,0.3-3,0.5-4.5,0.4c-1.9,0.1-3.8-0.3-5.5-0.9c-1.5-0.6-2.8-1.5-3.8-2.6
	c-1-1.2-1.8-2.5-2.2-4C107.5,16.4,107.3,14.6,107.3,12.9z M124.1,10.5c0.1-1.7-0.4-3.5-1.5-4.9c-1-1.3-2.6-2-4.2-1.9
	c-0.9,0-1.8,0.2-2.7,0.6c-0.8,0.4-1.4,0.9-2,1.5c-0.5,0.6-1,1.4-1.2,2.2c-0.3,0.8-0.5,1.6-0.6,2.5H124.1z"/>
</svg>
