<svg id="Layer_1" data-name="Layer 1" xmlns="http://www.w3.org/2000/svg" viewBox="0 0 157.55 33.84"><defs><style>.cls-1{fill:#676767;}</style></defs><title>logo-text</title><path class="cls-1" d="M342.17,282c1-.25,2.33-.52,4-.8a34.51,34.51,0,0,1,5.74-.43,12.32,12.32,0,0,1,4.84.83,7.54,7.54,0,0,1,3.08,2.3,8.83,8.83,0,0,1,1.62,3.55,21.2,21.2,0,0,1,.47,4.56v13.72h-4.37V293a20,20,0,0,0-.31-3.86,6.53,6.53,0,0,0-1-2.58,4,4,0,0,0-1.88-1.44,8.47,8.47,0,0,0-2.91-.44H350l-1.43.12c-.46,0-.86.1-1.22.17l-.78.14v20.63h-4.37Z" transform="translate(-342.17 -280.72)"/><path class="cls-1" d="M373.05,310.33a7.82,7.82,0,0,0,1.34.45,7.17,7.17,0,0,0,5.62-.94,11.76,11.76,0,0,0,2.78-4.07,126.1,126.1,0,0,1-5.67-11.63A106.39,106.39,0,0,1,373,281.33h4.7c.35,1.41.76,2.93,1.25,4.56s1,3.31,1.62,5,1.24,3.45,1.92,5.17,1.41,3.38,2.17,5q1.78-4.94,3.1-9.78t2.49-10h4.51Q393,288.2,391,294.56c-1.38,4.24-2.86,8.22-4.46,11.91a25.05,25.05,0,0,1-1.95,3.65,11.17,11.17,0,0,1-2.24,2.51,8.11,8.11,0,0,1-2.75,1.46,11.5,11.5,0,0,1-3.45.47,9.79,9.79,0,0,1-1.08-.07c-.38-.05-.75-.11-1.11-.19s-.69-.17-1-.26a3.51,3.51,0,0,1-.64-.24Z" transform="translate(-342.17 -280.72)"/><path class="cls-1" d="M404.87,282c1-.25,2.33-.52,4-.8a33.13,33.13,0,0,1,5.71-.43,10.88,10.88,0,0,1,3.95.64,7,7,0,0,1,2.68,1.85l1-.65a12.07,12.07,0,0,1,1.74-.83,18.62,18.62,0,0,1,2.31-.7,11.82,11.82,0,0,1,2.72-.31,11.19,11.19,0,0,1,4.61.83,6.66,6.66,0,0,1,2.8,2.32,9.2,9.2,0,0,1,1.36,3.57,27.45,27.45,0,0,1,.35,4.52v13.72h-4.37V293a29,29,0,0,0-.21-3.72,7.12,7.12,0,0,0-.8-2.58,3.64,3.64,0,0,0-1.6-1.53,6.08,6.08,0,0,0-2.6-.45,8.49,8.49,0,0,0-3.53.89,12.48,12.48,0,0,0-2,1.09,11.28,11.28,0,0,1,.45,2.3,24.17,24.17,0,0,1,.19,3.06v13.72h-4.37V293a27.22,27.22,0,0,0-.23-3.72,7.58,7.58,0,0,0-.83-2.58,3.73,3.73,0,0,0-1.59-1.53,6,6,0,0,0-2.57-.49h-1.41l-1.43.12c-.45,0-.87.1-1.25.17l-.75.14v20.63h-4.37Z" transform="translate(-342.17 -280.72)"/><path class="cls-1" d="M490.32,280.72a12.7,12.7,0,0,1,4.45.68,7,7,0,0,1,4.48,4.89,13.8,13.8,0,0,1,.47,3.78v15.18c-.38.09-1,.25-1.64.35s-1.36.22-2.21.31-1.76.18-2.75.26-2,.12-2.94.12a15.66,15.66,0,0,1-3.8-.43,8.27,8.27,0,0,1-3-1.33,6.06,6.06,0,0,1-2-2.43,8.31,8.31,0,0,1-.7-3.61,6.93,6.93,0,0,1,.82-3.48,6.52,6.52,0,0,1,2.23-2.35,10.24,10.24,0,0,1,3.29-1.32,17.91,17.91,0,0,1,3.93-.41,12.39,12.39,0,0,1,1.36.07c.47.05.92.11,1.34.19l1.11.21.66.14v-1.22a9.62,9.62,0,0,0-.24-2.14,5,5,0,0,0-.84-1.88,4.4,4.4,0,0,0-1.67-1.32,6.48,6.48,0,0,0-2.75-.49,19.48,19.48,0,0,0-3.73.36,11.29,11.29,0,0,0-2.42.81l-.71-3.61a12.6,12.6,0,0,1,3-1A25.31,25.31,0,0,1,490.32,280.72Zm.38,21.9c1,0,2,0,2.75-.07a12.31,12.31,0,0,0,2-.26V295a5.75,5.75,0,0,0-1.53-.4,16.85,16.85,0,0,0-2.56-.17,14.59,14.59,0,0,0-2.09.15,6.66,6.66,0,0,0-2,.58,4.23,4.23,0,0,0-1.53,1.22,3.2,3.2,0,0,0-.61,2.05,3.52,3.52,0,0,0,1.5,3.27A7.8,7.8,0,0,0,490.7,302.62Z" transform="translate(-342.17 -280.72)"/><path class="cls-1" d="M449.49,293.6a15.67,15.67,0,0,1,.94-5.67,11.59,11.59,0,0,1,2.5-4,10,10,0,0,1,3.57-2.4,11.2,11.2,0,0,1,4.13-.8c3.29,0,5.82,1,7.57,3.08s2.63,5.18,2.63,9.37v.75a5.75,5.75,0,0,1,0,.83H454.05a9,9,0,0,0,2.21,5.78c1.29,1.31,3.29,2,6,2a15.84,15.84,0,0,0,3.88-.4,14.87,14.87,0,0,0,2.65-1l.61,3.67a14,14,0,0,1-3.08,1.12,19.71,19.71,0,0,1-4.53.43,14.44,14.44,0,0,1-5.52-.92,10.28,10.28,0,0,1-3.83-2.65,10.84,10.84,0,0,1-2.24-4A17.17,17.17,0,0,1,449.49,293.6Zm16.78-2.4a7.33,7.33,0,0,0-1.48-4.86,5.11,5.11,0,0,0-4.2-1.91,5.84,5.84,0,0,0-2.66.59,6.14,6.14,0,0,0-2,1.53,7.18,7.18,0,0,0-1.25,2.16,10.73,10.73,0,0,0-.58,2.49Z" transform="translate(-342.17 -280.72)"/></svg>