<?xml version="1.0" encoding="utf-8"?>
<!-- Generator: Adobe Illustrator 22.1.0, SVG Export Plug-In . SVG Version: 6.00 Build 0)  -->
<svg version="1.1" id="Ebene_1" xmlns="http://www.w3.org/2000/svg" xmlns:xlink="http://www.w3.org/1999/xlink" x="0px" y="0px"
	 viewBox="0 0 512 512" style="enable-background:new 0 0 512 512;" xml:space="preserve">
<title>ionicons-v5-l</title>
<g>
	<g>
		<path d="M256,48.6c-114.7,0-208,93.3-208,208c0,85.6,53.6,163.5,133.4,193.9c3.3,1.3,7.1,1.1,10.3-0.4c3.2-1.6,5.7-4.4,6.7-7.8
			l39-124.5c1.8-5.9-0.7-12.3-6.1-15.3c-16.9-9.3-27.4-26.9-27.4-45.8c0-28.7,23.3-52,52-52s52,23.3,52,52c0,19-10.5,36.5-27.4,45.8
			c-5.4,3-8,9.4-6.1,15.3l39,124.5c1.1,3.4,3.5,6.2,6.7,7.8c1.8,0.9,3.7,1.3,5.7,1.3c1.6,0,3.1-0.3,4.6-0.9
			C410.4,420.1,464,342.2,464,256.6C464,141.9,370.7,48.6,256,48.6z"/>
	</g>
</g>
</svg>
