<svg width="98" height="142" viewBox="0 0 98 142" fill="none" xmlns="http://www.w3.org/2000/svg">
<path d="M97.2299 45.67C97.1356 45.3824 97.0009 45.1097 96.8298 44.86C95.2998 41.03 91.2099 38.34 87.8799 36.62C83.0124 34.2302 77.4642 33.6114 72.1898 34.87C68.2598 35.87 65.9598 37.79 62.9398 40.39C63.8314 41.5408 64.6497 42.7465 65.3898 44C71.1398 53.87 73.9999 63.59 73.9499 73C76.3671 71.0848 79.2478 69.8428 82.2998 69.4H82.4099C82.5352 69.3835 82.6589 69.3568 82.7798 69.32L83.0399 69.25L83.2299 69.18L83.6398 69.03C85.357 68.3243 86.9688 67.3855 88.4298 66.24C93.2798 62.6 95.3698 58.43 96.8998 53.74C97.8564 51.1518 97.9719 48.3277 97.2299 45.67V45.67ZM95.8598 53.41C94.5398 57.41 92.6399 61.72 87.7899 65.35C86.8614 66.0497 85.8857 66.6845 84.8698 67.25C85.3898 66.57 85.9498 65.77 86.5198 64.86L86.6098 64.72C86.8798 64.28 87.1498 63.82 87.4198 63.33L87.4998 63.17C87.7398 62.72 87.9699 62.25 88.1999 61.77C88.2291 61.6981 88.2625 61.628 88.2998 61.56C88.5298 61.04 88.7499 60.56 88.9499 59.96C88.9499 59.86 89.0198 59.75 89.0598 59.64C89.2398 59.13 89.4098 58.64 89.5498 58.06L89.6098 57.87C89.7598 57.29 89.8798 56.69 89.9898 56.09L90.0498 55.67C90.1398 55.05 90.2098 54.41 90.2398 53.76C90.4961 53.2162 90.5765 52.6061 90.4697 52.0145C90.3629 51.4229 90.0743 50.8794 89.644 50.4595C89.2138 50.0397 88.6633 49.7645 88.0693 49.6722C87.4753 49.5799 86.8673 49.6752 86.33 49.9447C85.7926 50.2142 85.3527 50.6445 85.0714 51.1758C84.7902 51.7071 84.6816 52.3129 84.7608 52.9088C84.8401 53.5047 85.1031 54.061 85.5134 54.5004C85.9237 54.9398 86.4607 55.2402 87.0498 55.36C87.693 55.5332 88.3755 55.4875 88.9898 55.23C88.8983 55.8691 88.7748 56.5032 88.6198 57.13L88.5298 57.48C88.3798 58.07 88.2099 58.64 88.0099 59.2L87.8799 59.53C87.6799 60.08 87.4598 60.62 87.2198 61.13C87.2198 61.13 87.2198 61.13 87.2198 61.19C86.9698 61.72 86.7098 62.19 86.4398 62.71C86.3898 62.81 86.3398 62.91 86.2798 63.01C86.0198 63.47 85.7598 63.91 85.4998 64.33C85.4408 64.4095 85.3873 64.4931 85.3398 64.58C85.0698 64.98 84.8098 65.37 84.5498 65.73C84.2832 66.11 84.0232 66.4433 83.7698 66.73L83.6498 66.87C83.4098 67.18 83.1799 67.45 82.9799 67.7C80.9799 61.77 80.1198 55.83 80.6898 51.93C81.0298 49.61 81.9299 43.42 86.4499 41.93C87.096 41.7229 87.7714 41.6217 88.4499 41.63C92.1699 41.63 95.7898 44.43 96.2498 45.89C96.9409 48.3724 96.804 51.0124 95.8598 53.41V53.41Z" fill="white"/>
<path d="M63.5599 109.14C57.2769 97.7511 47.038 89.0598 34.7799 84.71C34.7073 87.722 34.9081 90.7343 35.3799 93.71C35.4299 94.08 35.4698 94.45 35.5198 94.83L35.5798 95.2C35.5798 95.46 35.6499 95.72 35.6899 95.98C35.7299 96.24 35.7399 96.29 35.7599 96.45C35.7799 96.61 35.8399 96.92 35.8799 97.17L35.9699 97.67C35.9699 97.91 36.0499 98.15 36.0999 98.38C36.1499 98.61 36.1599 98.73 36.1999 98.91L36.3499 99.65C36.3499 99.82 36.4198 99.99 36.4598 100.17L36.7299 101.36L36.8799 101.97L37.0498 102.65C37.1098 102.88 37.1698 103.11 37.2398 103.34C37.3098 103.57 37.3499 103.74 37.3999 103.94C37.4499 104.14 37.5399 104.43 37.6199 104.68C37.6999 104.93 37.7199 105.06 37.7799 105.25L38.0198 106.03C38.0798 106.2 38.1299 106.38 38.1899 106.55C38.2499 106.72 38.3699 107.11 38.4699 107.4C38.4699 107.52 38.5499 107.64 38.5999 107.76C38.9699 108.84 39.3798 109.93 39.8298 111.04L39.9499 111.34C40.0799 111.68 40.2299 112.01 40.3699 112.34C40.4299 112.46 40.4799 112.59 40.5299 112.71L40.9799 113.71L41.1499 114.07C41.3099 114.42 41.4799 114.78 41.6499 115.13C41.6824 115.212 41.7191 115.292 41.7599 115.37C42.5799 117.04 43.4798 118.72 44.4898 120.37L44.5999 120.56C44.8199 120.94 45.0598 121.32 45.2998 121.7L45.4699 121.98C45.7099 122.36 45.9598 122.74 46.2098 123.12C46.2598 123.2 46.3199 123.28 46.3699 123.37C46.6399 123.76 46.8999 124.16 47.1799 124.56V124.61C48.3899 126.35 49.7098 128.09 51.1798 129.82L51.3999 130.08L52.3499 131.19L52.6299 131.5C52.9499 131.87 53.2799 132.24 53.6299 132.6L53.8898 132.88L54.9699 134.03C57.5467 136.688 60.2924 139.176 63.1899 141.48C63.1899 141.48 73.2599 126.14 63.5599 109.14Z" fill="white"/>
<path d="M56.0598 95.67C54.5818 92.2528 52.4083 89.1809 49.6777 86.65C46.9471 84.1191 43.7193 82.1847 40.1999 80.97C38.3399 80.3033 36.5565 79.6 34.8499 78.86C34.8499 80.01 34.8499 81.21 34.8499 82.46L35.5498 82.71C43.281 85.4184 50.2947 89.8502 56.0598 95.67V95.67Z" fill="white"/>
<path d="M69.8799 85.67C74.8799 69.55 69.4499 55.17 63.5599 45.07C57.6699 34.97 44.5599 27.23 36.0999 24.07C27.6399 20.91 18.0999 14 18.0999 14L17.3799 13.51L17.0798 13.3L16.6899 13.02L16.3699 12.79L16.0299 12.53C15.9199 12.46 15.8299 12.38 15.7199 12.3L15.3898 12.05L15.1098 11.83L14.7698 11.56L14.5198 11.36L14.1698 11.08L13.9598 10.9L13.5798 10.57L13.4198 10.44L12.9298 10C9.25985 6.68 7.29985 3.62 4.36985 0C3.0059 3.08163 1.99934 6.30932 1.36985 9.62C2.48985 11.62 5.73987 16.51 12.9499 21.88L13.3898 22.2L13.8998 22.58L14.3799 22.91L14.8998 23.27C15.0998 23.42 15.3199 23.56 15.5299 23.71L16.2199 24.16L16.9499 24.63L17.4399 24.94L18.1398 25.37L18.6098 25.66L19.6098 26.25L19.9598 26.46L21.0498 27.06L21.4999 27.31L22.4399 27.81L22.8898 28.04L24.2499 28.73H24.3298L25.7499 29.41L26.2098 29.62L27.3399 30.14L27.7998 30.34L29.3998 31.03C31.1198 31.75 36.3398 33.87 36.3998 33.89L42.8699 36.52L36.1599 34.6C35.9299 34.53 30.6199 33.01 28.8399 32.36L27.3799 31.81L26.9499 31.64C26.6099 31.51 26.2799 31.38 25.9499 31.24L25.4799 31.05L24.4799 30.63L24.1199 30.48L22.8399 29.91L22.5099 29.76L21.5899 29.33L21.1299 29.11L20.3499 28.72L19.9099 28.5L19.0599 28.14L18.7299 27.97L17.7299 27.42L17.2799 27.16C17.0699 27.05 16.8698 26.93 16.6698 26.81L16.1899 26.54L15.6198 26.19L15.1798 25.92L14.3998 25.44L13.8598 25.09L13.3598 24.76L12.9099 24.45C8.1303 21.3515 4.02783 17.3171 0.84986 12.59C0.016436 18.0281 -0.204949 23.5425 0.189857 29.03C5.95718 34.1475 12.4895 38.3314 19.5498 41.43L19.6599 41.48L20.8898 42.02L21.0798 42.1C21.9798 42.48 22.8999 42.85 23.8499 43.22L24.1999 43.35L25.2799 43.75L25.6798 43.89C26.1498 44.06 26.6299 44.23 27.1199 44.39L30.7599 45.67L34.1098 46.86L30.5798 46.39C30.4598 46.39 27.5798 45.99 26.5798 45.76L24.5798 45.25L24.1398 45.13L22.3998 44.62L21.7998 44.43L20.6299 44.04L19.4999 43.64L18.6698 43.34L17.7299 42.97L17.3598 42.83L16.5599 42.5C10.6882 40.07 5.25587 36.6917 0.479865 32.5C0.982967 36.9141 1.91741 41.2682 3.26984 45.5C3.59984 46.5 3.96984 47.5 4.35984 48.5C9.31306 50.7806 14.4912 52.5368 19.8099 53.74C20.7599 53.95 23.3998 54.62 23.9898 54.74H24.1098L27.9499 55.74L23.9499 55.5C23.8199 55.5 20.5898 55.3 19.4898 55.14C14.7477 54.4676 10.0998 53.2461 5.63984 51.5C12.1998 65.16 24.4198 72.86 40.8598 78.98C46.1471 80.849 50.7848 84.2 54.2194 88.6329C57.6541 93.0659 59.7406 98.3935 60.2299 103.98C60.4756 103.788 60.7063 103.577 60.9198 103.35C61.1698 103.12 61.4498 102.83 61.7398 102.51C63.4298 100.51 66.4798 96.04 69.3998 87.09L69.4598 86.88C69.6132 86.4933 69.7532 86.09 69.8799 85.67Z" fill="white"/>
</svg>
