<?xml version="1.0" encoding="UTF-8" standalone="no"?>
<svg
   xmlns:dc="http://purl.org/dc/elements/1.1/"
   xmlns:cc="http://creativecommons.org/ns#"
   xmlns:rdf="http://www.w3.org/1999/02/22-rdf-syntax-ns#"
   xmlns:svg="http://www.w3.org/2000/svg"
   xmlns="http://www.w3.org/2000/svg"
   xmlns:sodipodi="http://sodipodi.sourceforge.net/DTD/sodipodi-0.dtd"
   xmlns:inkscape="http://www.inkscape.org/namespaces/inkscape"
   width="512"
   height="512"
   viewBox="0 0 512 512"
   version="1.1"
   id="svg2301"
   sodipodi:docname="plugnplay.svg"
   inkscape:version="0.92.4 (5da689c313, 2019-01-14)">
  <metadata
     id="metadata2307">
    <rdf:RDF>
      <cc:Work
         rdf:about="">
        <dc:format>image/svg+xml</dc:format>
        <dc:type
           rdf:resource="http://purl.org/dc/dcmitype/StillImage" />
      </cc:Work>
    </rdf:RDF>
  </metadata>
  <defs
     id="defs2305" />
  <sodipodi:namedview
     pagecolor="#ffffff"
     bordercolor="#666666"
     borderopacity="1"
     objecttolerance="10"
     gridtolerance="10"
     guidetolerance="10"
     inkscape:pageopacity="0"
     inkscape:pageshadow="2"
     inkscape:window-width="2792"
     inkscape:window-height="1698"
     id="namedview2303"
     showgrid="false"
     inkscape:zoom="1.84375"
     inkscape:cx="197.40859"
     inkscape:cy="189.60843"
     inkscape:window-x="88"
     inkscape:window-y="44"
     inkscape:window-maximized="1"
     inkscape:current-layer="svg2301" />
  <title
     id="title2295">ionicons-v5-h</title>
  <circle
     cx="248"
     cy="56"
     r="40"
     style="fill:none;stroke:#000;stroke-miterlimit:10;stroke-width:12;stroke-dasharray:none"
     id="circle2297" />
  <path
     d="M199.3,295.62h0l-30.4,172.2a24,24,0,0,0,19.5,27.8,23.76,23.76,0,0,0,27.6-19.5l21-119.9v.2s5.2-32.5,17.5-32.5h3.1c12.5,0,17.5,32.5,17.5,32.5v-.1l21,119.9a23.92,23.92,0,1,0,47.1-8.4l-30.4-172.2-4.9-29.7c-2.9-18.1-4.2-47.6.5-59.7,4-10.4,14.13-14.2,23.2-14.2H424a24,24,0,0,0,0-48H88a24,24,0,0,0,0,48h92.5c9.23,0,19.2,3.8,23.2,14.2,4.7,12.1,3.4,41.6.5,59.7Z"
     style="fill:none;stroke:#000;stroke-miterlimit:10;stroke-width:12;stroke-dasharray:none"
     id="path2299" />
</svg>
