<?xml version="1.0" encoding="utf-8"?>
<!-- Generator: Adobe Illustrator 22.1.0, SVG Export Plug-In . SVG Version: 6.00 Build 0)  -->
<svg version="1.1" id="Ebene_1" xmlns="http://www.w3.org/2000/svg" xmlns:xlink="http://www.w3.org/1999/xlink" x="0px" y="0px"
	 viewBox="0 0 448 512" style="enable-background:new 0 0 448 512;" xml:space="preserve">
<style type="text/css">
	.st0{fill:#1D1D1B;}
</style>
<path class="st0" d="M224.2,32c-123.7,0-224,100.3-224,224s100.3,224,224,224s224-100.3,224-224S348,32,224.2,32z M334.2,185.5
	l-36.7,173.2c-2.6,12.3-10,15.3-20.3,9.6l-90.3-66.7l103.8-93.9c4.6-4-0.9-6-7-2.3l-128.2,80.9L100.1,269
	c-11.9-3.7-12-11.9,2.7-17.8L318.6,168C328.5,163.6,338,170.4,334.2,185.5z"/>
</svg>
