<?xml version="1.0" encoding="utf-8"?>
<!-- Generator: Adobe Illustrator 19.0.0, SVG Export Plug-In . SVG Version: 6.00 Build 0)  -->
<svg version="1.1" id="Layer_1" xmlns="http://www.w3.org/2000/svg" xmlns:xlink="http://www.w3.org/1999/xlink" x="0px" y="0px"
	 viewBox="-195.8 289.3 238.1 147.4" style="enable-background:new -195.8 289.3 238.1 147.4;" xml:space="preserve">
<style type="text/css">
	.st0{fill:url(#cloud_5_);}
	.st1{fill:#418B83;}
	.st2{opacity:0.9;fill:#FFFFFF;}
	.st3{opacity:0.9;fill:url(#cloud_6_);}
	.st4{fill:#FFFFFF;}
	.st5{opacity:0.9;fill:url(#cloud_7_);}
</style>
<g id="XMLID_27_">
</g>
<g id="XMLID_28_">
</g>
<g id="XMLID_29_">
</g>
<g id="XMLID_30_">
</g>
<g id="XMLID_31_">
</g>
<g id="XMLID_32_">
</g>
<g id="XMLID_34_">
</g>
<g id="XMLID_35_">
</g>
<g id="XMLID_36_">
</g>
<g id="XMLID_37_">
</g>
<g id="XMLID_38_">
</g>
<g id="XMLID_39_">
</g>
<g id="XMLID_40_">
</g>
<g id="XMLID_41_">
</g>
<g id="XMLID_6_">
	<linearGradient id="cloud_5_" gradientUnits="userSpaceOnUse" x1="-145.3933" y1="312.9507" x2="-0.6428" y2="457.7012">
		<stop  offset="0" style="stop-color:#E2EAE4"/>
		<stop  offset="1" style="stop-color:#CDE2D9"/>
	</linearGradient>
	<path id="cloud_2_" class="st0" d="M-148.8,436.7H4.7c20.8,0,37.6-16.7,37.6-37.4c0-16.9-11.3-31.1-26.7-35.8
		c0.4-2.9,0.6-5.9,0.6-8.9c0-36.1-29.5-65.4-65.8-65.4c-22,0-41.6,10.8-53.5,27.3c-6.3-4.8-14.2-7.6-22.7-7.6
		c-20.5,0-37.2,16.3-37.6,36.6c-18.8,6.1-32.4,23.7-32.4,44.4C-195.8,415.8-174.8,436.7-148.8,436.7z"/>
	<g>
		<path class="st1" d="M-105.9,431.5c-0.2-0.4-0.5-0.9-0.7-1.4c-0.2-0.5-0.4-1-0.6-1.5c-0.2-0.5-0.4-1-0.5-1.5
			c-0.2-0.5-0.3-1-0.4-1.5h0.8c0.1,0.4,0.2,0.7,0.3,1.1c0.1,0.4,0.3,0.8,0.4,1.3c0.2,0.4,0.3,0.9,0.5,1.3c0.2,0.5,0.4,0.9,0.6,1.3
			c0.2-0.5,0.3-0.9,0.4-1.3c0.1-0.4,0.2-0.8,0.4-1.2s0.2-0.8,0.3-1.2c0.1-0.4,0.2-0.9,0.3-1.4h0.7c-0.2,1.1-0.5,2.1-0.8,3.1
			c-0.3,1-0.6,1.9-1,2.8c-0.1,0.3-0.3,0.6-0.4,0.9c-0.1,0.2-0.3,0.4-0.5,0.6c-0.2,0.2-0.4,0.3-0.6,0.3c-0.2,0.1-0.5,0.1-0.8,0.1
			c-0.2,0-0.4,0-0.5-0.1c-0.2,0-0.2-0.1-0.3-0.1l0.1-0.6c0,0,0.1,0.1,0.2,0.1c0.1,0,0.3,0.1,0.4,0.1c0.2,0,0.4,0,0.6-0.1
			c0.2,0,0.3-0.1,0.4-0.2c0.1-0.1,0.3-0.2,0.4-0.4S-106,431.7-105.9,431.5z"/>
		<path class="st1" d="M-97.4,428.5c0,0.4-0.1,0.9-0.2,1.2c-0.1,0.4-0.3,0.7-0.5,0.9c-0.2,0.3-0.5,0.5-0.8,0.6
			c-0.3,0.1-0.7,0.2-1,0.2c-0.4,0-0.7-0.1-1-0.2c-0.3-0.1-0.6-0.3-0.8-0.6c-0.2-0.3-0.4-0.6-0.5-0.9c-0.1-0.4-0.2-0.8-0.2-1.2
			s0.1-0.9,0.2-1.2c0.1-0.4,0.3-0.7,0.5-0.9c0.2-0.3,0.5-0.5,0.8-0.6c0.3-0.1,0.7-0.2,1-0.2c0.4,0,0.7,0.1,1,0.2
			c0.3,0.1,0.6,0.3,0.8,0.6c0.2,0.3,0.4,0.6,0.5,0.9C-97.5,427.6-97.4,428-97.4,428.5z M-98.1,428.5c0-0.7-0.2-1.3-0.5-1.7
			c-0.3-0.4-0.8-0.6-1.3-0.6c-0.6,0-1,0.2-1.3,0.6c-0.3,0.4-0.5,1-0.5,1.7c0,0.7,0.2,1.3,0.5,1.7s0.8,0.6,1.3,0.6
			c0.6,0,1-0.2,1.3-0.6S-98.1,429.2-98.1,428.5z"/>
		<path class="st1" d="M-91.5,431.1c-0.2,0.1-0.5,0.1-0.9,0.2s-0.8,0.1-1.3,0.1c-0.4,0-0.8-0.1-1.1-0.2c-0.3-0.1-0.5-0.3-0.7-0.5
			c-0.2-0.2-0.3-0.5-0.4-0.8c-0.1-0.3-0.1-0.7-0.1-1.1v-3.2h0.7v3c0,0.4,0,0.7,0.1,1s0.2,0.5,0.3,0.7c0.1,0.2,0.3,0.3,0.5,0.4
			c0.2,0.1,0.5,0.1,0.8,0.1c0.3,0,0.6,0,0.9-0.1c0.2,0,0.4-0.1,0.5-0.1v-5h0.7V431.1z"/>
		<path class="st1" d="M-87.6,425.5c0.2,0,0.5,0,0.7,0.1s0.4,0.1,0.4,0.1l-0.1,0.6c-0.1,0-0.2-0.1-0.4-0.1c-0.2,0-0.4,0-0.7,0
			c-0.3,0-0.6,0-0.7,0.1c-0.2,0-0.3,0.1-0.4,0.1v5h-0.7v-5.4c0.2-0.1,0.4-0.2,0.8-0.2C-88.5,425.6-88.1,425.5-87.6,425.5z"/>
		<path class="st1" d="M-81.8,430.8c0.4,0,0.7-0.1,1-0.2c0.3-0.1,0.4-0.4,0.4-0.7c0-0.2,0-0.3-0.1-0.4c0-0.1-0.1-0.2-0.2-0.3
			c-0.1-0.1-0.3-0.2-0.4-0.3c-0.2-0.1-0.4-0.2-0.7-0.3c-0.2-0.1-0.4-0.2-0.6-0.3c-0.2-0.1-0.4-0.2-0.5-0.3s-0.3-0.3-0.4-0.4
			s-0.1-0.4-0.1-0.6c0-0.5,0.2-0.8,0.5-1.1c0.3-0.3,0.8-0.4,1.4-0.4c0.4,0,0.7,0,1,0.1c0.3,0.1,0.4,0.1,0.5,0.2l-0.2,0.6
			c-0.1,0-0.2-0.1-0.4-0.2s-0.5-0.1-0.9-0.1c-0.2,0-0.3,0-0.5,0c-0.1,0-0.3,0.1-0.4,0.2c-0.1,0.1-0.2,0.2-0.3,0.3
			c-0.1,0.1-0.1,0.2-0.1,0.4c0,0.2,0,0.3,0.1,0.4s0.1,0.2,0.3,0.3c0.1,0.1,0.3,0.2,0.4,0.2s0.4,0.2,0.6,0.2c0.2,0.1,0.4,0.2,0.6,0.3
			c0.2,0.1,0.4,0.2,0.5,0.3c0.2,0.1,0.3,0.3,0.4,0.5s0.1,0.4,0.1,0.7c0,0.5-0.2,0.9-0.6,1.2c-0.4,0.3-0.9,0.4-1.6,0.4
			c-0.5,0-0.9,0-1.1-0.1c-0.3-0.1-0.4-0.1-0.5-0.2l0.2-0.6c0,0,0.1,0,0.1,0.1s0.2,0.1,0.3,0.1c0.1,0,0.3,0.1,0.4,0.1
			C-82.2,430.8-82,430.8-81.8,430.8z"/>
		<path class="st1" d="M-78.6,428.5c0-0.5,0.1-0.9,0.2-1.3c0.1-0.4,0.3-0.7,0.6-0.9c0.2-0.2,0.5-0.4,0.8-0.6s0.6-0.2,0.9-0.2
			c0.7,0,1.3,0.2,1.7,0.7c0.4,0.5,0.6,1.2,0.6,2.1c0,0.1,0,0.1,0,0.2c0,0.1,0,0.1,0,0.2h-4c0,0.7,0.2,1.2,0.5,1.6s0.8,0.6,1.5,0.6
			c0.4,0,0.7,0,0.9-0.1c0.2-0.1,0.4-0.1,0.5-0.2l0.1,0.6c-0.1,0.1-0.3,0.1-0.6,0.2c-0.3,0.1-0.6,0.1-1,0.1c-0.5,0-0.9-0.1-1.3-0.2
			c-0.4-0.1-0.6-0.4-0.9-0.6c-0.2-0.3-0.4-0.6-0.5-0.9C-78.5,429.3-78.6,428.9-78.6,428.5z M-74.6,428c0-0.6-0.2-1.1-0.4-1.4
			c-0.3-0.3-0.6-0.5-1.1-0.5c-0.3,0-0.5,0.1-0.7,0.2c-0.2,0.1-0.4,0.2-0.5,0.4c-0.2,0.2-0.3,0.4-0.4,0.6c-0.1,0.2-0.1,0.5-0.1,0.7
			H-74.6z"/>
		<path class="st1" d="M-70.3,425.5c0.2,0,0.5,0,0.7,0.1s0.4,0.1,0.4,0.1l-0.1,0.6c-0.1,0-0.2-0.1-0.4-0.1c-0.2,0-0.4,0-0.7,0
			c-0.3,0-0.6,0-0.7,0.1c-0.2,0-0.3,0.1-0.4,0.1v5h-0.7v-5.4c0.2-0.1,0.4-0.2,0.8-0.2C-71.1,425.6-70.7,425.5-70.3,425.5z"/>
		<path class="st1" d="M-66.2,430.6c0.2-0.3,0.3-0.7,0.5-1.1s0.3-0.8,0.5-1.3c0.2-0.4,0.3-0.9,0.4-1.3c0.1-0.4,0.2-0.9,0.3-1.2h0.7
			c-0.1,0.5-0.3,1-0.4,1.5s-0.3,1-0.5,1.5c-0.2,0.5-0.4,0.9-0.6,1.4c-0.2,0.4-0.4,0.9-0.6,1.3h-0.7c-0.2-0.4-0.4-0.8-0.6-1.3
			c-0.2-0.4-0.4-0.9-0.6-1.4c-0.2-0.5-0.4-1-0.5-1.5c-0.2-0.5-0.3-1-0.4-1.5h0.8c0.1,0.4,0.2,0.8,0.3,1.2c0.1,0.4,0.3,0.9,0.4,1.3
			c0.2,0.4,0.3,0.9,0.5,1.3C-66.5,429.9-66.3,430.2-66.2,430.6z"/>
		<path class="st1" d="M-61.7,423.9c0,0.2-0.1,0.3-0.2,0.4c-0.1,0.1-0.2,0.1-0.4,0.1s-0.3,0-0.4-0.1c-0.1-0.1-0.2-0.2-0.2-0.4
			s0.1-0.3,0.2-0.4s0.2-0.1,0.4-0.1s0.3,0,0.4,0.1S-61.7,423.8-61.7,423.9z M-61.9,431.3h-0.7v-5.7h0.7V431.3z"/>
		<path class="st1" d="M-57.6,431.5c-0.4,0-0.8-0.1-1.2-0.2c-0.3-0.1-0.6-0.3-0.8-0.6c-0.2-0.3-0.4-0.6-0.5-0.9
			c-0.1-0.4-0.2-0.8-0.2-1.2c0-0.4,0.1-0.9,0.2-1.2c0.1-0.4,0.3-0.7,0.5-0.9c0.2-0.3,0.5-0.5,0.8-0.6c0.3-0.1,0.7-0.2,1.1-0.2
			c0.3,0,0.6,0,0.9,0.1c0.3,0.1,0.5,0.1,0.6,0.2l-0.2,0.6c-0.1-0.1-0.3-0.1-0.5-0.2c-0.2,0-0.4-0.1-0.7-0.1c-0.6,0-1.1,0.2-1.4,0.6
			s-0.5,1-0.5,1.7c0,0.3,0,0.6,0.1,0.9s0.2,0.5,0.4,0.7c0.2,0.2,0.4,0.4,0.6,0.5c0.3,0.1,0.6,0.2,1,0.2c0.3,0,0.6,0,0.8-0.1
			c0.2-0.1,0.4-0.1,0.5-0.2l0.2,0.6c-0.1,0.1-0.3,0.1-0.6,0.2C-57,431.4-57.3,431.5-57.6,431.5z"/>
		<path class="st1" d="M-55.3,428.5c0-0.5,0.1-0.9,0.2-1.3c0.1-0.4,0.3-0.7,0.6-0.9c0.2-0.2,0.5-0.4,0.8-0.6s0.6-0.2,0.9-0.2
			c0.7,0,1.3,0.2,1.7,0.7c0.4,0.5,0.6,1.2,0.6,2.1c0,0.1,0,0.1,0,0.2c0,0.1,0,0.1,0,0.2h-4c0,0.7,0.2,1.2,0.5,1.6s0.8,0.6,1.5,0.6
			c0.4,0,0.7,0,0.9-0.1c0.2-0.1,0.4-0.1,0.5-0.2l0.1,0.6c-0.1,0.1-0.3,0.1-0.6,0.2c-0.3,0.1-0.6,0.1-1,0.1c-0.5,0-0.9-0.1-1.3-0.2
			c-0.4-0.1-0.6-0.4-0.9-0.6c-0.2-0.3-0.4-0.6-0.5-0.9C-55.2,429.3-55.3,428.9-55.3,428.5z M-51.2,428c0-0.6-0.2-1.1-0.4-1.4
			c-0.3-0.3-0.6-0.5-1.1-0.5c-0.3,0-0.5,0.1-0.7,0.2c-0.2,0.1-0.4,0.2-0.5,0.4c-0.2,0.2-0.3,0.4-0.4,0.6c-0.1,0.2-0.1,0.5-0.1,0.7
			H-51.2z"/>
		<path class="st1" d="M-47.7,430.8c0.4,0,0.7-0.1,1-0.2c0.3-0.1,0.4-0.4,0.4-0.7c0-0.2,0-0.3-0.1-0.4c0-0.1-0.1-0.2-0.2-0.3
			c-0.1-0.1-0.3-0.2-0.4-0.3c-0.2-0.1-0.4-0.2-0.7-0.3c-0.2-0.1-0.4-0.2-0.6-0.3c-0.2-0.1-0.4-0.2-0.5-0.3s-0.3-0.3-0.4-0.4
			s-0.1-0.4-0.1-0.6c0-0.5,0.2-0.8,0.5-1.1c0.3-0.3,0.8-0.4,1.4-0.4c0.4,0,0.7,0,1,0.1c0.3,0.1,0.4,0.1,0.5,0.2l-0.2,0.6
			c-0.1,0-0.2-0.1-0.4-0.2s-0.5-0.1-0.9-0.1c-0.2,0-0.3,0-0.5,0c-0.1,0-0.3,0.1-0.4,0.2c-0.1,0.1-0.2,0.2-0.3,0.3
			c-0.1,0.1-0.1,0.2-0.1,0.4c0,0.2,0,0.3,0.1,0.4s0.1,0.2,0.3,0.3c0.1,0.1,0.3,0.2,0.4,0.2s0.4,0.2,0.6,0.2c0.2,0.1,0.4,0.2,0.6,0.3
			c0.2,0.1,0.4,0.2,0.5,0.3c0.2,0.1,0.3,0.3,0.4,0.5s0.1,0.4,0.1,0.7c0,0.5-0.2,0.9-0.6,1.2c-0.4,0.3-0.9,0.4-1.6,0.4
			c-0.5,0-0.9,0-1.1-0.1c-0.3-0.1-0.4-0.1-0.5-0.2l0.2-0.6c0,0,0.1,0,0.1,0.1s0.2,0.1,0.3,0.1c0.1,0,0.3,0.1,0.4,0.1
			C-48.2,430.8-48,430.8-47.7,430.8z"/>
	</g>
	<path id="cloud_1_" class="st2" d="M-130.8,420.3h115.1c15.6,0,28.2-12.5,28.2-28c0-12.7-8.4-23.4-20-26.8c0.3-2.2,0.4-4.4,0.4-6.6
		c0-27.1-22.1-49-49.3-49c-16.5,0-31.2,8.1-40.1,20.5c-4.7-3.6-10.6-5.7-17.1-5.7c-15.4,0-27.9,12.2-28.2,27.4
		c-14.1,4.6-24.3,17.8-24.3,33.3C-166.1,404.6-150.3,420.3-130.8,420.3z"/>
	
		<linearGradient id="cloud_6_" gradientUnits="userSpaceOnUse" x1="-219.7664" y1="405.4197" x2="-219.1954" y2="404.5028" gradientTransform="matrix(231.2113 0 0 -144 50659.4883 58683.1602)">
		<stop  offset="0" style="stop-color:#7BC09A"/>
		<stop  offset="0.3392" style="stop-color:#77BF9C"/>
		<stop  offset="0.6916" style="stop-color:#6ABDA4"/>
		<stop  offset="1" style="stop-color:#59BAAE"/>
	</linearGradient>
	<path id="cloud_4_" class="st3" d="M-130.8,420.3h115.1c15.6,0,28.2-12.5,28.2-28c0-12.7-8.4-23.4-20-26.8c0.3-2.2,0.4-4.4,0.4-6.6
		c0-27.1-22.1-49-49.3-49c-16.5,0-31.2,8.1-40.1,20.5c-4.7-3.6-10.6-5.7-17.1-5.7c-15.4,0-27.9,12.2-28.2,27.4
		c-14.1,4.6-24.3,17.8-24.3,33.3C-166.1,404.6-150.3,420.3-130.8,420.3z"/>
	<g>
		<path class="st4" d="M-106.9,410c0.2-0.1,0.5-0.1,0.9-0.2s0.8-0.1,1.3-0.1c0.4,0,0.8,0.1,1.1,0.2c0.3,0.1,0.5,0.3,0.7,0.5
			c0.2,0.2,0.3,0.5,0.4,0.8c0.1,0.3,0.1,0.7,0.1,1.1v3.2h-0.7v-2.9c0-0.4,0-0.7-0.1-1c-0.1-0.3-0.1-0.5-0.3-0.7
			c-0.1-0.2-0.3-0.3-0.5-0.4s-0.5-0.1-0.8-0.1c-0.3,0-0.6,0-0.9,0.1c-0.2,0-0.4,0.1-0.5,0.1v5h-0.7V410z"/>
		<path class="st4" d="M-99.2,415.6c-0.2-0.4-0.5-0.9-0.7-1.4s-0.4-1-0.6-1.5c-0.2-0.5-0.4-1-0.5-1.5c-0.2-0.5-0.3-1-0.4-1.5h0.8
			c0.1,0.4,0.2,0.7,0.3,1.1c0.1,0.4,0.3,0.8,0.4,1.3c0.2,0.4,0.3,0.9,0.5,1.3s0.4,0.9,0.6,1.3c0.2-0.5,0.3-0.9,0.4-1.3
			c0.1-0.4,0.2-0.8,0.4-1.2s0.2-0.8,0.3-1.2c0.1-0.4,0.2-0.9,0.3-1.4h0.7c-0.2,1.1-0.5,2.1-0.8,3.1s-0.6,1.9-1,2.8
			c-0.1,0.3-0.3,0.6-0.4,0.9c-0.1,0.2-0.3,0.4-0.5,0.6s-0.4,0.3-0.6,0.3c-0.2,0.1-0.5,0.1-0.8,0.1c-0.2,0-0.4,0-0.5-0.1
			c-0.2,0-0.2-0.1-0.3-0.1l0.1-0.6c0,0,0.1,0.1,0.2,0.1c0.1,0,0.3,0.1,0.4,0.1c0.2,0,0.4,0,0.6-0.1c0.2,0,0.3-0.1,0.4-0.2
			c0.1-0.1,0.3-0.2,0.4-0.4C-99.4,416.1-99.3,415.9-99.2,415.6z"/>
		<path class="st4" d="M-95.5,410c0.2-0.1,0.5-0.1,0.8-0.2s0.8-0.1,1.3-0.1c0.7,0,1.2,0.2,1.6,0.6c0,0,0.1-0.1,0.2-0.1
			c0.1-0.1,0.2-0.1,0.4-0.2c0.2-0.1,0.3-0.1,0.6-0.2c0.2-0.1,0.5-0.1,0.7-0.1c0.4,0,0.8,0.1,1,0.2c0.3,0.1,0.5,0.3,0.6,0.5
			c0.1,0.2,0.2,0.5,0.3,0.8c0.1,0.3,0.1,0.7,0.1,1.1v3.2h-0.7v-2.9c0-0.4,0-0.7,0-1c0-0.3-0.1-0.5-0.2-0.7s-0.2-0.3-0.4-0.4
			c-0.2-0.1-0.4-0.1-0.7-0.1c-0.2,0-0.4,0-0.6,0.1c-0.2,0-0.3,0.1-0.5,0.1s-0.2,0.1-0.3,0.2c-0.1,0.1-0.1,0.1-0.2,0.1
			c0.1,0.2,0.1,0.4,0.1,0.6c0,0.2,0,0.5,0,0.8v3.2H-92v-2.9c0-0.4,0-0.7,0-1c0-0.3-0.1-0.5-0.2-0.7s-0.2-0.3-0.4-0.4
			c-0.2-0.1-0.4-0.1-0.7-0.1c-0.3,0-0.6,0-0.9,0.1c-0.2,0-0.4,0.1-0.5,0.1v5h-0.7V410z"/>
		<path class="st4" d="M-86.4,412.6c0-0.5,0.1-0.9,0.2-1.3c0.1-0.4,0.3-0.7,0.6-0.9c0.2-0.2,0.5-0.4,0.8-0.6
			c0.3-0.1,0.6-0.2,0.9-0.2c0.7,0,1.3,0.2,1.7,0.7c0.4,0.5,0.6,1.2,0.6,2.1c0,0.1,0,0.1,0,0.2c0,0.1,0,0.1,0,0.2h-4
			c0,0.7,0.2,1.2,0.5,1.6s0.8,0.6,1.5,0.6c0.4,0,0.7,0,0.9-0.1s0.4-0.1,0.5-0.2l0.1,0.6c-0.1,0.1-0.3,0.1-0.6,0.2
			c-0.3,0.1-0.6,0.1-1,0.1c-0.5,0-0.9-0.1-1.3-0.2s-0.6-0.4-0.9-0.6s-0.4-0.6-0.5-0.9S-86.4,413.1-86.4,412.6z M-82.3,412.2
			c0-0.6-0.2-1.1-0.4-1.4c-0.3-0.3-0.6-0.5-1.1-0.5c-0.3,0-0.5,0.1-0.7,0.2c-0.2,0.1-0.4,0.2-0.5,0.4c-0.2,0.2-0.3,0.4-0.4,0.6
			c-0.1,0.2-0.1,0.5-0.1,0.7H-82.3z"/>
		<path class="st4" d="M-78.3,409.7c0.4,0,0.7,0.1,1,0.2c0.3,0.1,0.5,0.3,0.6,0.4c0.2,0.2,0.3,0.4,0.4,0.7c0.1,0.3,0.1,0.5,0.1,0.8
			v3.6c-0.1,0-0.2,0-0.3,0.1c-0.1,0-0.3,0.1-0.5,0.1s-0.4,0.1-0.6,0.1s-0.5,0-0.7,0c-0.3,0-0.6,0-0.8-0.1c-0.3-0.1-0.5-0.2-0.7-0.3
			c-0.2-0.1-0.3-0.3-0.4-0.5s-0.2-0.5-0.2-0.8c0-0.3,0.1-0.6,0.2-0.8c0.1-0.2,0.3-0.4,0.5-0.5c0.2-0.1,0.5-0.2,0.8-0.3
			c0.3-0.1,0.6-0.1,1-0.1c0.1,0,0.2,0,0.3,0c0.1,0,0.2,0,0.3,0c0.1,0,0.2,0,0.3,0.1s0.1,0,0.2,0v-0.4c0-0.2,0-0.4,0-0.6
			c0-0.2-0.1-0.4-0.2-0.5c-0.1-0.1-0.2-0.3-0.4-0.4s-0.4-0.1-0.7-0.1c-0.4,0-0.7,0-0.9,0.1s-0.4,0.1-0.5,0.1l-0.1-0.6
			c0.1-0.1,0.3-0.1,0.6-0.2C-78.9,409.7-78.6,409.7-78.3,409.7z M-78.2,415c0.3,0,0.5,0,0.7,0s0.4,0,0.5-0.1v-2
			c-0.1,0-0.2-0.1-0.4-0.1c-0.2,0-0.4-0.1-0.7-0.1c-0.2,0-0.4,0-0.5,0c-0.2,0-0.4,0.1-0.5,0.2c-0.2,0.1-0.3,0.2-0.4,0.3
			c-0.1,0.1-0.2,0.3-0.2,0.6c0,0.2,0,0.4,0.1,0.5c0.1,0.1,0.2,0.3,0.3,0.4c0.1,0.1,0.3,0.2,0.5,0.2C-78.6,415-78.4,415-78.2,415z"/>
		<path class="st4" d="M-73.4,410.4c0,0.2-0.1,0.3-0.2,0.4c-0.1,0.1-0.3,0.2-0.4,0.2c-0.2,0-0.3-0.1-0.4-0.2s-0.2-0.3-0.2-0.4
			c0-0.2,0.1-0.3,0.2-0.4s0.3-0.2,0.4-0.2c0.2,0,0.3,0.1,0.4,0.2C-73.4,410.1-73.4,410.2-73.4,410.4z M-73.4,415
			c0,0.2-0.1,0.3-0.2,0.4c-0.1,0.1-0.3,0.2-0.4,0.2c-0.2,0-0.3-0.1-0.4-0.2s-0.2-0.3-0.2-0.4s0.1-0.3,0.2-0.4s0.3-0.2,0.4-0.2
			c0.2,0,0.3,0.1,0.4,0.2C-73.4,414.7-73.4,414.9-73.4,415z"/>
		<path class="st4" d="M-69.3,415.6c-0.4,0-0.8-0.1-1.2-0.2c-0.3-0.1-0.6-0.3-0.8-0.6c-0.2-0.3-0.4-0.6-0.5-0.9s-0.2-0.8-0.2-1.2
			c0-0.4,0.1-0.9,0.2-1.2c0.1-0.4,0.3-0.7,0.5-0.9c0.2-0.3,0.5-0.5,0.8-0.6c0.3-0.1,0.7-0.2,1.1-0.2c0.3,0,0.6,0,0.9,0.1
			c0.3,0.1,0.5,0.1,0.6,0.2l-0.2,0.6c-0.1-0.1-0.3-0.1-0.5-0.2c-0.2,0-0.4-0.1-0.7-0.1c-0.6,0-1.1,0.2-1.4,0.6
			c-0.3,0.4-0.5,1-0.5,1.7c0,0.3,0,0.6,0.1,0.9s0.2,0.5,0.4,0.7c0.2,0.2,0.4,0.4,0.6,0.5c0.3,0.1,0.6,0.2,1,0.2c0.3,0,0.6,0,0.8-0.1
			c0.2-0.1,0.4-0.1,0.5-0.2l0.2,0.6c-0.1,0.1-0.3,0.1-0.6,0.2S-69,415.6-69.3,415.6z"/>
		<path class="st4" d="M-65.2,415.6c-0.2,0-0.5,0-0.6-0.1s-0.3-0.1-0.5-0.3c-0.1-0.1-0.2-0.3-0.3-0.4s-0.1-0.4-0.1-0.7v-7l0.7-0.1
			v7.2c0,0.2,0,0.3,0,0.4s0.1,0.2,0.1,0.3c0.1,0.1,0.2,0.1,0.3,0.1s0.2,0.1,0.4,0.1L-65.2,415.6z"/>
		<path class="st4" d="M-59,412.7c0,0.4-0.1,0.9-0.2,1.2c-0.1,0.4-0.3,0.7-0.5,0.9c-0.2,0.3-0.5,0.5-0.8,0.6c-0.3,0.1-0.7,0.2-1,0.2
			c-0.4,0-0.7-0.1-1-0.2c-0.3-0.1-0.6-0.3-0.8-0.6c-0.2-0.3-0.4-0.6-0.5-0.9c-0.1-0.4-0.2-0.8-0.2-1.2s0.1-0.9,0.2-1.2
			c0.1-0.4,0.3-0.7,0.5-0.9c0.2-0.3,0.5-0.5,0.8-0.6c0.3-0.1,0.7-0.2,1-0.2c0.4,0,0.7,0.1,1,0.2c0.3,0.1,0.6,0.3,0.8,0.6
			c0.2,0.3,0.4,0.6,0.5,0.9C-59,411.8-59,412.2-59,412.7z M-59.7,412.7c0-0.7-0.2-1.3-0.5-1.7s-0.8-0.6-1.3-0.6
			c-0.6,0-1,0.2-1.3,0.6s-0.5,1-0.5,1.7c0,0.7,0.2,1.3,0.5,1.7s0.8,0.6,1.3,0.6c0.6,0,1-0.2,1.3-0.6S-59.7,413.4-59.7,412.7z"/>
		<path class="st4" d="M-53,415.3c-0.2,0.1-0.5,0.1-0.9,0.2s-0.8,0.1-1.3,0.1c-0.4,0-0.8-0.1-1.1-0.2c-0.3-0.1-0.5-0.3-0.7-0.5
			s-0.3-0.5-0.4-0.8c-0.1-0.3-0.1-0.7-0.1-1.1v-3.2h0.7v3c0,0.4,0,0.7,0.1,1c0.1,0.3,0.2,0.5,0.3,0.7c0.1,0.2,0.3,0.3,0.5,0.4
			s0.5,0.1,0.8,0.1c0.3,0,0.6,0,0.9-0.1c0.2,0,0.4-0.1,0.5-0.1v-5h0.7V415.3z"/>
		<path class="st4" d="M-46.6,415.3c-0.2,0.1-0.5,0.1-0.8,0.2s-0.7,0.1-1.3,0.1c-0.4,0-0.8-0.1-1.1-0.2s-0.6-0.3-0.9-0.6
			c-0.2-0.3-0.4-0.6-0.6-0.9c-0.1-0.4-0.2-0.8-0.2-1.2c0-0.4,0.1-0.8,0.2-1.2s0.3-0.7,0.5-0.9c0.2-0.3,0.5-0.5,0.8-0.6
			c0.3-0.1,0.7-0.2,1.1-0.2c0.4,0,0.7,0.1,1,0.2c0.3,0.1,0.5,0.2,0.6,0.3v-3.1l0.7-0.1V415.3z M-47.4,410.8
			c-0.1-0.1-0.1-0.1-0.2-0.2c-0.1-0.1-0.2-0.1-0.3-0.2c-0.1-0.1-0.3-0.1-0.4-0.1c-0.2,0-0.3,0-0.5,0c-0.4,0-0.6,0.1-0.9,0.2
			s-0.4,0.3-0.6,0.5c-0.1,0.2-0.3,0.5-0.3,0.7c-0.1,0.3-0.1,0.6-0.1,0.9c0,0.7,0.2,1.3,0.6,1.7s0.9,0.6,1.5,0.6c0.4,0,0.6,0,0.9,0
			c0.2,0,0.4-0.1,0.5-0.1V410.8z"/>
	</g>
	<linearGradient id="cloud_7_" gradientUnits="userSpaceOnUse" x1="-111.0832" y1="342.9901" x2="-38.7074" y2="415.366">
		<stop  offset="0" style="stop-color:#7BC09A"/>
		<stop  offset="0.3392" style="stop-color:#77BF9C"/>
		<stop  offset="0.6916" style="stop-color:#6ABDA4"/>
		<stop  offset="1" style="stop-color:#59BAAE"/>
	</linearGradient>
	<path id="cloud_3_" class="st5" d="M-112.8,404.9H-36c10.4,0,18.8-8.4,18.8-18.7c0-8.4-5.6-15.6-13.4-17.9c0.2-1.4,0.3-2.9,0.3-4.4
		c0-18.1-14.7-32.7-32.9-32.7c-11,0-20.8,5.4-26.8,13.7c-3.2-2.4-7.1-3.8-11.4-3.8c-10.2,0-18.6,8.1-18.8,18.3
		c-9.4,3.1-16.2,11.8-16.2,22.2C-136.3,394.4-125.8,404.9-112.8,404.9z"/>
	<g>
		<path class="st4" d="M-83.5,394c0.4,0,0.7,0.1,1,0.2c0.3,0.1,0.5,0.3,0.6,0.4c0.2,0.2,0.3,0.4,0.4,0.7c0.1,0.3,0.1,0.5,0.1,0.8
			v3.6c-0.1,0-0.2,0-0.3,0.1c-0.1,0-0.3,0.1-0.5,0.1s-0.4,0.1-0.6,0.1s-0.5,0-0.7,0c-0.3,0-0.6,0-0.8-0.1c-0.3-0.1-0.5-0.2-0.7-0.3
			c-0.2-0.1-0.3-0.3-0.4-0.5s-0.2-0.5-0.2-0.8c0-0.3,0.1-0.6,0.2-0.8c0.1-0.2,0.3-0.4,0.5-0.5c0.2-0.1,0.5-0.2,0.8-0.3
			c0.3-0.1,0.6-0.1,1-0.1c0.1,0,0.2,0,0.3,0c0.1,0,0.2,0,0.3,0c0.1,0,0.2,0,0.3,0.1s0.1,0,0.2,0v-0.4c0-0.2,0-0.4,0-0.6
			c0-0.2-0.1-0.4-0.2-0.5c-0.1-0.1-0.2-0.3-0.4-0.4s-0.4-0.1-0.7-0.1c-0.4,0-0.7,0-0.9,0.1s-0.4,0.1-0.5,0.1l-0.1-0.6
			c0.1-0.1,0.3-0.1,0.6-0.2C-84.2,394-83.9,394-83.5,394z M-83.4,399.3c0.3,0,0.5,0,0.7,0s0.4,0,0.5-0.1v-2c-0.1,0-0.2-0.1-0.4-0.1
			c-0.2,0-0.4-0.1-0.7-0.1c-0.2,0-0.4,0-0.5,0c-0.2,0-0.4,0.1-0.5,0.2c-0.2,0.1-0.3,0.2-0.4,0.3c-0.1,0.1-0.2,0.3-0.2,0.6
			c0,0.2,0,0.4,0.1,0.5c0.1,0.1,0.2,0.3,0.3,0.4c0.1,0.1,0.3,0.2,0.5,0.2C-83.9,399.3-83.7,399.3-83.4,399.3z"/>
		<path class="st4" d="M-76,394.1c0.1,0.4,0.2,0.8,0.3,1.2c0.1,0.4,0.2,0.8,0.4,1.3s0.3,0.9,0.4,1.3s0.3,0.8,0.4,1.2
			c0.1-0.3,0.3-0.6,0.4-1s0.3-0.8,0.4-1.3c0.1-0.4,0.3-0.9,0.4-1.3c0.1-0.5,0.2-0.9,0.3-1.3h0.7c-0.3,1.1-0.6,2.1-0.9,3.1
			c-0.3,0.9-0.7,1.8-1,2.6h-0.7c-0.1-0.3-0.2-0.5-0.3-0.9c-0.1-0.3-0.2-0.7-0.4-1c-0.1-0.4-0.3-0.7-0.4-1.1
			c-0.1-0.4-0.2-0.8-0.3-1.2c-0.1,0.4-0.2,0.8-0.3,1.2c-0.1,0.4-0.2,0.8-0.4,1.1s-0.3,0.7-0.4,1c-0.1,0.3-0.2,0.6-0.3,0.9h-0.7
			c-0.4-0.8-0.7-1.7-1-2.6c-0.3-0.9-0.6-1.9-0.9-3.1h0.8c0.1,0.4,0.2,0.8,0.3,1.3c0.1,0.5,0.3,0.9,0.4,1.3s0.3,0.9,0.4,1.3
			s0.3,0.7,0.4,1c0.1-0.4,0.3-0.8,0.4-1.2c0.1-0.4,0.3-0.8,0.4-1.3s0.2-0.8,0.3-1.3c0.1-0.4,0.2-0.8,0.3-1.2H-76z"/>
		<path class="st4" d="M-70,399.3c0.4,0,0.7-0.1,1-0.2c0.3-0.1,0.4-0.4,0.4-0.7c0-0.2,0-0.3-0.1-0.4c0-0.1-0.1-0.2-0.2-0.3
			c-0.1-0.1-0.3-0.2-0.4-0.3s-0.4-0.2-0.7-0.3c-0.2-0.1-0.4-0.2-0.6-0.3c-0.2-0.1-0.4-0.2-0.5-0.3c-0.1-0.1-0.3-0.3-0.4-0.4
			c-0.1-0.2-0.1-0.4-0.1-0.6c0-0.5,0.2-0.8,0.5-1.1c0.3-0.3,0.8-0.4,1.4-0.4c0.4,0,0.7,0,1,0.1s0.4,0.1,0.5,0.2l-0.2,0.6
			c-0.1,0-0.2-0.1-0.4-0.2s-0.5-0.1-0.9-0.1c-0.2,0-0.3,0-0.5,0c-0.1,0-0.3,0.1-0.4,0.2c-0.1,0.1-0.2,0.2-0.3,0.3
			c-0.1,0.1-0.1,0.2-0.1,0.4s0,0.3,0.1,0.4c0.1,0.1,0.1,0.2,0.3,0.3c0.1,0.1,0.3,0.2,0.4,0.2c0.2,0.1,0.4,0.2,0.6,0.2
			c0.2,0.1,0.4,0.2,0.6,0.3c0.2,0.1,0.4,0.2,0.5,0.3c0.2,0.1,0.3,0.3,0.4,0.5s0.1,0.4,0.1,0.7c0,0.5-0.2,0.9-0.6,1.2
			s-0.9,0.4-1.6,0.4c-0.5,0-0.9,0-1.1-0.1c-0.3-0.1-0.4-0.1-0.5-0.2l0.2-0.6c0,0,0.1,0,0.1,0.1c0.1,0,0.2,0.1,0.3,0.1
			c0.1,0,0.3,0.1,0.4,0.1C-70.4,399.3-70.2,399.3-70,399.3z"/>
	</g>
</g>
</svg>
