<?xml version="1.0" encoding="utf-8"?>
<!-- Generator: Adobe Illustrator 19.0.0, SVG Export Plug-In . SVG Version: 6.00 Build 0)  -->
<svg version="1.1" id="Layer_1" xmlns="http://www.w3.org/2000/svg" xmlns:xlink="http://www.w3.org/1999/xlink" x="0px" y="0px"
	 viewBox="-61.1 272.6 111.4 146" style="enable-background:new -61.1 272.6 111.4 146;" xml:space="preserve">
<style type="text/css">
	.st0{opacity:0.9;}
	.st1{fill:url(#SVGID_1_);}
	.st2{fill:url(#SVGID_2_);}
	.st3{display:none;fill:#CDE2D9;}
	.st4{fill:#FFFFFF;}
	.st5{fill:#CDE2D9;}
	.st6{fill:none;stroke:#57B9AD;}
	.st7{fill:url(#content_1_);}
	.st8{fill:#418B83;}
</style>
<g id="XMLID_58_">
	<g id="XMLID_64_">
		<g id="XMLID_73_" class="st0">
			<linearGradient id="SVGID_1_" gradientUnits="userSpaceOnUse" x1="-64.6962" y1="316.4672" x2="-6.4972" y2="374.6661">
				<stop  offset="0" style="stop-color:#7BC09A"/>
				<stop  offset="0.3392" style="stop-color:#77BF9C"/>
				<stop  offset="0.6916" style="stop-color:#6ABDA4"/>
				<stop  offset="1" style="stop-color:#59BAAE"/>
			</linearGradient>
			<path class="st1" d="M-61.1,375.3c0,3.9,3.2,7.1,7.1,7.1h36.9c3.9,0,7.1-3.2,7.1-7.1v-59.5c0-3.9-3.2-7.1-7.1-7.1H-54
				c-3.9,0-7.1,3.2-7.1,7.1V375.3z"/>
		</g>
		<g id="XMLID_70_" class="st0">
			<linearGradient id="SVGID_2_" gradientUnits="userSpaceOnUse" x1="-51.5245" y1="301.2932" x2="37.0225" y2="389.8401">
				<stop  offset="0" style="stop-color:#7BC09A"/>
				<stop  offset="0.3392" style="stop-color:#77BF9C"/>
				<stop  offset="0.6916" style="stop-color:#6ABDA4"/>
				<stop  offset="1" style="stop-color:#59BAAE"/>
			</linearGradient>
			<path class="st2" d="M-45.5,392.3c0,4.7,3.8,8.5,8.5,8.5h59.5c4.7,0,8.5-3.8,8.5-8.5v-93.5c0-4.7-3.8-8.5-8.5-8.5H-37
				c-4.7,0-8.5,3.8-8.5,8.5V392.3z"/>
		</g>
		<rect id="XMLID_68_" x="-21.4" y="271.9" class="st3" width="102" height="147.4"/>
	</g>
	<g>
		<path class="st4" d="M-58.7,355.2c0.2,0,0.3,0.1,0.4,0.2c0.1,0.1,0.1,0.2,0.1,0.4s0,0.3-0.1,0.4c-0.1,0.1-0.2,0.2-0.4,0.2
			s-0.3-0.1-0.4-0.2s-0.1-0.2-0.1-0.4s0-0.3,0.1-0.4S-58.8,355.2-58.7,355.2z M-51.3,355.4v0.7h-5.7v-0.7H-51.3z"/>
		<path class="st4" d="M-54.1,348.6c0.4,0,0.9,0.1,1.2,0.2c0.4,0.1,0.7,0.3,0.9,0.5c0.3,0.2,0.5,0.5,0.6,0.8c0.1,0.3,0.2,0.7,0.2,1
			c0,0.4-0.1,0.7-0.2,1c-0.1,0.3-0.3,0.6-0.6,0.8c-0.3,0.2-0.6,0.4-0.9,0.5c-0.4,0.1-0.8,0.2-1.2,0.2s-0.9-0.1-1.2-0.2
			c-0.4-0.1-0.7-0.3-0.9-0.5c-0.3-0.2-0.5-0.5-0.6-0.8s-0.2-0.7-0.2-1c0-0.4,0.1-0.7,0.2-1s0.3-0.6,0.6-0.8c0.3-0.2,0.6-0.4,0.9-0.5
			C-55,348.7-54.5,348.6-54.1,348.6z M-54.1,349.4c-0.7,0-1.3,0.2-1.7,0.5s-0.6,0.8-0.6,1.3c0,0.6,0.2,1,0.6,1.3s1,0.5,1.7,0.5
			s1.3-0.2,1.7-0.5s0.6-0.8,0.6-1.3c0-0.6-0.2-1-0.6-1.3S-53.4,349.4-54.1,349.4z"/>
		<path class="st4" d="M-56.8,347.1c-0.1-0.2-0.1-0.5-0.2-0.9s-0.1-0.8-0.1-1.3c0-0.4,0.1-0.8,0.2-1.1c0.1-0.3,0.3-0.5,0.5-0.7
			c0.2-0.2,0.5-0.3,0.8-0.4c0.3-0.1,0.7-0.1,1.1-0.1h3.2v0.7h-2.9c-0.4,0-0.7,0-1,0.1c-0.3,0.1-0.5,0.1-0.7,0.3
			c-0.2,0.1-0.3,0.3-0.4,0.5s-0.1,0.5-0.1,0.8c0,0.3,0,0.6,0.1,0.9c0,0.2,0.1,0.4,0.1,0.5h5v0.7H-56.8z"/>
		<path class="st4" d="M-58.7,339.9c0.2,0,0.3,0.1,0.4,0.2c0.1,0.1,0.1,0.2,0.1,0.4s0,0.3-0.1,0.4c-0.1,0.1-0.2,0.2-0.4,0.2
			s-0.3-0.1-0.4-0.2s-0.1-0.2-0.1-0.4s0-0.3,0.1-0.4S-58.8,339.9-58.7,339.9z M-51.3,340.1v0.7h-5.7v-0.7H-51.3z"/>
		<path class="st4" d="M-51.1,335.9c0,0.4-0.1,0.8-0.2,1.2c-0.1,0.3-0.3,0.6-0.6,0.8c-0.3,0.2-0.6,0.4-0.9,0.5
			c-0.4,0.1-0.8,0.2-1.2,0.2c-0.4,0-0.9-0.1-1.2-0.2c-0.4-0.1-0.7-0.3-0.9-0.5c-0.3-0.2-0.5-0.5-0.6-0.8c-0.1-0.3-0.2-0.7-0.2-1.1
			c0-0.3,0-0.6,0.1-0.9c0.1-0.3,0.1-0.5,0.2-0.6l0.6,0.2c-0.1,0.1-0.1,0.3-0.2,0.5c0,0.2-0.1,0.4-0.1,0.7c0,0.6,0.2,1.1,0.6,1.4
			s1,0.5,1.7,0.5c0.3,0,0.6,0,0.9-0.1s0.5-0.2,0.7-0.4c0.2-0.2,0.4-0.4,0.5-0.6c0.1-0.3,0.2-0.6,0.2-1c0-0.3,0-0.6-0.1-0.8
			c-0.1-0.2-0.1-0.4-0.2-0.5l0.6-0.2c0.1,0.1,0.1,0.3,0.2,0.6S-51.1,335.6-51.1,335.9z"/>
	</g>
	<g>
		<path class="st4" d="M-40,368.1c-0.1-0.2-0.1-0.5-0.2-0.9s-0.1-0.8-0.1-1.3c0-0.4,0.1-0.8,0.2-1.1c0.1-0.3,0.3-0.5,0.5-0.7
			c0.2-0.2,0.5-0.3,0.8-0.4c0.3-0.1,0.7-0.1,1.1-0.1h3.2v0.7h-2.9c-0.4,0-0.7,0-1,0.1c-0.3,0.1-0.5,0.1-0.7,0.3
			c-0.2,0.1-0.3,0.3-0.4,0.5s-0.1,0.5-0.1,0.8c0,0.3,0,0.6,0.1,0.9c0,0.2,0.1,0.4,0.1,0.5h5v0.7H-40z"/>
		<path class="st4" d="M-34.4,360.4c-0.4,0.2-0.9,0.5-1.4,0.7s-1,0.4-1.5,0.6c-0.5,0.2-1,0.4-1.5,0.5c-0.5,0.2-1,0.3-1.5,0.4v-0.8
			c0.4-0.1,0.7-0.2,1.1-0.3c0.4-0.1,0.8-0.3,1.3-0.4c0.4-0.2,0.9-0.3,1.3-0.5c0.5-0.2,0.9-0.4,1.3-0.6c-0.5-0.2-0.9-0.3-1.3-0.4
			c-0.4-0.1-0.8-0.2-1.2-0.4s-0.8-0.2-1.2-0.3c-0.4-0.1-0.9-0.2-1.4-0.3v-0.7c1.1,0.2,2.1,0.5,3.1,0.8s1.9,0.6,2.8,1
			c0.3,0.1,0.6,0.3,0.9,0.4c0.2,0.1,0.4,0.3,0.6,0.5s0.3,0.4,0.3,0.6c0.1,0.2,0.1,0.5,0.1,0.8c0,0.2,0,0.4-0.1,0.5
			c0,0.2-0.1,0.2-0.1,0.3l-0.6-0.1c0,0,0.1-0.1,0.1-0.2c0-0.1,0.1-0.3,0.1-0.4c0-0.2,0-0.4-0.1-0.6c0-0.2-0.1-0.3-0.2-0.4
			c-0.1-0.1-0.2-0.3-0.4-0.4S-34.1,360.5-34.4,360.4z"/>
		<path class="st4" d="M-40,356.7c-0.1-0.2-0.1-0.5-0.2-0.8s-0.1-0.8-0.1-1.3c0-0.7,0.2-1.2,0.6-1.6c0,0-0.1-0.1-0.1-0.2
			c-0.1-0.1-0.1-0.2-0.2-0.4c-0.1-0.2-0.1-0.3-0.2-0.6c-0.1-0.2-0.1-0.5-0.1-0.7c0-0.4,0.1-0.8,0.2-1s0.3-0.5,0.5-0.6
			c0.2-0.1,0.5-0.2,0.8-0.3c0.3-0.1,0.7-0.1,1.1-0.1h3.2v0.7h-2.9c-0.4,0-0.7,0-1,0c-0.3,0-0.5,0.1-0.7,0.2s-0.3,0.2-0.4,0.4
			c-0.1,0.2-0.1,0.4-0.1,0.7c0,0.2,0,0.4,0.1,0.6c0,0.2,0.1,0.3,0.1,0.5c0.1,0.1,0.1,0.2,0.2,0.3c0.1,0.1,0.1,0.1,0.1,0.2
			c0.2-0.1,0.4-0.1,0.6-0.1c0.2,0,0.5,0,0.8,0h3.2v0.7h-2.9c-0.4,0-0.7,0-1,0c-0.3,0-0.5,0.1-0.7,0.2s-0.3,0.2-0.4,0.4
			c-0.1,0.2-0.1,0.4-0.1,0.7c0,0.3,0,0.6,0.1,0.9c0,0.2,0.1,0.4,0.1,0.5h5v0.7H-40z"/>
		<path class="st4" d="M-37.3,347.6c-0.5,0-0.9-0.1-1.3-0.2c-0.4-0.1-0.7-0.3-0.9-0.6c-0.2-0.2-0.4-0.5-0.6-0.8s-0.2-0.6-0.2-0.9
			c0-0.7,0.2-1.3,0.7-1.7c0.5-0.4,1.2-0.6,2.1-0.6c0.1,0,0.1,0,0.2,0c0.1,0,0.1,0,0.2,0v4c0.7,0,1.2-0.2,1.6-0.5s0.6-0.8,0.6-1.5
			c0-0.4,0-0.7-0.1-0.9s-0.1-0.4-0.2-0.5l0.6-0.1c0.1,0.1,0.1,0.3,0.2,0.6s0.1,0.6,0.1,1c0,0.5-0.1,0.9-0.2,1.3
			c-0.1,0.4-0.4,0.6-0.6,0.9s-0.6,0.4-0.9,0.5C-36.5,347.5-36.9,347.6-37.3,347.6z M-37.8,343.5c-0.6,0-1.1,0.2-1.4,0.4
			c-0.3,0.3-0.5,0.6-0.5,1.1c0,0.3,0.1,0.5,0.2,0.7c0.1,0.2,0.2,0.4,0.4,0.5c0.2,0.2,0.4,0.3,0.6,0.4c0.2,0.1,0.5,0.1,0.7,0.1V343.5
			z"/>
		<path class="st4" d="M-40.3,339.5c0-0.4,0.1-0.7,0.2-1c0.1-0.3,0.3-0.5,0.4-0.6c0.2-0.2,0.4-0.3,0.7-0.4c0.3-0.1,0.5-0.1,0.8-0.1
			h3.6c0,0.1,0,0.2,0.1,0.3c0,0.1,0.1,0.3,0.1,0.5c0,0.2,0.1,0.4,0.1,0.6c0,0.2,0,0.5,0,0.7c0,0.3,0,0.6-0.1,0.8
			c-0.1,0.3-0.2,0.5-0.3,0.7c-0.1,0.2-0.3,0.3-0.6,0.4s-0.5,0.2-0.8,0.2c-0.3,0-0.6-0.1-0.8-0.2s-0.4-0.3-0.5-0.5
			c-0.1-0.2-0.2-0.5-0.3-0.8c-0.1-0.3-0.1-0.6-0.1-1c0-0.1,0-0.2,0-0.3c0-0.1,0-0.2,0-0.3s0-0.2,0.1-0.3c0-0.1,0-0.1,0-0.2h-0.4
			c-0.2,0-0.4,0-0.6,0c-0.2,0-0.4,0.1-0.5,0.2s-0.3,0.2-0.4,0.4c-0.1,0.2-0.1,0.4-0.1,0.7c0,0.4,0,0.7,0.1,0.9s0.1,0.4,0.1,0.5
			l-0.6,0.1c-0.1-0.1-0.1-0.3-0.2-0.6C-40.3,340.1-40.3,339.8-40.3,339.5z M-35,339.4c0-0.3,0-0.5,0-0.7c0-0.2,0-0.4-0.1-0.5h-2
			c0,0.1-0.1,0.2-0.1,0.4s-0.1,0.4-0.1,0.7c0,0.2,0,0.4,0,0.5c0,0.2,0.1,0.4,0.2,0.5c0.1,0.2,0.2,0.3,0.3,0.4s0.3,0.2,0.6,0.2
			c0.2,0,0.4,0,0.5-0.1c0.1-0.1,0.3-0.2,0.4-0.3c0.1-0.1,0.2-0.3,0.2-0.5C-35,339.8-35,339.6-35,339.4z"/>
		<path class="st4" d="M-39.6,334.6c0.2,0,0.3,0.1,0.4,0.2c0.1,0.1,0.2,0.3,0.2,0.4c0,0.2-0.1,0.3-0.2,0.4c-0.1,0.1-0.3,0.2-0.4,0.2
			s-0.3-0.1-0.4-0.2s-0.2-0.3-0.2-0.4c0-0.2,0.1-0.3,0.2-0.4C-39.9,334.6-39.7,334.6-39.6,334.6z M-35,334.6c0.2,0,0.3,0.1,0.4,0.2
			c0.1,0.1,0.2,0.3,0.2,0.4c0,0.2-0.1,0.3-0.2,0.4s-0.3,0.2-0.4,0.2c-0.2,0-0.3-0.1-0.4-0.2c-0.1-0.1-0.2-0.3-0.2-0.4
			c0-0.2,0.1-0.3,0.2-0.4C-35.3,334.6-35.1,334.6-35,334.6z"/>
		<path class="st4" d="M-34.7,328.5c0.1,0.2,0.1,0.5,0.2,0.9s0.1,0.8,0.1,1.3c0,0.4-0.1,0.8-0.2,1.1c-0.1,0.3-0.3,0.5-0.5,0.7
			c-0.2,0.2-0.5,0.3-0.8,0.4c-0.3,0.1-0.7,0.1-1.1,0.1h-3.2v-0.7h3c0.4,0,0.7,0,1-0.1c0.3-0.1,0.5-0.2,0.7-0.3
			c0.2-0.1,0.3-0.3,0.4-0.5s0.1-0.5,0.1-0.8c0-0.3,0-0.6-0.1-0.9c0-0.2-0.1-0.4-0.1-0.5h-5v-0.7H-34.7z"/>
		<path class="st4" d="M-36.9,324.8c0.2,0.2,0.4,0.3,0.6,0.5s0.4,0.3,0.6,0.5c0.2,0.1,0.4,0.3,0.6,0.4c0.2,0.1,0.4,0.2,0.6,0.3v0.7
			c-0.6-0.3-1.1-0.6-1.6-1c-0.5-0.3-0.9-0.7-1.4-1.1l-2.7,1.9v-0.8l2.2-1.5l-2.2-1.5v-0.8l2.7,1.9c0.2-0.2,0.4-0.3,0.7-0.5
			c0.2-0.2,0.5-0.4,0.7-0.5c0.3-0.2,0.5-0.4,0.8-0.5c0.3-0.2,0.5-0.3,0.8-0.5v0.8c-0.2,0.1-0.3,0.2-0.5,0.3
			c-0.2,0.1-0.4,0.3-0.6,0.4c-0.2,0.2-0.4,0.3-0.6,0.5C-36.5,324.5-36.7,324.7-36.9,324.8z"/>
	</g>
	<g id="Wireframe_iPhone6" transform="translate(-697.000000, -232.000000)">
		<g id="GENERIC" transform="translate(699.000000, 111.000000)">
			<g id="iPhone-6" transform="translate(0.000000, 123.000000)">
				<path id="iPhone6-outline" class="st5" d="M-23.9,281.8c0-6.2,4.9-11.2,11.1-11.2h49.8c6.2,0,11.2,5,11.2,11.2v123.6
					c0,6.2-5,11.2-11.2,11.2h-49.8c-6.2,0-11.2-5-11.2-11.2L-23.9,281.8z"/>
				<circle id="home-button" class="st6" cx="12.1" cy="407.6" r="5.6"/>
				<circle id="camera" class="st6" cx="0.9" cy="280.5" r="1.1"/>
				<path id="speaker" class="st6" d="M7.8,279.5h11.6c0.5,0,0.9,0.4,0.9,0.9l0,0c0,0.5-0.4,0.9-0.9,0.9H7.8c-0.5,0-0.9-0.4-0.9-0.9
					l0,0C6.9,280,7.3,279.5,7.8,279.5z"/>
				<linearGradient id="content_1_" gradientUnits="userSpaceOnUse" x1="-31.0753" y1="300.1952" x2="55.4809" y2="386.7514">
					<stop  offset="0" style="stop-color:#E2EAE4"/>
					<stop  offset="1" style="stop-color:#CDE2D9"/>
				</linearGradient>
				<path id="content" class="st7" d="M-18.5,287.9h61.4c0.4,0,0.7,0.3,0.7,0.7v109.6c0,0.4-0.3,0.7-0.7,0.7h-61.4
					c-0.4,0-0.7-0.3-0.7-0.7V288.7C-19.3,288.3-18.9,287.9-18.5,287.9z"/>
			</g>
		</g>
	</g>
	<g>
		<path class="st8" d="M-8.2,379.6c-0.4,0.2-0.9,0.5-1.4,0.7s-1,0.4-1.5,0.6c-0.5,0.2-1,0.4-1.5,0.5c-0.5,0.2-1,0.3-1.5,0.4v-0.8
			c0.4-0.1,0.7-0.2,1.1-0.3c0.4-0.1,0.8-0.3,1.3-0.4c0.4-0.2,0.9-0.3,1.3-0.5c0.5-0.2,0.9-0.4,1.3-0.6c-0.5-0.2-0.9-0.3-1.3-0.4
			c-0.4-0.1-0.8-0.2-1.2-0.4s-0.8-0.2-1.2-0.3c-0.4-0.1-0.9-0.2-1.4-0.3v-0.7c1.1,0.2,2.1,0.5,3.1,0.8s1.9,0.6,2.8,1
			c0.3,0.1,0.6,0.3,0.9,0.4c0.2,0.1,0.4,0.3,0.6,0.5s0.3,0.4,0.3,0.6c0.1,0.2,0.1,0.5,0.1,0.8c0,0.2,0,0.4-0.1,0.5
			c0,0.2-0.1,0.2-0.1,0.3l-0.6-0.1c0,0,0.1-0.1,0.1-0.2c0-0.1,0.1-0.3,0.1-0.4c0-0.2,0-0.4-0.1-0.6c0-0.2-0.1-0.3-0.2-0.4
			c-0.1-0.1-0.2-0.3-0.4-0.4S-8,379.7-8.2,379.6z"/>
		<path class="st8" d="M-11.2,371.1c0.4,0,0.9,0.1,1.2,0.2c0.4,0.1,0.7,0.3,0.9,0.5c0.3,0.2,0.5,0.5,0.6,0.8c0.1,0.3,0.2,0.7,0.2,1
			c0,0.4-0.1,0.7-0.2,1c-0.1,0.3-0.3,0.6-0.6,0.8c-0.3,0.2-0.6,0.4-0.9,0.5c-0.4,0.1-0.8,0.2-1.2,0.2s-0.9-0.1-1.2-0.2
			c-0.4-0.1-0.7-0.3-0.9-0.5c-0.3-0.2-0.5-0.5-0.6-0.8s-0.2-0.7-0.2-1c0-0.4,0.1-0.7,0.2-1s0.3-0.6,0.6-0.8c0.3-0.2,0.6-0.4,0.9-0.5
			C-12.1,371.2-11.7,371.1-11.2,371.1z M-11.2,371.9c-0.7,0-1.3,0.2-1.7,0.5s-0.6,0.8-0.6,1.3c0,0.6,0.2,1,0.6,1.3s1,0.5,1.7,0.5
			s1.3-0.2,1.7-0.5s0.6-0.8,0.6-1.3c0-0.6-0.2-1-0.6-1.3S-10.5,371.9-11.2,371.9z"/>
		<path class="st8" d="M-8.6,365.2c0.1,0.2,0.1,0.5,0.2,0.9s0.1,0.8,0.1,1.3c0,0.4-0.1,0.8-0.2,1.1c-0.1,0.3-0.3,0.5-0.5,0.7
			c-0.2,0.2-0.5,0.3-0.8,0.4c-0.3,0.1-0.7,0.1-1.1,0.1h-3.2v-0.7h3c0.4,0,0.7,0,1-0.1c0.3-0.1,0.5-0.2,0.7-0.3
			c0.2-0.1,0.3-0.3,0.4-0.5s0.1-0.5,0.1-0.8c0-0.3,0-0.6-0.1-0.9c0-0.2-0.1-0.4-0.1-0.5h-5v-0.7H-8.6z"/>
		<path class="st8" d="M-14.2,361.4c0-0.2,0-0.5,0.1-0.7c0-0.2,0.1-0.4,0.1-0.4l0.6,0.1c0,0.1-0.1,0.2-0.1,0.4s0,0.4,0,0.7
			c0,0.3,0,0.6,0.1,0.7c0,0.2,0.1,0.3,0.1,0.4h5v0.7h-5.4c-0.1-0.2-0.2-0.4-0.2-0.8C-14.1,362.2-14.2,361.8-14.2,361.4z"/>
		<path class="st8" d="M-15.8,355.8c0.2,0,0.3,0.1,0.4,0.2c0.1,0.1,0.1,0.2,0.1,0.4s0,0.3-0.1,0.4c-0.1,0.1-0.2,0.2-0.4,0.2
			s-0.3-0.1-0.4-0.2s-0.1-0.2-0.1-0.4s0-0.3,0.1-0.4S-15.9,355.8-15.8,355.8z M-8.4,356v0.7h-5.7V356H-8.4z"/>
		<path class="st8" d="M-13.9,354.1c-0.1-0.2-0.1-0.5-0.2-0.9s-0.1-0.8-0.1-1.3c0-0.4,0.1-0.8,0.2-1.1c0.1-0.3,0.3-0.5,0.5-0.7
			c0.2-0.2,0.5-0.3,0.8-0.4c0.3-0.1,0.7-0.1,1.1-0.1h3.2v0.7h-2.9c-0.4,0-0.7,0-1,0.1c-0.3,0.1-0.5,0.1-0.7,0.3
			c-0.2,0.1-0.3,0.3-0.4,0.5s-0.1,0.5-0.1,0.8c0,0.3,0,0.6,0.1,0.9c0,0.2,0.1,0.4,0.1,0.5h5v0.7H-13.9z"/>
		<path class="st8" d="M-14.1,347.1v-2.3h0.6v2.3h3c0.3,0,0.6,0,0.8-0.1c0.2-0.1,0.4-0.1,0.5-0.2c0.1-0.1,0.2-0.2,0.2-0.4
			c0-0.1,0.1-0.3,0.1-0.5c0-0.3,0-0.5-0.1-0.7c-0.1-0.2-0.1-0.3-0.2-0.4l0.6-0.2c0.1,0.1,0.1,0.3,0.2,0.5c0.1,0.3,0.1,0.5,0.1,0.8
			c0,0.4,0,0.6-0.1,0.9s-0.2,0.4-0.4,0.6c-0.2,0.1-0.4,0.2-0.7,0.3s-0.6,0.1-1,0.1h-5.2l-0.1-0.7H-14.1z"/>
		<path class="st8" d="M-11.2,343.9c-0.5,0-0.9-0.1-1.3-0.2c-0.4-0.1-0.7-0.3-0.9-0.6c-0.2-0.2-0.4-0.5-0.6-0.8s-0.2-0.6-0.2-0.9
			c0-0.7,0.2-1.3,0.7-1.7c0.5-0.4,1.2-0.6,2.1-0.6c0.1,0,0.1,0,0.2,0c0.1,0,0.1,0,0.2,0v4c0.7,0,1.2-0.2,1.6-0.5s0.6-0.8,0.6-1.5
			c0-0.4,0-0.7-0.1-0.9s-0.1-0.4-0.2-0.5l0.6-0.1c0.1,0.1,0.1,0.3,0.2,0.6s0.1,0.6,0.1,1c0,0.5-0.1,0.9-0.2,1.3
			c-0.1,0.4-0.4,0.6-0.6,0.9s-0.6,0.4-0.9,0.5C-10.4,343.8-10.8,343.9-11.2,343.9z M-11.7,339.9c-0.6,0-1.1,0.2-1.4,0.4
			c-0.3,0.3-0.5,0.6-0.5,1.1c0,0.3,0.1,0.5,0.2,0.7c0.1,0.2,0.2,0.4,0.4,0.5c0.2,0.2,0.4,0.3,0.6,0.4c0.2,0.1,0.5,0.1,0.7,0.1V339.9
			z"/>
		<path class="st8" d="M-14.2,335.6c0-0.2,0-0.5,0.1-0.7c0-0.2,0.1-0.4,0.1-0.4l0.6,0.1c0,0.1-0.1,0.2-0.1,0.4s0,0.4,0,0.7
			c0,0.3,0,0.6,0.1,0.7c0,0.2,0.1,0.3,0.1,0.4h5v0.7h-5.4c-0.1-0.2-0.2-0.4-0.2-0.8C-14.1,336.4-14.2,336.1-14.2,335.6z"/>
		<path class="st8" d="M-16.9,331.3c0-0.3,0-0.6,0.1-0.8s0.1-0.3,0.1-0.4l0.6,0.1c0,0.1-0.1,0.2-0.1,0.4c0,0.2-0.1,0.4-0.1,0.6
			c0,0.5,0.1,0.9,0.4,1.1c0.3,0.2,0.7,0.3,1.2,0.3h0.6v-2.3h0.6v2.3h5.1v0.7h-6.3c-0.7,0-1.3-0.2-1.7-0.5
			C-16.7,332.6-16.9,332-16.9,331.3z"/>
		<path class="st8" d="M-14.2,327.5c0-0.4,0.1-0.7,0.2-1c0.1-0.3,0.3-0.5,0.4-0.6c0.2-0.2,0.4-0.3,0.7-0.4c0.3-0.1,0.5-0.1,0.8-0.1
			h3.6c0,0.1,0,0.2,0.1,0.3c0,0.1,0.1,0.3,0.1,0.5c0,0.2,0.1,0.4,0.1,0.6c0,0.2,0,0.5,0,0.7c0,0.3,0,0.6-0.1,0.8
			c-0.1,0.3-0.2,0.5-0.3,0.7c-0.1,0.2-0.3,0.3-0.6,0.4s-0.5,0.2-0.8,0.2c-0.3,0-0.6-0.1-0.8-0.2s-0.4-0.3-0.5-0.5
			c-0.1-0.2-0.2-0.5-0.3-0.8c-0.1-0.3-0.1-0.6-0.1-1c0-0.1,0-0.2,0-0.3c0-0.1,0-0.2,0-0.3s0-0.2,0.1-0.3c0-0.1,0-0.1,0-0.2H-12
			c-0.2,0-0.4,0-0.6,0c-0.2,0-0.4,0.1-0.5,0.2s-0.3,0.2-0.4,0.4c-0.1,0.2-0.1,0.4-0.1,0.7c0,0.4,0,0.7,0.1,0.9s0.1,0.4,0.1,0.5
			l-0.6,0.1c-0.1-0.1-0.1-0.3-0.2-0.6C-14.2,328.2-14.2,327.9-14.2,327.5z M-8.9,327.5c0-0.3,0-0.5,0-0.7c0-0.2,0-0.4-0.1-0.5h-2
			c0,0.1-0.1,0.2-0.1,0.4s-0.1,0.4-0.1,0.7c0,0.2,0,0.4,0,0.5c0,0.2,0.1,0.4,0.2,0.5c0.1,0.2,0.2,0.3,0.3,0.4s0.3,0.2,0.6,0.2
			c0.2,0,0.4,0,0.5-0.1c0.1-0.1,0.3-0.2,0.4-0.3c0.1-0.1,0.2-0.3,0.2-0.5C-8.9,327.9-8.9,327.7-8.9,327.5z"/>
		<path class="st8" d="M-8.2,321.3c0,0.4-0.1,0.8-0.2,1.2c-0.1,0.3-0.3,0.6-0.6,0.8c-0.3,0.2-0.6,0.4-0.9,0.5
			c-0.4,0.1-0.8,0.2-1.2,0.2c-0.4,0-0.9-0.1-1.2-0.2c-0.4-0.1-0.7-0.3-0.9-0.5c-0.3-0.2-0.5-0.5-0.6-0.8c-0.1-0.3-0.2-0.7-0.2-1.1
			c0-0.3,0-0.6,0.1-0.9c0.1-0.3,0.1-0.5,0.2-0.6l0.6,0.2c-0.1,0.1-0.1,0.3-0.2,0.5c0,0.2-0.1,0.4-0.1,0.7c0,0.6,0.2,1.1,0.6,1.4
			s1,0.5,1.7,0.5c0.3,0,0.6,0,0.9-0.1s0.5-0.2,0.7-0.4c0.2-0.2,0.4-0.4,0.5-0.6c0.1-0.3,0.2-0.6,0.2-1c0-0.3,0-0.6-0.1-0.8
			c-0.1-0.2-0.1-0.4-0.2-0.5l0.6-0.2c0.1,0.1,0.1,0.3,0.2,0.6S-8.2,321-8.2,321.3z"/>
		<path class="st8" d="M-11.2,319c-0.5,0-0.9-0.1-1.3-0.2c-0.4-0.1-0.7-0.3-0.9-0.6c-0.2-0.2-0.4-0.5-0.6-0.8s-0.2-0.6-0.2-0.9
			c0-0.7,0.2-1.3,0.7-1.7c0.5-0.4,1.2-0.6,2.1-0.6c0.1,0,0.1,0,0.2,0c0.1,0,0.1,0,0.2,0v4c0.7,0,1.2-0.2,1.6-0.5s0.6-0.8,0.6-1.5
			c0-0.4,0-0.7-0.1-0.9s-0.1-0.4-0.2-0.5l0.6-0.1c0.1,0.1,0.1,0.3,0.2,0.6s0.1,0.6,0.1,1c0,0.5-0.1,0.9-0.2,1.3
			c-0.1,0.4-0.4,0.6-0.6,0.9s-0.6,0.4-0.9,0.5C-10.4,318.9-10.8,319-11.2,319z M-11.7,314.9c-0.6,0-1.1,0.2-1.4,0.4
			c-0.3,0.3-0.5,0.6-0.5,1.1c0,0.3,0.1,0.5,0.2,0.7c0.1,0.2,0.2,0.4,0.4,0.5c0.2,0.2,0.4,0.3,0.6,0.4c0.2,0.1,0.5,0.1,0.7,0.1V314.9
			z"/>
		<path class="st8" d="M-8.9,311.4c0-0.4-0.1-0.7-0.2-1c-0.1-0.3-0.4-0.4-0.7-0.4c-0.2,0-0.3,0-0.4,0.1c-0.1,0-0.2,0.1-0.3,0.2
			c-0.1,0.1-0.2,0.3-0.3,0.4c-0.1,0.2-0.2,0.4-0.3,0.7c-0.1,0.2-0.2,0.4-0.3,0.6c-0.1,0.2-0.2,0.4-0.3,0.5s-0.3,0.3-0.4,0.4
			c-0.2,0.1-0.4,0.1-0.6,0.1c-0.5,0-0.8-0.2-1.1-0.5c-0.3-0.3-0.4-0.8-0.4-1.4c0-0.4,0-0.7,0.1-1c0.1-0.3,0.1-0.4,0.2-0.5l0.6,0.2
			c0,0.1-0.1,0.2-0.2,0.4s-0.1,0.5-0.1,0.9c0,0.2,0,0.3,0,0.5c0,0.1,0.1,0.3,0.2,0.4c0.1,0.1,0.2,0.2,0.3,0.3
			c0.1,0.1,0.2,0.1,0.4,0.1s0.3,0,0.4-0.1s0.2-0.1,0.3-0.3c0.1-0.1,0.2-0.3,0.2-0.4c0.1-0.2,0.2-0.4,0.2-0.6
			c0.1-0.2,0.2-0.4,0.3-0.6c0.1-0.2,0.2-0.4,0.3-0.5s0.3-0.3,0.5-0.4s0.4-0.1,0.7-0.1c0.5,0,0.9,0.2,1.2,0.6
			c0.3,0.4,0.4,0.9,0.4,1.6c0,0.5,0,0.9-0.1,1.1c-0.1,0.3-0.1,0.4-0.2,0.5l-0.6-0.2c0,0,0-0.1,0.1-0.1s0.1-0.2,0.1-0.3
			c0-0.1,0.1-0.3,0.1-0.4C-8.9,311.8-8.9,311.6-8.9,311.4z"/>
	</g>
</g>
</svg>
