<?xml version="1.0" encoding="utf-8"?>
<!-- Generator: Adobe Illustrator 22.0.0, SVG Export Plug-In . SVG Version: 6.00 Build 0)  -->
<svg version="1.1" id="Layer_1" xmlns="http://www.w3.org/2000/svg" xmlns:xlink="http://www.w3.org/1999/xlink" x="0px" y="0px"
	 viewBox="0 0 376 140" style="enable-background:new 0 0 376 140;" xml:space="preserve">
<style type="text/css">
	.st0{fill:#F15D22;}
	.st1{fill:url(#XMLID_2_);}
	.st2{fill:url(#XMLID_3_);}
	.st3{fill:url(#XMLID_4_);}
	.st4{fill:url(#XMLID_5_);}
	.st5{fill:url(#XMLID_6_);}
	.st6{fill:url(#XMLID_7_);}
	.st7{fill:url(#XMLID_8_);}
	.st8{fill:url(#XMLID_9_);}
	.st9{fill:url(#XMLID_10_);}
	.st10{fill:url(#XMLID_11_);}
	.st11{fill:url(#XMLID_12_);}
	.st12{display:none;}
	.st13{display:inline;}
	.st14{fill:#BC1142;}
	.st15{fill:#676767;}
	.st16{fill:#D70751;}
</style>
<g>
	<path class="st0" d="M211.4,70c0,4.7-3.8,8.5-8.5,8.5s-8.5-3.8-8.5-8.5s3.8-8.5,8.5-8.5C207.6,61.5,211.4,65.3,211.4,70z
		 M259.8,111.3c2.3,4,7.6,5.4,11.6,3.1s5.4-7.6,3.1-11.6c-2.3-4-7.6-5.4-11.6-3.1C258.8,102,257.4,107.3,259.8,111.3z M274.4,37.2
		c2.3-4,0.9-9.3-3.1-11.6c-4-2.3-9.3-0.9-11.6,3.1c-2.3,4-0.9,9.3,3.1,11.6C266.9,42.6,272.1,41.2,274.4,37.2z M245.7,45.8
		c12.7,0,23.1,9.7,24.1,22.1l12.3-0.2c-0.6-9.2-4.6-17.4-10.7-23.5c-3.2,1.3-7,1.1-10.3-0.8c-3.2-1.9-5.3-5-5.8-8.5
		c-3.1-0.8-6.3-1.3-9.6-1.3c-5.8,0-11.3,1.3-16.2,3.8l6,10.7C238.6,46.6,242,45.8,245.7,45.8z M221.4,70c0-8.2,4-15.5,10.3-19.8
		l-6.3-10.5c-7.3,4.9-12.7,12.3-15.1,21.1c2.7,2.2,4.4,5.6,4.4,9.3c0,3.8-1.7,7.1-4.4,9.3c2.3,8.8,7.8,16.2,15.1,21.1l6.3-10.5
		C225.5,85.5,221.4,78.2,221.4,70z M245.7,94.2c-3.6,0-7.1-0.8-10.2-2.3l-6,10.7c4.9,2.4,10.3,3.8,16.2,3.8c3.3,0,6.5-0.5,9.6-1.3
		c0.5-3.4,2.6-6.6,5.8-8.5c3.2-1.9,7-2.1,10.3-0.8c6.2-6.1,10.1-14.4,10.7-23.5l-12.3-0.2C268.7,84.5,258.4,94.2,245.7,94.2z"/>
</g>
<g id="XMLID_15_">
	
		<linearGradient id="XMLID_2_" gradientUnits="userSpaceOnUse" x1="-1.1214" y1="358.3441" x2="70.6375" y2="447.8971" gradientTransform="matrix(1 0 0 1 0 -354)">
		<stop  offset="0.13" style="stop-color:#9FC8A4"/>
		<stop  offset="0.4" style="stop-color:#92BC9E"/>
		<stop  offset="0.9" style="stop-color:#719B8F"/>
		<stop  offset="1" style="stop-color:#69938C"/>
	</linearGradient>
	<path id="XMLID_31_" class="st1" d="M62.8,44.5C57,34.5,44,26.9,35.7,23.8c-8.4-3.1-17.8-10-17.8-10C10.5,8.9,8.3,4.9,4.3,0
		C3,3,2,6.2,1.3,9.5C3,12.6,9.9,22.7,29,30.7c1.7,0.7,6.8,2.8,6.9,2.8l6.4,2.6l-6.6-1.9c-0.2-0.1-5.5-1.6-7.2-2.2
		C11.4,25.7,3.9,17.1,0.8,12.4c-0.8,5.4-1,10.8-0.7,16.3c7.7,6.8,16.8,12,26.6,15.2c0.9,0.3,3.6,1.2,3.6,1.3l3.3,1.2l-3.5-0.5
		c-0.1,0-3-0.4-4-0.6c-9.5-2.2-18.4-6.7-25.8-13.1c0.5,4.4,1.4,8.7,2.8,12.8c0.3,1,0.7,2,1.1,3c4.9,2.2,10,4,15.3,5.2
		c1.1,0.2,4.2,1,4.3,1l3.8,1l-4-0.2c-0.1,0-3.3-0.2-4.4-0.4c-4.7-0.7-9.3-1.9-13.7-3.6C12,64.5,24.1,72.1,40.3,78.2
		C51,82,58.5,91.7,59.4,102.9c0,0,5.1-3.7,9.5-18.1C73.9,68.8,68.6,54.5,62.8,44.5z"/>
	
		<linearGradient id="XMLID_3_" gradientUnits="userSpaceOnUse" x1="153.3772" y1="561.2699" x2="136.0105" y2="561.2699" gradientTransform="matrix(0.97 0.26 -0.26 0.97 92.2551 -527.1877)">
		<stop  offset="0" style="stop-color:#E3EAE4"/>
		<stop  offset="1" style="stop-color:#CDE2D8"/>
	</linearGradient>
	<path id="XMLID_29_" class="st2" d="M87.4,65.5c4.8-3.6,6.9-7.7,8.4-12.4c0.9-2.6,1.1-5.4,0.3-8c-0.8-2.4-6.4-6.2-11.1-4.6
		c-5,1.6-6,8-6.4,10.8C78,55.6,79,62.1,81.4,68.7C81.3,68.6,83.4,68.4,87.4,65.5z"/>
	
		<linearGradient id="XMLID_4_" gradientUnits="userSpaceOnUse" x1="79.9133" y1="388.0163" x2="71.7389" y2="428.9674" gradientTransform="matrix(1 0 0 1 0 -354)">
		<stop  offset="0" style="stop-color:#9FC8A4"/>
		<stop  offset="0.27" style="stop-color:#9BC4A2"/>
		<stop  offset="0.54" style="stop-color:#8FB89D"/>
		<stop  offset="0.82" style="stop-color:#7BA494"/>
		<stop  offset="1" style="stop-color:#69938C"/>
	</linearGradient>
	<path id="XMLID_28_" class="st3" d="M78.6,51.3C79,48.6,80,42.2,85,40.5c4.2-1.4,9.2,1.5,10.7,3.9c-1.5-3.8-5.6-6.5-8.9-8.2
		c-4.8-2.4-10.3-3-15.5-1.7c-4.5,1.1-6.9,3.6-10.7,6.8c0.8,1,1.5,2.1,2.2,3.3c4.6,7.9,8.9,18.3,8.1,30.2c3-4.9,9.6-6,10.4-6.1
		C78.9,62.1,77.9,55.5,78.6,51.3z"/>
	
		<linearGradient id="XMLID_5_" gradientUnits="userSpaceOnUse" x1="86.4" y1="420.2" x2="86.4" y2="420.2" gradientTransform="matrix(1 0 0 1 0 -354)">
		<stop  offset="0" style="stop-color:#E3EAE4"/>
		<stop  offset="1" style="stop-color:#CDE2D8"/>
	</linearGradient>
	<path id="XMLID_27_" class="st4" d="M86.4,66.2L86.4,66.2L86.4,66.2z"/>
	
		<linearGradient id="XMLID_6_" gradientUnits="userSpaceOnUse" x1="96.5594" y1="409.2" x2="86.4156" y2="409.2" gradientTransform="matrix(1 0 0 1 0 -354)">
		<stop  offset="0" style="stop-color:#E3EAE4"/>
		<stop  offset="1" style="stop-color:#CDE2D8"/>
	</linearGradient>
	<path id="XMLID_26_" class="st5" d="M96.1,45.1c-0.1-0.3-0.2-0.5-0.4-0.8c0.7,1.9,0.8,4,0.1,5.9c-1.5,4.8-1.7,7-6.1,12.7
		c-0.9,1.2-2.1,2.3-3.3,3.2c0.3-0.2,0.6-0.4,1-0.7c4.8-3.6,6.9-7.7,8.4-12.4C96.7,50.6,96.8,47.8,96.1,45.1z"/>
	
		<linearGradient id="XMLID_7_" gradientUnits="userSpaceOnUse" x1="86.277" y1="421.4" x2="81.308" y2="421.4" gradientTransform="matrix(1 0 0 1 0 -354)">
		<stop  offset="0" style="stop-color:#E3EAE4"/>
		<stop  offset="1" style="stop-color:#CDE2D8"/>
	</linearGradient>
	<path id="XMLID_25_" class="st6" d="M81.3,68.6c0,0,1.7-0.2,4.9-2.4C84.8,67.3,83.1,68.1,81.3,68.6L81.3,68.6z"/>
	
		<linearGradient id="XMLID_8_" gradientUnits="userSpaceOnUse" x1="81.0611" y1="413.0412" x2="89.2427" y2="413.0412" gradientTransform="matrix(1 0 0 1 0 -354)">
		<stop  offset="0" style="stop-color:#89AE8E"/>
		<stop  offset="1" style="stop-color:#79A79F"/>
	</linearGradient>
	<path id="XMLID_24_" class="st7" d="M87,49.5c-1-0.3-2,0-2.7,0.6c-0.2,0.3-0.3,0.6-0.4,0.9c-0.4,1.6,0.5,3.3,2.1,3.7l0,0
		c0.7,0.2,1.3,0.1,2-0.1c-0.9,6.9-5.8,12.3-6.9,13.4c0.1,0.2,0.2,0.5,0.2,0.7c0.3,0,0.6-0.1,0.9-0.2c1.7-1.9,6.6-7.8,6.9-15.3
		C89.5,51.6,88.6,50,87,49.5L87,49.5z"/>
	
		<linearGradient id="XMLID_9_" gradientUnits="userSpaceOnUse" x1="63.9693" y1="469.6031" x2="46.247" y2="484.4704" gradientTransform="matrix(0.9997 2.269000e-02 -2.269000e-02 0.9997 6.4109 -368.039)">
		<stop  offset="0" style="stop-color:#9FC8A4"/>
		<stop  offset="1" style="stop-color:#8CC1B6"/>
	</linearGradient>
	<path id="XMLID_23_" class="st8" d="M35,92.7c1.4,12.5,7.4,31.3,27.5,47.3c0,0,9.9-15.2,0.4-32.1C56.7,96.6,46.6,88,34.5,83.7
		C34.3,86.7,34.5,89.7,35,92.7z"/>
	
		<linearGradient id="XMLID_10_" gradientUnits="userSpaceOnUse" x1="38.2015" y1="475.1746" x2="61.7229" y2="475.1746" gradientTransform="matrix(0.9997 2.269000e-02 -2.269000e-02 0.9997 6.4109 -368.039)">
		<stop  offset="0" style="stop-color:#9FC8A4"/>
		<stop  offset="0.25" style="stop-color:#99C2A1"/>
		<stop  offset="0.59" style="stop-color:#88B19A"/>
		<stop  offset="0.97" style="stop-color:#6B958D"/>
		<stop  offset="1" style="stop-color:#69938C"/>
	</linearGradient>
	<path id="XMLID_22_" class="st9" d="M52.9,104c-5.6-9.9-12.6-16.6-18.5-20.3c0,3,0.2,6,0.6,8.9c1.2,10.6,5.7,25.8,19.4,39.9
		C58.4,123.4,57.9,112.8,52.9,104z"/>
	
		<linearGradient id="XMLID_11_" gradientUnits="userSpaceOnUse" x1="44.598" y1="446.3312" x2="51.355" y2="438.2801" gradientTransform="matrix(1 0 0 1 0 -354)">
		<stop  offset="0" style="stop-color:#79A79F"/>
		<stop  offset="0.49" style="stop-color:#74A099"/>
		<stop  offset="1" style="stop-color:#69938C"/>
	</linearGradient>
	<path id="XMLID_21_" class="st10" d="M41.3,78.2c-2-0.8-4.9-1.6-6.7-2.4c-0.2,2.7-0.3,5.3-0.2,8c10.2,3.6,18.9,10.3,25.2,19.1
		c0-0.1,0-0.2,0-0.3C59,91.5,51.8,81.8,41.3,78.2z"/>
	
		<linearGradient id="XMLID_12_" gradientUnits="userSpaceOnUse" x1="54.8283" y1="389.1911" x2="23.3572" y2="425.0197" gradientTransform="matrix(1 0 0 1 0 -354)">
		<stop  offset="0" style="stop-color:#9FC8A4"/>
		<stop  offset="0.46" style="stop-color:#9AC6A8"/>
		<stop  offset="0.98" style="stop-color:#8DC1B5"/>
		<stop  offset="1" style="stop-color:#8CC1B6"/>
	</linearGradient>
	<path id="XMLID_20_" class="st11" d="M62.8,44.5C57,34.5,44,26.9,35.7,23.8c-8.4-3.1-17.8-10-17.8-10c-1.8-1.2-3.5-2.5-5.1-4
		c-0.4,3.8-0.6,7.6-0.4,11.5c5.1,3.8,10.8,7,16.7,9.4c1.7,0.7,6.8,2.8,6.9,2.8l6.4,2.6l-6.6-1.9c-0.2-0.1-5.5-1.6-7.2-2.2
		c-5.7-2-11-4.7-16-8.1C13,29,13.9,34.1,15.4,39c3.7,1.9,7.5,3.5,11.4,4.8c0.9,0.3,3.6,1.2,3.6,1.3l3.3,1.2l-3.5-0.5
		c-0.1,0-3-0.4-4-0.6c-3.4-0.8-6.7-1.9-9.9-3.2c1.7,4.4,4.2,8.5,7.4,12.1h0.1l3.8,1l-3.2-0.2c6.8,7.6,16.1,13.1,26,21.1
		c13.3,10.6,9.1,26.9,9.1,26.9c0.5-0.5,1-0.9,1.5-1.5c1.8-2.1,5-6.9,8-16.7C73.9,68.8,68.6,54.5,62.8,44.5z"/>
</g>
<g id="Layer_1_1_" class="st12">
	<g id="XMLID_33_" class="st13">
		<path id="XMLID_19_" class="st14" d="M125.9,90.6l-18.4-18.4c-8.4-8.4-8.4-22.1,0-30.6l0,0c8.4-8.4,22.1-8.4,30.6,0L156.5,60
			c8.4,8.4,8.4,22.1,0,30.6l0,0C148,99,134.3,99,125.9,90.6z"/>
		<path id="XMLID_18_" class="st14" d="M125.9,60.1l18.4-18.4c8.4-8.4,22.1-8.4,30.6,0l0,0c8.4,8.4,8.4,22.1,0,30.6l-18.4,18.4
			c-8.4,8.4-22.1,8.4-30.6,0l0,0C117.5,82.2,117.5,68.5,125.9,60.1z"/>
		<path id="XMLID_17_" class="st14" d="M139,103.7l-16.3-16.3c-1.2-1.2-1.2-3.1,0-4.3L139,66.7c1.2-1.2,3.1-1.2,4.3,0L159.6,83
			c1.2,1.2,1.2,3.1,0,4.3l-16.3,16.3C142.1,104.9,140.2,104.9,139,103.7z"/>
	</g>
</g>
<g id="XMLID_32_">
	<path id="XMLID_74_" class="st15" d="M128.9,72.6v1.6h-5.6v-8.3h1.9v6.7L128.9,72.6L128.9,72.6z"/>
	<path id="XMLID_76_" class="st15" d="M138.5,70c0,0.7-0.1,1.3-0.3,1.9s-0.5,1-0.9,1.4c-0.4,0.4-0.8,0.6-1.3,0.8
		c-0.5,0.2-1.1,0.3-1.6,0.3c-0.6,0-1.1-0.1-1.6-0.3c-0.5-0.2-0.9-0.5-1.3-0.8s-0.7-0.8-0.9-1.4c-0.2-0.5-0.3-1.2-0.3-1.9
		s0.1-1.3,0.3-1.9c0.2-0.5,0.5-1,0.9-1.4c0.4-0.4,0.8-0.6,1.3-0.8c0.5-0.2,1-0.3,1.6-0.3c0.6,0,1.1,0.1,1.6,0.3
		c0.5,0.2,0.9,0.5,1.3,0.8c0.4,0.4,0.7,0.8,0.9,1.4S138.5,69.3,138.5,70z M132.2,70c0,0.4,0,0.8,0.1,1.1c0.1,0.3,0.2,0.6,0.4,0.8
		c0.2,0.2,0.4,0.4,0.7,0.5c0.3,0.1,0.6,0.2,0.9,0.2s0.7-0.1,0.9-0.2c0.3-0.1,0.5-0.3,0.7-0.5s0.3-0.5,0.4-0.8
		c0.1-0.3,0.2-0.7,0.2-1.1s0-0.8-0.2-1.1c-0.1-0.3-0.2-0.6-0.4-0.9c-0.2-0.2-0.4-0.4-0.7-0.5c-0.3-0.1-0.6-0.2-0.9-0.2
		c-0.4,0-0.7,0.1-0.9,0.2c-0.3,0.1-0.5,0.3-0.7,0.6c-0.2,0.2-0.3,0.5-0.4,0.9C132.2,69.2,132.2,69.6,132.2,70z"/>
	<path id="XMLID_79_" class="st15" d="M143,74.2c-0.3-0.7-0.7-1.4-1-2.2s-0.6-1.5-0.9-2.2c-0.3-0.7-0.6-1.4-0.8-2.1
		s-0.5-1.3-0.6-1.8h2.1c0.2,0.5,0.3,1,0.5,1.6s0.4,1.1,0.6,1.7c0.2,0.6,0.4,1.1,0.6,1.6s0.4,0.9,0.5,1.3c0.2-0.4,0.3-0.8,0.5-1.3
		c0.2-0.5,0.4-1,0.6-1.6s0.4-1.1,0.6-1.7s0.4-1.1,0.5-1.6h2c-0.2,0.5-0.4,1.1-0.6,1.8c-0.2,0.7-0.5,1.4-0.8,2.1
		c-0.3,0.7-0.6,1.5-0.9,2.2c-0.3,0.8-0.6,1.5-1,2.2C144.8,74.2,143,74.2,143,74.2z"/>
	<path id="XMLID_81_" class="st15" d="M149.9,74.2v-8.3h5.6v1.6h-3.7v1.6h3.3v1.5h-3.3v2h4v1.6L149.9,74.2L149.9,74.2z"/>
	<path id="XMLID_83_" class="st15" d="M160.2,72.7c0.3,0,0.5,0,0.7-0.1c0.2-0.1,0.3-0.1,0.4-0.2c0.1-0.1,0.2-0.2,0.2-0.3
		c0-0.1,0.1-0.2,0.1-0.3c0-0.3-0.1-0.5-0.4-0.7c-0.3-0.2-0.7-0.4-1.3-0.6c-0.3-0.1-0.5-0.2-0.8-0.3s-0.5-0.3-0.7-0.5
		c-0.2-0.2-0.4-0.4-0.5-0.7c-0.1-0.3-0.2-0.6-0.2-1s0.1-0.7,0.2-1c0.1-0.3,0.3-0.6,0.6-0.8s0.6-0.4,1-0.5c0.4-0.1,0.8-0.2,1.3-0.2
		c0.6,0,1,0.1,1.5,0.2c0.4,0.1,0.7,0.3,1,0.4l-0.5,1.5c-0.2-0.1-0.5-0.2-0.8-0.3c-0.3-0.1-0.6-0.1-1-0.1c-0.4,0-0.8,0.1-1,0.2
		c-0.2,0.1-0.3,0.3-0.3,0.6c0,0.2,0,0.3,0.1,0.4c0.1,0.1,0.2,0.2,0.3,0.3c0.1,0.1,0.3,0.2,0.5,0.2c0.2,0.1,0.4,0.1,0.6,0.2
		c0.4,0.2,0.8,0.3,1.1,0.5s0.6,0.3,0.8,0.5s0.4,0.5,0.5,0.7c0.1,0.3,0.2,0.6,0.2,1c0,0.8-0.3,1.4-0.8,1.8s-1.4,0.6-2.5,0.6
		c-0.4,0-0.7,0-1-0.1c-0.3,0-0.6-0.1-0.8-0.2c-0.2-0.1-0.4-0.1-0.6-0.2s-0.3-0.1-0.4-0.2l0.5-1.5c0.2,0.1,0.6,0.3,0.9,0.4
		C159.2,72.7,159.7,72.7,160.2,72.7z"/>
</g>
<g id="XMLID_73_">
</g>
<g id="XMLID_85_">
</g>
<g id="XMLID_86_">
</g>
<g id="XMLID_87_">
</g>
<g id="XMLID_88_">
</g>
<g id="XMLID_89_">
</g>
<g id="XMLID_90_">
</g>
<g id="XMLID_91_">
</g>
<g id="XMLID_92_">
</g>
<g id="XMLID_93_">
</g>
<g id="XMLID_94_">
</g>
<g id="XMLID_95_">
</g>
<g id="XMLID_96_">
</g>
<g id="XMLID_97_">
</g>
<g id="XMLID_98_">
</g>
<g>
	<path class="st16" d="M344.6,72.5c-1.5,0,0.3,0.8,2.2,1c0.5-0.4,1-0.8,1.4-1.2C347.1,72.6,345.9,72.6,344.6,72.5"/>
	<path class="st16" d="M352.5,70.5c0.9-1.2,1.5-2.5,1.7-3.9c-0.2,1-0.7,1.8-1.2,2.7c-2.7,1.7-0.3-1,0-2.1
		C350,71,352.6,69.5,352.5,70.5"/>
	<path class="st16" d="M355.4,63c0.2-2.6-0.5-1.8-0.7-0.8C354.9,62.4,355.1,64.1,355.4,63"/>
	<path class="st16" d="M339.1,27.2c0.8,0.1,1.7,0.2,1.6,0.4C341.5,27.4,341.7,27.2,339.1,27.2"/>
	<polyline class="st16" points="340.7,27.6 340.1,27.7 340.6,27.7 340.7,27.6 	"/>
	<path class="st16" d="M364.9,64c0.1,2.4-0.7,3.5-1.4,5.5l-1.3,0.6c-1,2,0.1,1.3-0.6,2.9c-1.6,1.4-4.9,4.5-5.9,4.8
		c-0.8,0,0.5-0.9,0.7-1.2c-2.2,1.5-1.7,2.2-5,3.1l-0.1-0.2c-8.1,3.8-19.4-3.8-19.3-14.1c-0.1,0.7-0.2,0.5-0.4,0.8
		c-0.4-5.3,2.5-10.7,7.3-12.8c4.7-2.3,10.3-1.4,13.7,1.8c-1.9-2.4-5.6-5-10-4.8c-4.3,0.1-8.3,2.8-9.7,5.8c-2.2,1.4-2.5,5.4-3.4,6.1
		c-1.3,9.5,2.4,13.6,8.7,18.5c1,0.7,0.3,0.8,0.4,1.3c-2.1-1-4-2.5-5.6-4.3c0.8,1.2,1.7,2.4,2.9,3.4c-2-0.7-4.6-4.8-5.4-5
		c3.4,6.1,13.8,10.7,19.3,8.4c-2.5,0.1-5.7,0.1-8.6-1c-1.2-0.6-2.8-1.9-2.5-2.1c7.4,2.8,15.1,2.1,21.6-3.1c1.6-1.3,3.4-3.4,3.9-3.5
		c-0.8,1.2,0.1,0.6-0.5,1.6c1.6-2.6-0.7-1.1,1.7-4.5l0.9,1.2c-0.3-2.2,2.7-4.8,2.4-8.3c0.7-1.1,0.8,1.1,0,3.6c1-2.7,0.3-3.1,0.5-5.4
		c0.3,0.7,0.7,1.5,0.9,2.3c-0.7-2.6,0.7-4.4,1-5.9c-0.3-0.1-1,1.2-1.2-1.9c0-1.3,0.4-0.7,0.5-1c-0.3-0.2-1-1.2-1.4-3.1
		c0.3-0.5,0.8,1.2,1.2,1.3c-0.3-1.6-0.7-2.8-0.7-4c-1.2-2.5-0.4,0.3-1.4-1.1c-1.3-4,1.1-0.9,1.2-2.8c2,2.8,3.1,7.2,3.6,9
		c-0.4-2.2-1-4.4-1.8-6.4c0.6,0.2-1-4.5,0.8-1.4c-1.8-6.8-7.9-13.1-13.4-16.1c0.7,0.6,1.5,1.4,1.2,1.5c-2.8-1.6-2.3-1.8-2.7-2.5
		c-2.2-0.9-2.4,0.1-3.9,0c-4.2-2.2-5.1-2-9-3.4l0.2,0.8c-2.8-0.9-3.3,0.4-6.3,0c-0.2-0.1,1-0.5,1.9-0.7c-2.7,0.4-2.6-0.5-5.2,0.1
		c0.7-0.5,1.3-0.8,2-1.2c-2.2,0.1-5.3,1.3-4.3,0.2c-3.6,1.6-10,3.9-13.6,7.3l-0.1-0.8c-1.7,2-7.2,5.9-7.6,8.5l-0.4,0.1
		c-0.9,1.5-1.4,3.1-2.1,4.6c-1.1,1.9-1.6,0.7-1.5,1c-2.2,4.5-3.3,8.2-4.3,11.3c0.7,1,0,6.1,0.3,10.1c-1.1,20,14.1,39.5,30.6,44
		c2.4,0.9,6,0.8,9.1,0.9c-3.6-1-4.1-0.5-7.6-1.8c-2.5-1.2-3.1-2.6-4.9-4.1l0.7,1.3c-3.5-1.3-2.1-1.6-4.9-2.5l0.8-1
		c-1.1-0.1-3-1.9-3.6-3l-1.3,0c-1.5-1.9-2.3-3.2-2.3-4.2l-0.4,0.7c-0.5-0.8-5.6-7-2.9-5.5c-0.5-0.4-1.1-0.7-1.9-2l0.5-0.6
		c-1.3-1.6-2.3-3.7-2.3-4.4c0.7,0.9,1.1,1.1,1.6,1.2c-3.2-8-3.4-0.4-5.8-8.1l0.5,0c-0.4-0.6-0.6-1.2-1-1.9l0.2-2.2
		c-2.3-2.7-0.6-11.4-0.3-16.1c0.2-1.9,1.9-4,3.2-7.2l-0.8-0.1c1.5-2.6,8.6-10.5,11.9-10.1c1.6-2-0.3,0-0.6-0.5
		c3.5-3.6,4.6-2.6,6.9-3.2c2.5-1.5-2.2,0.6-1-0.6c4.4-1.1,3.1-2.5,8.8-3.1c0.6,0.3-1.4,0.5-1.9,1c3.7-1.8,11.6-1.4,16.7,1
		c6,2.8,12.7,11,12.9,18.8l0.3,0.1c-0.2,3.1,0.5,6.6-0.6,9.9L364.9,64"/>
	<path class="st16" d="M328.7,74.5l-0.2,1c1,1.3,1.7,2.7,2.9,3.7C330.6,77.5,329.9,76.8,328.7,74.5"/>
	<path class="st16" d="M331,74.4c-0.5-0.6-0.8-1.2-1.1-1.9c0.3,1.2,1,2.2,1.6,3.2L331,74.4"/>
	<path class="st16" d="M371.1,65.7l-0.2,0.5c-0.4,2.8-1.2,5.5-2.5,8.1C369.8,71.6,370.7,68.7,371.1,65.7"/>
	<path class="st16" d="M339.4,26.5c1-0.4,2.4-0.2,3.5-0.4c-1.4,0.1-2.7,0.2-4.1,0.4L339.4,26.5"/>
	<path class="st16" d="M304.8,44.9c0.2,2.1-1.6,2.9,0.4,1.5C306.3,44,304.8,45.7,304.8,44.9"/>
	<path class="st16" d="M302.5,54.6c0.5-1.4,0.5-2.2,0.7-3.1C301.9,53.1,302.6,53.5,302.5,54.6"/>
</g>
</svg>
