<?xml version="1.0" encoding="utf-8"?>
<!-- Generator: Adobe Illustrator 22.1.0, SVG Export Plug-In . SVG Version: 6.00 Build 0)  -->
<svg version="1.1" id="circle_of_friends__x5F__black"
	 xmlns="http://www.w3.org/2000/svg" xmlns:xlink="http://www.w3.org/1999/xlink" x="0px" y="0px" viewBox="0 0 425.2 425.2"
	 style="enable-background:new 0 0 425.2 425.2;" xml:space="preserve">
<style type="text/css">
	.st0{fill:#1D1D1B;}
</style>
<g id="g10" transform="matrix(0.33333177,0,0,-0.33333177,0,54.64042)">
	<g id="g12" transform="scale(0.1)">
		<path id="path14" inkscape:connector-curvature="0" class="st0" d="M12726-4188.1c0-134.1-108.4-242.9-242.9-242.9
			c-134.1,0-242.5,108.8-242.5,242.9c0,134.1,108.4,242.9,242.5,242.9C12617.5-3945.2,12726-4054,12726-4188.1L12726-4188.1"/>
		<path id="path16" inkscape:connector-curvature="0" class="st0" d="M2391.1-3134.1l-353.6,200.3l-712.2-1443.2L565.6-2933.7
			l-358.2-200.3l903-1696.5c-6.5-16.1-27.2-60.5-62.1-134.1c-35.2-70.1-71.7-140.2-110-210.4c-67.1-121.1-135.2-219.5-205.3-296.1
			c-70.1-79.7-141.8-143.3-215.3-191.2c-73.2-47.9-149.4-84.3-229.1-109.9c-76.6-25.3-154.8-46-234.5-62.1l162.8-339.5
			c51,6.5,119.2,22.6,205.4,47.9c89.3,22.2,186.2,65.5,291.6,129.1c105,63.6,211.9,154.4,319.9,272.4
			c111.9,118,215.3,273.9,310.7,468.2L2391.1-3134.1"/>
		<path id="path18" inkscape:connector-curvature="0" class="st0" d="M4324.4-4190.3c0-111.5-19.1-215-57.5-310.7
			c-38.3-95.4-90.8-178.5-157.5-248.3c-64-67-140.2-121.1-229.5-162.8c-86.2-37.9-180.1-57.1-282-57.1
			c-101.9,0-197.7,19.1-286.6,57.1c-89.3,41.8-167.4,95.8-234.5,162.8c-63.6,69.7-114.5,152.9-152.9,248.3
			c-38.3,95.8-57.5,199.2-57.5,310.7c0,111.5,19.2,214.9,57.5,310.6c38.3,95.5,89.3,178.3,152.9,248.4
			c67.1,70.1,145.2,124.5,234.5,162.4c88.9,41.8,184.7,62.5,286.6,62.5c101.9,0,195.8-20.7,282-62.5
			c89.3-37.9,165.5-92.3,229.5-162.4c66.6-70.1,119.1-152.9,157.5-248.4C4305.3-3975.4,4324.4-4078.9,4324.4-4190.3 M4768.8-4190.3
			c0,165.5-30.3,320.3-90.8,463.6c-57.5,143.3-138.7,267.5-243.7,372.8c-105.4,105-229.5,186.2-372.8,243.7
			c-143.3,60.5-298.1,90.8-463.6,90.8c-165.5,0-320.3-30.3-463.6-90.8c-143.3-57.5-267.8-138.7-372.8-243.7
			c-105-105.3-188.1-229.5-248.6-372.8c-60.5-143.3-90.8-298.1-90.8-463.6c0-165.5,30.3-320.3,90.8-463.6
			c60.5-140.2,143.7-262.8,248.6-367.8c105-105.4,229.5-188.1,372.8-248.7c143.3-57.5,298.1-86.2,463.6-86.2
			c165.5,0,320.3,28.7,463.6,86.2c143.3,60.6,267.4,143.3,372.8,248.7c105,105,186.2,227.6,243.7,367.8
			C4738.5-4510.7,4768.8-4355.9,4768.8-4190.3"/>
		<path id="path20" inkscape:connector-curvature="0" class="st0" d="M10611.9-4190.3c0-111.5-19.2-215-57.5-310.7
			c-38.3-95.4-90.8-178.5-157.9-248.3c-63.6-67-139.8-121.1-229.1-162.8c-86.2-37.9-180.1-57.1-282-57.1
			c-101.9,0-197.7,19.1-287,57.1c-88.9,41.8-167,95.8-234.1,162.8c-63.6,69.7-114.6,152.9-152.9,248.3
			c-38.3,95.8-57.5,199.2-57.5,310.7c0,111.5,19.2,214.9,57.5,310.6c38.3,95.5,89.3,178.3,152.9,248.4
			c67.1,70.1,145.2,124.5,234.1,162.4c89.3,41.8,185,62.5,287,62.5c101.9,0,195.8-20.7,282-62.5c89.3-37.9,165.5-92.3,229.1-162.4
			c67.1-70.1,119.5-152.9,157.9-248.4C10592.7-3975.4,10611.9-4078.9,10611.9-4190.3 M11056.3-4190.3c0,165.5-30.3,320.3-90.8,463.6
			c-57.5,143.3-138.7,267.5-243.6,372.8c-105.4,105-229.5,186.2-372.8,243.7c-143.3,60.5-298.1,90.8-463.6,90.8
			c-165.9,0-320.3-30.3-463.6-90.8c-143.3-57.5-267.8-138.7-372.8-243.7c-105-105.3-188.1-229.5-248.7-372.8
			c-60.5-143.3-90.8-298.1-90.8-463.6c0-165.5,30.3-320.3,90.8-463.6c60.5-140.2,143.7-262.8,248.7-367.8
			c105-105.4,229.5-188.1,372.8-248.7c143.3-57.5,297.7-86.2,463.6-86.2c165.5,0,320.3,28.7,463.6,86.2
			c143.3,60.6,267.4,143.3,372.8,248.7c105,105,186.2,227.6,243.6,367.8C11026-4510.7,11056.3-4355.9,11056.3-4190.3"/>
		<path id="path22" inkscape:connector-curvature="0" class="st0" d="M7905.1-2296.6l-425.7-239v-522.7H6328.5
			c-831,0-1331.7-404.9-1331.7-1142.4c0-1145.5,1193.4-1361.6,2042.1-952.1l-178.9,347.1c-671.6-293.4-1415.3-168.6-1415.3,612.6
			c0,504.2,262.5,780.1,873.5,780.1h1161.3v-1392.7c0-615.7,705.3-629.5,1142.5-377l-168.2,332.2
			c-281.2-142.5-548.6-160.9-548.6,112.2V-3413h582.3v354.7h-582.3L7905.1-2296.6L7905.1-2296.6"/>
		<path id="path24" inkscape:connector-curvature="0" class="st0" d="M3097.6-6419h106.5c53.7,0.4,106.1-37.9,106.1-92.3
			c0-91.2-102.7-105-102.7-105l-110-0.7V-6419z M2944-6288.8V-7093h153.6l1.9,339.1c273.9-17.2,376.2,78.1,376.2,246.3
			c0,151-135.3,218.8-265.1,218.8H2944L2944-6288.8"/>
		<path id="path26" inkscape:connector-curvature="0" class="st0" d="M5881.4-6691.4c0-39.1-7.3-75.9-21.9-110
			c-13.4-32.9-32.6-62-57.5-87c-24.9-24.9-54-44.4-87.4-59c-32.9-13.4-68.9-20.3-107.3-20.3c-38.7,0-74.7,6.9-107.7,20.3
			c-33.3,14.6-62.5,34.1-87.4,59c-24.1,24.9-43.3,54-57.5,87c-14.5,34.1-21.8,70.9-21.8,110c0,39.1,7.3,75.5,21.8,108.8
			c14.2,33.7,33.4,63.2,57.5,88.1c24.9,24.8,54,44.1,87.4,57.8c32.9,14.2,69,21.4,107.7,21.4c38.3,0,74.3-7.3,107.3-21.4
			c33.4-13.8,62.5-33,87.4-57.8c24.9-24.9,44.1-54.4,57.5-88.1C5874.1-6615.9,5881.4-6652.3,5881.4-6691.4 M6037.4-6691.4
			c0,57.5-11.1,111.1-33.7,160.9c-21.9,50.6-52.5,94.3-92,131c-38.3,37.2-83.9,66.3-136.8,87.4c-52.1,21.9-108.4,33-168.6,33
			c-60.5,0-117.2-11.1-170.1-33c-52.1-21.1-97.3-50.2-135.6-87.4c-38.7-36.8-68.9-80.4-91.9-131c-21.9-49.8-32.6-103.4-32.6-160.9
			c0-58.3,10.7-112.3,32.6-162.1c23-49.8,53.2-93.5,91.9-131c38.3-37.2,83.5-66.3,135.6-87.4c52.9-21.1,109.6-31.8,170.1-31.8
			c60.2,0,116.5,10.7,168.6,31.8c52.9,21.1,98.5,50.2,136.8,87.4c39.5,37.5,70.1,81.2,92,131
			C6026.2-6803.7,6037.4-6749.7,6037.4-6691.4"/>
		<path id="path28" inkscape:connector-curvature="0" class="st0" d="M6664.5-6290.2v-609.6c0-24.5-18-51.7-47.9-52.5l-47.9-1.9
			l2.7-149.4l44.8-0.7c150.2-2.3,202.3,139,202.3,205v608"/>
		<path id="path30" inkscape:connector-curvature="0" class="st0" d="M7973.3-6288.4h-512.7v-801.5h514.9l-2.3,129.1h-358.6v209.2
			h300v129.1h-300v202.7H7971L7973.3-6288.4"/>
		<path id="path32" inkscape:connector-curvature="0" class="st0" d="M9155.2-6480.7c-262.4,144.1-521,56.7-521-207.3
			c0-212.7,204.2-376.2,540.2-200.4l48.7-131.4c-322.6-177.4-747.1-51-747.1,331.8c0,346.7,376.6,527.2,742.5,337.2L9155.2-6480.7"
			/>
		<path id="path34" inkscape:connector-curvature="0" class="st0" d="M10384.7-6288.4l0.4-131.4h-255.9v-672.4h-154v672.4h-245.5
			l3.4,131.4H10384.7"/>
		<path id="path36" inkscape:connector-curvature="0" class="st0" d="M4238.2-6419h106.5c53.7,0.4,106.1-37.9,106.1-92.3
			c0-91.2-102.7-105-102.7-105l-110-0.7V-6419z M4084.9-6288.8V-7093h153.3v346h101.6l177.7-346h174.7l-211.9,387.8
			c83.9,37.5,127.6,103.5,127.6,197.6c0,157.1-137.5,218.8-288.9,218.8H4084.9L4084.9-6288.8"/>
	</g>
</g>
</svg>
