<?xml version="1.0" encoding="utf-8"?>
<!-- Generator: Adobe Illustrator 22.1.0, SVG Export Plug-In . SVG Version: 6.00 Build 0)  -->
<svg version="1.1" id="Ebene_1" xmlns="http://www.w3.org/2000/svg" xmlns:xlink="http://www.w3.org/1999/xlink" x="0px" y="0px"
	 viewBox="0 0 512 512" style="enable-background:new 0 0 512 512;" xml:space="preserve">
<title>ionicons-v5_logos</title>
<g>
	<path d="M293.3,267.8c-7.5,0.1,1.4,3.8,11.1,5.3c2.7-2.1,5.1-4.2,7.2-6.3C305.6,268.3,299.4,268.3,293.3,267.8"/>
	<path d="M333.2,257.8c4.4-6.2,7.7-12.8,8.8-19.7c-1,5-3.7,9.2-6.2,13.7c-14,8.8-1.3-5.2,0-10.5
		C320.7,260.1,333.7,252.5,333.2,257.8"/>
	<path d="M347.9,219.4c0.9-13.4-2.6-9.2-3.8-4C345.4,216.1,346.6,224.8,347.9,219.4"/>
	<path d="M265,36.3c4,0.8,8.5,1.3,7.9,2.2C277.2,37.6,278.2,36.7,265,36.3"/>
	<path d="M272.9,38.5l-2.8,0.5l2.6-0.2L272.9,38.5"/>
	<path d="M396.8,224.5c0.4,12-3.6,17.9-7.1,28.2l-6.4,3.2c-5.3,10.2,0.5,6.5-3.2,14.6c-8.2,7.4-24.9,22.8-30.3,24.2
		c-3.9-0.1,2.6-4.7,3.5-6.4c-11,7.6-8.9,11.4-25.6,15.9l-0.5-1.1c-41.4,19.5-99.1-19.1-98.3-71.9c-0.4,3.4-1.3,2.5-2.2,3.9
		c-2.2-27.2,12.5-54.4,37.3-65.6c24.2-12,52.6-7,70,9.1c-9.5-12.4-28.5-25.7-51-24.4c-22.1,0.3-42.6,14.4-49.4,29.5
		c-11.3,7.1-12.5,27.4-17.5,31c-6.6,48.6,12.4,69.6,44.7,94.3c5.1,3.5,1.4,3.9,2.2,6.5c-10.7-5-20.6-12.5-28.6-21.9
		c4.3,6.3,8.9,12.3,14.8,17.1c-10.1-3.5-23.6-24.4-27.5-25.3c17.4,31.2,70.6,54.6,98.4,42.9c-12.9,0.4-29.3,0.2-43.7-5.1
		c-6.1-3.1-14.4-9.6-12.9-10.8c38,14.2,77.2,10.7,110.1-15.6c8.3-6.5,17.5-17.6,20.1-17.7c-4,6,0.6,2.9-2.4,8.1
		c8.3-13.4-3.6-5.5,8.7-23.3l4.5,6.3c-1.7-11.1,13.8-24.7,12.3-42.4c3.6-5.4,4,5.8,0.2,18.3c5.3-13.7,1.4-16,2.7-27.4
		c1.5,3.8,3.4,7.9,4.3,11.9c-3.5-13.3,3.5-22.4,5.2-30.2c-1.7-0.8-5.3,5.8-6.1-9.8c0.1-6.8,1.9-3.6,2.6-5.3c-1.3-0.8-4.9-6.1-7-16
		c1.5-2.4,4.1,6.2,6.3,6.5c-1.4-8-3.7-14.1-3.8-20.2c-6.2-12.9-2.2,1.7-7.1-5.5c-6.6-20.4,5.4-4.8,6.3-14.1
		c10,14.4,15.6,36.8,18.3,46c-1.9-11.3-5.2-22.2-9.1-32.8c3,1.3-4.9-23.3,3.9-7c-9.4-34.6-40.2-66.9-68.6-82
		c3.5,3.1,7.9,7.1,6.3,7.8c-14.1-8.4-11.6-9.1-13.6-12.5c-11.5-4.7-12.2,0.3-19.9,0c-21.6-11.5-25.9-10.3-45.8-17.4l0.9,4.2
		c-14.4-4.8-16.7,1.8-32.2,0c-1-0.8,5-2.7,9.8-3.4c-13.8,1.8-13.2-2.7-26.8,0.5c3.4-2.4,6.9-3.9,10.5-6c-11.4,0.6-27,6.6-22.2,1.2
		c-18.5,8.2-51.3,19.8-69.6,37l-0.5-3.9c-8.4,10.1-36.8,30.2-38.9,43.3l-2.3,0.5c-4.4,7.5-7.2,15.8-10.7,23.5
		c-5.7,9.7-8.4,3.8-7.6,5.3c-11.3,22.8-16.9,42.1-21.7,57.9c3.5,5.2,0.1,31,1.4,51.7c-5.6,102.2,71.8,201.5,156.4,224.5
		c12.4,4.4,30.8,4.2,46.5,4.8c-18.5-5.3-20.9-2.8-38.9-9.1c-13-6.2-15.9-13.1-25.1-21.1l3.7,6.5c-18.1-6.4-10.5-7.9-25.2-12.5
		l3.9-5.1c-5.8-0.4-15.5-9.8-18.2-15.1l-6.4,0.2c-7.7-9.5-11.8-16.3-11.5-21.6l-2.1,3.7c-2.4-4-28.3-35.6-14.8-28.2
		c-2.5-2.3-5.8-3.7-9.4-10.3l2.7-3.1c-6.5-8.3-11.9-19-11.6-22.6c3.5,4.7,5.8,5.5,8.2,6.4c-16.3-40.7-17.3-2.3-29.8-41.3l2.6-0.2
		c-2.1-3-3.2-6.3-4.9-9.5l1.2-11.4c-11.8-13.6-3.2-58-1.6-82.3c1.2-9.8,9.8-20.4,16.4-36.9l-4-0.6c7.7-13.4,43.8-53.8,60.6-51.7
		c8.1-10.2-1.6,0-3.2-2.6c17.9-18.4,23.4-13,35.5-16.3c13-7.7-11.1,3-5-2.9c22.4-5.7,15.9-13,45.1-15.9c3.1,1.7-7.1,2.7-9.7,5
		c18.7-9.1,59.1-7,85.4,5.1c30.5,14.3,64.7,56.4,66.1,96l1.5,0.4c-0.8,15.8,2.4,34-3.1,50.6L396.8,224.5"/>
	<path d="M212,277.9l-1.1,5.2c4.9,6.6,8.8,13.8,15,19C221.5,293.4,218.2,289.8,212,277.9"/>
	<path d="M223.6,277.5c-2.6-2.8-4.1-6.3-5.8-9.7c1.6,6.1,5,11.3,8.1,16.4L223.6,277.5"/>
	<path d="M428.2,233l-1.1,2.7c-2.1,14.3-6.4,28.3-13,41.3C421.3,263.3,426.1,248.3,428.2,233"/>
	<path d="M266.4,32.7c5-1.8,12.3-1,17.7-2.3c-6.9,0.5-13.8,1-20.7,1.8L266.4,32.7"/>
	<path d="M89.9,126.6c1.2,10.7-8.1,14.9,2.1,7.8C97.3,122.3,89.8,131.1,89.9,126.6"/>
	<path d="M78,176.4c2.4-7.1,2.7-11.5,3.7-15.6C75.2,169,78.6,170.7,78,176.4"/>
</g>
</svg>
