<?xml version="1.0" encoding="utf-8"?>
<!-- Generator: Adobe Illustrator 22.1.0, SVG Export Plug-In . SVG Version: 6.00 Build 0)  -->
<svg version="1.1" id="Ebene_1" xmlns="http://www.w3.org/2000/svg" xmlns:xlink="http://www.w3.org/1999/xlink" x="0px" y="0px"
	 viewBox="0 0 512 512" style="enable-background:new 0 0 512 512;" xml:space="preserve">
<style type="text/css">
	.st0{fill:#FFFFFF;}
</style>
<title>ionicons-v5_logos</title>
<g>
	<path d="M453.5,254.6c0,108.8-88.1,196.9-196.9,196.9S59.7,363.4,59.7,254.6S147.9,57.7,256.6,57.7
		C365.4,57.7,453.5,145.8,453.5,254.6z"/>
	<path class="st0" d="M154.4,254.6c0,14-11.4,25.3-25.3,25.3s-25.3-11.4-25.3-25.3c0-14,11.4-25.3,25.3-25.3
		C143,229.3,154.4,240.6,154.4,254.6z M298.5,377.7c7,12.1,22.5,16.2,34.5,9.3c12.1-7,16.2-22.5,9.3-34.6
		c-7-12.1-22.5-16.2-34.5-9.3C295.6,350.1,291.5,365.6,298.5,377.7z M342.3,156.8c7-12.1,2.8-27.6-9.3-34.5
		c-12.1-7-27.6-2.8-34.5,9.3c-7,12.1-2.8,27.6,9.3,34.5C319.8,173.1,335.3,168.9,342.3,156.8z M256.6,182.4
		c37.8,0,68.7,28.9,71.9,65.8l36.7-0.5c-1.7-27.4-13.6-52.1-31.9-70.3c-9.7,3.8-21,3.2-30.6-2.4c-9.7-5.6-15.8-15.2-17.4-25.4
		c-9.1-2.5-18.7-3.8-28.6-3.8c-17.3,0-33.7,4-48.3,11.3l17.9,32C235.4,184.8,245.8,182.4,256.6,182.4z M184.4,254.6
		c0-24.5,12.1-46,30.7-59.1l-18.8-31.4c-21.8,14.5-38,36.8-44.9,62.8c8.1,6.5,13.3,16.6,13.3,27.7c0,11.3-5.2,21.2-13.3,27.7
		c6.8,26,23.1,48.2,44.9,62.8l18.8-31.5C196.5,300.6,184.4,279.1,184.4,254.6z M256.6,326.8c-10.8,0-21.2-2.4-30.4-6.7l-17.9,32
		c14.5,7.3,31,11.3,48.3,11.3c9.9,0,19.5-1.3,28.6-3.8c1.6-10.3,7.7-19.8,17.4-25.4c9.7-5.6,21-6.2,30.6-2.4
		c18.3-18.2,30.2-42.9,31.9-70.3l-36.7-0.5C325.3,297.9,294.4,326.8,256.6,326.8z"/>
</g>
</svg>
