<?xml version="1.0" encoding="utf-8"?>
<!-- Generator: Adobe Illustrator 22.1.0, SVG Export Plug-In . SVG Version: 6.00 Build 0)  -->
<svg version="1.1" id="Ebene_1" xmlns="http://www.w3.org/2000/svg" xmlns:xlink="http://www.w3.org/1999/xlink" x="0px" y="0px"
	 viewBox="0 0 512 512" style="enable-background:new 0 0 512 512;" xml:space="preserve">
<title>ionicons-v5_logos</title>
<g>
	<path d="M395.9,236.3l-3-5.4c0.1-39.1-17.8-55-38.6-67.1c6.3-1.7,12.8-3.1,14.6-11.1c10.8-2.8,13.1-7.9,14.1-13.3
		c2.8-1.9,12.3-7.3,11.3-16.5c5.3-3.7,8.2-8.5,6.8-15.3c5.7-6.3,7.2-11.5,4.8-16.3c6.9-8.6,3.8-13.1,0.9-17.7
		c5.1-9.5,0.6-19.6-13.7-17.9c-5.7-8.5-18.1-6.6-20.1-6.6c-2.2-2.7-5-5.1-13.7-4c-5.6-5.1-12-4.3-18.5-1.8
		c-7.7-6.1-12.9-1.2-18.7,0.6c-9.4-3-11.5,1.1-16.1,2.8c-10.2-2.2-13.3,2.5-18.2,7.5l-5.7-0.1c-15.6,9.2-23.3,27.7-26,37.1
		c-2.7-9.6-10.4-28.1-25.8-37.1l-5.7,0.1c-4.9-5-8-9.7-18.2-7.5c-4.6-1.7-6.8-5.9-16.1-2.8c-3.8-1.2-7.4-3.7-11.5-3.6
		c-2.2,0.1-4.6,0.8-7.2,3c-6.6-2.5-12.9-3.4-18.5,1.8c-8.7-1.1-11.5,1.2-13.7,4c-1.9,0-14.4-2-20.1,6.6
		c-14.4-1.7-18.8,8.4-13.7,17.9c-2.9,4.6-5.9,9.1,0.9,17.7c-2.4,4.8-0.9,10,4.8,16.3c-1.5,6.8,1.5,11.5,6.8,15.3
		c-1,9.3,8.5,14.7,11.3,16.5c1,5.4,3.3,10.5,14.1,13.3c1.8,8,8.3,9.5,14.6,11.1c-20.8,12.1-38.7,28-38.6,67.1l-3,5.4
		c-23.9,14.6-45.4,61.2-11.8,99.1c2.2,11.9,5.8,20.4,9.2,29.9c4.9,38.1,36.9,55.9,45.4,57.9c12.4,9.5,25.5,18.3,43.4,24.7
		c16.7,17.4,35,23.9,53.3,23.9c0.3,0,0.5,0,0.8,0c18.3,0,36.5-6.6,53.3-23.9c17.8-6.2,31-15.2,43.4-24.7
		c8.4-2.1,40.5-19.9,45.4-57.9c3.3-9.5,7-18,9.2-29.9C441.3,297.5,419.7,250.9,395.9,236.3z M374.2,229.5
		c-1.2,15.7-82.1-54.8-68.1-57.1C343.9,166,375.4,188.5,374.2,229.5z M285.2,65c0.7,3.5,1.5,5.8,2.4,6.4c4.5-4.9,8.1-9.9,13.9-14.6
		c0,2.7-1.4,5.7,2.1,7.9c3.1-4.3,7.4-8,12.9-11.2c-2.7,4.8-0.5,6.1,0.9,8.1c4.3-3.6,8.3-7.4,16.1-10.3c-2.2,2.7-5.2,5.3-2,8.3
		c4.4-2.7,8.7-5.5,19.1-7.5c-2.4,2.6-7.2,5.3-4.3,7.9c5.5-2.1,11.5-3.6,18.3-4.6c-3.2,2.7-5.8,5.3-3.2,7.4c5.9-1.9,14-4.3,21.9-2.2
		l-5,5.1c-0.5,0.6,11.8,0.5,19.9,0.6c-2.9,4.2-5.9,8.2-7.7,15.4c0.8,0.8,4.9,0.4,8.6,0c-3.8,8.3-10.6,10.4-12.2,13.9
		c2.4,1.8,5.6,1.4,9.3,0.1c-2.8,5.8-8.6,9.8-13.3,14.6c1.2,0.8,3.2,1.4,8.1,0.7c-4.3,4.6-9.5,8.8-15.6,12.6c1.1,1.4,4.9,1.2,8.3,1.4
		c-5.5,5.5-12.7,8.3-19.3,12c3.3,2.3,5.7,1.8,8.3,1.8c-4.8,4-12.8,6-20.3,8.4c1.5,2.3,2.9,2.9,5.9,3.5c-7.9,4.5-19.2,2.4-22.5,4.7
		c0.7,2.2,2.9,3.6,5.5,4.9c-12.8,0.7-47.6-0.5-54.3-27.3c13.1-14.6,36.8-31.6,77.8-52.7c-31.9,10.8-60.6,25.2-84.9,45
		C251.9,112.1,271.4,78.4,285.2,65z M255.8,161.5c20.1-0.2,44.9,15,44.8,29.2c-0.1,12.7-17.5,22.9-44.6,22.7
		c-26.6-0.3-44.6-12.8-44.5-25.1C211.5,178.3,233.2,160.9,255.8,161.5z M154.4,150.8c3-0.6,4.5-1.2,5.9-3.5
		c-7.5-2.4-15.5-4.5-20.3-8.4c2.6,0,5,0.5,8.3-1.8c-6.7-3.6-13.8-6.4-19.3-12c3.4-0.1,7.2,0,8.3-1.4c-6.1-3.7-11.3-8-15.6-12.6
		c4.9,0.6,6.9,0.1,8.1-0.7c-4.7-4.8-10.5-8.7-13.3-14.6c3.6,1.2,6.9,1.7,9.3-0.1c-1.6-3.5-8.3-5.6-12.2-13.9c3.7,0.4,7.8,0.8,8.6,0
		c-1.8-7.2-4.8-11.2-7.7-15.4c8.1-0.1,20.4,0,19.9-0.6l-5-5.1c7.9-2.1,16,0.3,21.9,2.2c2.6-2.1,0-4.7-3.2-7.4
		c6.8,0.9,12.8,2.5,18.3,4.6c2.9-2.6-1.9-5.3-4.3-7.9c10.4,2,14.8,4.8,19.1,7.5c3.2-3,0.2-5.6-2-8.3c7.8,2.9,11.9,6.7,16.1,10.3
		c1.5-2,3.6-3.3,0.9-8.1c5.5,3.2,9.8,7,12.9,11.2c3.4-2.2,2.1-5.2,2.1-7.9c5.8,4.7,9.5,9.7,13.9,14.6c0.9-0.6,1.7-2.9,2.4-6.4
		c13.8,13.4,33.3,47.1,5,60.4c-24.2-19.9-53.1-34.2-84.9-45c41,21.1,64.7,38.2,77.8,52.7c-6.7,26.7-41.5,28-54.3,27.3
		c2.6-1.2,4.8-2.7,5.5-4.9C173.6,153.2,162.3,155.3,154.4,150.8z M201.5,171.1c13.9,2.4-66.9,72.9-68.1,57.1
		C132.1,187.2,163.6,164.8,201.5,171.1z M116.6,328.3c-19.7-15.7-26-62,10.4-82.8C149,239.6,134.4,336.3,116.6,328.3z M193.2,411.1
		c-11,6.7-38,4-57.1-23.5c-12.9-23.1-11.2-46.5-2.2-53.4c13.5-8.2,34.4,2.9,50.6,21.5C198.5,372.6,204.8,402.4,193.2,411.1z
		 M171.4,310.4c-20.3-13.3-24-43.5-8.2-67.4c15.8-23.9,45-32.6,65.4-19.2c20.3,13.3,24,43.5,8.2,67.4
		C221,315.1,191.8,323.6,171.4,310.4z M255.9,458.2c-24.3,1-48.3-20-48-27.3c-0.3-10.7,29.6-19,49.3-18.5
		c19.7-0.8,46.2,6.3,46.2,15.9C303.7,437.6,279.5,458.6,255.9,458.2z M257,398.2c-27,0-49-20.3-49-45.3c0-25,21.9-45.3,49-45.3
		c27,0,49,20.3,49,45.3C306,377.9,284.1,398.2,257,398.2z M275.2,288.8c-15.8-23.9-12.1-54.1,8.2-67.4s49.6-4.8,65.4,19.2
		c15.8,23.9,12.1,54.1-8.2,67.4C320.3,321.2,291.1,312.7,275.2,288.8z M374.6,388.9c-21,29.1-49.4,30.3-60,22.2
		c-11-10.4-2.6-42.9,12.6-60.6c17.4-19.7,36-32.5,48.9-22.5C384.7,336.7,389.9,369.4,374.6,388.9z M391,327
		c-17.8,8-32.4-88.7-10.4-82.8C417,265,410.7,311.3,391,327z"/>
</g>
</svg>
