<?xml version="1.0" encoding="utf-8"?>
<!-- Generator: Adobe Illustrator 22.1.0, SVG Export Plug-In . SVG Version: 6.00 Build 0)  -->
<svg version="1.1" id="Ebene_1" xmlns="http://www.w3.org/2000/svg" xmlns:xlink="http://www.w3.org/1999/xlink" x="0px" y="0px"
	 viewBox="0 0 512 512" style="enable-background:new 0 0 512 512;" xml:space="preserve">
<style type="text/css">
	.st0{fill:#1D1D1B;}
	.st1{fill:#FFFFFF;}
</style>
<title>ionicons-v5-a</title>
<g>
	<path class="st0" d="M461.3,151.5c-4.9-18.4-19.4-32.9-37.8-37.8c-33.4-8.9-167.2-8.9-167.2-8.9s-133.8,0-167.2,8.9
		c-18.4,4.9-32.9,19.4-37.8,37.8c-8.9,33.4-8.9,103-8.9,103s0,69.6,8.9,103c4.9,18.4,19.4,32.9,37.8,37.8
		c33.4,8.9,167.2,8.9,167.2,8.9s133.8,0,167.2-8.9c18.4-4.9,32.9-19.4,37.8-37.8c8.9-33.4,8.9-103,8.9-103S470.3,184.9,461.3,151.5z
		"/>
	<polygon class="st1" points="213.5,318.8 324.7,254.6 213.5,190.4 	"/>
</g>
</svg>
