<?xml version="1.0" encoding="utf-8"?>
<!-- Generator: Adobe Illustrator 22.1.0, SVG Export Plug-In . SVG Version: 6.00 Build 0)  -->
<svg version="1.1" id="Ebene_1" xmlns="http://www.w3.org/2000/svg" xmlns:xlink="http://www.w3.org/1999/xlink" x="0px" y="0px"
	 viewBox="0 0 448 512" style="enable-background:new 0 0 448 512;" xml:space="preserve">
<style type="text/css">
	.st0{fill:#666666;}
</style>
<path class="st0" d="M225.9,32C103.3,32,0,130.5,0,252.1C0,256,0.1,480,0.1,480l225.8-0.2c122.7,0,222.1-102.3,222.1-223.9
	S348.6,32,225.9,32z M224,384c-19.4,0-37.9-4.3-54.4-12.1L88.5,392l22.9-75c-9.8-18.1-15.4-38.9-15.4-61c0-70.7,57.3-128,128-128
	s128,57.3,128,128S294.7,384,224,384z"/>
</svg>
