<?xml version="1.0" encoding="UTF-8" standalone="no"?>
<!-- Created with Inkscape (http://www.inkscape.org/) -->

<svg
   xmlns:dc="http://purl.org/dc/elements/1.1/"
   xmlns:cc="http://creativecommons.org/ns#"
   xmlns:rdf="http://www.w3.org/1999/02/22-rdf-syntax-ns#"
   xmlns:svg="http://www.w3.org/2000/svg"
   xmlns="http://www.w3.org/2000/svg"
   xmlns:sodipodi="http://sodipodi.sourceforge.net/DTD/sodipodi-0.dtd"
   xmlns:inkscape="http://www.inkscape.org/namespaces/inkscape"
   width="42.607151mm"
   height="41.554924mm"
   viewBox="0 0 42.607151 41.554924"
   version="1.1"
   id="svg1623"
   inkscape:version="0.92.4 (5da689c313, 2019-01-14)"
   sodipodi:docname="github.svg">
  <defs
     id="defs1617" />
  <sodipodi:namedview
     id="base"
     pagecolor="#ffffff"
     bordercolor="#666666"
     borderopacity="1.0"
     inkscape:pageopacity="0.0"
     inkscape:pageshadow="2"
     inkscape:zoom="0.35"
     inkscape:cx="-887.53678"
     inkscape:cy="699.91511"
     inkscape:document-units="mm"
     inkscape:current-layer="layer1"
     showgrid="false"
     fit-margin-top="0"
     fit-margin-left="0"
     fit-margin-right="0"
     fit-margin-bottom="0"
     inkscape:window-width="2792"
     inkscape:window-height="1698"
     inkscape:window-x="88"
     inkscape:window-y="44"
     inkscape:window-maximized="1" />
  <metadata
     id="metadata1620">
    <rdf:RDF>
      <cc:Work
         rdf:about="">
        <dc:format>image/svg+xml</dc:format>
        <dc:type
           rdf:resource="http://purl.org/dc/dcmitype/StillImage" />
        <dc:title></dc:title>
      </cc:Work>
    </rdf:RDF>
  </metadata>
  <g
     inkscape:label="Layer 1"
     inkscape:groupmode="layer"
     id="layer1"
     transform="translate(-130.50601,-292.46428)">
    <path
       inkscape:connector-curvature="0"
       id="path28"
       style="fill:#1b1817;fill-opacity:1;fill-rule:evenodd;stroke:none;stroke-width:0.35277775"
       d="m 151.80955,292.46428 c -11.76408,0 -21.30354,9.53735 -21.30354,21.30354 0,9.41211 6.10411,17.39759 14.56866,20.21452 1.06469,0.19721 1.45556,-0.46214 1.45556,-1.02482 0,-0.50764 -0.0198,-2.18616 -0.0289,-3.96628 -5.92666,1.2887 -7.17726,-2.51354 -7.17726,-2.51354 -0.96908,-2.46203 -2.36538,-3.11714 -2.36538,-3.11714 -1.93287,-1.32221 0.1457,-1.29505 0.1457,-1.29505 2.13925,0.15028 3.26566,2.19569 3.26566,2.19569 1.90007,3.25649 4.9837,2.31493 6.19937,1.77059 0.19156,-1.37654 0.7433,-2.31669 1.35255,-2.84868 -4.73181,-0.53834 -9.70598,-2.36538 -9.70598,-10.5283 0,-2.32551 0.83221,-4.22628 2.19499,-5.71817 -0.22119,-0.53658 -0.95039,-2.70334 0.20672,-5.63775 0,0 1.78894,-0.5722 5.85964,2.18405 1.69933,-0.47202 3.52178,-0.70873 5.33224,-0.7172 1.81045,0.008 3.63432,0.24518 5.33682,0.7172 4.06612,-2.75625 5.85259,-2.18405 5.85259,-2.18405 1.15957,2.93441 0.43038,5.10117 0.20919,5.63775 1.36596,1.49189 2.19216,3.39266 2.19216,5.71817 0,8.18268 -4.98369,9.98396 -9.72749,10.51137 0.76412,0.6611 1.44498,1.95756 1.44498,3.94511 0,2.85044 -0.0243,5.14456 -0.0243,5.84623 0,0.56727 0.38311,1.2312 1.46297,1.02235 8.46031,-2.8201 14.55666,-10.80276 14.55666,-20.21205 0,-11.76619 -9.53805,-21.30354 -21.30354,-21.30354" />
    <path
       inkscape:connector-curvature="0"
       id="path32"
       style="fill:#1b1817;fill-opacity:1;fill-rule:nonzero;stroke:none;stroke-width:0.35277775"
       d="m 138.57488,323.05124 c -0.0469,0.10619 -0.21343,0.13794 -0.36512,0.0653 -0.15487,-0.0699 -0.2413,-0.21414 -0.19121,-0.32033 0.0459,-0.10865 0.21237,-0.13899 0.36689,-0.0663 0.15452,0.0695 0.24271,0.2152 0.18944,0.32138" />
    <path
       inkscape:connector-curvature="0"
       id="path36"
       style="fill:#1b1817;fill-opacity:1;fill-rule:nonzero;stroke:none;stroke-width:0.35277775"
       d="m 139.43788,324.01379 c -0.1016,0.0942 -0.30056,0.0504 -0.43497,-0.0984 -0.1397,-0.14852 -0.16545,-0.34749 -0.0624,-0.44274 0.10477,-0.0942 0.29739,-0.0501 0.43674,0.0984 0.1397,0.15028 0.16686,0.34713 0.0607,0.44273" />
    <path
       inkscape:connector-curvature="0"
       id="path40"
       style="fill:#1b1817;fill-opacity:1;fill-rule:nonzero;stroke:none;stroke-width:0.35277775"
       d="m 140.27781,325.24058 c -0.13053,0.091 -0.34431,0.006 -0.47625,-0.18344 -0.13053,-0.1898 -0.13053,-0.41699 0.003,-0.508 0.13194,-0.091 0.34255,-0.009 0.47625,0.17885 0.13018,0.19262 0.13018,0.41981 -0.003,0.51259" />
    <path
       inkscape:connector-curvature="0"
       id="path44"
       style="fill:#1b1817;fill-opacity:1;fill-rule:nonzero;stroke:none;stroke-width:0.35277775"
       d="m 141.42847,326.42605 c -0.11677,0.12877 -0.36548,0.0942 -0.54751,-0.0818 -0.18627,-0.17145 -0.23813,-0.41522 -0.12136,-0.54398 0.11853,-0.12912 0.36865,-0.0928 0.5521,0.0815 0.18485,0.17145 0.24094,0.41698 0.11677,0.54433" />
    <path
       inkscape:connector-curvature="0"
       id="path48"
       style="fill:#1b1817;fill-opacity:1;fill-rule:nonzero;stroke:none;stroke-width:0.35277775"
       d="m 143.01597,327.11436 c -0.0519,0.16686 -0.29104,0.24236 -0.53234,0.17145 -0.24095,-0.073 -0.39864,-0.26811 -0.34996,-0.43674 0.0501,-0.16792 0.29069,-0.24694 0.53375,-0.1711 0.2406,0.0727 0.39864,0.2667 0.34855,0.43639" />
    <path
       inkscape:connector-curvature="0"
       id="path52"
       style="fill:#1b1817;fill-opacity:1;fill-rule:nonzero;stroke:none;stroke-width:0.35277775"
       d="m 144.75954,327.24185 c 0.006,0.17569 -0.19862,0.32138 -0.45191,0.32456 -0.25471,0.006 -0.46108,-0.13653 -0.46391,-0.30939 0,-0.17745 0.20038,-0.32138 0.45474,-0.32596 0.25329,-0.005 0.46108,0.13652 0.46108,0.31079" />
    <path
       inkscape:connector-curvature="0"
       id="path56"
       style="fill:#1b1817;fill-opacity:1;fill-rule:nonzero;stroke:none;stroke-width:0.35277775"
       d="m 146.38182,326.96588 c 0.0303,0.17109 -0.1457,0.34713 -0.39723,0.39405 -0.2473,0.0455 -0.47625,-0.0607 -0.50765,-0.23037 -0.0307,-0.17568 0.14817,-0.35172 0.39547,-0.39722 0.25188,-0.0438 0.47731,0.0593 0.50941,0.23354" />
  </g>
</svg>
